<svg xmlns="http://www.w3.org/2000/svg" width="24" height="20"><g opacity=".5"><path fill="#000100" d="M11.995 0c1.02 0 1.97.518 2.522 1.377l8.997 14a3.001 3.001 0 01-2.523 4.622H2.998a2.998 2.998 0 01-2.522-4.622l8.996-14A2.998 2.998 0 0111.995 0zm-.933 16c0 .552.455 1 1.016 1 .561 0 1.016-.448 1.016-1s-.455-1-1.016-1c-.56 0-1.016.448-1.016 1zm0-9.988v6.976c0 .559.453 1.012 1.012 1.012h.008c.559 0 1.012-.453 1.012-1.012V6.012c0-.56-.453-1.012-1.012-1.012h-.008c-.559 0-1.012.453-1.012 1.012z"/><path fill="#fff" d="M11.995 0c1.02 0 1.97.518 2.522 1.377l8.997 14a3.001 3.001 0 01-2.523 4.622H2.998a2.998 2.998 0 01-2.522-4.622l8.996-14A2.998 2.998 0 0111.995 0zm-.933 16c0 .552.455 1 1.016 1 .561 0 1.016-.448 1.016-1s-.455-1-1.016-1c-.56 0-1.016.448-1.016 1zm0-9.988v6.976c0 .559.453 1.012 1.012 1.012h.008c.559 0 1.012-.453 1.012-1.012V6.012c0-.56-.453-1.012-1.012-1.012h-.008c-.559 0-1.012.453-1.012 1.012z"/></g></svg>