<svg xmlns="http://www.w3.org/2000/svg" width="24" height="24"><path fill="#000100" d="M16.472 24C8 24 0 15.998 0 6.998c0-3.36 2.115-5.72 5-7 2.208 1.44 3.71 4.242 4 7-.9 1.325-2.54 2.31-4 3a18.012 18.012 0 009 9c.69-1.46 1.675-3.1 3-4 2.756.288 5.56 1.791 7 4-1.28 2.884-4.168 5-7.528 5z"/><path fill="#5c92ff" d="M16.472 24C8 24 0 15.998 0 6.998c0-3.36 2.115-5.72 5-7 2.208 1.44 3.71 4.242 4 7-.9 1.325-2.54 2.31-4 3a18.012 18.012 0 009 9c.69-1.46 1.675-3.1 3-4 2.756.288 5.56 1.791 7 4-1.28 2.884-4.168 5-7.528 5z"/></svg>