<svg xmlns="http://www.w3.org/2000/svg" width="23" height="20"><g opacity=".2"><path fill="#000100" d="M11.495-.001c.978 0 1.889.52 2.417 1.378l8.622 14c.569.923.609 2.096.105 3.06-.504.963-1.47 1.562-2.522 1.562H2.873c-1.051 0-2.019-.6-2.522-1.562a3.113 3.113 0 01.105-3.06l8.621-14c.53-.859 1.44-1.378 2.418-1.378zm-.901 16c0 .553.433 1 .968 1 .535 0 .97-.447.97-1 0-.552-.435-1-.97-1-.535 0-.968.448-.968 1zm0-10.03v7.062a.969.969 0 001.937 0V5.97a.969.969 0 10-1.937 0z"/><path fill="#333" d="M11.495-.001c.978 0 1.889.52 2.417 1.378l8.622 14c.569.923.609 2.096.105 3.06-.504.963-1.47 1.562-2.522 1.562H2.873c-1.051 0-2.019-.6-2.522-1.562a3.113 3.113 0 01.105-3.06l8.621-14c.53-.859 1.44-1.378 2.418-1.378zm-.901 16c0 .553.433 1 .968 1 .535 0 .97-.447.97-1 0-.552-.435-1-.97-1-.535 0-.968.448-.968 1zm0-10.03v7.062a.969.969 0 001.937 0V5.97a.969.969 0 10-1.937 0z"/></g></svg>