<svg version="1" xmlns="http://www.w3.org/2000/svg" width="1045.333" height="1045.333" viewBox="0 0 784.000000 784.000000"><path d="M315.5 108.7c-2 .5-13.9 9.1-18.6 13.4-1.4 1.3-5 4.4-7.9 6.9-3 2.5-7.7 6.5-10.5 9-7.5 6.6-37.3 36.7-43 43.4-2.7 3.2-6.8 7.8-9 10.3-2.2 2.5-7.5 9.1-11.8 14.7-4.3 5.6-8.4 10.9-9.2 11.8-2 2.5-21.5 30.9-21.5 31.4 0 .2-1.7 3-3.7 6.1-2.1 3.2-3.8 6-3.8 6.3-.2.7-3.5 6.5-6 10.4-1.1 1.7-5.8 10.8-10.5 20.2l-8.4 17-24.1 11.9c-13.2 6.6-24.2 12.2-24.5 12.5-.3.4-4.3 2.7-9 5.2-12.5 6.6-17.2 9.3-30.5 17.6-12.1 7.5-34.7 23.2-37.6 26.1-.9.9-3.1 2.7-4.9 4.1-6.3 4.7-16.9 16.3-19.1 20.9-3.6 7.7-1.3 19.6 5.4 27.1 6.6 7.5 14.4 10.7 27.5 11.5 20.1 1.1 42.3 3 48.2 4 1.4.2 5.2.7 8.5 1 3.3.3 6.7.8 7.5 1 1.4.4 8.9 1.5 13.5 2 1.1.1 3.9.5 6.3.9 4.2.8 4.3.8 3.8 4.4-1.7 12-4 46.4-3.9 57.5 0 7.7 1.5 10 4.5 6.9 1.4-1.4 2.3-4.9 5.4-19.7.3-1.6 2.9-11.9 4.7-19 .2-.6 1.6-6.3 3.2-12.8 1.8-7.3 3.4-11.7 4.2-11.7 1.1 0 14.8 3.5 27.3 7 15.3 4.2 41 13 41 14.1 0 .6-8.7 9-17.1 16.4-1.9 1.7-8.1 6.9-13.9 11.5-5.8 4.7-10.6 8.8-10.8 9.2-.2.5-1 .8-1.7.8s-1.5.4-1.7.8c-.3.7-9.6 7.9-15.6 12.1-1.2.8-6 4.2-10.8 7.5-4.7 3.4-10.1 7-11.9 8.1-1.8 1.1-6.5 4-10.5 6.5-8.6 5.4-8.3 5.2-19.5 11.6-4.9 2.8-10.5 5.7-12.3 6.5-1.7.8-3.2 1.7-3.2 2.1 0 .5-.8.8-1.8.8s-2.2.4-2.8.9c-1.2 1.2-22.5 10.3-28.2 12.1-2.3.7-4.1 1.8-3.9 2.4.3.6.9 1 1.5.9.6-.2 2.6-.5 4.4-.7 6-.8 27.4-7.8 38.3-12.5 1.1-.4 3.1-1.3 4.5-1.9 13.1-5.5 42.8-20.9 59-30.5 14.4-8.6 13.4-7.9 25.7-15.9 5.6-3.8 10.7-6.8 11.2-6.8s1.1-.4 1.3-.8c.2-.5 3.2-2.8 6.8-5.2 3.6-2.4 13.2-9.3 21.4-15.4s15.4-11 16-10.8c.6.2 5.4 2.4 10.6 5 5.2 2.5 9.7 4.6 10 4.7.3 0 2.5 1.1 5 2.4 22.4 11.7 30 15.7 33.2 17.8 2.1 1.2 3.9 2.3 4.2 2.3 1.6 0 48.8 28.9 49.4 30.2.2.5.7.8 1.2.8.9 0 12.6 7.7 14.8 9.7.7.7 1.7 1.3 2.2 1.3.5 0 1.5.6 2.2 1.3.7.7 3.5 2.8 6.3 4.7 2.7 1.9 5.4 3.8 6 4.3 20.2 15.2 25.1 19 25.3 19.8.2.5 1 .9 1.7.9s1.5.3 1.7.7c.2.5 4.4 4.2 9.3 8.3 5 4.1 9.5 7.9 10.1 8.5.6.5 4.7 4.1 9 8 8.6 7.5 36.8 35.6 44.9 44.5 8.4 9.2 14 11.5 16.3 6.6 2-4.3 1.5-5.6-11.2-28.6-2.2-4.1-5.2-9.6-6.6-12.3-24.3-46.1-27.9-53.1-29.5-56.4-.8-1.8-2.2-4.8-3-6.5-.8-1.8-2-4-2.5-4.8-1-1.5-15-30.9-15-31.5 0-.2-1.7-4.1-3.9-8.7-4.1-8.8-13-29.7-17.6-41.3-1.5-3.9-3.2-8.1-3.8-9.5-1.9-4.7-2.5-6.5-5.1-13.8-5.8-16.2-7.8-21.9-9.2-25.4-.7-2-1.6-4.7-1.8-6-.3-1.3-1.4-4.7-2.5-7.6-1.1-2.9-1.9-5.4-1.9-5.5.1-.3-4.3-15.1-4.9-16.7-.3-.8-.7-2-.9-2.5-.1-.6-1.8-6.8-3.8-13.9-3.9-13.9-4.1-15.3-2.7-15.8.8-.3 9.9-8 15.1-12.8.9-.8 4.7-4.2 8.5-7.5 3.9-3.3 8.1-7 9.5-8.2 5.3-4.6 7.7-6.6 12.4-10.6 2.8-2.3 8.4-7.1 12.6-10.7 4.2-3.6 9.3-7.9 11.4-9.5 2.2-1.7 4.6-3.7 5.5-4.6.9-.8 3.6-3 6.1-4.9 2.5-1.8 5-3.8 5.5-4.4 1.3-1.5 25.8-19.7 36-26.8 16.9-11.8 38.1-23.7 56.3-31.7 8.6-3.8 28.2-10.8 32.7-11.7 1.1-.2 4.9-1.1 8.4-2 7.6-1.9 9.7-2.3 13.1-2.9 1.4-.2 3.9-.6 5.5-.8 9.7-1.7 12.2-2 14.5-2.2 1.4-.2 7-.6 12.5-1.1 17.5-1.5 63-.9 83 1.2 1.7.1 5.9.5 9.5.8 9.2.8 15.5 1.5 15.5 1.6 0 .1 2 .3 4.5.5 6.7.7 18 2.1 24 3.1 7 1.2 11.1 1.3 10.5.4-.6-.9-5.4-2.6-9.5-3.4-1.4-.2-5.9-1.2-10-2.1-9.1-2-22.2-4.5-27-5.1-1.9-.2-6-.9-9-1.4-6.9-1.2-16.1-2.2-32.5-3.5-36.7-3-85.8-3.4-115-1-2.7.2-8.4.7-12.5 1-13.2 1.1-25.9 2.3-32 3-1.4.2-5.2.6-8.5 1-3.3.3-7.3.8-9 1.1-1.6.3-4.6.7-6.5.9-1.9.2-4.8.6-6.5.9-3.1.5-8.2 1.2-15 2.1-2.2.3-5.1.7-6.5.9-1.4.3-4.1.7-6 1-4.4.6-20.7 3.5-24 4.1-1.4.3-4.1.8-6 1.1-1.9.3-4.2.7-5 .9-.8.3-3.3.7-5.5 1.1-5.7.8-41.4 8.3-45 9.4-1.6.5-4.1 1.1-5.5 1.4-1.4.2-10.4 2.5-20 5.1-9.6 2.5-18.2 4.7-19 4.8-1.3.2-1.5-2.4-1.4-17.8 0-16.7.9-35.8 1.9-41.6.2-1.3.6-4.4.9-6.9.3-2.5.8-6.5 1.2-9 .9-7 5.3-26.9 6.9-31.6.8-2.4 1.7-5.3 1.9-6.6.3-1.3.7-3.4 1-4.8 2-9.2-15.8-18.6-35.9-18.8-3.8 0-7.9.2-9 .5zm-22.9 62c-.2 3.2-.5 5.8-.6 5.8 0 0-.3 3.6-.5 8-.3 4.4-.7 11.1-1 15-.7 10.2-.7 35 0 49.7.7 13.8 1 12.9-5.2 14.3-3.4.7-38.7 11.6-47.8 14.6-4.9 1.7-9.7 3.2-10.5 3.4-1.8.4-23.8 8.2-33.4 11.9-7.8 3-7.6 2.9-7.6 1.6 0-2.3 27.6-43 29.2-43 .4 0 .8-.5.8-1.1 0-.6 1.2-2.6 2.8-4.3 1.5-1.8 4.1-5 5.7-7.2 3.6-4.6 24.5-29 30.4-35.4 6-6.4 37.5-38.9 37.9-39 .2 0 .1 2.6-.2 5.7zM469 250.8c0 .4-3.7 3.4-8.2 6.7-7.2 5.1-22.3 16.9-23.8 18.5-.3.3-3.9 3.4-8 7s-8.4 7.4-9.6 8.5c-1.1 1.1-6.7 6.3-12.4 11.5s-11.8 10.8-13.5 12.5c-1.8 1.6-6.7 6.1-10.9 10-4.3 3.8-9.8 8.9-12.4 11.3-5.9 5.5-10.2 8.6-10.3 7.5 0-.4-.2-1.5-.4-2.3-.2-.8-.5-2.6-.8-4-.3-1.4-1.1-4.8-1.6-7.5-3.2-14.7-5.3-26.7-6.5-37-.4-2.8-.9-6.4-1.1-8.1-.4-2.4-.1-3.3 1.7-4.2 2.3-1.1 31.4-11.1 32.3-11.1.3 0 4.2-1.1 8.8-2.6 4.5-1.4 9.1-2.7 10.2-2.9 1.1-.2 3.3-.9 4.9-1.5 1.6-.7 3.1-.9 3.4-.7.2.3 1.2.1 2.2-.4.9-.5 2.8-1.1 4.1-1.4 1.3-.3 5.1-1.2 8.5-2 3.4-.8 7.2-1.7 8.5-2 1.3-.3 6.5-1.4 11.6-2.5 5.1-1.2 10.9-2.4 13-2.7 2.1-.3 4-.8 4.2-1 .8-.7 6.1-.4 6.1.4zm-171 56.4c.8 4 1.5 7.7 1.6 8.3.2.5 1.3 4.8 2.4 9.5 2.7 11 3.7 14.8 7.5 28 .9 3 1.8 6.2 2 7 .8 3.1 5.3 17.6 6.8 21.7l1.5 4.3-10.2 9.4c-5.5 5.2-11.4 10.6-13.1 12.1-1.6 1.5-4.8 4.4-7 6.4-6 5.6-23.3 21-29.5 26.3-12.6 10.7-15.2 12.8-16 12.8-.5 0-2.6-.9-4.6-2.1-7-3.9-30.9-13.6-43.4-17.7-14.5-4.7-43.8-12.8-47.4-13.1-.7-.1-.6-1.6 1-9.6.4-1.8 7.8-30.8 8.9-34.5.2-.8 1.1-4 1.9-7 .9-3 2.4-7.8 3.4-10.5l1.9-5 14-7c7.8-3.9 16.1-7.9 18.5-8.9 2.3-1 6.8-3 9.8-4.3 3-1.4 6.4-2.9 7.5-3.3 1.1-.5 4.9-2.2 8.5-3.8 3.6-1.6 6.7-2.9 7-3 1-.2 6.1-2.2 13-5.1 3.9-1.7 7.4-3.1 7.8-3.2.4-.1 1.6-.5 2.7-.9 2.5-.9 22.6-8 24-8.4.6-.2 1.3-.5 1.7-.6.4-.1 3.5-1.3 7-2.5 9.5-3.5 9.3-3.5 10.8 4.7zm-161.4 62.7c-.3.4-.7 2-1 3.4-.3 1.5-1 5.3-1.6 8.5-.5 3.1-1.2 6.8-1.5 8.2-.3 1.4-.7 3.8-1 5.5-.3 1.6-1 5.5-1.7 8.5-.6 3-1.2 6.4-1.3 7.5-.4 3.5-.5 3.6-1.2 3.2-.7-.4-7.4-1.4-15-2.2-1.7-.1-5.8-.6-9-.9-8.3-.9-14.5-1.4-25.3-2.2-5.2-.3-9.6-.7-9.8-.9-.5-.5 24-16.3 35.8-23.2 23-13.3 34.7-18.9 32.6-15.4zm197.2 47.3c2.1 4.6 5.2 11.2 6.7 14.8 5 11.2 33.6 68.3 35.9 71.5 1.1 1.6 2 3.2 1.9 3.5-.2.8 20.2 37.9 28.6 52 1.1 1.9 2.6 4.6 3.3 6 .6 1.4 2.1 3.5 3.2 4.7 1.1 1.3 1.6 2.3 1.2 2.3-.4 0 .4 1.5 1.8 3.3 1.5 1.9 2.6 3.7 2.6 4 0 .9 6.4 11.1 7.5 11.9.6.5.6 1.1-.1 1.8s-2.7-.6-6.5-4.2c-3-2.9-13.1-12.3-22.4-20.8-9.3-8.5-17.9-16.4-19.1-17.5-1.2-1.1-4.8-4.3-7.9-7-3.2-2.8-6.3-5.5-6.9-6-7.1-6.2-15.9-13.5-24.1-20.1-5.5-4.3-10.2-8.1-10.5-8.4-.3-.3-4.8-3.7-10-7.5-5.2-3.9-9.6-7.3-9.8-7.7-.2-.5-1-.8-1.7-.8s-1.5-.4-1.7-.8c-.4-1.1-22.7-15.9-32.5-21.6-4.6-2.6-8.3-5.1-8.2-5.4 0-.4 2.1-2.5 4.7-4.6 4.1-3.4 12.5-10.7 21.4-18.6 1.5-1.4 3.4-3 4.1-3.6.7-.6 3.5-3.1 6.3-5.5s8.1-7.1 11.9-10.4c3.8-3.3 8.7-7.7 10.9-9.7 2.3-2.1 4.4-3.8 4.8-3.8.4 0 2.4 3.7 4.6 8.2z"/></svg>