<svg width="21" height="18" viewBox="0 0 21 18" fill="none" xmlns="http://www.w3.org/2000/svg">
<path d="M19.4097 1.80823C18.3744 0.685333 16.9538 0.0668945 15.4093 0.0668945C14.2549 0.0668945 13.1976 0.431885 12.2668 1.15164C11.7971 1.51495 11.3716 1.95944 10.9963 2.47824C10.6213 1.95959 10.1956 1.51495 9.72574 1.15164C8.7951 0.431885 7.73782 0.0668945 6.58334 0.0668945C5.03885 0.0668945 3.6181 0.685333 2.58279 1.80823C1.55984 2.918 0.996338 4.43411 0.996338 6.07748C0.996338 7.76892 1.62668 9.31723 2.97998 10.9502C4.19061 12.4109 5.93057 13.8938 7.9455 15.6109C8.63351 16.1973 9.41339 16.8619 10.2232 17.5699C10.4371 17.7573 10.7116 17.8605 10.9963 17.8605C11.2809 17.8605 11.5556 17.7573 11.7692 17.5703C12.579 16.8621 13.3593 16.1971 14.0476 15.6104C16.0623 13.8936 17.8022 12.4109 19.0128 10.9501C20.3661 9.31723 20.9963 7.76892 20.9963 6.07733C20.9963 4.43411 20.4328 2.918 19.4097 1.80823Z" fill="white"/>
</svg>
