<svg width="71" height="65" viewBox="0 0 71 65" fill="none" xmlns="http://www.w3.org/2000/svg">
<path d="M16.3186 18.5903C15.9591 18.5903 15.6064 18.7366 15.3522 18.9908C15.0979 19.2451 14.9517 19.5978 14.9517 19.9573C14.9517 20.3168 15.0979 20.6694 15.3522 20.9237C15.6064 21.1779 15.9591 21.3242 16.3186 21.3242C16.6781 21.3242 17.0308 21.1779 17.285 20.9237C17.5393 20.6694 17.6855 20.3168 17.6855 19.9573C17.6855 19.5978 17.5393 19.2451 17.285 18.9908C17.0308 18.7365 16.6781 18.5903 16.3186 18.5903Z" fill="#693490"/>
<path d="M52.2224 18.5903C51.8615 18.5903 51.5102 18.7366 51.2546 18.9908C51.0004 19.2451 50.8555 19.5978 50.8555 19.9573C50.8555 20.3168 51.0004 20.6694 51.2546 20.9237C51.5102 21.1779 51.8629 21.3242 52.2224 21.3242C52.5819 21.3242 52.9346 21.1779 53.1888 20.9237C53.4431 20.6694 53.5893 20.3168 53.5893 19.9573C53.5893 19.5978 53.4431 19.2451 53.1888 18.9908C52.9346 18.7365 52.5819 18.5903 52.2224 18.5903Z" fill="#693490"/>
<path d="M66.065 10.0848L54.5983 6.66035L47.1403 2.54563C44.122 0.880301 40.7043 0 37.2569 0H29.6625C23.9511 0 18.5158 2.38406 14.6494 6.56125H7.97623C7.5626 6.56125 7.17111 6.74865 6.91167 7.07084L1.2977 14.0418C1.03826 14.3639 0.938608 14.7863 1.02677 15.1905L2.61337 22.4623C2.75033 23.0901 3.30626 23.5378 3.94885 23.5378H9.24843C10.5589 26.1147 13.2349 27.8854 16.3184 27.8854C19.402 27.8854 22.0781 26.1147 23.3885 23.5378H45.1529C46.4634 26.1147 49.1394 27.8854 52.2229 27.8854C55.3065 27.8854 57.9826 26.1147 59.293 23.5378H69.6284C70.3834 23.5378 70.9954 22.9258 70.9954 22.1709V16.7032C70.9955 13.6734 68.9681 10.9518 66.065 10.0848ZM68.0261 15.3361H65.2164C64.7097 15.3361 64.2976 14.9238 64.2976 14.4172V12.4102L65.2827 12.7043C66.5828 13.0926 67.5908 14.0971 68.0261 15.3361ZM29.6626 2.73385H37.257C40.2438 2.73385 43.2047 3.49646 45.8199 4.93939L48.7596 6.56125H18.6603C21.7669 4.10146 25.6358 2.73385 29.6626 2.73385ZM36.5685 20.8038L25.0597 9.2951H29.784L41.2927 20.8038H36.5685ZM16.3184 25.1514C13.4543 25.1514 11.1241 22.8212 11.1241 19.9571C11.1241 17.093 13.4543 14.7628 16.3184 14.7628C19.1826 14.7628 21.5128 17.093 21.5128 19.9571C21.5128 22.8212 19.1826 25.1514 16.3184 25.1514ZM16.3184 12.029C11.9469 12.029 8.39027 15.5856 8.39027 19.9571C8.39027 20.2432 8.40626 20.5255 8.43606 20.8038H5.04964L3.83718 15.2468L8.63058 9.2951H21.1934L32.7021 20.8038H24.201C24.2306 20.5255 24.2468 20.2431 24.2468 19.9571C24.2466 15.5854 20.6901 12.029 16.3184 12.029ZM52.2231 25.1514C49.359 25.1514 47.0288 22.8212 47.0288 19.9571C47.0288 17.093 49.359 14.7628 52.2231 14.7628C55.0872 14.7628 57.4174 17.093 57.4174 19.9571C57.4174 22.8212 55.0872 25.1514 52.2231 25.1514ZM60.1055 20.8038C60.1351 20.5255 60.1513 20.2431 60.1513 19.9571C60.1513 15.5856 56.5947 12.029 52.2231 12.029C47.8573 12.029 44.3048 15.5763 44.2953 19.9399L33.6505 9.2951H53.867L61.5637 11.5937V14.4172C61.5637 16.4314 63.2022 18.0699 65.2164 18.0699H68.2616V20.8038H60.1055Z" fill="#693490"/>
<path d="M16.3186 55.2239C15.9591 55.2239 15.6064 55.3701 15.3522 55.6244C15.0979 55.8786 14.9517 56.2313 14.9517 56.5908C14.9517 56.9503 15.0979 57.303 15.3522 57.5572C15.6064 57.8115 15.9591 57.9577 16.3186 57.9577C16.6781 57.9577 17.0308 57.8115 17.285 57.5572C17.5393 57.303 17.6855 56.9503 17.6855 56.5908C17.6855 56.2313 17.5393 55.8786 17.285 55.6244C17.0308 55.37 16.6781 55.2239 16.3186 55.2239Z" fill="#693490"/>
<path d="M52.2224 55.2239C51.8615 55.2239 51.5102 55.3701 51.2546 55.6244C51.0004 55.8786 50.8555 56.2313 50.8555 56.5908C50.8555 56.9503 51.0004 57.303 51.2546 57.5572C51.5102 57.8115 51.8615 57.9577 52.2224 57.9577C52.5819 57.9577 52.9346 57.8115 53.1888 57.5572C53.4431 57.303 53.5893 56.9503 53.5893 56.5908C53.5893 56.2313 53.4431 55.8786 53.1888 55.6244C52.9346 55.37 52.5819 55.2239 52.2224 55.2239Z" fill="#693490"/>
<path d="M66.065 46.7186L54.5983 43.2941L47.1403 39.1794C44.1217 37.5141 40.7041 36.6338 37.2567 36.6338H35.8137C35.0587 36.6338 34.4468 37.2458 34.4468 38.0007C34.4468 38.7557 35.0587 39.3676 35.8137 39.3676H37.2567C40.2435 39.3676 43.2044 40.1303 45.8196 41.5732L48.7593 43.195H18.6616C20.2623 41.9283 22.0772 40.9414 24.026 40.2877C24.7417 40.0476 25.1273 39.2728 24.8873 38.5571C24.6471 37.8413 23.8722 37.4559 23.1566 37.6958C19.9043 38.7868 16.9758 40.6825 14.6494 43.195H7.97623C7.5626 43.195 7.17111 43.3824 6.91167 43.7046L1.2977 50.6755C1.03826 50.9977 0.938608 51.4201 1.02677 51.8243L2.61337 59.0961C2.75033 59.7239 3.30626 60.1716 3.94885 60.1716H9.24843C10.5589 62.7485 13.2349 64.5192 16.3184 64.5192C19.402 64.5192 22.0781 62.7485 23.3885 60.1716H45.1529C46.4634 62.7485 49.1394 64.5192 52.2229 64.5192C55.3065 64.5192 57.9826 62.7485 59.293 60.1716H69.6284C70.3834 60.1716 70.9954 59.5596 70.9954 58.8047V53.3369C70.9955 50.3072 68.9681 47.5856 66.065 46.7186ZM68.0261 51.9699H65.2164C64.7097 51.9699 64.2976 51.5576 64.2976 51.051V49.044L65.2827 49.3381C66.5828 49.7263 67.5908 50.7309 68.0261 51.9699ZM36.5685 57.4376L25.0598 45.9289H29.7842L41.2929 57.4376H36.5685ZM16.3184 61.7852C13.4543 61.7852 11.1241 59.455 11.1241 56.5909C11.1241 53.7268 13.4543 51.3966 16.3184 51.3966C19.1826 51.3966 21.5128 53.7268 21.5128 56.5909C21.5128 59.455 19.1826 61.7852 16.3184 61.7852ZM16.3184 48.6627C11.9469 48.6627 8.39027 52.2193 8.39027 56.5909C8.39027 56.877 8.40626 57.1593 8.43606 57.4376H5.04964L3.83718 51.8806L8.63044 45.9289H21.1933L32.702 57.4376H24.2008C24.2305 57.1593 24.2466 56.8769 24.2466 56.5909C24.2466 52.2192 20.6901 48.6627 16.3184 48.6627ZM52.2231 61.7852C49.359 61.7852 47.0288 59.455 47.0288 56.5909C47.0288 53.7268 49.359 51.3966 52.2231 51.3966C55.0872 51.3966 57.4174 53.7268 57.4174 56.5909C57.4174 59.455 55.0872 61.7852 52.2231 61.7852ZM60.1055 57.4376C60.1351 57.1593 60.1513 56.8769 60.1513 56.5909C60.1513 52.2193 56.5947 48.6627 52.2231 48.6627C47.8573 48.6627 44.3048 52.2101 44.2953 56.5737L33.6505 45.9289H53.867L61.5637 48.2275V51.051C61.5637 53.0652 63.2022 54.7037 65.2164 54.7037H68.2616V57.4376H60.1055Z" fill="#693490"/>
<path d="M30.6288 38.9669C30.883 38.7126 31.0293 38.36 31.0293 38.0005C31.0293 37.641 30.883 37.2883 30.6288 37.0341C30.3745 36.7798 30.0218 36.6335 29.6623 36.6335C29.3028 36.6335 28.9502 36.7798 28.6959 37.0341C28.4417 37.2883 28.2954 37.641 28.2954 38.0005C28.2954 38.36 28.4417 38.7126 28.6959 38.9669C28.9502 39.2211 29.3028 39.3674 29.6623 39.3674C30.0218 39.3675 30.3745 39.2211 30.6288 38.9669Z" fill="#693490"/>
</svg>
