<svg width="71" height="85" viewBox="0 0 71 85" fill="none" xmlns="http://www.w3.org/2000/svg">
<path d="M16.5688 71.033C16.5684 71.0325 16.5598 71.0216 16.5593 71.0211C15.9933 70.3067 14.9595 70.1913 14.2446 70.7568C13.5296 71.3223 13.4125 72.3655 13.9779 73.0806L14.0068 73.1171C14.3331 73.5235 14.8121 73.7347 15.2955 73.7347C15.6581 73.7347 16.0232 73.6158 16.328 73.3713C17.0392 72.8004 17.1531 71.7612 16.5823 71.0499L16.5688 71.033Z" fill="#693490"/>
<path d="M42.1374 54.1228C42.1374 51.6444 40.1211 49.6282 37.6427 49.6282C35.1643 49.6282 33.1481 51.6444 33.1481 54.1228C33.1481 56.6012 35.1643 58.6175 37.6427 58.6175C40.1211 58.6175 42.1374 56.6011 42.1374 54.1228ZM36.4504 54.1228C36.4504 53.4655 36.9852 52.9305 37.6427 52.9305C38.3002 52.9305 38.835 53.4653 38.835 54.1228C38.835 54.7803 38.3002 55.3151 37.6427 55.3151C36.9852 55.3151 36.4504 54.7802 36.4504 54.1228Z" fill="#693490"/>
<path d="M50.6803 8.47617C51.5921 8.47617 52.3315 7.73678 52.3315 6.825C52.3315 5.91322 51.5921 5.17383 50.6803 5.17383H50.6787C49.7667 5.17383 49.0283 5.91322 49.0283 6.825C49.0283 7.73678 49.7684 8.47617 50.6803 8.47617Z" fill="#693490"/>
<path d="M69.9445 12.6928L57.1974 7.63507C56.3497 7.29856 55.39 7.71317 55.0537 8.56071C54.7174 9.40843 55.1318 10.3681 55.9795 10.7044L64.8584 14.2274L37.638 25.0274L10.4174 14.2275L37.638 3.42738L43.7002 5.83248C44.5481 6.16915 45.5078 5.75421 45.8439 4.90667C46.1803 4.05912 45.7657 3.09929 44.9181 2.76311L38.2469 0.116284C37.8557 -0.0387613 37.4202 -0.0387613 37.029 0.116284L5.33126 12.6928C4.70216 12.9424 4.28904 13.5506 4.28904 14.2275V23.7494C2.36724 24.431 0.986694 26.2662 0.986694 28.4189V35.684C0.986694 36.5958 1.72592 37.3352 2.63787 37.3352H9.24256C10.1545 37.3352 10.8937 36.5958 10.8937 35.684V28.4189C10.8937 26.2664 9.51319 24.431 7.59139 23.7494V16.6589L19.4798 21.3758V30.2963C11.9507 35.9851 7.48059 44.9222 7.48059 54.3776C7.48059 58.7906 8.41235 63.0436 10.2501 67.0195C10.529 67.6228 11.1261 67.9782 11.7499 67.9782C11.9817 67.9782 12.2173 67.9291 12.4415 67.8254C13.2693 67.4429 13.6302 66.4616 13.2475 65.6338C11.612 62.0957 10.7828 58.3087 10.7828 54.3778C10.7828 46.7347 14.064 39.4723 19.6847 34.4072C19.8659 34.7364 20.1571 35.0023 20.5219 35.1469L23.6548 36.3899C21.3627 38.1755 19.4181 40.3914 17.9487 42.9099C16.6499 45.1359 15.7465 47.5679 15.2646 50.0914C15.2454 50.1638 15.2329 50.2383 15.2238 50.3136C14.9824 51.6494 14.8564 53.0093 14.8564 54.3778C14.8564 66.9422 25.0783 77.164 37.6426 77.164C50.2068 77.164 60.4288 66.9422 60.4288 54.3778C60.4288 53.025 60.3044 51.688 60.0691 50.379C60.0602 50.2667 60.0394 50.1567 60.0084 50.0504C58.9574 44.6603 55.977 39.7821 51.6249 36.3879L54.7631 35.1428C55.1268 34.9985 55.4176 34.7338 55.5989 34.4059C61.2205 39.471 64.5024 46.734 64.5024 54.3778C64.5025 69.1882 52.4533 81.2376 37.6427 81.2376C31.5408 81.2376 25.7901 79.2438 21.0126 75.4717C20.2968 74.9065 19.2586 75.0287 18.6935 75.7445C18.1285 76.4601 18.2505 77.4985 18.9663 78.0635C24.3326 82.3003 30.7907 84.5399 37.6427 84.5399C54.2743 84.5399 67.8049 71.0091 67.8049 54.3776C67.8049 44.9224 63.3348 35.9852 55.8056 30.2963V21.372L69.9445 15.7623C70.5736 15.5126 70.9867 14.9045 70.9867 14.2275C70.9867 13.5506 70.5737 12.9423 69.9445 12.6928ZM7.59139 34.0329H4.28904V28.4189C4.28904 27.5084 5.02976 26.7677 5.94021 26.7677C6.85067 26.7677 7.59139 27.5084 7.59139 28.4189V34.0329ZM18.8734 59.6099H28.6112C30.7151 59.6099 32.4267 61.3215 32.4267 63.4252V73.1513C25.8743 71.3286 20.7017 66.1599 18.8734 59.6099ZM35.729 73.7674V63.4252C35.729 59.5004 32.536 56.3075 28.6112 56.3075H18.2545C18.1918 55.6725 18.1591 55.0289 18.1591 54.3776C18.1591 53.5289 18.2157 52.6867 18.3255 51.8558L30.9999 48.7978C35.3456 47.7495 39.9397 47.749 44.2861 48.7977L56.9606 51.8558C57.0699 52.6865 57.1267 53.5284 57.1267 54.3776C57.1267 55.0289 57.0941 55.6726 57.0313 56.3075H46.6747C42.7498 56.3075 39.5568 59.5006 39.5568 63.4252V73.7674C38.927 73.8291 38.2887 73.8615 37.6431 73.8615C36.9975 73.8615 36.3588 73.8291 35.729 73.7674ZM42.8588 73.1513V63.4252C42.8588 61.3215 44.5704 59.6099 46.6743 59.6099H56.4121C54.5838 66.1599 49.4111 71.3286 42.8588 73.1513ZM56.1314 48.2587L45.0603 45.5874C40.207 44.4168 35.0775 44.4166 30.225 45.5876L19.1559 48.2584C20.5742 43.9998 23.4413 40.2793 27.328 37.8471L37.0288 41.696C37.2245 41.7736 37.4311 41.8124 37.6378 41.8124C37.8445 41.8124 38.0511 41.7736 38.2467 41.696L47.9555 37.8438C51.8475 40.2779 54.7141 43.9972 56.1314 48.2587ZM52.5033 32.4867L37.6378 38.3849L22.7822 32.4908V22.6862L37.029 28.3386C37.2247 28.4162 37.4312 28.455 37.638 28.455C37.8447 28.455 38.0512 28.4162 38.2469 28.3386L52.5033 22.6822V32.4867Z" fill="#693490"/>
</svg>
