<svg width="71" height="95" viewBox="0 0 71 95" fill="none" xmlns="http://www.w3.org/2000/svg">
<path d="M8.36377 35.0003C8.36377 50.2367 20.7593 62.6321 35.9956 62.6321C51.232 62.6321 63.6275 50.2367 63.6275 35.0003C63.6275 19.7639 51.232 7.36841 35.9956 7.36841C20.7593 7.36841 8.36377 19.7639 8.36377 35.0003ZM35.9956 11.0527C49.2006 11.0527 59.9432 21.7953 59.9432 35.0003C59.9432 48.2053 49.2006 58.9479 35.9956 58.9479C22.7906 58.9479 12.048 48.2053 12.048 35.0003C12.048 21.7953 22.7906 11.0527 35.9956 11.0527Z" fill="#693490"/>
<path d="M18.9361 31.7163L26.0765 38.7516L24.4337 48.6394C24.3193 49.328 24.6035 50.0217 25.1684 50.4319C25.7325 50.842 26.4801 50.8974 27.0997 50.5765L35.9959 45.9568L44.8913 50.5765C45.5058 50.8953 46.2535 50.8456 46.8227 50.4319C47.3875 50.0217 47.6718 49.328 47.5574 48.6394L45.9146 38.7516L53.055 31.7163C53.5522 31.227 53.7299 30.4988 53.514 29.8346C53.2982 29.1712 52.7261 28.6869 52.036 28.5825L42.1267 27.0908L37.643 18.1242C37.3314 17.5003 36.6931 17.106 35.9959 17.106C35.2979 17.106 34.6603 17.5003 34.348 18.1242L29.8643 27.0908L19.955 28.5825C19.2649 28.6862 18.6929 29.1712 18.477 29.8346C18.2611 30.4988 18.4396 31.227 18.9361 31.7163ZM31.3589 30.5916C31.9518 30.5024 32.4642 30.1303 32.7326 29.5943L35.9959 23.067L39.2592 29.5943C39.5276 30.1303 40.0399 30.5024 40.6328 30.5916L47.8452 31.6774L42.6477 36.7973C42.221 37.2182 42.0252 37.8205 42.1231 38.412L43.319 45.6085L36.8443 42.2466C36.5787 42.1085 36.2873 42.0394 35.9959 42.0394C35.7044 42.0394 35.413 42.1085 35.1468 42.2466L28.672 45.6085L29.8679 38.412C29.9665 37.8205 29.7708 37.2182 29.3434 36.7973L24.1466 31.6774L31.3589 30.5916Z" fill="#693490"/>
<path d="M37.8381 1.84212C37.8381 2.85961 37.0134 3.68425 35.9959 3.68425C34.9784 3.68425 34.1538 2.85961 34.1538 1.84212C34.1538 0.824638 34.9784 0 35.9959 0C37.0134 0 37.8381 0.824638 37.8381 1.84212Z" fill="#693490"/>
<path d="M27.314 1.08584C11.8178 5.04137 0.995361 18.9875 0.995361 35.0004C0.995361 44.9457 5.17684 54.3168 12.5173 60.9534L1.41919 80.5123C1.06228 81.142 1.1069 81.922 1.53289 82.5063C1.95888 83.0913 2.68709 83.3727 3.39588 83.2252L15.9993 80.608L20.4291 93.0906C20.6694 93.7699 21.2846 94.2455 22.0028 94.3096C22.7209 94.3736 23.4096 94.0117 23.7657 93.3849L35.9957 71.8839L48.225 93.3849C48.5545 93.9642 49.1676 94.316 49.8253 94.316C49.8793 94.316 49.934 94.3139 49.9879 94.3096C50.7061 94.2455 51.3213 93.7692 51.5624 93.0906L55.9914 80.608L68.5948 83.2252C69.3029 83.372 70.0318 83.0906 70.4578 82.5063C70.8845 81.922 70.9284 81.142 70.5715 80.5123L59.4734 60.9534C66.8139 54.3168 70.9954 44.9457 70.9954 35.0004C70.9954 18.9875 60.1729 5.04137 44.6774 1.08584C43.6909 0.83399 42.6885 1.42908 42.4367 2.41491C42.1848 3.40073 42.7799 4.40383 43.7657 4.65568C57.6292 8.19457 67.3118 20.6728 67.3118 35.0004C67.3118 52.4379 53.1498 66.3165 35.9957 66.3165C18.8294 66.3165 4.67961 52.4264 4.67961 35.0004C4.67961 20.6728 14.3616 8.19457 28.225 4.65568C29.2108 4.40383 29.8059 3.40073 29.5548 2.41491C29.3029 1.42908 28.3005 0.83399 27.314 1.08584ZM22.5547 88.0636L18.9345 77.8621C18.6265 76.9943 17.7256 76.487 16.824 76.6741L6.63255 78.7904L15.4157 63.3108C20.537 67.0339 26.6009 69.302 32.9066 69.8633L22.5547 88.0636ZM55.1668 76.6741C54.2659 76.487 53.3642 76.9943 53.0562 77.8621L49.4368 88.0636L39.0842 69.8633C45.3906 69.302 51.4537 67.0339 56.5757 63.3108L65.3589 78.7904L55.1668 76.6741Z" fill="#693490"/>
</svg>
