<svg width="71" height="70" viewBox="0 0 71 70" fill="none" xmlns="http://www.w3.org/2000/svg">
<path d="M57.6622 44.7551L50.1255 49.7395C49.1722 48.1085 47.3789 47.0222 45.3804 47.0222H38.725C37.2921 47.0222 36.6208 45.9818 35.9484 45.4985C30.8038 41.0381 23.045 41.0381 17.9031 45.4958L16.4499 46.7487H2.36255C1.60739 46.7487 0.995361 47.3608 0.995361 48.1159V64.5217C0.995361 65.2768 1.60739 65.8889 2.36255 65.8889H16.5568L41.054 69.9717C41.415 70.0321 41.7862 69.945 42.0837 69.7282L70.4336 49.0719C71.0414 48.6286 71.177 47.7773 70.737 47.1669C67.7356 43.0055 61.9966 41.9433 57.6622 44.7551ZM40.9376 67.1802L16.8948 63.1732C16.8206 63.1609 16.7453 63.1545 16.67 63.1545H3.72974V49.4831H16.9584C17.7878 49.4831 18.0238 48.8946 19.6917 47.5642C23.8146 43.9893 30.0337 43.9893 34.1572 47.5648C34.7313 47.9514 36.0745 49.7566 38.725 49.7566H45.3804C46.8646 49.7566 48.1148 50.9315 48.1148 52.4156C48.1148 53.8896 46.8881 55.0886 45.3804 55.0886H28.9741C28.2195 55.0886 27.607 55.7006 27.607 56.4558C27.607 57.2104 28.2195 57.823 28.9741 57.823H45.3804C48.3535 57.823 50.7808 55.464 50.8476 52.5395L59.1602 47.0425C61.8679 45.286 65.3457 45.6411 67.6143 47.7426L40.9376 67.1802Z" fill="#693490"/>
<path d="M45.5647 26.7883C45.5647 27.5435 44.9527 28.1555 44.1975 28.1555C43.4429 28.1555 42.8303 27.5435 42.8303 26.7883C42.8303 26.0332 43.4429 25.4211 44.1975 25.4211C44.9527 25.4211 45.5647 26.0332 45.5647 26.7883Z" fill="#693490"/>
<path d="M27.6551 33.6238H60.4671C61.2222 33.6238 61.8343 33.0117 61.8343 32.2571V26.9208L65.9748 5.73098C66.0806 5.18944 65.8504 4.63723 65.3911 4.33121C64.9318 4.0252 64.3337 4.0252 63.8744 4.33121L52.7072 11.776L45.263 0.608826C45.0093 0.228577 44.5826 0 44.1254 0C43.6683 0 43.2416 0.228577 42.9879 0.608826L35.5431 11.7755L24.3765 4.33121C23.9183 4.02573 23.3223 4.02466 22.863 4.32854C22.4042 4.63242 22.1724 5.18197 22.275 5.72297L26.2879 26.9165V32.2571C26.2879 33.0117 26.8999 33.6238 27.6551 33.6238ZM35.1639 14.8094C35.7925 15.2281 36.6411 15.0583 37.0598 14.4303L44.1254 3.83187L51.191 14.4303C51.6097 15.0583 52.4583 15.2281 53.0864 14.8094L62.6621 8.42584L59.3413 25.4212H50.3499C49.5947 25.4212 48.9827 26.0332 48.9827 26.7884C48.9827 27.5435 49.5947 28.1556 50.3499 28.1556H59.0999V30.8899H29.0223V28.1556H38.0457C38.8009 28.1556 39.4129 27.5435 39.4129 26.7884C39.4129 26.0332 38.8009 25.4212 38.0457 25.4212H28.7878L25.5664 8.41088L35.1639 14.8094Z" fill="#693490"/>
</svg>
