<svg width="71" height="70" viewBox="0 0 71 70" fill="none" xmlns="http://www.w3.org/2000/svg">
<path d="M70.9842 24.4554C70.9832 24.4249 70.9824 24.3944 70.9795 24.3642C70.9773 24.3415 70.9736 24.3196 70.9705 24.2973C70.9675 24.276 70.9649 24.2547 70.9608 24.2336C70.9559 24.208 70.9493 24.1829 70.943 24.1579C70.9387 24.1404 70.9345 24.1227 70.9295 24.1054C70.922 24.0802 70.9132 24.0559 70.9043 24.0314C70.898 24.0139 70.8922 23.9964 70.8852 23.9792C70.8763 23.957 70.8659 23.9356 70.8559 23.914C70.8469 23.8947 70.8382 23.8755 70.8283 23.8567C70.8187 23.8384 70.8081 23.8207 70.7976 23.8029C70.7853 23.7819 70.7731 23.7608 70.7595 23.7403C70.7497 23.7254 70.739 23.7111 70.7284 23.6964C70.7129 23.6748 70.6973 23.6532 70.6805 23.6325C70.6696 23.6189 70.6577 23.6063 70.6463 23.5932C70.6287 23.5731 70.6112 23.553 70.5923 23.5339C70.5781 23.5194 70.5627 23.506 70.5479 23.4922C70.5305 23.4761 70.5137 23.4598 70.4954 23.4445C70.4735 23.4261 70.4503 23.4093 70.4272 23.3924C70.4157 23.3839 70.4052 23.3746 70.3933 23.3664L70.3837 23.3598C70.3833 23.3594 70.3829 23.3593 70.3825 23.359L36.7608 0.240607C36.2943 -0.0802708 35.6781 -0.0801341 35.2115 0.240607L1.5897 23.3589C1.58915 23.3593 1.58847 23.3597 1.58792 23.3601L1.57876 23.3664C1.56727 23.3743 1.55702 23.3834 1.54595 23.3916C1.52243 23.4089 1.49878 23.426 1.47649 23.4447C1.45845 23.4598 1.4419 23.4759 1.42481 23.4916C1.40964 23.5057 1.39405 23.5194 1.37956 23.5342C1.36083 23.5532 1.3436 23.5731 1.3261 23.5929C1.31448 23.6062 1.30259 23.6191 1.29138 23.6327C1.2747 23.6534 1.25925 23.6748 1.24394 23.6962C1.23327 23.7108 1.22247 23.7253 1.21249 23.7405C1.19909 23.7607 1.18706 23.7816 1.17476 23.8025C1.16423 23.8204 1.15356 23.8382 1.14386 23.8565C1.13401 23.8753 1.12526 23.8944 1.11638 23.9136C1.10626 23.9352 1.09601 23.9566 1.08698 23.9789C1.08001 23.9961 1.07413 24.0138 1.06784 24.0313C1.05909 24.0556 1.05034 24.0799 1.04282 24.105C1.03763 24.1225 1.03366 24.1402 1.02915 24.1579C1.02286 24.1829 1.0163 24.2078 1.01151 24.2333C1.00741 24.2545 1.00481 24.2759 1.00167 24.2973C0.998525 24.3195 0.994697 24.3413 0.992646 24.3639C0.989775 24.3943 0.988955 24.4247 0.987998 24.4554C0.987725 24.4679 0.986084 24.4804 0.986084 24.493V24.5031C0.986084 24.5043 0.986084 24.5057 0.986084 24.507V27.8975C0.986084 28.6526 1.59817 29.2647 2.35327 29.2647H4.5945V62.8906H2.35327C1.59817 62.8906 0.986084 63.5027 0.986084 64.2578V68.6328C0.986084 69.3879 1.59817 70 2.35327 70H69.6189C70.3739 70 70.9861 69.3879 70.9861 68.6328V64.2578C70.9861 63.5027 70.374 62.8906 69.6189 62.8906H67.3777V29.2647H69.6189V29.2649C70.3739 29.2649 70.9861 28.6528 70.9861 27.8977V24.5072C70.9861 24.506 70.9861 24.5046 70.9861 24.5032V24.4931C70.9861 24.4804 70.9845 24.4681 70.9842 24.4554ZM68.2517 65.6251V67.2658H3.72045V65.6251H68.2517ZM53.0758 26.5305H18.4178C14.6485 26.5305 11.5819 29.5971 11.5819 33.3664V62.8908H7.32887V28.6168L35.9862 8.91212L64.6433 28.6168V62.8908H59.9118V33.3664C59.9118 29.5971 56.8452 26.5305 53.0758 26.5305ZM31.064 53.505H57.1774V56.8307H14.3163V53.5048H19.4603C20.2154 53.5048 20.8275 52.8927 20.8275 52.1376C20.8275 51.3825 20.2154 50.7704 19.4603 50.7704H14.3163V47.445H57.1774V50.7707H31.064C30.3089 50.7707 29.6968 51.3828 29.6968 52.1379C29.6968 52.893 30.3089 53.505 31.064 53.505ZM57.1774 59.5651V62.8908H14.3163V59.5651H57.1774ZM14.3163 44.7106V41.3849H57.1774V44.7106H14.3163ZM14.3163 38.6506V35.325H39.4037C40.1587 35.325 40.7709 34.7129 40.7709 33.9579C40.7709 33.2028 40.1587 32.5907 39.4037 32.5907H14.3909C14.7547 30.6989 16.4216 29.2649 18.418 29.2649H53.0758C55.0722 29.2649 56.7391 30.6989 57.1029 32.5907H52.0334C51.2784 32.5907 50.6662 33.2028 50.6662 33.9579C50.6662 34.7129 51.2784 35.325 52.0334 35.325H57.1774V38.6506H14.3163ZM68.2517 26.5305H66.4353L36.7608 6.12634C36.294 5.80546 35.6781 5.8056 35.2115 6.12634L5.53703 26.5305H3.72045V25.2122L35.9862 3.02638L68.2517 25.2122V26.5305Z" fill="#693490"/>
<path d="M44.4488 33.2793H44.4238C43.8846 33.2793 43.4473 33.7165 43.4473 34.2559C43.4473 34.7952 43.8846 35.2324 44.4238 35.2324H44.4488C44.9881 35.2324 45.4254 34.7952 45.4254 34.2559C45.4254 33.7165 44.9881 33.2793 44.4488 33.2793Z" fill="#693490"/>
<path d="M27.2066 46.2649H27.1816C26.6423 46.2649 26.2051 46.7021 26.2051 47.2415C26.2051 47.7808 26.6423 48.218 27.1816 48.218H27.2066C27.746 48.218 28.1832 47.7808 28.1832 47.2415C28.1832 46.7021 27.746 46.2649 27.2066 46.2649Z" fill="#693490"/>
</svg>
