<svg width="66" height="57" viewBox="0 0 66 57" fill="none" xmlns="http://www.w3.org/2000/svg">
<path fill-rule="evenodd" clip-rule="evenodd" d="M59.4822 19.9514L59.5286 19.993C59.5147 20.0162 59.4962 20.0416 59.4892 20.0601C59.3198 20.4719 59.408 23.6368 59.4219 24.2499C59.5101 28.4512 59.3244 32.8747 59.4126 37.1246C59.4706 39.9193 59.4729 42.9153 59.4126 45.7077C59.3523 48.5186 59.5054 51.4012 59.4173 54.2122H55.1199C55.0201 51.7621 55.1291 49.09 55.1291 46.6146L55.1106 24.9902C55.1129 24.5159 55.1477 24.4974 54.9644 24.2152C54.6558 23.4124 53.8367 23.5697 52.8226 23.5628L12.0135 23.5767C11.4334 23.6553 11.4497 23.8728 11.1712 24.1712L11.0645 24.3609C11.025 24.4697 11.0297 24.465 11.0157 24.5807L11.025 39.1882C11.0691 41.6637 11.032 44.2155 11.0273 46.6979C11.0227 49.1525 11.1016 51.7575 11.0018 54.2098L6.7369 54.1936C6.67425 52.8009 6.71138 51.3203 6.71138 49.9183C6.70906 45.636 6.79259 41.3328 6.7137 37.0436C6.66033 34.2049 6.72994 31.3038 6.72994 28.4605C6.72994 27.0539 6.76475 25.5663 6.7253 24.1689L6.68817 20.1527C6.63945 19.9815 6.64641 20.0648 6.58608 19.9884C6.59304 19.2296 5.71824 19.2342 5.12189 19.1579C5.17759 19.1394 5.7136 18.7599 5.90619 18.6581L10.612 15.7547C10.8116 15.6274 10.8603 15.5858 11.0668 15.4609L14.4453 13.3903C14.5915 13.3093 14.4755 13.3787 14.6031 13.2977C14.6193 13.2885 14.6379 13.2746 14.6542 13.263L24.0518 7.4515C24.0681 7.44225 24.089 7.43068 24.1075 7.42143L29.0523 4.34446C29.238 4.23573 29.3122 4.18483 29.5164 4.05759C29.6765 3.9581 29.774 3.90952 29.9364 3.81467L30.9968 3.14606C31.0177 3.1345 31.078 3.09979 31.0989 3.08591L31.8716 2.60702C31.8925 2.59313 31.9598 2.55843 31.9807 2.54455C33.3056 1.75102 32.7395 1.69781 34.2013 2.54918L34.3104 2.60933C34.4821 2.70418 34.6677 2.82911 34.7791 2.90314L38.9767 5.49659C39.341 5.73025 39.4687 5.79272 39.8283 6.02638L44.6339 8.98999C47.8175 10.8801 50.8526 12.8628 54.129 14.8663L60.0763 18.5448C60.0763 18.7137 60.0438 18.6674 60.2201 18.6142L59.4822 19.9514ZM59.7537 20.1758L60.0206 20.3216C60.0043 20.4604 59.9904 20.4095 60.1459 20.3609C59.8373 20.5598 59.8257 20.3678 59.5611 20.5691C59.3825 20.5668 59.5356 20.4789 59.3593 20.6154L59.7537 20.1758ZM59.5054 20.3401L59.4149 20.4141L59.3569 20.5205L59.5054 20.3401ZM59.3987 20.4789L59.2989 20.6593L59.3987 20.4789ZM32.9599 43.9749L32.9344 47.068C32.9692 47.6186 33.0226 47.3757 33.0666 47.4081C33.0922 47.8107 33.3961 48.1577 33.9507 48.2086C34.5239 48.2618 34.7837 47.9819 35.1782 47.7922L35.51 47.6395C35.879 47.4544 36.0484 47.2601 36.3988 47.3341C36.8652 47.4313 37.8583 48.2271 38.4987 48.2109C38.812 48.204 39.0835 48.1207 39.3155 47.8778L39.4594 47.6881C39.7541 47.1675 39.5499 44.8633 39.5986 43.8337L41.6452 43.8407L41.6916 52.5001L30.8855 52.4793L30.8599 43.9078L32.9599 43.9726V43.9749ZM30.8158 52.5788C32.6188 52.5811 34.4589 52.6205 36.2619 52.5858C37.3733 52.5649 40.9955 52.7361 41.7844 52.5395C41.6754 52.7755 39.5058 52.6621 39.16 52.6621C38.2226 52.6621 37.2828 52.6552 36.3454 52.6598C36.1133 52.6598 31.0479 52.7662 30.8158 52.5788C30.7346 52.5349 30.7137 52.6181 30.7021 52.1855L30.7578 43.887C30.7625 43.8731 30.7787 43.8523 30.7903 43.8337L30.8158 52.5788ZM13.1389 56.0606C13.3246 55.9172 13.2642 55.3596 13.2642 55.1491C13.2619 54.8414 13.2596 54.5476 13.248 54.2561L13.2642 48.6297C13.2642 46.5128 13.3338 43.1837 13.2549 41.2149C13.1575 38.8134 13.2364 36.1922 13.2387 33.7723C13.2387 31.7086 13.1668 28.2407 13.2503 26.3506L52.7368 26.3436C52.6301 26.9151 52.7206 41.083 52.7206 42.1102C52.7229 45.9714 52.6347 50.1704 52.6973 53.9947C52.7066 54.5522 52.6672 55.4638 52.7252 55.975C52.7855 56.491 53.0918 56.9051 53.6534 56.9953C55.0804 56.8264 57.554 56.9837 59.1087 56.9791C59.9811 56.9768 60.9766 57.1526 61.3989 56.5233C61.7377 56.019 61.5915 54.7836 61.5961 54.0756L61.5915 32.6179C61.5822 30.9568 61.5126 22.9081 61.6124 21.9086C63.3016 21.7906 65.4434 22.332 65.9005 21.2446C66.2416 20.4326 65.636 19.9768 65.1371 19.6807C63.7123 18.8363 62.0416 17.7744 60.5519 16.8258C58.981 15.8241 57.4124 14.8802 55.9506 13.9895L37.5984 2.64403C36.7723 2.12349 36.1157 1.73251 35.3012 1.22122C34.7629 0.883451 33.5307 -0.0488929 32.8671 0.00200426C32.3798 0.0390204 24.6435 4.96911 23.5692 5.60532L18.9817 8.46019C17.4688 9.34858 15.9397 10.2971 14.4453 11.278L5.37946 16.8536C3.7923 17.823 2.30491 18.7368 0.77808 19.6923C-0.310195 20.3724 -0.205776 21.594 0.773439 21.8554C1.46956 22.0405 3.44888 21.8161 4.35384 21.9225C4.49306 23.5697 4.37936 25.7953 4.37472 27.5027V44.2571C4.35152 47.9958 4.37472 51.7413 4.37008 55.4823C4.36776 56.5419 4.68798 56.9722 5.71128 56.9837L11.3429 56.9791C12.3709 56.9884 13.0322 56.9398 13.1366 56.063L13.1389 56.0606ZM26.0984 10.9819C24.8825 11.3127 24.7967 13.152 26.6577 13.1427C28.3237 13.1335 39.2854 13.2376 39.8887 13.108C40.9839 12.8697 41.1811 10.9426 39.2482 10.9356C37.7887 10.931 36.3129 10.9264 34.8557 10.938C33.7558 10.9472 26.4999 10.8732 26.1008 10.9819H26.0984ZM21.576 15.403C20.5573 15.6876 20.6779 17.0271 21.4089 17.4112C21.815 17.624 23.9497 17.5222 24.5878 17.5268C26.6229 17.5407 43.8612 17.6147 44.3439 17.4806C45.221 17.2376 45.3811 15.949 44.548 15.4771C44.0608 15.1994 42.0142 15.3383 41.3088 15.3359H28.1474C27.015 15.3313 22.3046 15.1994 21.576 15.403ZM24.1887 51.9519L24.1911 45.9043L28.565 44.0674V50.1311C27.9455 50.3416 27.131 50.7511 26.4303 51.0496C25.9058 51.2717 24.7108 51.8755 24.1864 51.9519H24.1887ZM17.5988 44.0558C18.0652 44.1368 21.9588 45.9205 21.9867 45.9367L21.9751 51.9657C21.7709 51.9495 17.9097 50.2838 17.5825 50.0964L17.6011 44.0558H17.5988ZM35.4335 45.2404C35.2409 45.3838 35.6887 45.4092 35.1852 45.356C35.097 45.0969 35.0181 43.9795 35.2084 43.8754C35.3267 43.7412 35.1318 43.8476 35.3569 43.7643L37.3965 43.7875C37.617 44.2178 37.5149 44.9165 37.4824 45.4092C37.0253 45.3491 37.4824 45.5643 37.1413 45.2797C36.8025 45.2913 37.0276 45.2797 36.9742 45.1964C36.6424 45.2172 36.8652 45.1987 36.8095 45.1154L36.6378 45.0321L35.988 45.0113C35.705 45.0206 35.5681 45.1316 35.4335 45.2404ZM19.3762 42.3577C19.5827 42.1588 20.8868 41.6498 21.2348 41.504C21.5574 41.3699 21.8335 41.2472 22.17 41.1061C22.3811 41.0159 22.9218 40.7452 23.0981 40.7498L26.7574 42.3554C26.4627 42.5845 23.2629 43.9494 23.0308 43.9263C22.8197 43.9055 19.5502 42.4873 19.3785 42.3554L19.3762 42.3577ZM30.7973 32.8723L32.9622 32.877C33.055 34.2998 32.7325 36.3611 33.2964 36.9372C34.2245 37.8857 35.7073 36.3264 36.2711 36.3195C36.8907 36.3125 38.3108 37.9366 39.3016 36.884C39.5336 36.6364 39.5754 36.5184 39.5916 36.0974L39.5986 32.87L41.7868 32.8955V41.6267L30.7926 41.6128L30.8019 32.8723H30.7973ZM35.2014 32.8747L37.3873 32.9047L37.3803 34.3229C37.0021 34.2998 36.7654 33.9921 36.3523 33.962C35.7908 33.9227 35.6934 34.2165 35.1898 34.2928L35.2014 32.8747ZM28.565 40.6342C28.1056 40.5277 25.0473 39.1581 24.3628 38.862C23.3255 38.4132 23.3279 38.198 22.1746 38.7047L18.0744 40.4699C17.492 40.7383 16.5894 41.0529 16.0418 41.3375C15.167 41.7932 15.3804 42.7695 15.3804 43.6811V49.5412C15.3665 52.2248 15.1879 51.4568 20.1002 53.5944C20.8218 53.9091 21.4924 54.1798 22.2001 54.5083C23.2652 55.0011 23.4462 54.7281 24.4045 54.307L27.5301 52.979C27.8039 52.868 28.1752 52.6459 28.5766 52.5603C28.5674 53.3932 28.3794 54.6401 29.586 54.7928L34.7698 54.7952C44.8543 54.6934 43.9958 55.8732 43.9865 51.4383V34.6838C43.961 30.0846 44.6339 30.7046 39.4895 30.6838H31.1291C29.4398 30.6907 28.572 30.4038 28.5813 32.287C28.5929 35.0008 28.6764 37.9436 28.565 40.6342Z" fill="#CCCCCC"/>
</svg>
