<svg width="53" height="65" viewBox="0 0 53 65" fill="none" xmlns="http://www.w3.org/2000/svg">
<path fill-rule="evenodd" clip-rule="evenodd" d="M30.0558 61.6384H7.54141C5.01348 61.6384 3.16971 60.0739 3.16971 57.5946V53.2229H34.4275V57.4864C34.4275 60.0049 32.6559 61.6399 30.0558 61.6399V61.6384ZM16.3946 57.3765C16.3946 60.4113 21.0943 60.7565 21.0943 57.2667C21.0943 54.3465 16.3946 54.3465 16.3946 57.3765ZM16.7226 30.3822C16.7226 32.6496 19.0732 32.1302 21.6404 32.1302C23.9486 32.1302 23.9047 28.9605 21.7502 28.9605C19.839 28.9605 16.7226 28.4851 16.7226 30.3806V30.3822ZM27.542 40.4374C27.542 41.3114 28.1979 41.9673 29.0719 41.9673H35.0834C36.8095 41.9673 37.117 38.9074 34.9735 38.9074H28.8538C28.4913 38.9074 28.1037 39.1742 27.9139 39.3892C27.6801 39.6528 27.542 39.9855 27.542 40.4374ZM16.7226 39.9996C16.7226 40.8893 17.0082 41.8575 18.1427 41.8575H24.1542C24.5512 41.8575 24.8964 41.608 25.1176 41.4008C25.819 40.7449 25.6951 39.5994 25.0046 39.0392C24.7049 38.796 24.2342 38.6878 23.7164 38.6878H18.3608C17.5919 38.6878 16.721 39.2715 16.721 39.9996H16.7226ZM38.4712 40.2177C38.4712 41.1906 39.1381 41.8575 40.111 41.8575H45.7945C47.9835 41.8575 48.0008 38.6878 45.6847 38.6878H40.2208C39.2401 38.6878 38.4712 39.4033 38.4712 40.2177ZM16.7226 34.8621C16.7226 36.0798 17.2326 36.72 18.5805 36.72H25.466C28.2026 36.72 27.6942 33.5503 26.012 33.5503H18.2525C17.4648 33.5503 16.7226 34.1011 16.7226 34.8621ZM11.0391 6.77409C11.0391 7.84739 11.5867 8.52213 12.6789 8.52213H24.9199C27.0697 8.52213 27.1387 5.35242 24.8101 5.35242H12.6789C11.8346 5.35242 11.0391 5.98636 11.0391 6.77252V6.77409ZM42.0772 32.8944C42.0772 30.82 44.9189 31.2484 44.9189 32.6763C44.9189 35.1854 42.0772 34.7193 42.0772 32.8944ZM37.8153 31.4743C38.8557 31.4743 39.3452 32.3891 39.3452 32.8944C39.3452 35.0865 36.0312 34.6393 36.6306 32.4849C36.7451 32.0706 37.3273 31.4743 37.8153 31.4743ZM37.4873 36.8299C38.6658 36.8299 39.9651 36.7702 40.6571 35.7362C41.9077 36.5725 42.9935 37.3367 44.9362 36.6274C46.146 36.1849 47.4327 34.837 47.4327 33.2224C47.4327 31.9027 47.3088 31.1919 46.3296 30.1719C46.3139 30.1562 46.2919 30.1327 46.2747 30.117C46.259 30.1013 46.2354 30.0778 46.2198 30.0621C45.1512 29.0311 43.4376 28.6231 41.9657 29.2853C41.426 29.5285 41.2031 29.7592 40.7653 30.0526C39.419 29.1519 38.0742 28.4992 36.3167 29.3214C33.872 30.4653 33.3714 33.7559 34.9971 35.4929C35.529 36.061 36.4423 36.8299 37.4858 36.8299H37.4873ZM14.8647 27.4306H49.2906V43.4957H14.8647V27.4306ZM14.8647 20.327H49.2906V24.3707H14.8647V20.327ZM11.695 18.5789V45.0272C11.695 46.328 12.7322 46.667 13.8808 46.667H34.4275V50.0548H3.16971V13.6611H34.4275V17.1588H13.2249C12.7055 17.1588 12.4874 17.2796 12.205 17.5605C11.9712 17.7943 11.695 18.1631 11.695 18.5805V18.5789ZM3.16971 7.10361C3.16971 4.62433 5.01348 3.05987 7.54141 3.05987H30.0558C32.6669 3.05987 34.4275 4.69965 34.4275 7.21345V10.4914H3.16971V7.10361ZM0 7.75952V57.1584C0 59.487 0.52567 60.722 1.79356 62.3586C2.68798 63.5119 4.89579 64.6998 6.55754 64.6998H30.9298C31.8839 64.6998 32.7704 64.3781 33.475 64.0768C34.7444 63.5339 36.1379 62.1326 36.7608 60.9134C37.0527 60.3422 37.4873 59.1559 37.4873 58.3604V46.667H50.1646C51.1344 46.667 52.3505 46.3547 52.3505 45.2469V18.4706C52.3505 17.8618 51.6475 17.1588 51.0387 17.1588H37.4873V6.33943C37.4873 3.33604 34.1529 0 31.1479 0H6.66738C3.96999 0 1.3636 2.0917 0.45035 4.60236C0.144363 5.44186 0 6.62815 0 7.75952Z" fill="#CCCCCC"/>
</svg>
