<svg width="70" height="64" viewBox="0 0 70 64" fill="none" xmlns="http://www.w3.org/2000/svg">
<path fill-rule="evenodd" clip-rule="evenodd" d="M35.9637 59.8433C38.1558 59.8433 42.0238 60.1477 44.1626 60.132C46.918 60.1116 49.4617 60.562 52.2202 60.562V62.0009L46.6026 61.5772C43.8236 61.3466 38.8258 61.425 35.9637 61.425V59.8433ZM18.2682 54.232L18.7625 55.0322C18.7782 55.0464 18.8174 55.073 18.8441 55.095C19.8923 54.8518 19.6397 54.833 20.2846 53.2277C21.0221 51.3949 22.1519 46.7533 22.1519 44.8813C22.1519 44.2835 21.6184 44.3054 21.2889 44.3054C20.6063 44.3054 20.5686 45.9625 20.4384 46.6199L19.1485 51.8045C19.0261 52.2077 18.2667 54.1158 18.2667 54.232H18.2682ZM47.0404 45.0257C47.0404 46.7753 47.6979 48.9674 48.0776 50.4628C48.3664 51.602 49.1384 54.9522 50.2054 54.9522C51.6302 54.9522 50.3576 52.5938 50.116 51.8766L48.8057 46.5682C48.6394 45.6094 48.7665 44.3054 47.7591 44.3054C47.4233 44.3054 47.0404 44.6883 47.0404 45.0241V45.0257ZM28.3375 25.4598C28.3375 27.2941 30.6395 27.1968 30.6395 25.6041C30.6395 24.6454 30.2645 25.4174 30.3225 24.297C30.4465 21.9009 30.3523 17.1416 30.3523 14.5274C30.3523 12.6789 30.7572 11.218 29.345 11.218C28.4819 11.218 28.7691 12.9676 28.7691 14.383C28.7691 15.5928 28.9072 24.0993 28.6733 24.7897C28.6121 24.9686 28.3375 25.397 28.3375 25.4613V25.4598ZM40.8532 26.8987C41.495 26.8987 42.1478 26.3165 42.1478 25.7485C42.1478 24.4571 41.7162 26.3918 41.7162 22.5835V11.6495C39.9211 10.4476 40.133 12.1815 40.1345 13.9515L40.0984 24.7066C40.0294 25.0439 39.816 25.2322 39.7877 25.6292C39.7532 26.1219 40.1989 26.8987 40.8532 26.8987ZM17.1165 61.8581V60.5635C18.2227 60.5635 19.6036 60.2795 20.7083 60.2717L28.2983 59.9484C29.505 59.7837 32.9352 59.8433 34.5232 59.8433V61.2822C32.5963 61.2822 26.5048 61.2838 25.0486 61.447L17.1149 61.8581H17.1165ZM59.5561 50.2055C61.3826 50.0533 61.0342 49.9183 63.4398 49.9183C64.4503 49.9183 64.9163 50.138 65.7417 50.2055C65.7276 50.863 65.5048 51.318 65.4546 51.9316H59.9876C59.9547 51.5346 59.691 50.4879 59.5561 50.2055ZM9.34752 51.9316H3.88054C3.82876 51.318 3.6075 50.8614 3.59338 50.2055C5.48266 50.0486 4.79693 49.9183 7.47706 49.9183C8.48761 49.9183 8.95366 50.138 9.77904 50.2055C9.64252 50.4879 9.38047 51.5346 9.34752 51.9316ZM16.109 32.0785C16.8418 31.8823 17.2373 30.9911 17.5511 30.3555C17.8241 29.8032 18.2039 28.6593 18.2667 27.9061C18.83 28.2042 19.5298 28.4412 20.1983 28.7079L33.5629 34.0462C34.0085 34.2126 34.3804 34.211 34.3804 34.6676V58.4044C28.6608 58.4044 25.8394 58.3887 20.1293 58.828C18.9869 58.9159 18.1442 58.9803 16.9721 58.9803L16.6896 50.6307C16.6802 49.8556 16.5563 49.7834 16.5359 49.0584C16.5029 47.9584 16.6222 46.6796 16.5327 45.6078C16.3162 42.9905 16.109 34.5436 16.109 32.0769V32.0785ZM52.363 58.9803C51.092 58.9803 49.6845 58.7213 48.4825 58.6884C44.3901 58.5754 39.9729 58.2616 35.9621 58.2616V34.3805C36.4486 34.2675 37.2755 33.8548 37.8122 33.6398L51.2128 28.3376C51.2379 29.4454 52.1088 31.7788 53.2261 32.0785C53.2261 34.5185 53.0739 36.4706 53.0833 38.84C53.088 40.1236 52.9358 40.8376 52.9389 42.1478C52.9421 43.4126 52.8903 44.409 52.8024 45.4635C52.6188 47.6823 52.8275 49.9936 52.6439 52.2093C52.4666 54.3575 52.3646 56.6689 52.3646 58.9787L52.363 58.9803ZM15.5347 30.7839C14.5179 30.7839 13.6878 30.4968 12.5141 30.4968L12.3697 27.9076C10.2608 27.4165 11.0673 28.2764 10.9355 32.6591C10.9104 33.5127 10.7849 34.1765 10.7864 35.2435L10.788 40.712C10.7943 41.7838 10.6342 42.2247 10.6405 43.298C10.6499 45.0461 10.8492 47.2664 10.4993 48.7666C8.59902 48.7242 7.28563 47.7733 3.01907 48.7666L1.9285 38.2045C1.22551 33.1094 1.50954 34.2863 4.46428 29.3529L11.4941 17.9686C12.0559 17.0176 12.6381 17.14 14.0017 16.4465C14.5807 16.1515 14.8663 15.9789 15.5347 15.8219C15.5834 16.3994 15.8721 17.038 16.0573 17.6014C17.1698 20.9892 17.402 24.421 16.7257 27.9469C16.4652 29.3026 16.1546 29.8566 15.5347 30.7839ZM53.9463 15.6776C54.6242 16.0353 55.2832 16.2723 56.0082 16.6379C58.2725 17.7803 57.0627 16.6614 59.01 19.6774C61.654 23.7729 64.4331 28.7173 67.0661 32.7689C68.0861 34.3397 67.9166 34.8716 67.5306 37.6051L66.462 48.765C65.7323 48.765 65.3118 48.5594 64.7139 48.4982C62.7588 48.2974 62.7368 48.2519 60.7439 48.5139C60.5399 48.5406 60.0912 48.6473 59.7742 48.7116L59.0508 48.7791C58.6648 48.7446 58.6868 39.1382 58.6946 37.9723C58.7009 36.9005 58.5408 36.4596 58.5471 35.3863L58.5487 29.7734C58.5581 27.553 58.4153 27.4557 57.1097 27.7601C56.865 28.8099 56.9654 29.0955 56.9654 30.3493C54.2743 30.4089 53.4473 31.9404 52.6094 27.5122C51.9974 24.275 52.3928 20.6471 53.35 17.5276C53.5477 16.8843 53.7925 16.3241 53.9432 15.676L53.9463 15.6776ZM35.3878 9.49193C35.6279 9.99407 35.8052 11.546 35.9637 12.2254H34.382C34.4243 11.7139 34.5844 11.1788 34.6785 10.6531C34.8355 9.78851 34.6173 9.67239 35.3878 9.4935V9.49193ZM32.6543 13.0885C32.6543 13.906 33.8626 13.8071 34.3804 13.8071V32.6528C33.6994 32.4943 33.1282 32.1287 32.4205 31.8792L20.611 27.145C19.9221 26.8689 19.1689 26.6178 18.5554 26.3228C18.5554 17.4915 16.8638 16.6771 16.8293 15.1017C17.4209 15.0531 21.1006 13.3144 21.8647 12.9441C22.2586 12.7527 23.1656 12.3243 23.5908 12.2238C24.0663 12.5424 24.8618 13.2313 25.6056 13.2313C26.023 13.2313 26.3212 12.748 26.2929 12.3855C26.1972 11.1756 24.4554 12.3384 24.4554 9.49193C24.4554 8.91919 24.683 8.18796 24.9387 7.81763C25.2526 7.36258 25.7343 7.20095 26.1815 6.90281C26.1815 4.65263 26.1595 5.92836 26.4687 4.60085C26.9378 4.94449 27.1607 5.91738 29.7247 6.66744C31.0396 7.05345 32.7563 7.33276 34.382 7.33276C34.382 9.21262 33.6963 7.48654 33.2145 9.90619C33.0513 10.7253 32.6559 12.2238 32.6559 13.0869L32.6543 13.0885ZM44.8828 9.20478C44.8828 12.5314 42.868 10.7457 42.868 12.5141C42.868 13.5514 44.7086 13.4148 45.6015 12.0826L51.5957 14.7204C51.999 14.9103 52.0617 14.9997 52.5074 15.1033C52.4336 15.993 50.7813 19.6209 50.7813 23.1594C50.7813 24.4963 50.6668 25.6433 50.9257 26.7559C50.3278 26.8061 39.9839 31.0868 37.9581 31.9169C37.3446 32.1679 36.6667 32.386 36.1065 32.6544V13.8087C37.2614 13.8087 37.0668 13.8903 37.8326 13.3772C37.8326 12.5298 37.4999 11.342 37.3414 10.4162C37.1704 9.42446 36.9742 8.42961 36.1065 8.19894V7.3359C37.955 7.18212 41.0415 6.60467 42.3298 5.21596C42.9606 4.53651 42.5699 4.76247 43.0124 4.60242C43.447 6.46815 43.0469 6.66901 43.5004 7.12563C43.8221 7.45045 44.0778 7.50851 44.3932 7.96827C44.5878 8.25072 44.8828 8.81091 44.8828 9.20478ZM27.9076 3.73781C28.1728 2.74609 29.6698 2.21886 30.6081 1.97877C33.5487 1.23028 37.5705 1.19105 40.282 2.5829C40.8406 2.86849 41.2518 3.06934 41.4291 3.73781C39.5869 6.48855 29.7482 6.48855 27.906 3.73781H27.9076ZM23.0165 10.6437L11.1317 16.0212C10.6405 16.3508 10.198 17.1087 9.87946 17.6453C8.64295 19.726 0 33.2789 0 34.0917L0.679451 41.7571C0.801846 42.7049 0.784585 43.4644 0.905411 44.409C1.02153 45.3175 1.21297 48.8042 1.49228 49.4335C1.70411 49.9105 1.78414 49.7865 1.95047 50.2698C2.30196 51.2913 2.13406 52.5451 2.87941 53.6576C4.1677 53.6576 7.18677 53.4066 8.32599 53.5353C10.8665 53.8208 10.4836 53.9464 11.1081 51.3839C11.5287 49.6578 11.91 49.7755 12.0559 48.8795C12.2175 47.8925 11.9837 46.5399 12.1265 45.4964C12.387 43.5915 12.2395 40.9961 12.2301 38.8385C12.2254 37.5549 12.3776 36.8409 12.3744 35.5307C12.3713 34.3805 12.3744 33.2287 12.3744 32.0785C13.1198 32.0785 13.8526 32.3092 14.532 32.3656C14.532 33.7638 14.5211 35.0803 14.6544 36.2713L14.8129 44.1689C14.8223 44.9849 14.9667 45.1638 14.9667 46.0284L15.1016 52.0791C15.0985 52.9609 15.2319 53.1916 15.2538 53.9417C15.2742 54.6054 15.235 55.3006 15.2429 55.9659L15.4312 59.8056C15.5771 60.8711 15.4202 62.7447 15.8235 63.5858C16.3177 63.7019 17.1368 63.6532 17.9591 63.5638C21.3359 63.1982 31.1809 62.8655 34.5248 62.8655L42.4428 63.0052C43.1677 63.0271 43.2399 63.1495 44.0151 63.1589L53.1288 63.614C53.6544 63.4649 53.6639 63.2217 53.6702 62.5878L53.9494 57.8316C54.0577 55.82 53.8945 53.4662 54.1126 51.522L54.3731 43.5836C54.3825 42.8084 54.5049 42.7363 54.5269 42.0113C54.5599 40.9207 54.4845 39.7847 54.5175 38.6925L54.8094 32.3672C55.2487 32.2652 56.3314 32.091 56.8226 32.0801C56.8226 35.5401 57.1113 40.2554 57.1097 43.7327C57.1097 45.3991 56.8995 48.1169 57.3545 49.3864C57.7249 50.4158 57.7359 49.5213 58.1784 51.5848C58.4985 53.0802 58.4059 52.9468 58.9802 53.8036C59.8919 53.8036 60.1806 53.6592 61.1378 53.6592H64.1584C65.1156 53.6592 65.4044 53.8036 66.316 53.8036C67.1336 52.5828 66.7993 52.4431 67.2591 50.5758C67.4443 49.8242 67.6891 49.7818 67.8664 49.0255L68.8644 39.2339C69.0385 37.8687 69.0856 36.6024 69.2049 35.2576C69.3791 33.2867 69.1468 33.4342 68.3371 32.0722L61.756 21.3893C61.3559 20.713 58.9206 16.5908 58.351 16.164L46.4614 10.7896C46.4614 9.64571 46.8772 8.41078 45.4775 6.73805C44.3995 5.44977 45.0366 6.60624 44.6788 4.80327C44.1124 1.94425 39.0691 5.63414e-05 35.8162 5.63414e-05C33.0607 5.63414e-05 29.3732 -0.0376039 27.2925 1.83441C25.3247 3.60443 25.1349 3.4836 24.6171 5.63336C24.3346 6.80709 23.7901 5.95661 23.1295 8.03104C22.9333 8.64929 23.0118 9.79635 23.0118 10.6468L23.0165 10.6437Z" fill="#CCCCCC"/>
</svg>
