<svg width="59" height="56" viewBox="0 0 59 56" fill="none" xmlns="http://www.w3.org/2000/svg">
<path fill-rule="evenodd" clip-rule="evenodd" d="M13.186 3.68644L40.9418 3.68455C42.11 3.68644 43.2591 4.12148 43.8911 4.99343C44.6812 6.08291 44.7309 7.4353 43.9084 8.521C42.6807 10.141 40.9849 9.81097 38.8332 9.81097H13.187C14.1704 7.97531 14.1704 5.5221 13.187 3.68644H13.186ZM21.3734 31.0368C21.2393 31.6071 21.314 33.37 21.314 34.0679C21.314 34.3015 21.6109 34.3658 21.856 34.3658H24.204C24.4243 34.3658 24.6857 34.2012 24.6857 34.0093V31.3934C24.6857 31.1929 24.5785 30.9763 24.385 30.9763C23.8957 30.9763 21.6856 30.9167 21.3744 31.0359L21.3734 31.0368ZM16.3777 29.1927V33.9497C16.3777 34.2343 16.5807 34.3667 16.8593 34.3667H19.2667C19.4879 34.3667 19.7493 34.2022 19.7493 34.0102V29.135C19.7493 28.89 19.418 28.7785 19.147 28.7785H16.98C16.6487 28.7785 16.3786 28.8569 16.3786 29.1946L16.3777 29.1927ZM26.8518 19.9775C26.8518 20.2556 27.5719 20.7776 27.6954 20.8098C27.637 21.0235 26.7005 22.0402 26.4458 22.3106L23.8162 25.3039C23.4619 25.754 22.8519 26.3205 22.5177 26.8151C22.2726 26.7584 22.1299 26.5957 21.9346 26.4397L18.74 23.8853C18.1626 23.3717 17.5814 23.4048 17.5814 24.1387C17.5814 24.5397 18.1913 24.8234 18.6807 25.2528L21.1465 27.2161C21.361 27.3901 21.5305 27.531 21.743 27.6984C22.1098 27.9859 22.5608 28.4314 23.075 27.8403L28.5381 21.5815C28.765 21.7328 28.8771 21.8425 29.0801 21.9985C29.2668 22.1432 29.3904 22.3551 29.6815 22.3551C30.2867 22.3551 30.0339 21.7252 30.188 20.7152L30.2694 19.2181C30.0951 18.5977 29.2266 19.0649 28.2728 19.2994C27.9702 19.3732 27.7328 19.4347 27.4532 19.4999C27.2664 19.5425 26.8518 19.6106 26.8518 19.9766V19.9775ZM13.8477 35.9707C13.8477 36.1447 14.0258 36.6242 14.45 36.6242H31.6081C32.3426 36.6242 32.3426 35.3163 31.6081 35.3163H14.45C14.0268 35.3163 13.8477 35.792 13.8477 35.9698V35.9707ZM26.1891 26.6364V33.8892C26.1891 34.1776 26.3806 34.3658 26.6708 34.3658H29.1395C29.4306 34.3658 29.6211 34.1776 29.6211 33.8892V26.6364C29.6211 26.4189 29.4555 26.1597 29.2601 26.1597H26.5511C26.3567 26.1597 26.1901 26.4189 26.1901 26.6364H26.1891ZM44.7922 52.6183C44.7922 52.3015 45.0776 52.0348 45.2739 51.9043C45.7757 52.0197 46.3091 52.3772 47.8067 52.6732C50.375 53.1801 54.0904 53.1006 56.5323 52.1436C56.719 52.0698 56.9488 51.9478 57.1337 51.9043C58.2109 52.6174 57.2715 53.2747 56.493 53.6501C55.4416 54.157 53.3732 54.593 52.1973 54.5807C51.7539 54.576 51.5595 54.6479 51.1727 54.6441C50.1251 54.6327 48.4349 54.4483 47.4323 54.1712C46.7811 53.9915 45.7623 53.6444 45.2567 53.2274C45.1015 53.0988 44.7913 52.8548 44.7913 52.6174L44.7922 52.6183ZM59 46.3113V52.7403C58.9952 56.1865 48.2415 57.1654 44.4465 54.3859C43.1691 53.4496 43.4066 52.623 43.4066 51.0134C41.3066 51.0134 35.4596 50.4346 35.4596 47.6239V35.5536C35.4596 33.0257 40.2715 32.1642 43.105 32.1642C44.6199 32.1642 45.8102 32.2653 47.2437 32.5945C49.0047 33.0011 51.1123 33.8135 51.1123 35.8496V43.1629C52.1877 43.1629 52.9116 43.2112 53.9248 43.3578C54.2934 43.4117 54.7311 43.4958 55.0921 43.5724C56.4011 43.8505 58.9943 44.8009 58.999 46.3084L59 46.3113ZM44.7922 49.5863C44.7922 49.314 45.1485 49.0577 45.2739 48.8723C46.74 49.6383 48.6427 49.853 50.3309 49.9429C51.3096 49.9939 50.8701 50.0346 51.9588 49.9457C52.2586 49.9211 52.5305 49.9618 52.8341 49.9173C53.4134 49.8332 53.9133 49.8105 54.4294 49.7102C54.9322 49.6119 55.3621 49.5192 55.8438 49.382C56.2498 49.2676 56.9948 48.9319 57.194 48.9319C57.2246 48.9319 57.6163 49.1976 57.6163 49.5854C57.6163 50.3126 55.839 50.9538 55.1486 51.1316C52.8283 51.7312 49.6233 51.8097 47.3136 51.1383C46.763 50.9784 46.2947 50.8337 45.8283 50.5841C45.5028 50.41 44.7922 50.0128 44.7922 49.5854V49.5863ZM36.8452 47.6249C36.8452 47.414 37.0635 47.1095 37.1938 47.0111C37.4226 46.8409 37.55 46.9979 37.842 47.1151C39.5638 47.8074 41.4426 47.9814 43.4076 47.9814V49.6459C41.6676 49.6459 39.4278 49.3584 37.9665 48.6576C37.6486 48.5044 36.8452 48.0051 36.8452 47.6258V47.6249ZM36.8452 44.5919C36.8452 44.3196 37.2014 44.0642 37.3269 43.8789C38.9165 44.7092 41.3966 45.0081 43.7695 45.0081C43.9764 45.0081 44.0022 44.9646 44.1909 44.9485C43.8825 45.4043 43.4085 45.6086 43.4085 46.6139C41.772 46.6139 40.7857 46.5335 39.2669 46.1259C38.679 45.968 36.8462 45.3145 36.8462 44.591L36.8452 44.5919ZM36.8452 41.6195C36.8452 41.4086 37.0635 41.105 37.1938 41.0067C37.4226 40.8355 37.55 40.9925 37.842 41.1107C40.7474 42.2787 44.9972 42.2163 48.0088 41.349L49.2469 40.9064C49.4394 41.1892 49.6683 41.1892 49.6683 41.6205C49.6683 42.7913 45.6426 43.5961 44.3115 43.5838C43.8653 43.5791 43.6805 43.6462 43.2859 43.6462C42.8981 43.6462 42.7497 43.5772 42.3226 43.5829C41.5824 43.5914 40.2178 43.3861 39.5322 43.1875C38.926 43.0116 38.4903 42.8802 37.9876 42.6305C37.7434 42.5095 37.5145 42.4102 37.3106 42.2286C37.1698 42.1047 36.8442 41.8323 36.8442 41.6195H36.8452ZM36.8452 38.5875C36.8452 38.3142 37.2014 38.0589 37.3269 37.8735C39.9727 39.2562 45.5392 39.3526 48.5259 38.1714C48.7126 38.0976 49.0688 37.9019 49.2671 37.969C49.8541 38.1714 50.1614 39.3394 47.2485 40.1215C44.4762 40.8658 40.4639 40.8478 37.888 39.5796C37.5586 39.4169 36.8452 38.997 36.8452 38.5875ZM0.00095759 46.386V6.2853C0.00574554 5.33484 0.40123 4.32575 0.723938 3.68644C1.81751 1.51411 4.20191 0 6.92529 0H41.0605C43.3444 0 45.5401 0.974098 46.8319 2.68303C47.3892 3.42258 47.6956 4.01934 47.9762 4.88279C48.4282 6.27017 48.2807 8.18337 47.6621 9.49415C47.3557 10.142 47.0186 10.646 46.581 11.1605C45.8398 12.0315 44.12 13.1759 43.1059 13.2581V29.9663H39.3732V13.556H7.04499C6.4216 13.556 6.00217 13.3537 5.65744 13.0832C4.76976 12.3871 4.81476 10.6129 6.06442 10.0294C6.35361 9.89419 6.71079 9.85352 7.05552 9.82042C7.53719 9.77219 7.69328 9.77125 8.06961 9.63222C11.3474 8.43493 10.681 3.85383 6.90901 3.71954C5.21503 3.65901 3.7346 5.05112 3.7346 6.65886V45.2454C3.7346 45.4412 4.47482 46.0748 4.63665 46.1978C4.9766 46.4541 5.24376 46.7681 5.55498 47.0745L7.406 48.8127L8.29465 48.0259C8.58001 47.7639 8.82802 47.4982 9.10572 47.223L9.95032 46.4512C10.2386 46.177 10.477 45.9273 10.7614 45.6474L11.6357 44.8463C11.9239 44.5721 12.1633 44.3234 12.4468 44.0434C12.9552 43.5403 13.6256 42.813 14.5439 42.9483C15.0667 43.0249 15.4009 43.1838 15.6987 43.4769C15.8529 43.6282 15.9649 43.7408 16.1191 43.8949C16.2924 44.068 16.3547 44.1021 16.5385 44.2534C17.0911 44.7102 19.4036 47.0783 19.8413 47.413C20.3919 47.832 20.9731 48.6501 21.4931 48.9924C21.7229 48.9319 22.1931 48.4496 22.3808 48.2651C22.6556 47.9928 22.8874 47.7649 23.1631 47.4915C23.4581 47.2003 23.7128 47.0092 24.0058 46.7189L25.2153 45.5358C25.877 45.0147 27.4292 43.215 28.1512 43.0249C29.3147 42.7156 29.759 43.2622 30.3843 43.7786C30.979 44.2704 31.3821 44.8596 32.0017 45.3324C32.6586 45.8327 32.5753 45.9197 32.5705 46.3765L32.5696 51.0153L31.8044 50.3439C31.317 49.941 29.0255 47.5927 28.7172 47.3885L27.0165 48.9792C26.4371 49.4823 26.0733 49.9703 25.3627 50.5566C24.7786 51.0399 24.3257 51.6508 23.7099 52.1351C23.2129 52.5275 22.6202 53.4525 21.7928 53.4525C21.0871 53.4525 20.7519 53.478 20.1822 52.903L15.9985 48.9489C15.6968 48.6501 14.6712 47.6145 14.3275 47.3875C14.1848 47.5984 13.7452 48.0107 13.5307 48.2056L9.82679 51.6821C9.68315 51.8135 9.57686 51.9298 9.43609 52.0689C8.94006 52.5587 8.4086 53.2728 7.46537 53.2728C6.34308 53.2728 5.8164 52.5077 5.16237 51.8617C4.83775 51.5402 4.54855 51.3151 4.22968 50.9992L0.586045 47.5218C0.342817 47.2844 0.00478795 46.8305 0 46.386H0.00095759Z" fill="#CCCCCC"/>
</svg>
