<svg width="41" height="66" viewBox="0 0 41 66" fill="none" xmlns="http://www.w3.org/2000/svg">
<path fill-rule="evenodd" clip-rule="evenodd" d="M16.4591 61.1932L24.1684 61.1979L23.7902 62.9914L17.035 63.0401C16.7698 62.9899 16.8639 63.0652 16.7808 62.767L16.4575 61.1947L16.4591 61.1932ZM30.5941 2.07487C29.8409 2.21924 29.8174 2.87201 29.5004 3.54832L28.0097 7.12444C27.8088 7.96081 28.4491 8.59004 29.2462 8.35624C29.9084 8.16323 30.0308 7.45868 30.2756 6.84827C30.4843 6.32574 30.762 5.71533 31.0288 5.07041C31.1669 4.73618 31.6894 3.6409 31.7569 3.26116C31.8918 2.49541 31.3693 1.92737 30.5941 2.07487ZM9.56417 2.07958C8.19586 2.57387 9.07302 3.78212 9.80112 5.53959C10.0742 6.19864 10.275 6.67723 10.559 7.32216C10.7206 7.69091 11.0172 8.70459 11.976 8.38919C12.6805 8.15696 12.8437 7.57323 12.4938 6.79649C12.18 6.10135 10.8242 2.62565 10.5575 2.34006C10.3158 2.08115 10.0004 1.92109 9.56574 2.07958H9.56417ZM0.72193 7.98121C-0.0202849 8.2056 -0.238404 9.08276 0.295112 9.67434L2.97839 12.3607C3.32674 12.7185 3.86339 13.5188 4.68877 13.2473C5.26936 13.0559 5.66323 12.2446 5.05596 11.5871L2.37268 8.90388C1.84545 8.37664 1.44061 7.76153 0.723501 7.97964L0.72193 7.98121ZM19.9332 0.0679107C19.2836 0.328392 19.3055 0.822679 19.3055 1.59L19.3134 5.88167C19.4075 6.50619 20.0274 6.88907 20.7225 6.63487C21.3204 6.41675 21.336 5.84558 21.3266 5.10336C21.3156 4.30936 21.3753 1.29657 21.3047 0.806987C21.2074 0.121262 20.4495 -0.13765 19.9316 0.0694799L19.9332 0.0679107ZM39.3909 7.96709C38.9468 8.06437 35.4334 11.7284 35.3455 11.9261C34.9705 12.7687 36.0674 14.0492 37.2913 12.7452C37.4796 12.5443 37.7934 12.2399 37.9613 12.0752C38.2391 11.8021 40.4438 9.70415 40.5803 9.31186C40.858 8.51002 40.1817 7.79134 39.3909 7.96709ZM11.9038 58.1035C11.7657 57.3393 12.2521 56.7854 12.77 56.6034C13.1952 56.4527 14.642 56.5155 15.1708 56.5218L24.8635 56.5233C26.3589 56.5233 28.4538 56.1295 28.7252 57.5966C28.8633 58.3388 28.3879 58.9289 27.8685 59.0968C27.4338 59.2364 21.3627 59.1752 20.6142 59.1768C18.6386 59.1799 15.1896 59.2395 13.3035 59.1705C12.544 59.1423 12.0231 58.7657 11.9038 58.105V58.1035ZM13.3804 54.3955C12.3306 54.3987 11.5617 53.5466 12.0011 52.5424L12.0999 52.3431C12.442 51.7389 13.1136 51.7452 13.8276 51.7452H23.8185C24.7176 51.7374 27.6582 51.6024 28.2153 51.9884C28.5071 52.1893 28.7692 52.6208 28.7519 53.1135C28.7033 54.4787 27.3428 54.3893 26.7261 54.3877L13.3804 54.3955ZM9.6238 26.3859C9.76502 25.8085 9.38529 25.3111 8.9114 25.1463C8.23038 24.9109 7.81298 25.4947 7.60586 25.6359C7.46306 24.062 8.83294 23.144 10.0255 23.0044C10.5543 23.9537 10.7301 24.685 12.2019 25.4397C12.8688 25.7818 14.7769 26.8316 15.5411 26.1929C15.811 25.9685 15.9852 25.7598 15.9962 25.4444C16.0338 24.4621 15.0437 24.4982 13.9625 24.0463C11.5398 23.0311 11.4786 21.9217 13.021 20.2427C13.5687 19.6464 14.4349 19.0203 15.3826 19.1238C15.6133 19.149 16.0213 19.218 16.3037 19.3121C17.3488 19.6558 18.2558 20.3839 18.8081 21.374C19.0592 21.8244 19.7998 22.1398 20.3804 21.6376C21.4631 20.7009 19.8689 19.2761 19.4483 18.81C20.393 18.1447 22.4502 17.9093 23.7259 18.3142C25.204 18.7833 25.7391 19.4942 26.6869 20.4011C26.5818 20.715 26.7261 20.4922 26.4358 20.7683L25.6465 21.5309C25.1099 22.1492 23.2316 25.0129 24.4916 25.6123C25.998 26.3279 26.0373 24.696 26.4955 23.8031C26.6084 23.5834 26.7669 23.3339 26.883 23.155L27.3255 22.6184C27.7288 22.2292 28.0223 21.9138 28.6625 21.9374C30.3556 22.0001 34.7759 26.6637 31.3567 28.9609C30.6836 29.4144 29.4424 29.9574 28.4161 30.0798C28.1556 29.4348 27.4793 28.6471 27.0713 28.1622C26.588 27.5879 25.9792 26.9838 25.3249 26.626C22.9774 25.3409 21.5134 26.8363 20.3129 27.1062C19.781 26.6543 19.4091 25.5778 19.4358 24.7038C19.4515 24.2064 19.6555 23.8172 19.3118 23.3198C19.1376 23.0687 18.7956 22.7643 18.2809 22.9008C16.2535 23.4375 18.1067 27.5597 18.1067 27.5612C14.0347 28.2438 13.021 27.533 12.4922 27.613C11.5413 27.759 11.3624 28.8291 11.9948 29.4066C12.5895 29.9511 13.7648 29.6906 14.4961 29.9213C14.5824 30.7953 14.1681 31.2708 14.1085 31.8639C14.0441 32.5104 14.5714 33.0408 15.2461 32.9937C15.8722 32.9498 16.1154 32.3519 16.3006 31.787C16.7117 30.5285 16.321 29.9071 16.7808 29.7581C16.9377 29.7079 19.1627 29.5682 21.5369 28.7538L22.4721 28.3427C24.421 27.4906 25.7344 29.3878 26.6053 30.935C29.5067 36.0975 25.1476 34.9128 23.7604 35.2109C23.3242 35.3051 22.9099 35.677 22.8738 36.1289C22.7593 37.56 24.7207 37.152 25.3955 37.2195L22.0673 49.7147L18.3531 49.7084L14.9527 37.152C15.1708 37.0045 17.0036 36.5526 18.0031 36.0928C19.067 35.6048 18.3499 33.8097 16.8577 34.4452C14.8381 35.3035 12.1407 35.7586 10.3064 34.4059C9.04478 33.4754 8.22881 32.2185 7.92596 30.6807C7.57761 28.9076 8.1378 27.9174 9.21895 26.943C9.36488 26.8112 9.55319 26.6715 9.6238 26.3844V26.3859ZM13.0069 49.812C12.8233 49.3522 12.6335 48.6257 12.4734 48.2036C12.0827 47.179 11.6025 46.2516 10.9576 45.3964C9.8529 43.9308 9.32252 43.4051 7.85849 42.1168C7.17747 41.519 6.38034 40.6402 5.81073 39.8776C2.31463 35.1984 0.914937 28.8433 3.08509 22.6859L3.84456 20.8327C3.96696 20.5832 4.07366 20.3713 4.1992 20.1407C4.28707 19.979 4.31846 19.9445 4.4283 19.7782C4.56638 19.5695 4.5146 19.6385 4.61817 19.4408C5.00732 18.7017 5.52671 18.0615 6.03355 17.426L7.405 15.8914C8.29628 14.9734 9.28486 14.1088 10.4052 13.4529L12.4765 12.3105C12.7103 12.1819 12.9363 12.0987 13.1968 11.992C13.7021 11.7864 14.2105 11.5542 14.7754 11.4004C15.8989 11.0929 17.104 10.8041 18.2997 10.6786C19.7151 10.528 21.2199 10.5327 22.662 10.7163C22.7452 10.7272 22.8409 10.7351 22.9272 10.7461C23.0841 10.7649 23.2426 10.7869 23.3979 10.8136L25.9823 11.4177C26.8218 11.6546 27.5295 11.9936 28.2827 12.3403C28.4773 12.4298 28.7064 12.5506 28.9669 12.6918C29.9351 13.2097 30.7385 13.7291 31.5858 14.3991C33.4971 15.9071 35.1368 17.7901 36.3985 20.2458C37.4106 22.2135 38.1167 24.2299 38.4305 26.7249C38.7585 29.3297 38.4792 32.0491 37.6946 34.4091C36.6778 37.4611 34.5861 40.725 32.0174 42.666C30.7542 43.6201 29.4157 45.3226 28.7158 46.7506C28.369 47.4598 27.9893 48.2036 27.7508 48.9866C27.6645 49.2706 27.6394 49.652 27.3977 49.7116L24.2923 49.7132C24.3755 49.2628 24.4854 48.905 24.6172 48.4735L24.7019 48.1769C24.7317 48.0624 24.7458 47.9918 24.7741 47.8772C24.8259 47.6732 24.8761 47.5022 24.9341 47.2935C24.9891 47.0958 25.0456 46.9012 25.1005 46.7035L25.4159 45.5439C25.4222 45.5235 25.4269 45.5031 25.4331 45.4827L25.4912 45.241C26.0796 42.7461 26.8093 40.4315 27.4511 38.0213C27.9203 36.2638 27.6158 36.8821 28.5197 36.1901C28.9198 35.8825 29.2446 35.3929 29.4627 34.9049L29.6244 34.384C29.8221 33.5084 29.6605 32.5951 29.3874 31.8576C29.6777 31.6521 30.2379 31.5265 30.5816 31.3837C30.9707 31.2205 31.352 31.0683 31.6596 30.8989C32.2276 30.5897 32.6529 30.3089 33.1032 29.8883C34.6677 28.4227 34.8607 26.5491 34.1106 24.6238C34.0557 24.4857 34.1153 24.6269 34.0463 24.4669L33.8564 24.0542C33.7591 23.8596 33.6618 23.6995 33.5598 23.5301C32.9651 22.5493 32.2417 21.6345 31.363 20.9566C30.7934 20.5173 30.0841 20.0402 29.2242 19.8802C28.3424 19.717 28.7504 19.8739 28.2498 19.2478C27.5374 18.3581 26.7606 17.597 25.736 16.9866C23.4136 15.6042 20.3789 15.8098 18.1663 17.0353C17.774 17.2534 17.4869 17.517 17.0695 17.3648C15.8204 16.9113 14.2513 16.8564 13.0932 17.4809C11.8912 18.129 10.3896 19.4738 10.0585 20.8452C6.66279 21.2799 4.92729 23.6838 5.6491 26.9163C5.76993 27.4593 6.01158 27.8437 5.88762 28.3882C5.25524 31.1688 6.56236 34.3149 8.77489 35.9375C8.96005 36.0724 9.10912 36.1948 9.30369 36.3109C10.3723 36.9511 11.5445 37.21 12.7904 37.3026L16.1139 49.8057L13.0038 49.8089L13.0069 49.812ZM11.1569 50.6735C9.77915 51.6417 9.56888 53.7836 10.548 55.1252C10.7112 55.3496 10.8226 55.4422 10.9152 55.643C9.15148 57.5574 10.0082 60.1308 11.9101 60.9907C12.2318 61.1367 12.5676 61.2544 13.0399 61.292C13.4761 61.3265 13.9688 61.2889 14.4192 61.314C14.7189 62.676 14.8585 64.2232 15.8126 64.7677C16.6725 65.2573 19.2255 65.0627 20.3898 65.0627C21.6059 65.0627 24.0523 65.2761 24.9702 64.7724C26.0169 64.1981 26.0985 62.6886 26.417 61.303C27.3648 61.2952 28.0944 61.3595 28.8523 60.9735C30.6255 60.0712 31.294 58.1427 30.3682 56.3994C30.1642 56.0165 29.9821 55.8847 29.7954 55.5661C30.5988 54.7517 31.1245 53.5184 30.5172 51.9963C30.3995 51.6997 30.2662 51.4267 30.1061 51.2243C29.91 50.9763 29.6479 50.8022 29.6087 50.5762C29.5647 50.333 30.0167 49.0635 30.1657 48.7199L31.3693 46.6423C31.3787 46.6297 31.3913 46.6109 31.4007 46.5984L34.5155 43.4475C35.5778 42.4118 35.8853 42.0038 36.8692 40.7281C39.0488 37.9068 40.4045 33.7783 40.5928 30.2947C40.7764 26.8991 40.2131 24.2676 39.1963 21.4839C38.8244 20.4671 37.9676 18.821 37.409 17.8983L35.8618 15.7925C35.3973 15.259 35.2765 15.088 34.7461 14.5152C33.8815 13.5816 31.9138 12.0516 30.7071 11.3251C24.6517 7.67679 15.8895 7.57323 9.96745 11.3722L7.78944 12.8425C7.26221 13.2818 5.11559 15.328 4.77665 15.7925L3.99364 16.8015C3.90576 16.9192 3.80691 17.0682 3.71276 17.1938C2.42761 18.9073 1.22092 21.7506 0.70153 23.7937C-0.823698 29.8036 0.563445 35.9924 3.57624 40.1648C4.2808 41.1408 4.17252 41.1204 5.13128 42.1968C5.97549 43.1446 6.59688 43.7346 7.60428 44.5663C8.53009 45.3305 10.8258 48.0514 11.1553 50.6672L11.1569 50.6735Z" fill="#CCCCCC"/>
</svg>
