<svg width="57" height="55" viewBox="0 0 57 55" fill="none" xmlns="http://www.w3.org/2000/svg">
<path fill-rule="evenodd" clip-rule="evenodd" d="M8.75589 44.4479L10.5301 45.5887C19.3841 50.7305 37.0751 50.7725 45.8446 45.077C46.1657 44.8673 46.436 44.6408 46.7064 44.4815C46.8078 45.7816 46.36 46.1171 45.7348 46.6959C44.2817 48.0631 41.2064 49.3968 39.2126 49.9588C31.8962 52.0474 23.5914 52.1984 16.275 50.0175C13.8165 49.2794 11.5861 48.3148 9.73591 46.7714C9.48246 46.5617 9.18676 46.1842 8.99245 45.8571C8.71365 45.379 8.76434 45.0686 8.75589 44.4479ZM9.05159 39.348C10.4033 39.6584 11.5608 40.0862 13.335 40.4552C14.8726 40.774 16.3933 41.0005 18.1168 41.1431C21.4286 41.4199 24.2757 41.3863 27.5706 41.0676C27.596 41.0676 27.6129 41.0592 27.6466 41.0592C29.2012 40.8914 31.4653 40.4804 32.9354 40.1113C33.6535 39.9352 34.3632 39.7506 35.039 39.5409L38.0382 38.4337C38.3677 38.2911 38.6888 38.1485 38.9676 38.0227C40.5643 37.293 42.6258 35.9425 43.6311 34.592C43.9691 34.7095 44.4168 35.1037 44.7041 35.3134C45.0758 35.5818 45.3462 35.867 45.6503 36.1774C46.1995 36.7394 46.8838 37.6201 46.7233 38.8112C46.4952 40.5475 44.476 41.9986 43.2509 42.6781C39.9898 44.4899 35.9346 45.4293 31.6935 45.8152C25.8978 46.3436 17.8295 45.6726 12.8111 42.9381C11.5523 42.2503 9.37263 40.7908 9.05159 39.3564V39.348ZM3.4587 30.7923L5.22443 31.9247C12.5746 36.2109 25.1966 36.5464 33.1719 34.4746C35.622 33.8371 37.4976 33.1661 39.6097 31.9834C39.9645 31.7821 40.2011 31.6227 40.539 31.4046C40.8685 31.1949 41.1304 30.9768 41.4007 30.8091C41.4852 32.1344 41.0628 32.4279 40.4292 33.0235C38.9591 34.4075 35.9261 35.6741 33.907 36.2864C26.8187 38.4589 18.083 38.4421 10.9694 36.3535C8.63761 35.6657 6.15376 34.5836 4.43028 33.099C3.4587 32.2686 3.4756 31.6814 3.46715 30.7755L3.4587 30.7923ZM40.218 27.1183C39.9307 27.5965 38.6888 28.4772 38.0045 28.8966C31.5836 32.7635 20.9048 32.8222 13.9939 31.4801C10.0063 30.7084 4.76822 28.6282 3.65302 25.7176C2.78283 23.436 5.44409 21.4397 7.25206 20.517L8.95865 19.6866C9.81195 19.284 11.4425 18.7891 12.2789 18.571C12.4817 19.2001 12.6844 19.6866 13.0139 20.2066C14.4586 22.463 17.5 24.1154 19.9585 25.0381L23.3041 26.1034C27.1482 27.1687 31.8709 27.5797 35.9768 27.4455C37.4469 27.3952 38.8409 27.1855 40.2349 27.1267L40.218 27.1183ZM22.9831 20.3576L23.1605 20.408C28.8632 21.9681 34.4054 22.1275 40.2349 21.5236C43.5973 21.1713 46.7064 20.3828 49.7478 19.1162C51.6825 18.311 51.8346 17.9419 53.5412 16.9605C53.5327 18.2522 53.1948 18.6968 52.4851 19.242C51.8768 19.7118 51.3615 20.1312 50.5504 20.5506C42.4568 24.7278 31.6935 24.9542 22.9915 22.463C20.8963 21.8591 16.8326 20.2234 15.7681 18.2522C15.5316 17.8161 15.5822 17.4889 15.5822 16.9269C15.8779 17.0444 16.0892 17.2457 16.444 17.5057L18.8687 18.873C19.0461 18.9568 19.1813 19.0072 19.3672 19.0827C20.1022 19.393 20.7612 19.653 21.5384 19.9298C21.9017 20.0557 22.2988 20.1815 22.6705 20.2905C22.7719 20.3157 22.8902 20.3576 22.9831 20.3828V20.3576ZM32.8171 3.43907C36.0867 3.19582 41.5275 3.6991 44.7632 4.61339L47.2724 5.41864C48.4299 5.83804 49.6126 6.40842 50.6265 7.03752C51.4882 7.56596 52.7048 8.58091 53.1694 9.48681C54.9183 12.8336 50.1787 15.2913 47.6104 16.2895C40.9783 18.8646 31.3471 19.091 24.47 17.2121C20.8879 16.2391 13.8165 13.4879 16.0469 9.46164C16.4862 8.66479 16.8833 8.36282 17.4916 7.82599L18.3195 7.22205C20.5753 5.64511 24.0138 4.61339 26.7849 4.09334C28.9055 3.6991 30.5783 3.60683 32.8171 3.43907ZM25.7373 54.9832H30.0967C30.4684 54.8322 32.344 54.7819 32.9016 54.7148C36.3824 54.3122 39.7026 53.5908 42.837 52.3075L44.1718 51.7371C44.2986 51.67 44.2986 51.6616 44.4168 51.5945C45.2701 51.1248 45.9714 50.8228 46.8584 50.1769L48.2355 49.0194C48.244 49.011 48.2609 48.9942 48.2778 48.9774L48.6157 48.6167C48.6242 48.6084 48.6411 48.5916 48.658 48.5748C48.7171 48.5161 48.7762 48.449 48.8523 48.3735C50.0689 47.023 50.1449 45.8907 50.1449 44.2214L50.1871 38.1737C50.1111 34.8437 47.1035 32.5621 44.8562 31.2368L44.966 26.2712C45.135 26.2208 44.9998 26.2628 45.1434 26.2208C45.2617 26.1873 45.3969 26.1537 45.5067 26.1286C45.7855 26.0615 46.0051 25.9944 46.2586 25.9273C46.3684 25.8937 46.4445 25.8769 46.5712 25.8434C46.5965 25.835 46.6134 25.835 46.6388 25.8266C47.8892 25.4575 49.7985 24.7613 50.8799 24.2329L51.5389 23.9309C52.0036 23.6961 52.2739 23.5283 52.6963 23.285L53.237 22.9495C53.482 22.7566 53.5665 22.723 53.7862 22.5637L54.724 21.8507C55.3154 21.3977 56.1095 20.366 56.4474 19.7201C56.5573 19.5104 56.6249 19.3427 56.7094 19.1246L56.8276 18.7723C57.0726 17.858 56.9628 14.0331 56.9628 12.9678C56.9628 11.8019 57.098 10.6108 56.853 9.52036C55.4843 3.54812 46.1488 1.06527 40.4461 0.335519C39.7955 0.251639 37.3962 0.142596 37.0498 0H32.5299C32.2849 0.0838798 29.1167 0.285191 28.4915 0.360683C27.1651 0.536831 25.9907 0.738142 24.7235 1.02333C22.2819 1.56016 20.2627 2.29831 18.1844 3.33003C17.1959 3.81653 16.2666 4.42885 15.4809 5.04957C14.7543 5.62834 13.901 6.53424 13.3434 7.3311C11.8142 9.51197 12.1437 11.9277 12.1437 14.9306C12.0846 15.1235 10.5216 15.4926 10.2428 15.5681C9.64298 15.7359 8.984 15.9791 8.35881 16.2056C5.22443 17.3883 1.12693 19.804 0.282084 23.285C-0.0727517 24.7529 0.0117329 26.4054 0.0286298 28.0578C0.0370782 29.4921 -0.131891 31.5975 0.265187 32.8557C0.924167 34.9695 3.43336 36.8568 5.3934 37.813C5.30892 39.2474 5.31737 40.8495 5.33426 42.3593C5.35116 43.8356 5.15685 45.4209 5.64686 46.7546C6.38187 48.751 8.61226 50.3698 10.4878 51.3848C11.5101 51.9384 12.5746 52.4249 13.7236 52.8023C14.3403 53.0037 14.9233 53.2217 15.5062 53.3895C17.3142 53.9096 19.5023 54.3709 21.4032 54.5974L25.7288 55L25.7373 54.9832Z" fill="#CCCCCC"/>
</svg>
