<svg width="45" height="71" viewBox="0 0 45 71" fill="none" xmlns="http://www.w3.org/2000/svg">
<path fill-rule="evenodd" clip-rule="evenodd" d="M39.9832 60.2544C40.1276 61.0264 39.9989 66.666 39.7525 67.8052C39.5674 68.6604 39.0056 68.7294 38.0531 68.789C34.6653 69.0072 31.0154 68.8549 27.5899 68.8863C24.0687 68.9177 20.5349 68.8879 17.0122 68.8879C14.7918 68.8879 7.15939 69.0307 5.40192 68.6353C4.26428 68.3795 4.41649 67.0379 4.38825 65.7119C4.27841 60.5541 4.32864 55.0902 4.32864 49.9183C4.32864 42.879 4.22665 35.7644 4.33335 28.7345L6.58508 28.8507C6.67766 29.5819 6.61334 42.358 6.60393 43.3246C6.58824 44.9205 6.49094 57.3216 6.67139 57.7939C7.75725 57.9132 9.41744 57.8143 10.5645 57.8143L37.3046 57.8222C37.733 57.8033 37.6137 57.7876 37.6467 57.7233C37.7722 57.4565 37.6953 39.0298 37.6953 36.0798C37.6953 34.3788 37.6185 30.2786 37.7048 28.8742H39.9785L39.9848 60.2544H39.9832ZM7.45754 4.5443C5.97311 4.90992 6.82205 6.81174 7.90163 6.53871C9.19619 6.21232 8.78977 4.21635 7.45754 4.5443ZM17.7983 6.57009L26.3942 6.5748C26.4178 6.23743 26.3817 5.91104 26.3691 5.57995C26.3628 5.4246 26.377 4.6259 26.2514 4.51449C26.049 4.38582 18.6629 4.35914 17.7983 4.3968L17.7999 6.57009H17.7983ZM22.0273 62.5124C22.9625 62.2284 23.9887 64.3201 22.2971 64.4895C20.9681 64.6213 20.6103 62.9439 22.0273 62.5124ZM18.9266 63.8289C19.1039 65.3902 20.5099 66.8197 22.52 66.6801C24.1425 66.5671 25.5657 64.9948 25.3805 63.1934C25.2079 61.5097 23.7267 60.1947 21.7903 60.3548C20.2431 60.4819 18.7273 62.0683 18.9266 63.8289ZM26.581 50.2807C26.4366 49.6798 27.058 49.1196 27.5178 49.0333C27.8693 48.9674 28.2207 49.0568 28.4232 49.2294C29.1874 49.8822 28.9002 50.9351 27.9383 51.1563C27.3169 51.2991 26.6783 50.6872 26.581 50.2807ZM19.9105 50.3529C19.2781 51.8656 17.3919 51.1124 17.7952 49.7629C17.9458 49.2639 18.4496 48.8308 19.1196 49.0395C19.515 49.1619 20.138 49.81 19.9105 50.3529ZM28.5204 42.1839L18.3193 42.1933L16.6575 35.5494C19.0129 35.5384 21.3447 35.5432 23.6749 35.5432C24.8345 35.5432 25.9925 35.5479 27.1521 35.5573C28.1376 35.5651 29.7005 35.5055 30.6137 35.6577L28.5204 42.1854V42.1839ZM28.4624 46.8082C25.4857 46.7627 22.418 46.8757 19.3801 46.8082C19.2639 46.3453 18.8701 45.0052 18.925 44.591C21.5832 44.2049 26.9419 44.7259 29.4259 44.3697C29.9562 44.2944 30.0159 44.1861 30.2057 43.7734C30.8522 42.3643 32.6881 36.4768 33.1777 34.7915C33.3331 34.2564 33.1871 34.0713 32.9596 33.7527C32.674 33.3542 32.7117 33.3416 32.0824 33.3479C26.967 33.4028 21.3023 33.3134 16.168 33.2726C15.7631 31.8195 15.8212 31.3033 14.6475 31.1919C13.5867 31.0899 12.1744 31.162 11.0588 31.162L11.0635 33.3322L13.9053 33.4562C14.0277 33.6758 17.1252 46.5446 17.1597 47.1801C16.1193 47.8219 15.4713 49.005 15.5733 50.3451C15.8416 53.8647 20.8676 54.5426 22.0037 50.9994C22.2956 50.0909 22.0178 49.7943 22.0445 49.0082L24.4532 49.0097C24.5944 49.8178 24.2005 50.8347 25.0557 52.021C26.8901 54.5646 31.3135 53.3171 30.9872 49.7033C30.8506 48.1938 29.2391 46.8207 28.4655 46.8098L28.4624 46.8082ZM9.55864 26.6774C10.1989 27.3741 10.1377 27.4886 11.1937 28.1304C11.9658 28.6012 12.6091 28.7675 13.6777 28.7816C15.8196 28.8099 16.9525 27.6942 17.8799 26.7386C18.5123 26.9959 19.5087 28.8005 22.1528 28.813C23.6184 28.8193 24.6116 28.2669 25.5735 27.4761C25.9015 27.2062 26.0788 26.9331 26.4272 26.7182C26.6092 26.8092 26.4931 26.7323 26.6469 26.8782L27.2055 27.4792C27.5256 27.7601 27.7202 27.8997 28.0873 28.1194C29.4133 28.915 31.756 29.0264 33.1338 28.154C34.2636 27.4384 34.4001 27.0085 34.6794 26.7903C34.8002 26.6946 34.6637 26.7778 34.8316 26.6931C35.577 27.1403 35.4311 28.5117 35.4468 29.7074L35.4781 40.792C35.4781 45.7113 35.5252 50.6542 35.4766 55.572L8.87136 55.5814C8.78035 53.1743 8.86508 50.6024 8.86508 48.1828C8.86508 42.0866 8.81015 35.7848 8.89489 29.709C8.91058 28.6012 8.76778 27.0791 9.55864 26.6805V26.6774ZM40.2657 23.9611C40.7144 23.9627 42.0576 23.8027 42.0419 24.3268C42.02 25.0878 40.2405 27.258 38.0594 26.4781C37.3768 26.2349 36.1905 25.0219 36.1246 24.1275C36.6707 23.8293 39.4528 23.958 40.2657 23.9611ZM23.1759 26.4514C22.7789 26.5738 21.6224 26.5785 21.1893 26.4624C20.3828 26.2474 19.1353 24.6139 19.22 24.2012C19.3141 23.7399 24.8313 23.9596 25.1185 24.1275C25.0981 24.9074 23.8098 26.2568 23.1759 26.4514ZM6.18026 26.4765C5.72991 26.5801 4.60637 26.5785 4.19996 26.4326C3.58641 26.2145 2.32951 24.9356 2.31382 24.1275C2.67786 23.8764 5.76598 23.9549 6.43288 23.9611C6.93187 23.9659 8.2139 23.8858 8.22018 24.2483C8.22645 24.6751 7.07469 26.2694 6.18026 26.4765ZM10.7559 24.0882C11.6708 23.8184 15.4273 23.9611 16.6842 23.9549C16.5666 24.7285 16.0644 25.375 15.6831 25.7688C13.7232 27.7868 10.8061 25.8081 10.7559 24.0867V24.0882ZM33.5794 24.0773C33.6234 25.4267 30.9056 27.9813 28.6601 25.7343C28.2851 25.3593 27.7641 24.6987 27.6543 23.9627C29.214 23.9455 32.1687 23.8136 33.5779 24.0773H33.5794ZM20.3153 21.5901C20.2713 20.7271 20.9304 13.4273 21.0622 12.0214C21.1611 10.9622 20.7421 10.9182 23.3704 10.9606C23.645 12.3132 23.6451 14.8773 23.7157 16.3711C23.7988 18.1474 23.9605 20.0006 24.0264 21.7471C23.2951 21.813 20.83 21.8851 20.3153 21.5901ZM25.7054 11.0752C26.9309 10.8602 28.9316 10.9543 30.2638 10.9575C30.4537 11.4894 31.9601 21.2794 32.0134 21.7612L26.2499 21.7627C26.0317 19.8107 25.6552 12.9801 25.7054 11.0752ZM12.3282 21.7627C12.4899 20.4478 13.8189 11.9774 14.0684 10.9685C14.8985 10.9167 18.3178 10.8523 18.8513 11.1222C18.9737 11.8927 18.3146 20.6832 18.1153 21.6168C17.348 21.8804 13.4675 21.7643 12.3282 21.7627ZM2.16318 21.7518C2.31225 21.2575 7.19079 11.6338 7.536 10.9606C9.31073 10.9559 9.70145 10.9434 11.6582 11.0579L11.6911 11.1772C11.6943 11.196 11.699 11.218 11.7021 11.2384L11.6582 11.7483C11.6221 11.9978 11.5954 12.2128 11.564 12.4576C11.1608 15.5426 10.5143 18.8535 10.1314 21.7627L2.16475 21.7502L2.16318 21.7518ZM34.2165 21.7612C33.6814 18.4895 33.1275 15.0938 32.6882 11.7829C32.5485 10.7221 32.277 10.981 36.7962 10.9559C37.0394 11.3262 37.2638 11.8456 37.4772 12.2787C38.3795 14.1068 41.8756 20.8573 41.8756 21.6152C41.0126 21.9024 35.5817 21.7675 34.2181 21.7612H34.2165ZM4.34117 5.65056C4.35058 2.81665 4.42747 2.3255 6.57566 2.2596C8.43198 2.20311 10.293 2.19526 12.1556 2.19526L36.0634 2.22508C39.7196 2.25175 39.9707 1.883 39.9942 6.15897L39.9377 12.2081C39.4811 11.5271 39.1437 10.6452 38.7059 9.96263C38.0609 8.95836 37.8193 8.95209 36.2831 8.91286C29.6706 8.74339 22.1512 8.84852 15.4869 8.85166C12.9857 8.85166 9.67006 8.77948 7.33357 8.94895C5.90093 9.05408 5.77382 9.67233 4.97197 11.2195L4.43847 12.1548C4.4322 12.1422 4.41336 12.1846 4.39767 12.1987L4.3396 5.65056H4.34117ZM2.13652 9.56249V16.5892C2.13652 17.5888 0.0197185 20.3536 0.0197185 21.4442C0.0197185 23.3209 -0.178004 24.5402 0.67876 25.965C1.06007 26.5989 1.45549 27.1026 1.96861 27.6471C2.20712 27.8998 2.13495 28.0206 2.13495 28.4709L2.14276 60.3485C2.14433 62.5704 2.12396 64.9132 2.28244 67.1116C2.37973 68.4674 2.43622 68.902 3.14548 69.6505C3.44362 69.9644 4.58285 71 5.27485 71H39.1076C39.842 71 41.51 69.616 41.8317 68.6525C42.3762 67.019 42.213 55.7932 42.213 53.6858C42.213 46.8757 42.213 40.0655 42.213 33.2553C42.213 31.5763 42.1737 29.8518 42.2083 28.1791C42.2349 26.9222 44.2043 27.305 44.3847 22.6807C44.4349 21.383 44.5212 21.5525 44.0159 20.5215C43.4589 19.3855 42.7857 18.1835 42.3071 17.0866C42.0875 16.5845 42.2146 8.34796 42.1942 7.02201C42.1565 4.69808 42.5566 2.33492 40.6987 0.875594C40.3881 0.632373 39.4842 0 38.9648 0H5.56669C4.19681 0 2.44248 1.82337 2.26831 3.13833C2.03293 4.91149 2.14123 7.69675 2.14123 9.56406L2.13652 9.56249Z" fill="#CCCCCC"/>
</svg>
