<svg width="54" height="55" viewBox="0 0 54 55" fill="none" xmlns="http://www.w3.org/2000/svg">
<path fill-rule="evenodd" clip-rule="evenodd" d="M49.6704 13.5612L49.6514 23.0434C48.584 23.7448 46.3808 24.3522 45.6811 25.4359C44.718 26.925 46.1684 28.7148 46.8102 30.0649L48.9035 34.2915C49.1386 34.761 49.5661 35.3004 49.4088 35.8332C49.094 36.8997 48.6902 37.9805 48.3394 39.0556C47.9308 40.3089 47.5042 41.0563 47.5127 42.5242C47.5203 43.9241 47.5155 45.3298 47.5137 46.7297C47.507 47.1024 47.1146 47.1417 46.5638 47.3467L43.2116 48.6911C42.4664 48.9881 41.7564 49.3225 40.9705 49.6033C40.5988 49.7364 40.23 49.9051 39.8821 50.0488C39.4432 50.2299 39.1882 50.433 38.7834 50.2031C37.4675 49.4566 36.2313 48.6288 34.8557 47.8306L30.9831 45.4735C30.5328 45.1899 29.5146 44.5105 29.015 44.2863C28.1504 43.8973 27.1607 44.0956 26.6175 44.6121L23.5222 47.7578C23.2397 48.0788 23.0738 48.4228 22.5855 48.4419L11.78 48.4314C11.4568 48.3844 8.89144 45.6402 8.58523 45.3393C8.23446 44.9944 8.24962 44.8401 8.05622 44.2192L6.8968 40.7353C6.8257 40.5273 6.73849 40.3079 6.69204 40.123C6.62662 39.8624 6.61144 40.0032 6.6797 39.7589C6.79915 39.3334 7.14613 38.8122 7.31866 38.4586L7.51586 38.0801C7.52344 38.0648 7.53292 38.0456 7.54051 38.0294L8.33683 36.3956C8.81843 35.3761 8.61368 34.7572 8.14631 33.8718L5.02162 27.5832C4.39972 26.3021 4.40353 26.74 4.9202 25.4129C4.9221 25.4091 8.02874 17.4514 8.18042 17.2741C8.23541 17.2109 8.27712 17.186 8.39752 17.1237C8.92083 16.8564 10.5723 16.1511 10.9221 15.8119C10.8984 15.0042 10.7799 14.2166 10.7827 13.3073C10.7856 12.4746 10.9685 11.6007 10.9448 10.9712C9.80437 11.3746 8.42026 12.2705 7.27031 12.8128C5.73832 13.5353 4.89365 13.679 4.23099 15.3511C3.18059 18.0014 2.12827 20.6939 1.08925 23.3279C0.630406 24.4931 -0.409562 26.236 0.172521 27.5372C1.30256 30.0611 2.69992 32.492 3.88115 35.0168C4.08118 35.4432 3.96364 35.4595 3.72474 35.9415L2.36622 38.6991C1.94341 39.6151 2.14441 40.1096 2.4326 40.9853C2.62979 41.5823 2.91703 42.4485 3.12938 43.0761C3.38914 43.8427 3.55694 44.4051 3.81669 45.1803C3.96648 45.6258 4.32863 46.8858 4.53815 47.271C4.88607 47.9101 7.89032 50.7866 8.62598 51.5302C9.02415 51.9336 9.41758 52.4864 10.1713 52.724C10.8273 52.931 19.6467 52.8055 21.1171 52.8055C25.1348 52.8055 24.3906 53.0709 27.0555 50.3708L27.7551 49.6742C27.9636 49.4519 28.176 49.1922 28.4187 49.0408C28.6415 49.1491 28.869 49.31 29.0946 49.4432C29.3544 49.5956 29.489 49.6483 29.7564 49.8169C29.9488 49.9367 30.165 50.09 30.3773 50.2146L34.87 52.9416C35.2804 53.1993 35.6653 53.4264 36.1232 53.7024C38.6478 55.223 38.2771 55.3552 40.8757 54.3702L48.5916 51.2437C48.8456 51.1325 49.0258 51.0434 49.3045 50.9418C49.7453 50.7809 50.2828 50.5413 50.7398 50.3554C51.1133 50.2069 51.4271 49.8907 51.5693 49.5103C51.9646 48.5636 51.8414 47.4425 51.8414 46.287C51.8414 41.4309 51.5911 43.0282 53.0178 38.6752C53.4748 37.282 54.2512 35.6531 53.8464 34.5339C53.6322 33.9417 51.2612 29.2945 50.6971 28.1275C50.5246 27.771 50.5075 27.8372 50.4506 27.5372C50.9009 27.3868 52.5893 26.5216 53.0453 26.2418C53.8919 25.7215 54.0076 24.9377 53.9981 23.2657L54 11.5317C53.9877 10.2775 53.4549 9.4774 52.413 9.19952C51.7892 9.03376 45.7115 9.04047 44.8004 9.12383C44.8554 9.98907 45.3569 11.0852 45.2526 12.1469L45.3351 13.5334L49.6704 13.5612ZM19.0248 36.9907L18.9698 36.8776L19.0248 36.9907ZM18.9167 36.8786C18.9708 36.7416 19.0134 36.7607 18.8845 36.7626L18.9167 36.8786ZM18.7868 36.7885C18.8096 36.6706 18.839 36.6927 18.7281 36.6994C18.7518 36.5806 18.7793 36.6026 18.6646 36.616C18.6788 36.502 18.7081 36.5221 18.6029 36.5308C18.6247 36.4081 18.6513 36.4311 18.5309 36.4551C18.5403 36.3458 18.5603 36.3765 18.4437 36.3947C18.455 36.2826 18.4768 36.3104 18.3612 36.3305C18.3678 36.2184 18.3877 36.25 18.2692 36.2759L18.7868 36.7885ZM18.5925 36.6141L18.4721 36.5518C15.0943 34.5962 11.9014 38.9272 14.4487 41.6206C15.9504 43.2074 18.6541 42.9094 19.6988 40.7726C20.3198 39.505 19.9652 38.7595 19.6296 37.7314L18.5925 36.6141ZM27.0754 8.79038C28.3865 8.58437 29.5402 9.06538 30.3451 9.73323C33.2176 12.1134 32.0221 16.8707 28.2168 17.4389C25.6979 17.8146 23.6454 15.8397 23.3506 13.7269C23.161 12.3702 23.654 11.0948 24.2835 10.3723C25.1243 9.40745 25.8249 8.98777 27.0763 8.79134L27.0754 8.79038ZM14.7198 14.4025C14.9369 16.6025 15.6878 18.3147 16.6083 19.8593C17.6976 21.6837 18.6712 22.4761 20.0306 23.807C21.0507 24.8064 23.5648 26.3568 24.0597 27.0792C25.4941 29.17 25.1414 31.3125 26.189 32.2343C26.7426 32.7201 27.556 32.9012 28.304 32.6568C29.8445 32.1538 29.7232 30.6561 30.328 28.941L30.4996 28.4494C30.6721 27.9914 30.8864 27.5574 31.1111 27.223C31.5216 26.6145 32.0695 26.2351 32.6962 25.7933C32.9028 25.6477 32.698 25.7905 32.8222 25.7023C34.1769 24.746 35.9517 23.2896 36.9651 22.0718C37.2419 21.7402 37.5358 21.425 37.8041 21.0753C39.2602 19.1752 40.2026 17.1189 40.5088 14.6736C40.6519 13.5257 40.6111 12.2255 40.4557 11.1149C40.1807 9.14012 39.3863 7.27932 38.3909 5.8066C37.9055 5.08892 37.3329 4.3262 36.7622 3.78866C35.7469 2.83623 35.7677 2.87551 34.7372 2.14921C33.4005 1.20636 31.4192 0.401483 29.4606 0.127442C21.1237 -1.03675 13.8856 5.93787 14.7198 14.4025Z" fill="#CCCCCC"/>
</svg>
