<svg width="59" height="55" viewBox="0 0 59 55" fill="none" xmlns="http://www.w3.org/2000/svg">
<path fill-rule="evenodd" clip-rule="evenodd" d="M4.04778 42.4784C5.09082 43.1942 6.1103 43.8802 7.30598 44.3886C11.5441 46.1908 15.4006 46.9626 20.4104 46.9626C21.5401 46.9626 23.0147 46.9163 24.1651 46.7465C24.6419 46.676 24.9528 46.624 25.4503 46.624C25.5653 47.0648 27.3225 48.7107 27.6806 48.9944C27.8304 49.113 27.9453 49.2105 28.0942 49.333C28.2968 49.498 28.3335 49.6002 28.5908 49.6707L25.2807 50.5129C19.9072 51.2635 14.4716 50.9258 9.44294 48.8853C7.87037 48.2476 5.32261 46.7918 4.45859 45.1054C3.96487 44.1397 4.04778 43.885 4.04778 42.4793V42.4784ZM44.0432 34.0165H38.0931V27.4175H44.1261C45.6695 27.4175 47.1836 28.855 47.1836 30.8868C47.1836 32.4806 45.6016 34.0174 44.0432 34.0174V34.0165ZM33.5478 27.4175H34.1263V34.0165C33.1652 34.0165 32.745 33.9364 31.9959 34.7121C31.0556 35.6865 31.0575 38.164 34.1263 38.164V39.3487C33.3226 39.3487 32.7233 39.3516 32.1279 39.8407C30.6778 41.0312 31.5474 43.4952 33.3009 43.4952H34.1272V45.6949C34.1272 46.6548 35.1496 47.5559 36.1106 47.5559C37.0924 47.5559 38.094 46.6037 38.094 45.611V43.4952H45.2831C47.5869 43.4952 48.2323 39.3497 44.7046 39.3497H38.094V38.1649C40.6785 38.1649 44.2674 38.4061 46.4515 37.6681C47.21 37.4124 48.2596 36.7757 48.8174 36.1978C49.5457 35.4414 49.966 35.0111 50.4635 33.9923C51.4085 32.0599 51.4924 29.566 50.5737 27.6722C49.2584 24.9593 47.0508 23.2739 43.6305 23.2739H33.4668C30.706 23.2739 30.6307 27.4194 33.5487 27.4194L33.5478 27.4175ZM19.0621 0.00289435H22.4748C25.0885 0.00289435 29.4048 0.835482 31.7302 1.77998C32.6178 2.13984 33.4686 2.45628 34.2931 2.87884C34.5437 3.00716 34.6784 3.1046 34.9272 3.24545C35.7629 3.72108 36.969 4.46587 37.6191 5.14313C37.833 5.36599 37.8792 5.38818 38.1072 5.57438L39.35 7.09291C39.626 7.51548 39.7938 7.77596 40.0227 8.26606C40.98 10.3065 40.7388 12.4753 40.7388 14.7251C42.3067 14.7251 43.5447 14.9798 44.8705 15.3185C45.4603 15.469 46.0058 15.6388 46.5702 15.8616C49.1538 16.8765 51.4575 18.2947 53.4013 20.2889C54.336 21.2479 55.2113 22.3033 55.9434 23.4398C56.0838 23.6569 56.2223 23.9019 56.3514 24.1229C56.6181 24.5792 56.929 25.0799 57.1561 25.5845C57.6432 26.6698 58.0323 27.6664 58.3744 28.9042C58.7117 30.1179 58.9199 31.4637 59 32.8433V35.4646C58.9161 36.9127 58.6919 38.328 58.3291 39.5918C57.2154 43.475 55.0059 46.8208 51.9889 49.3446C50.8413 50.3045 49.1038 51.4014 47.7866 51.9793C44.2505 53.5287 40.2432 54.1076 36.2962 53.2876C32.7591 52.5534 34.3082 52.07 32.0035 52.9943C30.7663 53.4901 28.9158 54.0131 27.5656 54.288C25.4126 54.7289 23.2295 54.9633 21.0455 55H19.8027C17.5074 54.9604 15.2178 54.7057 12.9668 54.2456C9.42975 53.5229 4.96927 51.8086 2.41491 49.1429L1.50944 48.0383C0.933741 47.2433 0.480533 46.3664 0.229902 45.3717C0.104587 44.8758 0 44.3249 0 43.6621V12.101C0 10.7474 0.132853 9.7296 0.519164 8.73976C1.11559 7.20965 1.8166 6.3925 2.87283 5.3959C4.18346 4.15811 5.82198 3.10846 7.47181 2.40611L9.55506 1.57738C9.82548 1.49152 10.0375 1.44232 10.258 1.36514C10.7357 1.1992 11.154 1.10079 11.6845 0.96476C14.7109 0.190058 16.65 0.027978 19.064 0L19.0621 0.00289435ZM4.04684 34.44C5.13416 35.1848 6.24316 35.8785 7.55284 36.4351C12.0604 38.3521 16.1968 38.9242 21.5656 38.9242C21.6532 39.9951 22.7857 42.2825 22.8875 42.7321C22.4164 42.7321 22.3156 42.816 21.8134 42.816C18.7361 42.816 17.2031 42.8566 14.1051 42.2459C11.6016 41.7529 7.58394 40.4283 5.84177 38.6917C4.24659 37.1008 4.0459 36.8509 4.0459 34.439L4.04684 34.44ZM39.8286 18.7868C42.4103 18.7868 44.9317 19.3743 46.8048 20.4423C47.0385 20.5754 47.1685 20.6314 47.4031 20.7607C47.8139 20.9855 48.1466 21.2218 48.5216 21.4775C49.7436 22.3091 51.385 23.9106 52.2066 25.1503C52.8275 26.0832 53.0593 26.4277 53.5737 27.4735C55.4742 31.3344 55.5703 36.7467 53.6557 40.6453C52.9651 42.051 52.9688 42.0616 52.0926 43.3602C51.4321 44.3365 50.2421 45.4933 49.3573 46.2284C45.8824 49.1179 40.9894 50.2601 36.3565 49.0793C30.7588 47.6514 26.6818 43.2338 25.3495 37.505C23.9098 31.3171 26.7713 24.5666 31.734 21.3308C34.1687 19.7428 36.7862 18.7887 39.8286 18.7887V18.7868ZM4.04684 26.4016C7.50856 28.7749 11.8739 30.2693 16.1186 30.6244L19.9101 30.8887C20.4679 30.907 20.8231 30.8106 21.2339 30.8019C21.2339 31.4608 20.9861 32.552 20.9861 33.7627V34.7786C16.1808 34.7786 11.3293 34.0975 7.60372 31.8979C7.01012 31.5476 6.35811 31.1174 5.8446 30.6533C5.29999 30.1603 4.85432 29.6644 4.47367 29.0123C3.99784 28.1999 4.04684 27.6442 4.04684 26.4026V26.4016ZM4.04684 18.3632C7.76107 20.9102 11.2087 21.9406 15.7662 22.5243C18.3158 22.8523 19.2515 22.7616 21.6485 22.7625C22.7801 22.7645 23.6337 22.5937 24.706 22.5937L23.4943 24.4827C23.2154 25.023 22.6029 26.0919 22.4748 26.6544L19.8309 26.7393C15.4468 26.7393 9.14143 25.4726 5.88982 22.6535C5.3603 22.1953 4.86563 21.655 4.51701 21.0144C3.98183 20.0313 4.04778 19.7949 4.04778 18.3632H4.04684ZM4.04684 11.2559C4.04684 9.81161 5.39704 8.49761 6.25352 7.84639C6.52959 7.638 6.74913 7.45181 7.0252 7.28201C9.2837 5.90047 11.4885 5.17497 14.1767 4.62023C20.4311 3.33035 29.5424 4.07997 34.4825 7.84639C37.6879 10.2911 37.2149 12.7802 34.3166 15.003C33.0531 15.9735 31.8951 16.4385 30.4912 17.0087C24.8219 19.3116 15.7718 19.1968 10.1147 16.974C9.42975 16.7048 8.70895 16.4125 8.12195 16.0517C7.49443 15.6658 6.9762 15.2992 6.40804 14.8448C5.39798 14.0382 4.04778 12.676 4.04778 11.2539L4.04684 11.2559Z" fill="#CCCCCC"/>
</svg>
