<svg width="59" height="59" viewBox="0 0 59 59" fill="none" xmlns="http://www.w3.org/2000/svg">
<path fill-rule="evenodd" clip-rule="evenodd" d="M19.7066 51.1142L23.6102 51.1322L23.5733 57.0044L19.6895 56.994L19.7066 51.1142ZM31.3103 13.6312H28.541V10.6306H31.3492C32.0681 10.6306 32.7728 11.285 32.7728 12.2077C32.7728 12.9332 32.0359 13.6303 31.3103 13.6303V13.6312ZM26.4251 10.6306H26.6935V13.6312C26.2468 13.6312 26.0505 13.5952 25.7015 13.948C25.2643 14.3908 25.2652 15.5165 26.6935 15.5165V16.0552C26.3198 16.0552 26.041 16.0571 25.7631 16.279C25.0869 16.8196 25.4928 17.9396 26.3094 17.9396H26.6935V18.9411C26.6935 19.3773 27.1696 19.787 27.6182 19.787C28.0744 19.787 28.5419 19.3546 28.5419 18.9022V17.9396H31.8889C32.9625 17.9396 33.2612 16.0552 31.6195 16.0552H28.5419V15.5165C29.7455 15.5165 31.4156 15.6256 32.4323 15.2908C32.7851 15.1742 33.2745 14.8849 33.5334 14.6222C33.8729 14.278 34.0693 14.0826 34.3007 13.6189C34.7407 12.7397 34.7796 11.6065 34.3519 10.7444C33.7392 9.51153 32.7121 8.74525 31.1197 8.74525H26.3872C25.103 8.74525 25.0679 10.6296 26.426 10.6296L26.4251 10.6306ZM11.8178 33.4348L47.1876 33.4017L47.253 31.5486C46.1225 31.2574 39.955 31.4679 38.3058 31.4651H16.2013C14.8773 31.4717 13.0782 31.3617 11.8187 31.4945L11.8178 33.4348ZM11.8472 28.528L47.1828 28.5185L47.2502 26.6332C46.3729 26.4331 43.7591 26.5564 42.7054 26.5592C39.3917 26.5716 12.8734 26.4587 11.8301 26.5896L11.8472 28.528ZM28.6558 5.98742C32.6523 5.42884 36.7646 8.45505 37.3109 12.9076C37.879 17.5299 34.3433 21.1175 30.4084 21.5955C27.7956 21.9132 25.9585 20.9165 24.4524 19.7898C24.0655 19.5006 23.7525 19.1952 23.4633 18.7884C23.2015 18.4204 22.897 18.0837 22.6457 17.6124C20.0367 12.7227 22.8439 6.79827 28.6548 5.98647L28.6558 5.98742ZM28.5144 4.03665C25.4274 4.44444 23.8199 5.536 21.997 7.43557C20.4274 9.07054 19.425 12.3225 19.7465 14.8792C19.9333 16.3701 20.3098 17.4389 20.9348 18.5987C21.5816 19.8012 22.3612 20.5599 23.1654 21.2854C24.5492 22.5335 26.3426 23.2258 28.265 23.5378L29.3993 23.6174C29.6117 23.6193 29.8213 23.6155 30.0338 23.6079L30.4302 23.588C32.6087 23.386 35.0964 22.2129 36.573 20.6472C37.4845 19.6827 38.2394 18.4915 38.7857 17.0121C39.7331 14.443 39.422 11.3874 38.0753 8.99088C36.2335 5.7124 32.4475 3.51505 28.5154 4.0357L28.5144 4.03665ZM27.3052 57.0044C25.1097 57.0044 25.5915 57.3439 25.5734 55.0641L35.3951 55.0527L35.3316 57.0063L27.3052 57.0044ZM7.9009 55.0385L17.7225 55.0413L17.7074 56.9921H7.90753L7.89803 55.4861L7.9009 55.0385ZM41.2999 54.3016C45.6824 55.286 46.6622 55.3666 51.113 54.2912L51.0874 56.0087C48.2062 57.4255 44.2124 57.288 41.2961 56.0333L41.2999 54.3016ZM25.5877 51.1161L35.378 51.1132L35.3961 53.0735L25.5782 53.0185L25.5877 51.1161ZM7.92836 51.1123L17.7159 51.1502L17.714 53.0687H7.90276L7.92836 51.1123ZM2.0189 51.1208L5.91778 51.1151L5.93199 53.0735L2.00084 53.0261L2.0189 51.1208ZM53.1142 52.0663C53.8511 52.0217 54.5605 51.9345 55.2613 51.8017C55.8142 51.6974 56.5882 51.4053 57.0007 51.3588C56.9922 51.8017 57.1297 52.8411 56.8054 53.1304C56.1965 53.6738 53.8311 53.9886 53.0696 54.0237L53.1142 52.0663ZM41.2885 50.3982C41.5739 50.3953 42.9454 50.8278 43.4945 50.9216C46.2913 51.4006 48.5561 51.0563 51.1083 50.3593L51.1092 52.0824C47.4455 53.9004 41.2904 52.8288 41.2894 51.8188L41.2885 50.9804V50.3972V50.3982ZM53.0753 48.1392C53.8093 48.1003 54.4969 48.0235 55.2234 47.884C55.7014 47.794 56.6868 47.4677 57.0007 47.4611L57.0036 49.0401C56.0011 49.7552 54.5946 50.015 53.0743 50.0966L53.0753 48.1392ZM20.5848 43.33C20.7812 43.2466 22.3764 43.1451 22.6343 43.2978C22.8771 43.4419 23.4291 48.7015 23.4661 49.1511L19.8128 49.1463L20.5858 43.33H20.5848ZM41.2894 46.4369C43.2005 46.8731 44.0758 47.1908 46.2657 47.1832C48.3816 47.1756 49.2542 46.8778 51.1111 46.4264L51.0826 48.1515C47.9197 49.5911 44.477 49.4337 41.297 48.1724L41.2894 46.4369ZM2.00561 47.2534C2.50731 47.1244 6.07804 47.1301 6.61579 47.2439C6.44128 47.8243 6.34265 48.6219 6.09417 49.1473L2.00751 49.1217L2.00561 47.2534ZM53.1085 44.2073C55.745 44.0366 55.9755 43.6326 56.9998 43.5007L56.9685 45.0835C56.7257 45.8052 53.5523 46.1343 53.0705 46.1599L53.1085 44.2073ZM41.4251 44.3087C42.1241 43.4068 45.3486 43.2485 46.2657 43.2542C47.7139 43.2646 50.1001 43.4543 50.9679 44.2774C48.3541 45.6696 44.0977 45.4193 41.4251 44.3087ZM24.7673 43.2551L33.6501 43.2779L35.0821 49.1454L25.4587 49.1321L24.7663 43.2551H24.7673ZM9.65068 43.2598L18.5619 43.2665L17.7984 49.1454L8.18066 49.1179L9.64976 43.2598H9.65068ZM14.6478 39.3431L16.851 39.3289L17.0634 41.2844L14.4212 41.2854L14.6478 39.3431ZM56.9979 41.2996C55.8465 41.7994 52.842 42.724 51.3112 42.1635C46.5512 40.4214 47.2274 42.5675 47.1828 39.5537C51.168 40.6718 53.0933 40.5381 56.9903 39.5717L56.9979 41.2996ZM3.73075 39.3308L12.678 39.3298L12.3735 41.2882C11.5873 41.2892 10.803 41.2939 10.0177 41.2911C9.23719 41.2892 8.46138 41.145 8.07822 41.7131C7.60971 42.4082 7.57179 44.8673 6.97903 45.2201L2.29013 45.1926L3.72978 39.3308H3.73075ZM19.0788 41.2702L18.8455 39.3327L27.7557 39.3374L28.1901 41.2911L19.0788 41.2702ZM47.3545 37.3629C48.5713 36.0779 55.635 36.0912 56.8291 37.3629C55.6094 38.6461 48.5618 38.6356 47.3545 37.3629ZM6.9487 2.00905L45.1618 2.01095C45.4529 3.31969 44.8109 7.92966 45.4985 8.59351C46.1604 9.23555 50.7479 8.74146 52.0908 8.9188L52.0813 34.3823C49.6895 34.7047 48.3806 34.4458 46.3843 35.6047C44.5349 36.6811 45.453 38.4564 45.1931 41.3205C39.699 41.6457 40.5099 43.2105 39.1631 43.257L35.6588 43.2447C35.1077 40.4565 34.8631 41.5357 30.3003 41.2778C30.0167 40.4868 29.7995 39.4038 29.5843 38.5418C29.4325 37.9367 29.3756 37.6304 28.9014 37.4388C28.4689 37.2634 21.3179 37.3525 20.4966 37.3563C18.2385 37.3677 15.9557 37.3781 13.6975 37.3592C11.8633 37.344 8.52207 37.5612 6.91263 37.3241L6.94583 2.00905H6.9487ZM47.1885 3.47996C47.603 3.66963 48.5542 4.73653 48.9516 5.1339C49.367 5.55023 50.3609 6.38953 50.6018 6.90828L47.1847 6.90733L47.1876 3.47901L47.1885 3.47996ZM4.94566 2.37417V37.3212C2.68561 37.5318 2.34511 36.8015 1.83867 38.831L0.330713 44.8654C-0.145386 46.7745 0.0319764 51.43 0.0338732 53.8094C0.0348216 55.2509 1.00597 55.0489 2.36788 55.0489C3.55434 55.048 4.74364 55.0489 5.92819 55.048C5.91966 55.9356 5.87793 57.0319 5.93199 57.8987C6.02019 59.3033 7.29581 58.9609 9.28461 58.9685L35.1609 58.9742C37.5926 58.9884 37.3716 58.849 37.3593 56.2192C37.3488 53.8673 37.5575 50.7974 37.0349 48.6883C36.7694 47.6147 36.3568 46.3079 36.1747 45.2192L39.3253 45.2324L39.3196 55.8C39.3215 59.0387 45.616 59.1809 48.3579 58.8471L49.2902 58.7162C49.3253 58.7105 49.3499 58.7058 49.3841 58.6991L50.4567 58.4232C51.6925 58.0448 52.9842 57.4227 53.0791 55.9982C54.2409 55.9584 55.7317 55.7336 56.8632 55.2964C57.565 55.0252 57.9472 54.7881 58.41 54.3348C59.2143 53.5486 58.9601 52.0559 58.9677 50.5622V37.9908C58.9677 36.8167 58.8719 36.0789 57.381 35.3591C56.205 34.791 55.3789 34.7882 54.0616 34.4894C53.9506 28.0662 54.0796 20.8549 54.0559 14.315V8.658C54.0559 7.62998 54.1195 7.51713 53.5391 6.96423C53.1625 6.6067 52.8628 6.28046 52.4266 5.84801L46.9182 0.355114C46.3056 -0.164587 43.8056 0.0383616 42.8069 0.042155L6.24495 0.0355165C4.75216 0.0355165 4.94566 1.07207 4.94566 2.37227V2.37417Z" fill="#CCCCCC"/>
</svg>
