<svg width="77" height="54" viewBox="0 0 77 54" fill="none" xmlns="http://www.w3.org/2000/svg">
<path fill-rule="evenodd" clip-rule="evenodd" d="M67.0693 42.6291C68.9475 41.5856 69.8184 44.4211 68.4203 45.0723C67.5526 45.4771 66.6785 45.077 66.4243 44.4101C66.0603 43.4545 66.4588 42.9664 67.0693 42.6275V42.6291ZM61.0625 44.8636C60.4756 40.7461 63.2954 37.6768 66.7146 37.1652C70.6752 36.5737 73.9218 39.5425 74.3612 42.7609C74.9198 46.858 72.1534 49.9681 68.6808 50.4498C64.6888 51.0053 61.5348 48.1824 61.0609 44.862L61.0625 44.8636ZM20.5121 42.6746C21.3077 42.1725 22.0374 42.4675 22.392 43.0637C22.811 43.7667 22.4595 44.7176 21.951 45.0236C20.5121 45.8867 18.7139 43.8107 20.5137 42.6746H20.5121ZM18.3498 41.0427C18.105 41.7315 17.5448 42.1238 17.3628 43.1516C16.6018 47.4543 22.9177 49.7044 24.7567 45.2747C25.6919 43.0229 24.2593 41.7205 24.0522 41.0223L27.2925 41.016C30.6521 47.801 20.9625 54.5704 15.6807 47.6724C13.7192 45.1099 14.7188 42.5522 14.9698 41.0442L18.3498 41.0427ZM22.8439 27.8115C27.9029 27.3925 30.685 30.5779 31.4994 34.8633C32.2354 38.7344 31.0114 38.5602 27.6502 38.5602C23.9706 38.5602 14.8082 38.7407 11.8613 38.5681C9.29259 38.4159 12.2818 34.1101 12.704 33.5201C14.6356 30.8195 18.025 28.2116 22.8439 27.813V27.8115ZM54.3166 33.5938C54.3166 31.4896 54.3276 29.3869 54.3229 27.2826C54.3151 24.3891 53.8427 23.2436 55.7587 22.6207C56.2718 23.9419 59.724 30.184 60.1147 31.5398C59.0053 31.8897 57.4377 33.5483 56.7677 34.3078C55.2111 36.07 54.9349 37.2108 54.3308 38.0095L54.3182 33.5923L54.3166 33.5938ZM30.0354 40.9972C33.7308 40.7524 34.5279 37.7364 33.974 34.6263C33.5644 32.3228 31.7913 28.4988 30.4481 27.7659L34.5687 27.733V32.5425C34.5703 36.5674 36.8848 39.3197 40.7842 39.7057C42.7441 39.9003 52.3191 39.9427 53.7957 39.519L53.248 42.5804L30.3084 42.5977L30.0338 40.9956L30.0354 40.9972ZM9.46678 25.3196C7.13187 25.3212 7.46922 23.9121 8.55195 23.7865L22.596 23.8195L22.847 25.3337C18.9461 25.1957 13.589 25.3196 9.46678 25.3212V25.3196ZM27.4996 25.3181C26.6476 25.3181 24.785 25.2647 25.1302 23.5794C25.3985 22.2707 26.8139 22.4684 28.1006 22.4669H31.8572C33.69 22.4669 37.6772 22.1122 38.2719 22.969C38.614 23.4617 39.0942 25.3181 36.516 25.3086L27.4996 25.3165V25.3181ZM2.50909 7.85482C2.54518 7.84069 2.58913 7.8203 2.6158 7.81402L19.0842 7.74654C19.4875 7.74654 19.8876 7.74498 20.2893 7.74811L21.2449 7.8454C21.496 8.35224 21.383 14.1534 21.3767 14.6603C21.372 15.0573 21.5541 21.0138 21.2104 21.2979L2.50595 21.301L2.4432 8.06979C2.44634 8.04155 2.46987 8.01644 2.47301 7.95838C2.47614 7.90189 2.49654 7.88777 2.50909 7.85325V7.85482ZM59.7554 18.6977C58.3667 18.5487 57.003 18.85 57.0172 17.2149C57.0313 15.6645 58.453 15.8591 59.8354 15.7681L59.7554 18.6962V18.6977ZM2.52009 2.49769L21.2747 2.55418L21.3312 5.352L2.45418 5.30963L2.52166 2.49769H2.52009ZM0 2.10854V21.6917C0.564899 22.6677 0.472325 23.2766 1.85005 23.6547C2.89041 23.9403 4.25558 23.7097 5.4199 23.8226C5.06841 25.9598 6.50105 27.5918 8.26009 27.7346C10.4569 27.9135 12.9378 27.6608 15.1864 27.7722C14.4395 28.5301 12.2991 29.6976 10.6311 32.2083C9.53895 33.8527 7.7454 36.7086 8.51272 38.7642C9.07448 40.2691 10.278 41.1729 12.3807 41.0207C12.0182 43.6726 11.5302 45.8647 13.4524 48.8445C14.4442 50.3808 16.6331 52.2292 19.1375 52.7753C22.4265 53.4924 24.6484 52.5352 26.6774 51.101C27.6895 50.3855 28.2748 49.684 28.9997 48.6123C29.3795 48.0505 29.5019 47.732 29.7859 47.0023C30.4324 45.3532 29.9255 45.1209 30.8105 45.0252L53.9573 45.0315C54.9255 45.0236 55.437 44.8243 55.6112 43.9582C56.1133 41.471 55.8136 39.2287 58.3494 36.1892C58.9284 35.4957 60.2858 34.0175 61.3449 33.6848C61.6164 34.6342 62.3053 35.2697 62.5077 36.3383C57.3153 39.508 57.0187 47.936 62.7415 51.5482C67.7283 54.6975 74.7064 52.6168 76.5674 46.2978L76.9393 45.0487V43.3007C76.4811 42.0265 76.6961 38.9321 73.211 36.4199C70.1448 34.2105 67.7769 34.482 64.6794 35.1143L63.4915 32.4766C65.817 31.8834 67.1838 31.5068 69.8812 31.9431C70.9906 32.122 71.7312 32.5723 72.6586 32.7779C73.8167 33.0352 74.6122 32.009 74.0709 31.0502C73.4934 30.0271 70.0507 29.4277 68.5254 29.3351C64.9556 29.1186 64.1004 30.0287 62.3618 30.2656C61.7341 29.3759 60.5949 26.7177 60.0158 25.7119L57.7515 21.1692C61.2979 20.4615 62.8435 23.5433 62.299 14.8266C62.1813 12.9499 60.1304 13.19 58.3055 13.3328C56.6563 13.4614 55.5688 14.3496 55.0385 15.4323C53.3312 14.155 54.6917 10.3655 48.0761 10.6777C46.7752 10.7389 46.0738 11.8436 46.8678 12.7334C47.5818 13.5352 49.2326 13.0001 50.32 13.1727C51.3352 13.3343 51.5832 14.3449 52.021 15.2252C52.5247 16.2373 54.3135 19.5733 54.5536 20.372C54.0656 20.8004 53.6466 20.8569 53.0597 21.4344C52.6314 21.8549 52.374 22.2394 52.1261 22.9015C51.5534 24.4299 51.8829 35.1143 51.8484 37.2829C49.253 37.1417 41.6268 37.6266 39.8097 37.0633C38.3159 36.6003 37.2488 35.2101 37.0856 33.6111C36.9177 31.9807 37.0166 29.5203 37.048 27.8146C38.352 27.4945 39.0267 27.4898 39.8332 26.6942C42.0411 24.5178 41.029 20.5023 37.5925 20.0457L26.3761 19.997C24.5715 20.1429 24.3958 20.7534 23.8027 21.0939C23.6238 20.1382 23.7383 5.80863 23.7383 3.53804C23.7383 1.52324 23.3099 0.247506 21.3454 0.0717597C19.6789 -0.077311 6.56067 0.0513608 3.75971 0.0560683C2.4526 0.0576374 1.22238 -0.0522045 0.475462 1.14978L0.00314139 2.10854H0ZM67.0771 40.0258C61.6305 41.3345 63.7944 48.6311 68.4485 47.6096C73.5781 46.4829 71.7485 38.9039 67.0771 40.0258Z" fill="#CCCCCC"/>
</svg>
