<svg width="89" height="56" viewBox="0 0 89 56" fill="none" xmlns="http://www.w3.org/2000/svg">
<path fill-rule="evenodd" clip-rule="evenodd" d="M40.9546 48.4726L37.9073 52.6793C36.5937 54.2464 33.6861 52.2093 34.3969 50.1419C34.5028 49.8354 37.0569 46.4941 37.4682 46.0137C38.9889 44.2451 41.7173 46.7116 40.9536 48.4726H40.9546ZM36.559 42.2401C36.3895 42.8066 34.9853 44.4778 34.5433 45.0783C33.8431 46.0297 33.2344 46.8573 32.489 47.8182C31.8957 48.5861 31.2967 50.1627 29.6845 49.6104C28.7888 49.303 27.5801 48.0754 27.9837 46.7797C28.1156 46.3541 32.437 40.5983 33.0639 39.8786C34.4518 38.2783 37.0897 40.4574 36.559 42.2401ZM31.7802 36.7992C31.6203 37.2995 29.9021 39.2496 29.4581 39.8492C28.6569 40.9331 27.9288 41.9148 27.1063 42.9844C26.7288 43.4762 26.3079 44.0143 25.9313 44.5487C25.5095 45.1473 25.4286 45.7337 24.3942 45.7413C23.0555 45.7526 21.609 44.2205 22.0645 42.7801C22.2119 42.3148 26.9243 36.2658 27.8228 34.9569C28.2061 34.397 28.4893 33.8305 29.4678 33.8305C30.82 33.8286 32.2405 35.3607 31.7802 36.7992ZM22.8774 36.6857C22.8263 36.8238 20.8298 39.853 20.1229 40.097C18.5685 40.6323 16.6404 38.7257 17.2626 37.1463C17.4263 36.7283 19.416 33.978 20.0131 33.7529C21.5406 33.1789 23.4417 35.1498 22.8774 36.6857ZM29.9917 23.0234C29.6228 21.6246 31.3882 19.6451 31.9747 18.7467C32.7943 17.4917 33.69 16.2187 34.6049 14.9826C35.6566 13.5649 36.3548 12.0801 37.6656 11.6195C39.2065 11.0785 41.3658 10.8355 43.1417 10.6491C47.2522 10.216 51.2298 10.1611 55.1871 10.9972C56.9216 11.3632 58.6899 11.8597 60.5034 12.1302C62.9429 12.4934 63.9763 12.0054 65.9959 11.4786L69.6382 17.7527C70.0524 18.4771 70.3663 19.1042 70.7949 19.7832L75.5497 28.1853C75.3561 28.4416 74.6271 29.0923 74.3131 29.3826C72.8993 30.6887 72.4505 31.4566 70.323 32.5197L65.7936 29.0062C64.9557 28.4293 64.2998 27.911 63.4581 27.3313C56.6799 22.6583 53.4949 20.3771 45.9491 16.6462C44.8165 16.0863 44.388 15.5727 42.9568 16.0324C41.9697 16.3492 40.8611 16.6358 39.8894 17.0037C39.0139 17.3356 38.5516 18.4232 37.9825 19.0947C36.2961 21.077 33.0909 23.5246 29.9907 23.0224L29.9917 23.0234ZM64.3201 40.9813C64.5242 43.0241 63.5274 43.8706 61.5531 43.9595C60.4706 44.0077 60.2298 43.5783 59.4603 43.1594L52.1514 39.0019C51.4243 38.5895 50.9803 38.3805 50.2445 37.9246C48.2509 36.6876 47.0172 38.5999 47.9061 39.7745C48.0833 40.0072 57.9791 45.6505 58.895 46.0836C58.8834 47.5439 58.2102 48.4376 56.807 48.5625C55.1698 48.7081 54.3299 48.1586 53.1357 47.5477C51.0718 46.4903 48.8615 45.554 46.761 44.5279C46.1784 44.2432 45.719 43.8715 44.9456 44.0332C44.361 44.1562 43.9035 44.6338 43.8708 45.3015C43.8092 46.5404 45.3838 47.0303 46.4008 47.4843C47.5354 47.9893 48.4782 48.4688 49.5915 49.0041C50.52 49.4515 51.876 50.1636 52.8063 50.4852C52.5608 51.0479 51.6959 51.6976 51.0882 52.0059C49.0445 53.0396 44.7174 51.6466 42.7623 51.0536C42.953 50.4105 43.6291 49.948 43.8486 48.779C44.3591 46.0723 42.6631 43.3703 39.4444 42.642C39.3789 40.4857 39.3905 39.9145 38.2579 38.4817C37.4624 37.4754 36.4695 36.908 34.7214 36.5136C34.4865 31.8113 30.4049 30.1581 27.4838 31.4491C26.9714 31.6761 26.5458 31.9796 26.2096 32.3513C25.8485 32.7495 25.575 33.3027 25.1974 33.5978C23.8221 31.7082 21.7621 30.213 19.1367 31.0594C18.164 31.3734 17.8433 31.8037 17.2635 32.2208C16.7194 31.5266 16.1194 30.7908 15.5222 30.0948L13.623 27.9574C13.5845 27.7512 23.1422 11.2459 23.1518 11.2289C25.0453 11.8644 24.7727 13.3341 31.5047 14.1796C31.3458 14.6563 28.8254 18.0194 28.0915 19.3529C23.8376 27.0882 33.3587 28.4841 40.0242 21.0969C41.3109 19.6697 40.5086 19.7681 42.3385 19.1931C44.3157 18.5698 43.6791 18.7145 45.404 19.56C47.3302 20.5058 49.0811 21.6199 50.9196 22.5325C52.2169 23.1785 54.929 24.8856 56.182 25.7585L66.1625 32.8299C66.9686 33.4512 67.7005 34.0622 68.4989 34.7346C69.1413 35.2746 70.2845 36.0445 69.9561 37.4565C69.7095 38.5129 68.7917 39.2392 67.4328 39.1853C66.3166 39.1418 65.366 38.3077 64.5396 37.8197C62.7483 36.7623 60.9695 35.7021 59.1377 34.6277C57.304 33.5543 55.5993 32.5802 53.7858 31.502C52.6619 30.8334 51.328 31.2145 51.3636 32.6001C51.3944 33.7955 52.7813 34.1634 53.5759 34.6514L61.5839 39.3688C62.5499 39.9467 63.3637 40.4488 64.3172 40.9785L64.3201 40.9813ZM66.3811 6.16911C67.7679 5.52506 70.7188 3.46804 71.9381 2.9214C72.2425 3.19094 78.359 13.9555 79.0929 15.2691L86.1119 27.6349C85.6525 27.946 85.2335 28.1616 84.7 28.4775C84.2531 28.7423 83.8092 29.0402 83.3546 29.3155C82.7767 29.6644 81.0085 30.8154 80.4422 30.9431L76.951 24.7465C76.0967 23.2503 66.5785 6.86802 66.3801 6.17006L66.3811 6.16911ZM2.92985 27.6273C3.16388 26.7789 4.19148 25.3849 4.67785 24.4656C5.21718 23.448 5.87208 22.4209 6.41912 21.4156C8.57355 17.4482 11.2423 13.1507 13.4853 9.09054L16.9987 2.91478C17.4667 3.03111 22.2292 5.97523 22.627 6.31287C22.051 7.56031 18.2016 14.0624 17.33 15.5888L12.0715 24.8089C11.457 25.8427 10.8975 26.8442 10.2599 27.9186C9.87855 28.5598 9.0445 30.2357 8.58222 30.8069C8.57066 30.8211 8.53311 30.8892 8.52444 30.8703C8.51578 30.8514 8.48591 30.9138 8.46472 30.9336C7.41881 30.4485 3.75811 28.0094 2.93081 27.6254L2.92985 27.6273ZM24.6186 8.69333C24.7275 8.42 24.7014 8.53444 24.8604 8.25639C26.5564 5.29146 24.9085 4.09413 22.1069 2.58471C19.9159 1.40441 16.859 -1.42433 14.9232 0.991119C14.147 1.96052 11.6468 6.52282 11.0458 7.60382C9.76682 9.90011 8.49554 11.9931 7.21367 14.2676C5.98958 16.44 4.65859 18.636 3.40561 20.9626L1.49869 24.2907C-0.779022 27.8013 -0.506465 28.9239 2.63224 30.7539C3.69646 31.3744 4.77416 32.0335 5.93083 32.7154C7.10291 33.4087 8.14402 34.3592 9.77453 33.5638C10.8301 33.0483 11.9781 30.7729 11.9935 30.6546C11.9993 30.6149 12.0156 30.6017 12.0233 30.5742C12.5241 30.8485 15.2314 34.0631 15.4635 34.6457C14.2741 36.2251 13.832 37.9558 14.9088 40.1368C15.8112 41.9621 17.1961 42.5163 19.1242 42.9939C19.2677 44.1316 19.2022 44.5156 19.6366 45.433C20.7643 47.8182 22.3852 48.4367 25.1974 48.5294C25.9997 50.1806 26.017 50.6403 27.3548 51.5671C28.6145 52.44 29.8126 52.616 31.6887 52.3351C32.1847 53.4047 32.4081 53.9845 33.2363 54.6777C34.7908 55.9762 37.1484 56.503 39.0659 55.4059C39.9818 54.881 40.0521 54.4119 40.8919 53.4624C42.9924 53.6771 47.1386 55.963 51.2885 54.9293C51.7036 54.8252 51.3511 54.9274 51.6477 54.8195C51.85 54.7458 52.1004 54.6266 52.2757 54.5453C52.7351 54.3334 53.0047 54.1708 53.4285 53.8662L54.6651 52.8079C56.7242 50.3055 55.4221 51.9587 58.4423 51.0923C60.9907 50.3603 61.1794 48.3979 61.6706 47.1221C61.9586 46.3759 63.853 46.8062 65.4074 45.5758L66.0334 44.944C66.6787 44.1836 67.1554 42.1758 67.27 42.0727C67.4145 41.9441 69.0219 41.8523 69.5352 41.6916C69.6412 41.6575 69.8039 41.6055 69.8838 41.5743C70.8103 41.1988 71.5259 40.5661 71.9208 39.9523L72.0075 39.8105C72.0248 39.7811 72.0739 39.696 72.0913 39.6658C73.586 37.0139 72.5815 36.0691 72.3195 34.5928C73.7776 34.1473 75.4582 32.2397 76.5157 31.207C76.7054 31.0216 76.7728 30.927 77.0155 30.7312C77.917 31.7025 78.0374 33.09 79.4406 33.6498C80.0926 33.9099 80.9642 33.8882 81.6229 33.6224C82.4194 33.2999 85.8528 31.0944 86.578 30.6423C87.2233 30.2395 87.8339 30.0134 88.197 29.6465C88.6371 29.201 88.9752 28.4312 88.9964 27.8382C89.031 26.883 88.8153 26.4621 88.4252 25.8379C88.1257 25.3594 87.8012 24.668 87.4795 24.1545C86.7813 23.0385 86.2207 21.9216 85.5735 20.8112L79.0322 9.43669C78.9619 9.31847 78.9099 9.23146 78.8232 9.07257C78.4736 8.43324 78.2059 8.03319 77.8544 7.41278C77.0473 5.98469 74.7099 1.51128 73.9866 0.786837C72.7105 -0.489929 71.3073 0.00848297 70.0543 0.7282C68.7127 1.49615 64.3817 3.79527 63.7673 4.97841C62.886 6.67887 64.0427 7.7296 64.5387 8.91842C62.939 10.2415 58.5955 8.88342 56.7184 8.46067C54.0063 7.84971 51.3973 7.47236 48.1633 7.55275C44.8059 7.63597 38.8078 7.85444 35.8328 9.38467C34.6415 9.99752 33.9914 10.8355 33.5253 11.6337C32.0864 11.5438 29.8193 11.1466 28.3631 10.7891C27.6456 10.6123 25.105 9.1889 24.6177 8.69238L24.6186 8.69333Z" fill="#CCCCCC"/>
</svg>
