<svg width="48" height="66" viewBox="0 0 48 66" fill="none" xmlns="http://www.w3.org/2000/svg">
<path fill-rule="evenodd" clip-rule="evenodd" d="M24.6008 25.7217C24.6008 24.3912 24.7076 23.5189 26.1713 23.4921C27.5063 23.4653 28.1006 24.0554 28.1006 25.3172V38.171C28.0984 39.0755 27.9741 41.8974 28.247 42.2933C28.6861 42.9317 29.5027 43.1055 30.1224 42.5068C30.4514 42.1892 30.4548 42.0615 30.4559 41.4854L30.4581 39.8695C30.4581 38.876 30.1807 36.7526 31.1261 36.2129C31.6731 35.9007 32.5942 35.9264 33.1445 36.2279C34.3452 36.8835 33.9524 39.3781 33.9524 41.3244C33.9524 42.1881 33.8214 43.1109 34.1747 43.5454C34.6116 44.0862 35.3677 44.1634 35.907 43.6988C36.4793 43.2064 36.2878 42.1162 36.2855 41.4049C36.2778 39.0519 35.8817 37.1217 37.9474 37.1281C38.6793 37.1303 39.2153 37.4017 39.4882 37.8019C39.9681 38.509 39.781 41.1409 39.7854 42.2933C39.7909 43.5765 39.5697 44.6698 40.5195 45.0465C41.1798 45.3083 41.7565 44.9628 42.0008 44.5432C42.4466 43.7761 41.7686 41.5379 42.3728 40.6227C43.0122 39.656 44.7291 39.8298 45.3421 40.656C45.8462 41.3362 45.6437 43.5121 45.6404 44.5572L45.6415 54.0967C45.6294 60.8058 40.6989 63.9657 34.2165 63.9624C31.5344 63.9603 28.9635 63.3208 26.9835 62.3627C24.8209 61.3176 23.7666 59.9818 22.4437 58.2168C20.1116 55.1074 17.9116 50.9863 16.0362 47.2503L13.2077 41.3598C12.5452 40.0315 12.8809 39.2322 14.1388 38.7343C15.5519 38.1775 16.1617 39.4779 16.6954 40.2139L22.2126 47.6955C22.524 48.1076 22.83 48.6065 23.6896 48.4767C24.3213 48.3801 24.5975 47.9016 24.603 47.2245L24.6019 25.7217H24.6008ZM17.5869 4.78427C17.8092 6.15979 20.1369 5.97631 19.9278 4.38836C19.7539 3.06649 17.3316 3.21027 17.5869 4.78427ZM22.2643 14.8785L28.1028 14.8474C28.0973 15.7916 28.1006 16.7143 28.1006 17.6371C28.1006 18.4343 27.9235 19.5995 28.3604 20.1113C28.8765 20.7164 29.768 20.651 30.2302 20.0587C30.655 19.5126 30.4559 18.2701 30.4559 17.4761C30.457 15.3592 30.764 13.9665 29.3476 13.0052C28.5485 12.4623 28.1997 12.5738 27 12.5738C25.938 12.5728 22.2291 12.4236 21.4796 12.7455C20.8919 12.9987 20.3493 13.5116 20.0918 14.1446C19.7627 14.9504 19.9366 18.3999 19.9366 19.578C19.9355 20.5919 19.8321 21.3087 20.6883 21.6112C21.5963 21.932 22.25 21.2572 22.2698 20.4728C22.3138 18.6403 22.2786 16.7175 22.2632 14.8796L22.2643 14.8785ZM9.41297 27.3815L15.2471 27.403L15.2273 33.0767L9.41625 33.0552L9.4119 27.3815H9.41297ZM7.08308 28.3879L7.08195 31.1368C7.07535 32.2484 6.94659 33.2859 7.39342 34.0735C8.27718 35.6325 9.82128 35.361 11.5778 35.3567L13.8175 35.3578C15.2152 35.361 15.8392 35.4833 16.7032 34.7612C17.7784 33.8653 17.5792 32.7205 17.577 31.1368L17.5792 28.7924C17.5814 27.3107 17.7014 26.6305 16.8066 25.7968C15.8128 24.8708 14.754 25.0854 12.9051 25.1004L10.748 25.1047C9.35243 25.1058 8.75594 24.9953 7.93161 25.7228C7.11059 26.4448 7.07648 26.9438 7.08308 28.3879ZM9.41077 14.8485L15.2493 14.8678L15.2273 20.5319C14.4305 20.5716 9.91044 20.6263 9.47241 20.4986L9.41077 14.8485ZM7.08415 14.9697L7.08528 19.0115C7.08418 20.2572 6.9246 20.961 7.55523 21.8001C8.53914 23.1091 10.2912 22.828 12.2415 22.8269C13.5632 22.8269 15.6367 23.0608 16.5677 22.3333C17.9137 21.2808 17.5946 20.1359 17.6034 18.2036V15.3742C17.6045 14.1607 17.4042 13.8013 16.7241 13.1876C15.8491 12.3979 14.8542 12.5695 13.4851 12.5738L9.58795 12.5749C8.21224 12.5824 7.08308 13.6285 7.08308 14.9697H7.08415ZM2.41227 6.84218C2.25269 5.22847 2.55202 4.06326 3.37855 3.2564C4.34705 2.31114 5.27266 2.31865 7.01816 2.31651H30.4856C32.2333 2.31436 33.1556 2.31543 34.1318 3.24889C34.8251 3.91305 35.1101 4.7317 35.1233 5.74992C35.1266 5.96344 35.1817 6.69197 35.0573 6.80999C34.9131 6.94625 21.943 6.87115 21.1153 6.87115C19.7649 6.87115 3.27729 6.96128 2.41335 6.84111L2.41227 6.84218ZM2.4816 51.2566C2.38144 51.1247 2.38916 50.8704 2.38916 50.7062L2.39465 19.739C2.39244 17.3914 2.2802 11.0449 2.40787 9.18763L35.1036 9.15223L35.1223 34.9307C34.8416 34.8878 34.4531 34.4984 34.1747 34.3267C32.274 33.1507 30.8785 34.0542 30.436 34.022C30.4074 32.258 30.4349 30.478 30.4316 28.712C30.4283 27.0961 30.6848 24.9041 30.0597 23.6337C28.7412 20.9503 25.0059 20.2132 23.0821 22.8762C22.0618 24.2882 22.2709 25.3215 22.2687 27.4191L22.2676 43.6699C21.9099 43.5808 20.8611 41.9617 20.6267 41.6366C20.1017 40.9081 19.5382 40.201 19.0287 39.4736C18.0238 38.0412 17.0696 36.449 14.48 36.4672C12.3053 36.4822 10.7744 38.1324 10.7029 40.1914C10.6467 41.8062 11.0088 42.0519 11.4952 43.1795C12.8776 46.3876 16.1595 52.6096 17.8962 55.454C19.6758 58.3692 21.9661 62.0687 24.6944 63.7006C29.3993 66.5128 37.7361 66.9828 42.9022 63.7757C46.6034 61.4775 47.9472 58.2823 47.9747 53.9347C47.9824 52.8467 48.0605 41.8738 47.8965 40.9929C47.8283 40.6249 47.5345 39.9113 47.3463 39.6689C46.5495 38.6474 45.1837 37.641 43.6704 37.6946C42.966 37.7193 42.572 37.9972 42.0944 38.0401C41.9777 37.8803 41.7444 37.2612 41.4384 36.7934C41.204 36.4339 40.821 36.0455 40.4798 35.7837C39.4387 34.9812 39.048 34.9887 37.4709 34.8406C37.3157 32.9351 37.4532 30.4405 37.4532 28.4716L37.4544 6.15979C37.45 4.90659 37.3663 4.38192 36.9096 3.44739C36.2404 2.07617 35.0397 0.972109 33.5242 0.383064C32.0693 -0.181304 29.1462 0.0472327 27.3335 0.0386491L7.68065 0.040795C5.11523 0.041868 4.04659 0.023628 2.41335 1.26931C1.42944 2.01823 0.134093 3.57507 0.0713606 5.34757C-0.0717134 9.502 0.0416065 13.944 0.0592156 18.1231L0.0625474 56.4411C0.0603463 58.7683 0.711868 59.8928 1.89058 61.0333C3.11111 62.2114 4.39438 62.7082 6.7672 62.7028H16.5524C17.5055 62.7017 19.0309 62.9142 19.5745 62.3788C20.2272 61.735 19.9014 60.5558 18.8789 60.4389C18.0106 60.3402 16.4951 60.4303 15.5575 60.4303C13.3739 60.4303 11.1893 60.4303 9.00687 60.4292C6.7375 60.4271 4.75646 60.7533 3.43578 59.529C2.02485 58.22 2.42215 56.5237 2.38804 54.1708C2.37593 53.3328 2.36935 53.5806 4.94358 53.5806H11.4942C12.6905 53.5806 13.7327 53.7748 14.0321 52.7609C14.1796 52.2641 13.9671 51.8382 13.7129 51.6086C13.3387 51.2706 12.9502 51.3028 12.324 51.306C10.8591 51.3124 2.77652 51.3886 2.48047 51.2566H2.4816Z" fill="#CCCCCC"/>
</svg>
