<svg width="29" height="29" viewBox="0 0 29 29" fill="none" xmlns="http://www.w3.org/2000/svg">
<path d="M28.5 5V8H24V12.5H21V8H16.5V5H21V0.5H24V5H28.5ZM15.75 15.5C16.3469 15.4998 16.9193 15.2625 17.3413 14.8402C17.7633 14.418 18.0002 13.8454 18 13.2485C17.9998 12.6516 17.7625 12.0792 17.3402 11.6572C16.918 11.2352 16.3454 10.9983 15.7485 10.9985C15.4529 10.9986 15.1603 11.0569 14.8872 11.1701C14.6142 11.2833 14.3661 11.4492 14.1572 11.6583C13.9483 11.8673 13.7826 12.1155 13.6695 12.3886C13.5565 12.6617 13.4984 12.9544 13.4985 13.25C13.4986 13.5456 13.5569 13.8382 13.6701 14.1113C13.7833 14.3843 13.9492 14.6324 14.1583 14.8413C14.3673 15.0502 14.6155 15.2159 14.8886 15.329C15.1617 15.442 15.4544 15.5001 15.75 15.5ZM21 20.351L20.2305 19.496C19.9492 19.1827 19.605 18.9322 19.2205 18.7607C18.8359 18.5892 18.4196 18.5005 17.9985 18.5005C17.5774 18.5005 17.1611 18.5892 16.7765 18.7607C16.392 18.9322 16.0478 19.1827 15.7665 19.496L14.784 20.591L7.5 12.5L3 17.4995V8H13.5V5H3C2.20435 5 1.44129 5.31607 0.878679 5.87868C0.31607 6.44129 0 7.20435 0 8V26C0 26.7956 0.31607 27.5587 0.878679 28.1213C1.44129 28.6839 2.20435 29 3 29H21C21.7956 29 22.5587 28.6839 23.1213 28.1213C23.6839 27.5587 24 26.7956 24 26V15.5H21V20.351Z" fill="#333333"/>
</svg>
