<svg width="34" height="34" viewBox="0 0 34 34" fill="none" xmlns="http://www.w3.org/2000/svg">
<path fill-rule="evenodd" clip-rule="evenodd" d="M28.9384 5.01213C25.7809 1.85095 21.5817 0.109276 17.1082 0.107422C7.88993 0.107422 0.387642 7.60951 0.383934 16.8302C0.382698 19.7778 1.1527 22.6551 2.61629 25.1913L0.243652 33.8574L9.10942 31.5318C11.5523 32.8643 14.3025 33.5666 17.1014 33.5674H17.1084C26.3255 33.5674 33.8287 26.0647 33.8322 16.8436C33.834 12.3748 32.0961 8.1731 28.9384 5.01213ZM17.1082 30.743H17.1024C14.6082 30.742 12.162 30.0717 10.0275 28.8054L9.52017 28.5041L4.25909 29.8842L5.66335 24.7548L5.33273 24.2289C3.94124 22.0157 3.20646 19.4576 3.2077 16.8312C3.21058 9.16723 9.44642 2.93201 17.1137 2.93201C20.8265 2.93324 24.3167 4.38097 26.9411 7.00842C29.5654 9.63587 31.0098 13.1283 31.0086 16.8426C31.0053 24.5072 24.7699 30.743 17.1082 30.743ZM24.7328 20.3323C24.315 20.123 22.2605 19.1124 21.8773 18.9727C21.4946 18.8333 21.2157 18.7639 20.9374 19.182C20.6587 19.6002 19.858 20.5416 19.6141 20.8203C19.3702 21.0992 19.1267 21.1342 18.7087 20.9249C18.2908 20.7159 16.9444 20.2744 15.3481 18.8508C14.106 17.7427 13.2674 16.3743 13.0235 15.9562C12.78 15.5376 13.0214 15.3332 13.2068 15.1033C13.6592 14.5416 14.1122 13.9527 14.2514 13.674C14.3909 13.395 14.3211 13.1509 14.2164 12.9419C14.1122 12.7328 13.2765 10.6759 12.9283 9.83897C12.5889 9.02448 12.2446 9.13448 11.988 9.12171C11.7445 9.10955 11.4658 9.10708 11.1871 9.10708C10.9086 9.10708 10.4558 9.21152 10.0726 9.6301C9.6897 10.0485 8.61029 11.0593 8.61029 13.1161C8.61029 15.173 10.1077 17.16 10.3165 17.4389C10.5254 17.7178 13.2633 21.9386 17.455 23.7485C18.4521 24.1794 19.2303 24.4363 19.8374 24.6289C20.8385 24.947 21.7492 24.9021 22.4693 24.7945C23.2723 24.6744 24.9415 23.7835 25.29 22.8075C25.6381 21.8313 25.6381 20.9948 25.5335 20.8203C25.4293 20.646 25.1506 20.5416 24.7328 20.3323Z" fill="#333333"/>
</svg>
