<svg width="36" height="28" viewBox="0 0 36 28" fill="none" xmlns="http://www.w3.org/2000/svg">
<path d="M32.625 0.499985H3.37502C1.51392 0.499985 0 2.01391 0 3.87501V24.125C0 25.9861 1.51392 27.5 3.37502 27.5H32.625C34.4861 27.5 36 25.9861 36 24.125V3.87501C36 2.01391 34.4861 0.499985 32.625 0.499985ZM32.625 2.74998C32.7778 2.74998 32.9232 2.78169 33.0562 2.83707L18 15.8864L2.94375 2.83707C3.07669 2.78176 3.2221 2.74998 3.37495 2.74998H32.625ZM32.625 25.25H3.37502C2.75431 25.25 2.24999 24.7457 2.24999 24.1249V5.21421L17.2628 18.2253C17.4749 18.4088 17.7374 18.5 18 18.5C18.2626 18.5 18.5251 18.4088 18.7372 18.2253L33.75 5.21421V24.125C33.7499 24.7457 33.2457 25.25 32.625 25.25Z" fill="#333333"/>
</svg>
