<svg width="24" height="24" viewBox="0 0 24 24" fill="none" xmlns="http://www.w3.org/2000/svg">
<path fill-rule="evenodd" clip-rule="evenodd" d="M19.8455 4.05569C18.8172 3.02062 17.5937 2.19989 16.2459 1.64104C14.8981 1.08219 13.4529 0.796346 11.9938 0.800054C5.87578 0.800054 0.895257 5.77934 0.892784 11.8999C0.892784 13.856 1.40345 15.7651 2.37408 17.4492L0.800049 23.2L6.68443 21.6557C8.31212 22.5417 10.1357 23.0063 11.9889 23.0071H11.9938C18.1107 23.0071 23.0912 18.0278 23.0937 11.9073C23.0979 10.4489 22.813 9.00405 22.2554 7.65638C21.6979 6.3087 20.8788 5.0849 19.8455 4.05569ZM11.9938 21.1339H11.9901C10.3376 21.134 8.7155 20.6894 7.29401 19.8467L6.95769 19.6464L3.46589 20.5626L4.39695 17.1586L4.1781 16.8099C3.25419 15.339 2.76509 13.6369 2.76728 11.8999C2.76975 6.81303 6.90823 2.67455 11.9976 2.67455C13.2096 2.67186 14.4102 2.90958 15.5297 3.37396C16.6493 3.83834 17.6657 4.52016 18.52 5.37995C19.3788 6.23565 20.0596 7.25308 20.5229 8.37345C20.9862 9.49383 21.2229 10.6949 21.2192 11.9073C21.2167 16.9942 17.0782 21.1339 11.9938 21.1339ZM17.0547 14.2232C16.7765 14.0835 15.4139 13.4133 15.1592 13.3206C14.9057 13.2279 14.7215 13.1821 14.536 13.4591C14.3506 13.736 13.8189 14.3605 13.6569 14.5459C13.4949 14.7314 13.333 14.7537 13.056 14.6152C12.779 14.4767 11.885 14.1836 10.8254 13.239C10.0007 12.5033 9.44424 11.5957 9.28226 11.3175C9.12028 11.0393 9.26495 10.8897 9.40467 10.7512C9.52956 10.6276 9.68164 10.4272 9.82013 10.2653C9.95861 10.1033 10.0044 9.98829 10.0971 9.80282C10.1898 9.61735 10.1441 9.45537 10.0736 9.31689C10.0044 9.17717 9.44919 7.8121 9.21796 7.25692C8.99416 6.71906 8.76542 6.79077 8.59478 6.78335C8.41806 6.77612 8.2412 6.77283 8.06433 6.77346C7.92369 6.77704 7.78531 6.80965 7.65786 6.86922C7.53041 6.9288 7.41664 7.01406 7.32369 7.11967C7.06897 7.39788 6.35305 8.06805 6.35305 9.43312C6.35305 10.7982 7.34718 12.1175 7.48566 12.303C7.62415 12.4884 9.44177 15.2891 12.2238 16.4909C12.8866 16.7765 13.4034 16.9472 13.8053 17.0758C14.4693 17.2872 15.0739 17.2563 15.5524 17.1858C16.0853 17.1067 17.1932 16.5156 17.4244 15.8677C17.6557 15.2198 17.6557 14.6646 17.5864 14.5484C17.5172 14.4322 17.3305 14.3617 17.0547 14.2232Z" fill="white"/>
</svg>
