<svg width="52" height="55" viewBox="0 0 52 55" fill="none" xmlns="http://www.w3.org/2000/svg">
<g filter="url(#filter0_d)">
<path d="M22.0057 33.9331L29.0505 28.2092C29.5431 27.809 29.5431 27.0572 29.0505 26.657L22.0057 20.9331" stroke="#693490"/>
</g>
<path d="M4.57247 15.0256C1.26183 20.521 0.1906 27.0789 1.58046 33.3421C2.97031 39.6054 6.71487 45.0946 12.0392 48.6739C17.3636 52.2532 23.8602 53.6485 30.1848 52.5712C36.5093 51.4938 42.1776 48.0263 46.0166 42.8861C49.8557 37.7459 51.5717 31.3265 50.8096 24.9563C50.0474 18.5862 46.8654 12.7528 41.9221 8.66334C36.9787 4.57391 30.6524 2.54145 24.2523 2.98655C17.8521 3.43165 11.868 6.32023 7.53832 11.0546" stroke="#693490" stroke-linecap="round" stroke-linejoin="round"/>
<defs>
<filter id="filter0_d" x="1.69043" y="0.544922" width="48.2295" height="53.7761" filterUnits="userSpaceOnUse" color-interpolation-filters="sRGB">
<feFlood flood-opacity="0" result="BackgroundImageFix"/>
<feColorMatrix in="SourceAlpha" type="matrix" values="0 0 0 0 0 0 0 0 0 0 0 0 0 0 0 0 0 0 127 0"/>
<feOffset/>
<feGaussianBlur stdDeviation="10"/>
<feColorMatrix type="matrix" values="0 0 0 0 0 0 0 0 0 0 0 0 0 0 0 0 0 0 0.25 0"/>
<feBlend mode="normal" in2="BackgroundImageFix" result="effect1_dropShadow"/>
<feBlend mode="normal" in="SourceGraphic" in2="effect1_dropShadow" result="shape"/>
</filter>
</defs>
</svg>
