<svg width="111" height="33" viewBox="0 0 111 33" fill="none" xmlns="http://www.w3.org/2000/svg">
<path d="M109.279 29.1039C109.279 30.8498 107.88 32.2648 106.156 32.2648C106.154 32.2648 106.153 32.2648 106.152 32.2648H3.85517C2.12836 32.2672 0.727244 30.8522 0.724867 29.1039V3.89823C0.727231 2.14991 2.12835 0.733734 3.85517 0.733734H106.152C107.878 0.733734 109.278 2.14991 109.278 3.89704C109.278 3.89823 109.278 3.89823 109.278 3.89823L109.279 29.1039H109.279Z" fill="white"/>
<path d="M106.152 33.0001H3.85514C1.72801 33.0001 0.00355804 31.2566 -1.78814e-07 29.1041V3.89965C0.0023634 1.74603 1.72801 0.00129214 3.85514 -0.00111389H106.152C108.279 0.00248865 110.004 1.74601 110.007 3.89965V29.1041C110.008 31.253 108.277 33.0001 106.152 33.0001Z" fill="#FEFEFE"/>
<path d="M109.279 29.1039C109.279 30.8498 107.88 32.2648 106.156 32.2648C106.154 32.2648 106.153 32.2648 106.152 32.2648H3.85517C2.12836 32.2672 0.727244 30.8522 0.724867 29.1039V3.89823C0.727231 2.14991 2.12835 0.733734 3.85517 0.733734H106.152C107.878 0.733734 109.278 2.14991 109.278 3.89704C109.278 3.89823 109.278 3.89823 109.278 3.89823L109.279 29.1039H109.279Z" fill="#010101"/>
<path d="M106.152 -0.00125347H51.3592L72.82 32.9999H106.152C108.279 32.9987 110.003 31.2552 110.008 29.1016V3.8995C110.005 1.74587 108.28 0.00113955 106.152 -0.00126648L106.152 -0.00125347Z" fill="white" fill-opacity="0.101961"/>
<path d="M25.3479 16.7961C25.3243 14.1952 27.4514 12.9289 27.5497 12.8701C26.344 11.0918 24.4774 10.8496 23.8201 10.8304C22.252 10.6625 20.7312 11.7801 19.9318 11.7801C19.117 11.7801 17.8864 10.846 16.5599 10.8736C14.8544 10.8999 13.2578 11.9 12.3814 13.4529C10.5752 16.6198 11.923 21.2724 13.6534 23.8313C14.5192 25.0856 15.5318 26.485 16.856 26.4358C18.1517 26.3819 18.6361 25.6 20.1995 25.6C21.7486 25.6 22.2034 26.4358 23.5548 26.4035C24.9452 26.3819 25.8205 25.1444 26.6567 23.8805C27.6563 22.4439 28.059 21.029 28.0744 20.9558C28.0424 20.945 25.3752 19.9126 25.3479 16.7961H25.3479ZM22.7956 9.14562C23.4932 8.26425 23.9693 7.06393 23.8379 5.84561C22.8288 5.89118 21.5674 6.5519 20.8402 7.41526C20.1983 8.17552 19.6239 9.42141 19.7719 10.593C20.9054 10.6793 22.0684 10.015 22.7956 9.1456L22.7956 9.14562Z" fill="white"/>
<path d="M44.1156 25.3231H42.3047L41.3133 22.1682H37.8656L36.9205 25.3231H35.157L38.5739 14.5813H40.6844L44.1156 25.3231H44.1156ZM41.0137 20.8443L40.1171 18.0396C40.0224 17.753 39.8435 17.0779 39.5818 16.0154H39.5498C39.4444 16.4723 39.2762 17.1474 39.0465 18.0396L38.1641 20.8443H41.0137ZM52.8859 21.3552C52.8859 22.6718 52.5329 23.7139 51.8247 24.4777C51.1922 25.1576 50.4046 25.4982 49.4666 25.4982C48.4528 25.4982 47.7244 25.1324 47.2814 24.3998V28.4636H45.5818V20.1237C45.5818 19.2963 45.5605 18.4473 45.5191 17.5779H47.0137L47.1085 18.8058H47.1405C47.7078 17.8801 48.5676 17.4184 49.7224 17.4184C50.6249 17.4184 51.3782 17.7782 51.981 18.5013C52.5838 19.2255 52.8859 20.1752 52.8859 21.3552V21.3552ZM51.1543 21.4175C51.1543 20.6645 50.9861 20.0421 50.6498 19.5529C50.2826 19.0432 49.7887 18.7878 49.1693 18.7878C48.75 18.7878 48.3698 18.9305 48.0287 19.2099C47.6876 19.4929 47.4638 19.8622 47.3596 20.3191C47.3134 20.4894 47.2861 20.6657 47.2814 20.8419V22.1346C47.2814 22.697 47.4519 23.173 47.793 23.5616C48.1341 23.9489 48.5771 24.1431 49.1231 24.1431C49.7627 24.1431 50.2613 23.8925 50.6178 23.3949C50.9755 22.8948 51.1543 22.2365 51.1543 21.4175H51.1543ZM61.687 21.3552C61.687 22.6718 61.3328 23.7139 60.6258 24.4777C59.9921 25.1576 59.2057 25.4982 58.2665 25.4982C57.2527 25.4982 56.5243 25.1324 56.0813 24.3998V28.4636H54.3817V20.1237C54.3817 19.2963 54.3604 18.4473 54.319 17.5779H55.8136L55.9084 18.8058H55.9404C56.5065 17.8801 57.3675 17.4184 58.5223 17.4184C59.4248 17.4184 60.1781 17.7782 60.7821 18.5013C61.3837 19.2255 61.687 20.1752 61.687 21.3552V21.3552ZM59.9542 21.4175C59.9542 20.6645 59.786 20.0421 59.4485 19.5529C59.0813 19.0432 58.5898 18.7878 57.9704 18.7878C57.5511 18.7878 57.1698 18.9305 56.8275 19.2099C56.4864 19.4929 56.2637 19.8622 56.1595 20.3191C56.1086 20.5314 56.0801 20.7052 56.0801 20.8419V22.1346C56.0801 22.697 56.2519 23.173 56.5918 23.5616C56.9329 23.9477 57.3759 24.1431 57.923 24.1431C58.5638 24.1431 59.0624 23.8925 59.4177 23.3949C59.7754 22.8948 59.9542 22.2365 59.9542 21.4175H59.9542ZM71.5267 22.3097C71.5267 23.2246 71.2105 23.9681 70.5828 24.5412C69.8923 25.1672 68.9282 25.4814 67.6929 25.4814C66.5512 25.4814 65.6357 25.2595 64.9452 24.8123L65.3384 23.3781C66.0834 23.8254 66.9018 24.0484 67.7936 24.0484C68.4343 24.0484 68.933 23.9009 69.2895 23.6095C69.646 23.3181 69.826 22.9272 69.826 22.4392C69.826 22.0027 69.6767 21.6369 69.3842 21.3396C69.0893 21.0422 68.6037 20.7652 67.9203 20.511C66.062 19.8107 65.1323 18.7842 65.1323 17.4352C65.1323 16.5538 65.4604 15.832 66.1165 15.2672C66.7715 14.7048 67.6408 14.423 68.7221 14.423C69.6874 14.423 70.4916 14.5933 71.1311 14.9326L70.7048 16.3356C70.1031 16.0058 69.4245 15.8416 68.6653 15.8416C68.066 15.8416 67.5958 15.9914 67.2583 16.2876C66.9752 16.5538 66.8319 16.8776 66.8319 17.2613C66.8319 17.6846 66.9953 18.0372 67.321 18.3129C67.6029 18.5672 68.1181 18.8442 68.8631 19.1415C69.7774 19.5145 70.4478 19.9486 70.8777 20.4474C71.3112 20.9462 71.5267 21.5686 71.5267 22.3096V22.3097ZM77.162 18.8694H75.2883V22.6298C75.2883 23.5855 75.6176 24.0628 76.2796 24.0628C76.584 24.0628 76.8351 24.0364 77.0353 23.9825L77.0814 25.2895C76.7475 25.4166 76.3057 25.4802 75.7597 25.4802C75.0881 25.4802 74.5635 25.2727 74.1845 24.8578C73.8078 24.4429 73.6183 23.7486 73.6183 22.7701V18.8658H72.5015V17.5743H73.6183V16.157L75.2883 15.6461V17.5743H77.162V18.8694H77.162ZM85.5995 21.3863C85.5995 22.5771 85.2631 23.5544 84.5916 24.3182C83.8892 25.106 82.9548 25.4982 81.7893 25.4982C80.6654 25.4982 79.7712 25.1204 79.1044 24.3674C78.4387 23.6131 78.1048 22.6622 78.1048 21.5159C78.1048 20.3155 78.4494 19.3322 79.1363 18.5684C79.8245 17.8034 80.7506 17.4208 81.9161 17.4208C83.0388 17.4208 83.9402 17.7985 84.6224 18.5516C85.275 19.2831 85.5995 20.228 85.5995 21.3863ZM83.8371 21.4259C83.8371 20.716 83.6855 20.1081 83.3823 19.5984C83.0258 18.9833 82.5154 18.6763 81.8545 18.6763C81.1735 18.6763 80.6512 18.9833 80.2958 19.5984C79.9903 20.1081 79.8387 20.7268 79.8387 21.4583C79.8387 22.1682 79.9903 22.7785 80.2958 23.287C80.663 23.9009 81.1758 24.2091 81.8403 24.2091C82.4893 24.2091 82.9998 23.8949 83.3681 23.2714C83.6808 22.7498 83.8371 22.137 83.8371 21.4259ZM91.1281 19.0912C90.9517 19.0588 90.7716 19.0432 90.5916 19.0432C89.9947 19.0432 89.5316 19.2711 89.2059 19.7291C88.924 20.1333 88.7819 20.6429 88.7819 21.2592V25.3231H87.0823V20.0169C87.0835 19.2039 87.0669 18.3909 87.0326 17.5779H88.5131L88.5758 19.0601H88.622C88.8032 18.5516 89.0851 18.1403 89.4724 17.8333C89.8277 17.5635 90.2588 17.4184 90.7018 17.4184C90.8581 17.4184 91.0002 17.4292 91.127 17.4496L91.1281 19.0912H91.1281ZM98.7306 21.0842C98.7354 21.3456 98.7152 21.607 98.6691 21.8648H93.5691C93.5881 22.6298 93.8356 23.215 94.3094 23.6191C94.7381 23.9788 95.2948 24.1599 95.977 24.1599C96.7326 24.1599 97.4207 24.0388 98.0402 23.7942L98.3066 24.9873C97.583 25.3075 96.7279 25.467 95.7413 25.467C94.5557 25.467 93.6236 25.1132 92.9462 24.4069C92.2699 23.7018 91.9312 22.7521 91.9312 21.5638C91.9312 20.3959 92.2462 19.4234 92.8763 18.6475C93.5372 17.8201 94.429 17.4052 95.5518 17.4052C96.6545 17.4052 97.4894 17.8201 98.0568 18.6475C98.5056 19.3046 98.7307 20.1177 98.7307 21.0842H98.7306ZM97.1104 20.6381C97.1223 20.1261 97.0109 19.6872 96.78 19.3142C96.4863 18.8358 96.0326 18.596 95.4262 18.596C94.8708 18.596 94.4172 18.8298 94.0725 19.2975C93.7894 19.6692 93.6212 20.1165 93.5691 20.6357L97.1104 20.6381Z" fill="white"/>
<path d="M36.2774 12.7467H36.8601V11.7886H40.8207V12.7467H41.4022V11.1987H40.7117V6.62878H37.7117L37.6608 7.66003C37.5518 9.82087 37.0342 10.9336 36.8234 11.1987H36.2774V12.7467ZM38.2435 8.13969L38.3086 7.21756H40.0923V11.1987H37.508C37.6975 10.9624 38.1191 9.9156 38.2435 8.13969ZM41.9849 9.20811C41.9849 10.779 43.1065 11.8618 44.5846 11.8618C46.0627 11.8618 47.1843 10.7418 47.1843 9.20811C47.1843 7.63846 46.0627 6.55444 44.5846 6.55444C43.0698 6.55444 41.9849 7.7116 41.9849 9.20811ZM42.6411 9.20811C42.6411 8.00658 43.4784 7.14441 44.5846 7.14441C45.6766 7.14441 46.5294 8.00659 46.5294 9.20811C46.5294 10.3737 45.75 11.273 44.5846 11.273C43.4926 11.273 42.6411 10.3808 42.6411 9.20811ZM51.859 10.8149C51.5085 11.1027 51.043 11.273 50.555 11.273C49.3754 11.273 48.5665 10.4396 48.5665 9.20812C48.5665 7.98502 49.3541 7.14443 50.4603 7.14443C50.9921 7.14443 51.3853 7.27753 51.7193 7.52814L52.0035 7.05569C51.6399 6.73912 51.1081 6.55446 50.4532 6.55446C48.859 6.55446 47.9115 7.72601 47.9115 9.20812C47.9115 10.815 48.968 11.8618 50.497 11.8618C51.1307 11.8618 51.7643 11.6411 52.1066 11.2874L51.859 10.815L51.859 10.8149ZM52.3967 7.21756H54.1804V11.7886H54.7998V7.21756H56.5835V6.62878H52.3967V7.21756ZM61.3956 6.62878H60.7703L59.3727 9.86403L57.4635 6.62878H56.7659L59.0743 10.4912L58.9854 10.683C58.848 10.978 58.6514 11.2059 58.3601 11.2059C58.2144 11.2059 58.1054 11.1699 57.9669 11.074L57.7478 11.604C57.8875 11.7143 58.141 11.7886 58.3672 11.7886C58.9274 11.7886 59.2851 11.3977 59.6345 10.6087L61.3956 6.62878ZM65.6558 11.7886H66.2741V6.62878H62.2697V11.7886H62.8891V7.21756H65.6558V11.7886ZM71.2259 11.7886H71.8454V6.62878H71.2259V8.86156H68.4225V6.62878H67.8031V11.7886H68.4225V9.45153H71.2259V11.7886ZM72.9729 9.20811C72.9729 10.779 74.0945 11.8618 75.5726 11.8618C77.0507 11.8618 78.1723 10.7418 78.1723 9.20811C78.1723 7.63846 77.0507 6.55444 75.5726 6.55444C74.0578 6.55444 72.9729 7.7116 72.9729 9.20811ZM73.629 9.20811C73.629 8.00658 74.4664 7.14441 75.5726 7.14441C76.6646 7.14441 77.5173 8.00659 77.5173 9.20811C77.5173 10.3737 76.738 11.273 75.5726 11.273C74.4806 11.273 73.629 10.3808 73.629 9.20811ZM80.939 11.7814C81.2375 11.7958 81.8569 11.8114 82.3081 11.8114C83.3634 11.8114 84.1569 11.3605 84.1569 10.3137C84.1569 9.60622 83.7353 9.19372 83.1017 9.0906V9.07501C83.5896 8.91313 83.9745 8.53061 83.9745 7.88188C83.9745 7.1672 83.5529 6.60601 82.3366 6.60601C81.864 6.60601 81.2233 6.6288 80.939 6.63599V11.7814H80.939ZM82.3804 9.43715C83.1159 9.43715 83.5387 9.73213 83.5387 10.2777C83.5387 10.9109 83.0946 11.2214 82.3448 11.2214C82.0535 11.2214 81.7254 11.2059 81.5584 11.1915V9.43715H82.3804ZM82.3223 7.19598C82.9998 7.19598 83.3563 7.48377 83.3563 8.02098C83.3563 8.58216 82.9122 8.88435 82.3733 8.88435H81.5584V7.21756C81.7408 7.21036 82.0535 7.19597 82.3224 7.19597L82.3223 7.19598Z" fill="#FEFEFE"/>
</svg>
