<svg width="111" height="33" viewBox="0 0 111 33" fill="none" xmlns="http://www.w3.org/2000/svg">
<path d="M110.272 29.1039C110.272 30.8498 108.873 32.2648 107.148 32.2648C107.147 32.2648 107.146 32.2648 107.145 32.2648H4.8481C3.12128 32.266 1.72017 30.851 1.71779 29.1039V3.89823C1.72015 2.14991 3.12127 0.733734 4.8481 0.733734H107.145C108.87 0.733734 110.27 2.14991 110.27 3.89704C110.27 3.89823 110.27 3.89823 110.27 3.89823L110.272 29.1039H110.272Z" fill="white"/>
<path d="M107.145 32.9999H4.84805C2.7221 32.9999 0.996471 31.2564 0.992912 29.104V3.8995C0.995276 1.74587 2.72092 0.00113955 4.84805 -0.00126648H107.145C109.272 0.00112654 110.996 1.74586 111 3.8995V29.104C111.002 31.2528 109.27 32.9999 107.145 32.9999Z" fill="#FEFEFE"/>
<path d="M110.272 29.1039C110.272 30.8498 108.873 32.2648 107.148 32.2648C107.147 32.2648 107.146 32.2648 107.145 32.2648H4.8481C3.12128 32.266 1.72017 30.851 1.71779 29.1039V3.89823C1.72015 2.14991 3.12127 0.733734 4.8481 0.733734H107.145C108.87 0.733734 110.27 2.14991 110.27 3.89704C110.27 3.89823 110.27 3.89823 110.27 3.89823L110.272 29.1039H110.272Z" fill="#010101"/>
<path d="M107.145 -0.00125347H52.3523L73.8131 32.9999H107.145C109.272 32.9987 110.997 31.254 111.001 29.1016V3.8995C110.998 1.74587 109.273 0.00113955 107.145 -0.00126648L107.145 -0.00125347Z" fill="white" fill-opacity="0.101961"/>
<path d="M56.3565 18.2831C54.4449 18.2831 52.9313 19.7353 52.9313 21.7522C52.9313 23.6888 54.4449 25.2213 56.3565 25.2213C58.2693 25.2213 59.7829 23.7691 59.7829 21.7522C59.7829 19.6549 58.2693 18.2831 56.3565 18.2831ZM56.3565 23.7691C55.3214 23.7691 54.4449 22.8818 54.4449 21.6719C54.4449 20.4619 55.3214 19.5746 56.3565 19.5746C57.3928 19.5746 58.2693 20.3804 58.2693 21.6719C58.2693 22.8818 57.3928 23.7691 56.3565 23.7691ZM48.9471 18.2831C47.0355 18.2831 45.5207 19.7353 45.5207 21.7522C45.5207 23.6888 47.0355 25.2213 48.9471 25.2213C50.8598 25.2213 52.3734 23.7691 52.3734 21.7522C52.3734 19.6549 50.8598 18.2831 48.9471 18.2831ZM48.9471 23.7691C47.9119 23.7691 47.0355 22.8818 47.0355 21.6719C47.0355 20.4619 47.9119 19.5746 48.9471 19.5746C49.9834 19.5746 50.8598 20.3804 50.8598 21.6719C50.8598 22.8818 49.9834 23.7691 48.9471 23.7691ZM40.1033 19.3324V20.7845H43.5297C43.4492 21.5903 43.1306 22.2367 42.7326 22.6396C42.2542 23.124 41.4571 23.6888 40.1033 23.6888C37.9525 23.6888 36.3583 21.9944 36.3583 19.8168C36.3583 17.638 38.0319 15.9436 40.1033 15.9436C41.219 15.9436 42.0954 16.4281 42.7326 16.9929L43.7678 15.9436C42.8913 15.1378 41.7769 14.4927 40.1827 14.4927C37.3141 14.4927 34.8447 16.9125 34.8447 19.8168C34.8447 22.7199 37.3141 25.1397 40.1827 25.1397C41.7769 25.1397 42.8914 24.6565 43.8483 23.6073C44.8041 22.6396 45.1227 21.2678 45.1227 20.2197C45.1227 19.8972 45.1227 19.5746 45.0434 19.3324H40.1034H40.1033ZM76.2753 20.462C75.9567 19.6549 75.1608 18.2831 73.4079 18.2831C71.6551 18.2831 70.2208 19.6549 70.2208 21.7522C70.2208 23.6888 71.6551 25.2213 73.5667 25.2213C75.0803 25.2213 76.0373 24.2524 76.3559 23.6888L75.2402 22.8818C74.841 23.4466 74.3637 23.8495 73.5667 23.8495C72.7696 23.8495 72.2923 23.5269 71.8931 22.8014L76.4352 20.8649L76.2753 20.4619V20.462ZM71.6551 21.5903C71.6551 20.3001 72.6902 19.5746 73.4079 19.5746C73.9646 19.5746 74.5224 19.8972 74.6823 20.3001L71.6551 21.5903H71.6551ZM67.9101 24.8987H69.4237V14.8153H67.9101V24.8987ZM65.52 19.0098C65.1209 18.6057 64.4837 18.2028 63.6866 18.2028C62.0143 18.2028 60.4201 19.7353 60.4201 21.6719C60.4201 23.6073 61.9337 25.0594 63.6866 25.0594C64.4837 25.0594 65.1209 24.6565 65.4395 24.2524H65.52V24.7368C65.52 26.0271 64.8023 26.7538 63.6866 26.7538C62.8102 26.7538 62.173 26.1086 62.0143 25.5439L60.7387 26.1086C61.1378 26.996 62.0936 28.1256 63.7672 28.1256C65.52 28.1256 66.9531 27.0763 66.9531 24.5761V18.445H65.52V19.0098L65.52 19.0098ZM63.7671 23.7692C62.7308 23.7692 61.8544 22.8818 61.8544 21.6719C61.8544 20.462 62.7308 19.5746 63.7671 19.5746C64.8023 19.5746 65.5994 20.462 65.5994 21.6719C65.5994 22.8818 64.8023 23.7692 63.7671 23.7692ZM83.2075 14.8153H79.6224V24.8987H81.136V21.1071H83.2075C84.881 21.1071 86.474 19.8972 86.474 17.9606C86.474 16.0252 84.881 14.8153 83.2075 14.8153ZM83.2868 19.6549H81.136V16.1859H83.2868C84.4025 16.1859 85.0397 17.1548 85.0397 17.8802C84.9604 18.7676 84.3231 19.6549 83.2868 19.6549ZM92.4503 18.2028C91.3346 18.2028 90.219 18.6872 89.821 19.7353L91.1747 20.3001C91.4933 19.7353 91.9718 19.5746 92.5297 19.5746C93.3268 19.5746 94.0433 20.0578 94.1227 20.8649V20.9452C93.8834 20.7845 93.2462 20.5423 92.609 20.5423C91.1748 20.5423 89.7405 21.3493 89.7405 22.8014C89.7405 24.1721 90.9355 25.0594 92.2111 25.0594C93.2462 25.0594 93.7247 24.5762 94.1227 24.0917H94.2032V24.8987H95.6363V21.0267C95.4776 19.252 94.1227 18.2028 92.4503 18.2028L92.4503 18.2028ZM92.2904 23.7692C91.8119 23.7692 91.0954 23.5269 91.0954 22.8818C91.0954 22.0748 91.9718 21.8326 92.6884 21.8326C93.3268 21.8326 93.6454 21.9944 94.0433 22.1551C93.8834 23.124 93.0875 23.7692 92.2904 23.7692ZM100.657 18.445L98.9833 22.8015H98.904L97.1511 18.445H95.5569L98.1862 24.5762L96.6726 27.9637H98.1862L102.25 18.445H100.657ZM87.271 24.8987H88.7847V14.8153H87.271V24.8987Z" fill="white"/>
<path d="M12.8319 6.69588C12.5927 6.93811 12.5134 7.341 12.5134 7.82546V25.6529C12.5134 26.1361 12.6732 26.5403 12.9113 26.7825L12.9918 26.8628L22.8707 16.8597V16.699L12.832 6.69589L12.8319 6.69588Z" fill="url(#paint0_linear)"/>
<path d="M26.0578 20.2473L22.7913 16.9401V16.699L26.0578 13.3907L26.1384 13.4722L30.0421 15.7302C31.1578 16.3753 31.1578 17.4245 30.0421 18.0697L26.0578 20.2473V20.2473Z" fill="url(#paint1_linear)"/>
<path d="M26.1384 20.1668L22.7914 16.7793L12.832 26.8628C13.2299 27.2657 13.7877 27.2657 14.5055 26.9431L26.1384 20.1668H26.1384Z" fill="url(#paint2_linear)"/>
<path d="M26.1384 13.3906L14.5055 6.69587C13.7877 6.29176 13.2299 6.37331 12.832 6.77621L22.7914 16.7793L26.1384 13.3906L26.1384 13.3906Z" fill="url(#paint3_linear)"/>
<path d="M35.3659 12.7467H35.9486V11.7886H39.9092V12.7467H40.4919V11.1987H39.8014V6.62878H36.8014L36.7504 7.66003C36.6403 9.82087 36.1239 10.9336 35.9119 11.1987H35.3659V12.7467ZM37.332 8.13969L37.3983 7.21756H39.182V11.1987H36.5965C36.786 10.9624 37.2088 9.9156 37.332 8.13969ZM41.0746 9.20811C41.0746 10.779 42.1962 11.8618 43.6743 11.8618C45.1524 11.8618 46.274 10.7418 46.274 9.20811C46.274 7.63846 45.1524 6.55444 43.6743 6.55444C42.1595 6.55444 41.0746 7.7116 41.0746 9.20811ZM41.7295 9.20811C41.7295 8.00658 42.5669 7.14441 43.6743 7.14441C44.7663 7.14441 45.6178 8.00659 45.6178 9.20811C45.6178 10.3737 44.8385 11.273 43.6743 11.273C42.5811 11.273 41.7295 10.3808 41.7295 9.20811ZM50.9475 10.8149C50.5982 11.1027 50.1327 11.273 49.6435 11.273C48.4651 11.273 47.6561 10.4396 47.6561 9.20812C47.6561 7.98502 48.4426 7.14443 49.55 7.14443C50.0817 7.14443 50.4738 7.27753 50.809 7.52814L51.0932 7.05569C50.7296 6.73912 50.1978 6.55446 49.5429 6.55446C47.9475 6.55446 47.0012 7.72601 47.0012 9.20812C47.0012 10.815 48.0576 11.8618 49.5867 11.8618C50.2191 11.8618 50.8528 11.6411 51.1951 11.2874L50.9475 10.815L50.9475 10.8149ZM51.4864 7.21756H53.2701V11.7886H53.8883V7.21756H55.6732V6.62878H51.4864V7.21756ZM60.4853 6.62878H59.8588L58.4612 9.86403L56.5532 6.62878H55.8544L58.1628 10.4912L58.0751 10.683C57.9365 10.978 57.7399 11.2059 57.4498 11.2059C57.3029 11.2059 57.1939 11.1699 57.0554 11.074L56.8374 11.604C56.976 11.7143 57.2307 11.7886 57.4557 11.7886C58.0171 11.7886 58.3736 11.3977 58.723 10.6087L60.4853 6.62878ZM64.7443 11.7886H65.3637V6.62878H61.3594V11.7886H61.9776V7.21756H64.7443V11.7886ZM70.3156 11.7886H70.9339V6.62878H70.3156V8.86156H67.5122V6.62878H66.8928V11.7886H67.5122V9.45153H70.3156V11.7886ZM72.0626 9.20811C72.0626 10.779 73.1842 11.8618 74.6623 11.8618C76.1404 11.8618 77.262 10.7418 77.262 9.20811C77.262 7.63846 76.1404 6.55444 74.6623 6.55444C73.1475 6.55444 72.0626 7.7116 72.0626 9.20811ZM72.7175 9.20811C72.7175 8.00658 73.5549 7.14441 74.6623 7.14441C75.7543 7.14441 76.6058 8.00659 76.6058 9.20811C76.6058 10.3737 75.8265 11.273 74.6623 11.273C73.5691 11.273 72.7175 10.3808 72.7175 9.20811ZM80.0287 11.7814C80.3271 11.7958 80.9454 11.8114 81.3978 11.8114C82.4531 11.8114 83.2466 11.3605 83.2466 10.3137C83.2466 9.60622 82.8238 9.19372 82.1913 9.0906V9.07501C82.6781 8.91313 83.0642 8.53061 83.0642 7.88188C83.0642 7.1672 82.6414 6.60601 81.4262 6.60601C80.9537 6.60601 80.3129 6.6288 80.0287 6.63599V11.7814ZM81.4701 9.43715C82.2055 9.43715 82.6272 9.73213 82.6272 10.2777C82.6272 10.9109 82.1831 11.2214 81.4333 11.2214C81.142 11.2214 80.8139 11.2059 80.6469 11.1915V9.43715H81.4701ZM81.412 7.19598C82.0895 7.19598 82.4448 7.48377 82.4448 8.02098C82.4448 8.58216 82.0007 8.88435 81.4629 8.88435H80.6469V7.21756C80.8293 7.21036 81.142 7.19597 81.412 7.19597L81.412 7.19598Z" fill="#FEFEFE"/>
<defs>
<linearGradient id="paint0_linear" x1="17.6926" y1="6.63712" x2="17.6926" y2="26.7117" gradientUnits="userSpaceOnUse">
<stop stop-color="#257CAF"/>
<stop offset="0.278431" stop-color="#4A91B4"/>
<stop offset="0.760784" stop-color="#79BBB9"/>
<stop offset="1" stop-color="#87CEBB"/>
</linearGradient>
<linearGradient id="paint1_linear" x1="28.6812" y1="12.5908" x2="24.91" y2="21.0173" gradientUnits="userSpaceOnUse">
<stop stop-color="#F38779"/>
<stop offset="0.109804" stop-color="#F48F7A"/>
<stop offset="0.709804" stop-color="#FBB677"/>
<stop offset="1" stop-color="#FCC774"/>
</linearGradient>
<linearGradient id="paint2_linear" x1="25.6611" y1="16.9196" x2="12.9339" y2="27.0852" gradientUnits="userSpaceOnUse">
<stop stop-color="#EA413D"/>
<stop offset="0.160784" stop-color="#D94451"/>
<stop offset="0.568627" stop-color="#AF487A"/>
<stop offset="0.858824" stop-color="#944B91"/>
<stop offset="1" stop-color="#884A9C"/>
</linearGradient>
<linearGradient id="paint3_linear" x1="14.0684" y1="7.41775" x2="26.1871" y2="16.5567" gradientUnits="userSpaceOnUse">
<stop stop-color="#53BFAC"/>
<stop offset="1" stop-color="#DDE79A"/>
</linearGradient>
</defs>
</svg>
