<svg width="84" height="109" viewBox="0 0 84 109" fill="none" xmlns="http://www.w3.org/2000/svg">
<g clip-path="url(#clip0)">
<path d="M0.054754 84.16C0.054754 84.1232 0.0916011 84.078 0.164899 84.0238C0.237405 83.9691 0.301194 83.9327 0.35587 83.9137C1.03061 83.878 1.69742 83.8685 2.35314 83.8864C3.01005 83.9054 3.67567 83.9137 4.35041 83.9137C4.86152 83.9137 5.33617 83.9778 5.77358 84.1057C6.21139 84.2337 6.61314 84.4982 6.97725 84.899C7.30571 85.2083 7.54779 85.5639 7.70191 85.9658C7.85722 86.3666 7.96301 86.7638 8.01729 87.1547C8.07197 87.5471 8.0898 87.9158 8.07197 88.2631C8.05414 88.6092 8.02561 88.8833 7.98995 89.0833C7.95311 89.2468 7.90318 89.4021 7.8394 89.5478C7.77521 89.6935 7.70667 89.8393 7.63416 89.9854C7.59731 90.059 7.55215 90.118 7.49668 90.1632C7.442 90.2083 7.40991 90.2499 7.40199 90.2864C7.39248 90.3232 7.41031 90.3731 7.45666 90.4368C7.50183 90.501 7.60722 90.5873 7.77085 90.6966C7.91666 90.8055 8.07197 90.9703 8.2356 91.1885C8.40042 91.4079 8.54623 91.653 8.67341 91.927C8.80138 92.2007 8.91073 92.4878 9.00186 92.7888C9.09299 93.0886 9.14767 93.3769 9.16668 93.6493C9.22136 94.3427 9.26138 95.0302 9.2899 95.7145C9.31724 96.3984 9.32081 97.0871 9.30298 97.7798C9.30298 99.0743 8.81089 100.169 7.82513 101.061C7.53352 101.317 7.21418 101.508 6.8679 101.636C6.52162 101.764 6.16582 101.846 5.80052 101.882C5.63689 101.901 5.2811 101.923 4.73315 101.951C4.18638 101.978 3.61228 102.005 3.01005 102.033C2.40742 102.06 1.8559 102.074 1.35431 102.074C0.852711 102.074 0.547633 102.056 0.437488 102.019C0.347154 101.983 0.273856 101.906 0.219179 101.787C0.164503 101.669 0.118543 101.563 0.081696 101.472C0.081696 101.454 0.0781301 101.199 0.0686212 100.706C0.0591123 100.214 0.050792 99.5713 0.041283 98.7785C0.0317741 97.9853 0.0234538 97.0879 0.0139449 96.0852C0.00443594 95.0825 -0.000318527 94.0521 -0.000318527 92.9947C-0.000318527 91.9373 -0.000318527 90.8978 -0.000318527 89.8769C-0.000318527 88.8552 -0.000318527 87.9352 -0.000318527 87.1147C-0.000318527 86.2945 0.00443594 85.6197 0.0139449 85.091C0.0234538 84.5612 0.0365286 84.2519 0.0543578 84.1604L0.054754 84.16ZM5.88293 93.2394C5.73713 92.9844 5.54616 92.7654 5.30883 92.584C5.07151 92.4015 4.79773 92.2926 4.48829 92.2557C4.23195 92.2367 3.9867 92.2367 3.74937 92.2557C3.51204 92.2736 3.2656 92.2926 3.01045 92.3104C2.77312 92.3104 2.65465 92.4383 2.65465 92.6933C2.67248 93.0026 2.68675 93.3135 2.69625 93.6228C2.70458 93.9333 2.71884 94.2429 2.73667 94.5534C2.73667 95.2825 2.73667 96.0115 2.73667 96.7406C2.73667 97.4709 2.72835 98.1999 2.70933 98.929C2.70933 99.2026 2.84681 99.3298 3.1198 99.3119C3.39358 99.2941 3.66775 99.2941 3.94034 99.3119C4.21412 99.3298 4.48829 99.3298 4.76088 99.3119C5.12618 99.2751 5.44037 99.1294 5.70504 98.8743C5.9697 98.6181 6.1476 98.3183 6.23873 97.971C6.27557 97.8075 6.32549 97.5429 6.38928 97.1778C6.45347 96.8139 6.48992 96.4036 6.49824 95.9474C6.50775 95.4924 6.4709 95.0227 6.38928 94.5392C6.30727 94.0568 6.13888 93.6228 5.88293 93.2398V93.2394ZM3.55721 86.5393C3.41141 86.5583 3.27987 86.5666 3.161 86.5666C3.04254 86.5666 2.90941 86.5856 2.76361 86.6212C2.70893 86.6402 2.65465 86.6806 2.59998 86.7444C2.5453 86.8085 2.51796 86.8676 2.51796 86.9222C2.53579 87.3051 2.54055 87.6834 2.53104 88.058C2.52272 88.4314 2.53579 88.8096 2.57264 89.1926C2.57264 89.4476 2.70061 89.5577 2.95577 89.5209C3.13842 89.5018 3.31632 89.4983 3.48946 89.5066C3.6626 89.5161 3.83099 89.5018 3.99581 89.4662C4.35992 89.3751 4.63845 89.2373 4.82942 89.0559C5.02158 88.8734 5.14361 88.6635 5.19948 88.4263C5.25416 88.1891 5.24465 87.9427 5.17214 87.6877C5.09845 87.4327 4.97998 87.178 4.81635 86.9218C4.65153 86.6846 4.45105 86.5709 4.21372 86.5804C3.97639 86.5899 3.75848 86.5757 3.55681 86.5389L3.55721 86.5393ZM23.6127 87.7697C23.6127 87.4972 23.4954 87.3594 23.2581 87.3594C22.875 87.3962 22.4598 87.401 22.0128 87.3737C21.5655 87.3463 21.1507 87.3511 20.7676 87.3867C20.7307 87.3867 20.6856 87.4283 20.6313 87.5099C20.5766 87.5919 20.5493 87.6604 20.5493 87.715C20.5493 87.8608 20.5493 88.2805 20.5493 88.9728C20.5493 89.6662 20.5493 90.4962 20.5493 91.4621C20.5493 92.4284 20.5445 93.4584 20.535 94.5526C20.5255 95.6468 20.5219 96.6673 20.5219 97.6158C20.5219 98.5631 20.5172 99.3654 20.5077 100.022C20.4982 100.678 20.4934 101.043 20.4934 101.117C20.4756 101.171 20.4482 101.23 20.4114 101.293C20.3757 101.357 20.3294 101.408 20.2751 101.444C19.6372 101.681 18.9704 101.745 18.2778 101.636C17.9315 101.581 17.7572 101.353 17.7572 100.952C17.7572 100.843 17.7572 100.433 17.7572 99.7214C17.7572 99.0102 17.762 98.1401 17.7715 97.1097C17.781 96.0797 17.7893 94.9581 17.7988 93.7455C17.8083 92.5329 17.8131 91.3805 17.8131 90.2864C17.8131 89.1922 17.8083 88.2259 17.7988 87.3867C17.7893 86.5488 17.7857 85.9833 17.7857 85.6914C17.7857 85.6367 17.781 85.5457 17.7715 85.4177C17.762 85.291 17.7667 85.158 17.7857 85.0217C17.8036 84.8843 17.8404 84.7667 17.8947 84.6661C17.9494 84.5655 18.05 84.5156 18.1958 84.5156C18.2683 84.5156 18.51 84.5109 18.9205 84.5026C19.3309 84.4931 19.823 84.4883 20.3983 84.4883C20.9724 84.4883 21.5877 84.4835 22.245 84.474C22.9019 84.4657 23.5176 84.4562 24.0917 84.4467C24.667 84.4384 25.1591 84.4336 25.5696 84.4336C25.9801 84.4336 26.2312 84.4336 26.3216 84.4336C26.4317 84.4515 26.5042 84.5521 26.5411 84.7346C26.5779 84.916 26.5958 85.0261 26.5958 85.0617C26.5958 85.1896 26.591 85.4958 26.5827 85.9781C26.5732 86.4616 26.5684 87.0592 26.5684 87.7693C26.5684 88.4805 26.5684 89.2785 26.5684 90.1628C26.5684 91.0471 26.5684 91.9492 26.5684 92.8704C26.5684 93.7915 26.5684 94.7031 26.5684 95.6052C26.5684 96.5074 26.5637 97.3418 26.5542 98.1077C26.5458 98.8736 26.5411 99.529 26.5411 100.077C26.5411 100.623 26.5411 101.006 26.5411 101.225C26.5411 101.554 26.4864 101.767 26.3774 101.868C26.2673 101.968 26.049 101.999 25.7205 101.964C25.4832 101.964 25.2368 101.964 24.9816 101.964C24.7265 101.964 24.48 101.954 24.2427 101.936C23.9875 101.9 23.8144 101.831 23.7233 101.731C23.6321 101.631 23.5858 101.453 23.5858 101.198C23.5858 101.07 23.5858 100.687 23.5858 100.049C23.5858 99.4101 23.5858 98.6407 23.5858 97.7374C23.5858 96.8353 23.5858 95.8642 23.5858 94.8247C23.5858 93.7863 23.5858 92.7927 23.5858 91.8443C23.5858 90.8958 23.5905 90.0531 23.6 89.3145C23.6096 88.576 23.6131 88.0604 23.6131 87.7689L23.6127 87.7697ZM32.8067 84.6792C32.8978 84.6792 33.0888 84.6792 33.3808 84.6792C33.6724 84.6792 33.9786 84.6839 34.2976 84.6934C34.6165 84.7029 34.9002 84.7208 35.1455 84.7481C35.3923 84.7754 35.525 84.817 35.5429 84.8712C35.5975 85.017 35.6839 85.3405 35.8028 85.8423C35.9212 86.3436 36.0627 86.9543 36.2275 87.675C36.3911 88.3946 36.569 89.1878 36.7612 90.0543C36.9522 90.9196 37.1479 91.8039 37.3496 92.7072C37.55 93.6093 37.7458 94.4936 37.9379 95.3589C38.1289 96.2254 38.3068 97.0091 38.4704 97.7109C38.6352 98.4126 38.7668 99.0007 38.8678 99.4747C38.9673 99.9487 39.0362 100.241 39.0731 100.351C39.1642 100.715 39.1737 100.979 39.1004 101.144C39.0267 101.307 38.8088 101.453 38.4435 101.582C38.0794 101.708 37.7046 101.819 37.3214 101.91C37.0663 101.982 36.8884 101.982 36.7889 101.91C36.6883 101.836 36.611 101.681 36.5552 101.444C36.4648 100.97 36.3642 100.505 36.2552 100.05C36.1451 99.5939 36.0453 99.129 35.9541 98.6549C35.8995 98.4546 35.762 98.354 35.5437 98.354C35.0694 98.354 34.5674 98.3587 34.0385 98.3682C33.5095 98.3777 32.9984 98.3825 32.5059 98.3825C32.4334 98.3825 32.3601 98.4134 32.2876 98.4771C32.2139 98.5413 32.1597 98.6098 32.1228 98.6823C32.086 98.7734 32.0361 98.9337 31.9723 99.1611C31.9081 99.3888 31.8455 99.6256 31.7813 99.8723C31.7171 100.118 31.6628 100.342 31.6165 100.542C31.5713 100.742 31.5392 100.861 31.5218 100.898C31.376 101.263 31.2064 101.49 31.0154 101.582C30.8233 101.673 30.5459 101.681 30.1806 101.609C29.998 101.572 29.8201 101.545 29.6469 101.527C29.4738 101.508 29.2959 101.481 29.1132 101.444C28.6945 101.389 28.5391 101.171 28.6485 100.788C28.6675 100.715 28.7353 100.446 28.8537 99.9808C28.9722 99.5163 29.1275 98.9234 29.3185 98.2039C29.5106 97.4831 29.7206 96.6721 29.9484 95.7688C30.1763 94.8667 30.4132 93.9408 30.66 92.9935C30.9069 92.0451 31.1521 91.1109 31.399 90.1897C31.6446 89.2686 31.8637 88.4259 32.0547 87.66C32.2468 86.8941 32.4105 86.247 32.5479 85.7183C32.6842 85.1896 32.771 84.8435 32.8079 84.6788L32.8067 84.6792ZM34.0103 90.4226C33.9192 90.7509 33.8277 91.1338 33.7366 91.5714C33.6454 92.009 33.5539 92.4605 33.464 92.9254C33.3728 93.3899 33.2813 93.8465 33.1902 94.2932C33.0991 94.7392 33.0075 95.1264 32.9164 95.4551C32.8617 95.6745 32.9354 95.7834 33.1359 95.7834C33.3911 95.7834 33.6732 95.7787 33.9838 95.7692C34.2932 95.7609 34.5769 95.7466 34.8317 95.7288C35.0868 95.7288 35.2326 95.692 35.2695 95.6187C35.3063 95.5462 35.3063 95.391 35.2695 95.1542C35.2148 94.936 35.1605 94.6623 35.1058 94.334C35.0512 94.0057 34.9957 93.6644 34.941 93.3087C34.8864 92.9531 34.8321 92.6118 34.7774 92.2835C34.7227 91.9552 34.6768 91.6811 34.6411 91.4633C34.55 91.0071 34.4668 90.6784 34.3943 90.478C34.3206 90.2776 34.2615 90.1545 34.2164 90.1093C34.1712 90.063 34.1296 90.082 34.0931 90.164C34.0563 90.246 34.029 90.3323 34.0111 90.4238L34.0103 90.4226ZM44.299 89.8488C44.299 89.9398 44.4353 89.985 44.7095 89.985C44.9821 89.985 45.2836 89.903 45.612 89.7383C45.9405 89.5747 46.242 89.3149 46.5146 88.9593C46.7884 88.6037 46.925 88.1249 46.925 87.5238C46.925 87.378 46.9215 87.1361 46.912 86.7983C46.9025 86.4616 46.8977 86.1191 46.8977 85.773C46.8977 85.4268 46.8977 85.1211 46.8977 84.8566C46.8977 84.5921 46.8977 84.4511 46.8977 84.4333C46.9167 84.4142 46.9983 84.4059 47.1445 84.4059C47.2903 84.4059 47.4635 84.4059 47.664 84.4059C47.8645 84.4059 48.0744 84.4059 48.2939 84.4059C48.5122 84.4059 48.7044 84.4059 48.868 84.4059C49.2333 84.4059 49.4433 84.438 49.498 84.5018C49.5527 84.5647 49.5891 84.7699 49.607 85.1172C49.607 85.3176 49.607 85.5817 49.607 85.9104C49.607 86.2375 49.607 86.5658 49.607 86.8945C49.607 87.2228 49.6022 87.5321 49.5939 87.8251C49.5844 88.1166 49.5796 88.3253 49.5796 88.4536C49.5618 88.5993 49.5249 88.7866 49.4707 89.0144C49.416 89.2421 49.3344 89.4789 49.2238 89.7256C49.1149 89.9723 48.9734 90.2127 48.8003 90.4499C48.6271 90.6871 48.4029 90.8792 48.1303 91.0249C48.0023 91.0974 47.9477 91.1707 47.9655 91.2431C47.9833 91.3168 48.0392 91.371 48.1303 91.4079C48.4397 91.5892 48.6997 91.8086 48.9096 92.0633C49.1196 92.3195 49.2975 92.5741 49.4433 92.8292C49.626 93.1575 49.7444 93.5036 49.7991 93.8687C49.8538 94.2338 49.8633 94.5978 49.8265 94.9629C49.8265 95.1264 49.8265 95.3862 49.8265 95.7419C49.8265 96.0975 49.8217 96.503 49.8122 96.9592C49.8039 97.4142 49.8039 97.8887 49.8122 98.3817C49.8217 98.8735 49.8217 99.329 49.8122 99.7483C49.8039 100.168 49.7991 100.528 49.7991 100.828C49.7991 101.129 49.7991 101.317 49.7991 101.389C49.7991 101.444 49.7801 101.503 49.7444 101.567C49.7076 101.631 49.6708 101.663 49.6343 101.663C49.5253 101.68 49.3744 101.69 49.1834 101.69C48.9913 101.69 48.7955 101.69 48.5951 101.69C48.3946 101.69 48.2119 101.69 48.0471 101.69C47.8835 101.69 47.7919 101.69 47.7745 101.69C47.6097 101.69 47.4829 101.68 47.3914 101.663C47.3003 101.645 47.2361 101.599 47.1992 101.526C47.1624 101.453 47.1398 101.344 47.1303 101.198C47.122 101.052 47.1172 100.852 47.1172 100.596C47.1172 100.322 47.1125 99.9036 47.1029 99.3381C47.0946 98.7726 47.0899 98.1667 47.0899 97.5196C47.0899 96.8725 47.0851 96.2571 47.0756 95.6737C47.0673 95.0892 47.053 94.6437 47.0352 94.3328C46.9805 93.8588 46.8026 93.4806 46.5015 93.1982C46.2004 92.9151 45.8672 92.729 45.5031 92.6375C45.3751 92.6185 45.2384 92.5912 45.0926 92.5555C44.9468 92.5187 44.8141 92.5139 44.6952 92.5413C44.5767 92.5686 44.4816 92.6371 44.4083 92.7464C44.3347 92.8553 44.2994 93.0284 44.2994 93.2656C44.2994 93.5218 44.2946 93.8774 44.2851 94.3324C44.2756 94.7887 44.2673 95.294 44.2578 95.8512C44.2483 96.4072 44.2447 96.9762 44.2447 97.5596C44.2447 98.1441 44.24 98.6858 44.2305 99.1872C44.2209 99.6885 44.2162 100.131 44.2162 100.514C44.2162 100.897 44.2162 101.151 44.2162 101.28C44.2162 101.425 44.1758 101.526 44.0942 101.581C44.011 101.635 43.9163 101.672 43.8061 101.69C43.6972 101.69 43.5288 101.699 43.301 101.717C43.072 101.735 42.835 101.744 42.5894 101.744C42.3425 101.744 42.1151 101.74 41.9051 101.731C41.6951 101.722 41.5541 101.699 41.4804 101.662C41.4447 101.644 41.4222 101.608 41.4126 101.553C41.4031 101.499 41.3984 101.443 41.3984 101.389V84.8162C41.3984 84.6515 41.4174 84.5295 41.4531 84.4463C41.4899 84.3643 41.5989 84.3243 41.7815 84.3243C42.11 84.3243 42.461 84.3196 42.8346 84.3101C43.2094 84.3006 43.551 84.2875 43.8616 84.2685C44.1342 84.2685 44.2625 84.4059 44.2447 84.6788C44.2447 84.9524 44.2447 85.3496 44.2447 85.8688C44.2447 86.388 44.2483 86.9214 44.2578 87.4691C44.2673 88.0156 44.2756 88.517 44.2851 88.9724C44.2946 89.4286 44.2994 89.7205 44.2994 89.8484L44.299 89.8488ZM55.5176 87.2275C55.4807 87.2453 55.4308 87.2869 55.367 87.3507C55.3028 87.4137 55.2711 87.4644 55.2711 87.5012C55.2711 87.6826 55.2759 87.9114 55.2854 88.1887C55.2937 88.4623 55.3032 88.7399 55.3127 89.0231C55.321 89.305 55.3305 89.5838 55.3401 89.8563C55.3484 90.1299 55.3626 90.3576 55.3805 90.5449C55.3805 90.5818 55.4126 90.6269 55.4763 90.6812C55.5405 90.7358 55.5901 90.7643 55.6269 90.7643C55.9007 90.7643 56.1879 90.7596 56.489 90.7501C56.789 90.7406 57.081 90.7323 57.3643 90.7228C57.6464 90.7133 57.911 90.7085 58.1579 90.7085C58.4047 90.7085 58.6099 90.7085 58.7736 90.7085C59.102 90.7085 59.3251 90.7727 59.4435 90.9006C59.562 91.0285 59.631 91.2194 59.6488 91.4744C59.6488 91.676 59.6535 91.8764 59.663 92.0767C59.6714 92.2771 59.6678 92.4775 59.6488 92.6779C59.5941 93.0478 59.3025 93.2482 58.7736 93.285C58.3171 93.3218 57.8437 93.3254 57.3504 93.298C56.8583 93.2707 56.3837 93.2755 55.9284 93.3123C55.7089 93.3301 55.5774 93.3717 55.531 93.4355C55.4859 93.4996 55.4621 93.6406 55.4621 93.8588C55.4811 94.2418 55.4906 94.6754 55.4906 95.1629C55.4906 95.6464 55.4906 96.1161 55.4906 96.5711C55.4906 97.0273 55.4906 97.4233 55.4906 97.7647C55.4906 98.1025 55.4989 98.3076 55.518 98.3813C55.5358 98.436 55.5774 98.4902 55.64 98.5449C55.7042 98.5995 55.7632 98.6268 55.8179 98.6268C56.201 98.6458 56.6705 98.6494 57.228 98.6411C57.7842 98.6316 58.3263 98.6268 58.8552 98.6268H60.7162C60.862 98.6458 61.0078 98.6494 61.154 98.6411C61.2998 98.6316 61.4008 98.7547 61.4551 99.005C61.4729 99.0787 61.4872 99.2102 61.4955 99.3975C61.505 99.5884 61.5098 99.7935 61.5098 100.008C61.5098 100.228 61.505 100.433 61.4955 100.633C61.4872 100.833 61.4824 100.966 61.4824 101.039C61.4824 101.184 61.4325 101.317 61.3319 101.431C61.2312 101.549 61.0993 101.617 60.9345 101.636C60.8255 101.636 60.5656 101.636 60.1551 101.636C59.7447 101.636 59.2657 101.636 58.7189 101.636C58.1709 101.636 57.5921 101.636 56.9815 101.636C56.3706 101.636 55.8048 101.636 55.2854 101.636C54.7648 101.636 54.3222 101.636 53.9581 101.636C53.5928 101.636 53.3923 101.636 53.3555 101.636C53.1728 101.636 53.0223 101.572 52.9034 101.444C52.7849 101.317 52.7172 101.162 52.6982 100.98C52.6803 100.761 52.6708 100.233 52.6708 99.3935C52.6708 98.5556 52.6673 97.5703 52.6577 96.4404C52.6482 95.3094 52.6435 94.1016 52.6435 92.8165C52.6435 91.5302 52.6435 90.3319 52.6435 89.2199C52.6435 88.1079 52.6387 87.1547 52.6304 86.3618C52.6209 85.5686 52.6161 85.0993 52.6161 84.9536C52.6161 84.6253 52.7619 84.4618 53.0539 84.4618C53.2734 84.4618 53.6966 84.4618 54.3266 84.4618C54.9565 84.4618 55.6443 84.457 56.3928 84.4475C57.14 84.4392 57.8706 84.4297 58.581 84.4202C59.2926 84.4119 59.8406 84.4071 60.2237 84.4071C60.9709 84.3703 61.2899 84.7259 61.1809 85.4728C61.1441 85.6233 61.1262 85.7738 61.1262 85.929C61.1262 86.0842 61.1262 86.2347 61.1262 86.3809C61.1441 86.5622 61.0894 86.7222 60.9626 86.8584C60.8346 86.9959 60.6698 87.0636 60.4693 87.0636C60.4337 87.0636 60.2914 87.0683 60.0458 87.0778C59.7989 87.0873 59.5026 87.0957 59.1563 87.1052C58.81 87.1147 58.4316 87.123 58.0212 87.1325C57.6095 87.142 57.2311 87.1503 56.8849 87.1598C56.5386 87.1693 56.2375 87.1824 55.9823 87.2014C55.7271 87.2192 55.5718 87.2287 55.5176 87.2287V87.2275ZM63.3145 84.3243C63.3882 84.3053 63.6477 84.2923 64.095 84.2828C64.5423 84.2733 65.076 84.2685 65.6961 84.2685C66.3153 84.2685 66.977 84.2649 67.6791 84.2554C68.3812 84.2459 69.0428 84.2412 69.6633 84.2412C70.2837 84.2412 70.8127 84.2459 71.2501 84.2554C71.6879 84.2649 71.9426 84.2685 72.0163 84.2685C72.2537 84.2875 72.4125 84.3374 72.4942 84.419C72.5774 84.5022 72.6091 84.661 72.59 84.8978C72.5722 85.135 72.5722 85.367 72.59 85.5948C72.6091 85.8237 72.5995 86.0557 72.5627 86.2929C72.4902 86.7658 72.1891 87.003 71.6602 87.003C71.2948 86.9852 70.9438 86.9899 70.607 87.0173C70.2691 87.0446 69.918 87.0588 69.5527 87.0588C69.3523 87.0588 69.2611 87.1582 69.2801 87.3586C69.2801 87.5958 69.2801 88.0889 69.2801 88.8358C69.2801 89.5838 69.2801 90.4539 69.2801 91.4475C69.2801 92.4411 69.2801 93.4949 69.2801 94.6069C69.2801 95.7189 69.2801 96.7537 69.2801 97.7105C69.2801 98.6684 69.2801 99.4838 69.2801 100.158C69.2801 100.833 69.2801 101.233 69.2801 101.361C69.2801 101.562 69.1795 101.662 68.979 101.662C68.6684 101.68 68.3633 101.685 68.0622 101.675C67.7611 101.667 67.456 101.672 67.1454 101.69C66.7266 101.726 66.5166 101.526 66.5166 101.087C66.4976 100.669 66.4845 100.049 66.475 99.2284C66.4655 98.4082 66.4572 97.5049 66.4477 96.5208C66.4382 95.5355 66.4334 94.5328 66.4334 93.5123C66.4334 92.4918 66.4298 91.5576 66.4203 90.7085C66.4108 89.861 66.4061 89.1688 66.4061 88.6302C66.4061 88.092 66.4061 87.8239 66.4061 87.8239C66.4061 87.6592 66.3977 87.5135 66.3787 87.3852C66.3609 87.2762 66.3383 87.1764 66.311 87.0854C66.2836 86.9943 66.242 86.9479 66.1878 86.9479C66.1331 86.9479 65.9908 86.9527 65.763 86.9622C65.5352 86.9705 65.2757 86.9753 64.9837 86.9753C64.6921 86.9753 64.3953 86.9753 64.0942 86.9753C63.7931 86.9753 63.551 86.9753 63.3696 86.9753C63.3327 86.9753 63.2911 86.9349 63.2463 86.8533C63.2 86.7701 63.1774 86.7111 63.1774 86.6755C63.1774 86.5476 63.1726 86.365 63.1643 86.1278C63.1548 85.8906 63.1501 85.649 63.1501 85.4035C63.1501 85.1568 63.1643 84.9295 63.1917 84.7196C63.219 84.5097 63.2594 84.3782 63.3137 84.3236L63.3145 84.3243ZM78.0082 87.2275C77.9713 87.2453 77.9214 87.2869 77.8576 87.3507C77.7934 87.4137 77.7617 87.4644 77.7617 87.5012C77.7617 87.6826 77.7665 87.9114 77.776 88.1887C77.7843 88.4623 77.7938 88.7399 77.8033 89.0231C77.8116 89.305 77.8211 89.5838 77.8306 89.8563C77.839 90.1299 77.8532 90.3576 77.8711 90.5449C77.8711 90.5818 77.9032 90.6269 77.9669 90.6812C78.0311 90.7358 78.0807 90.7643 78.1175 90.7643C78.3913 90.7643 78.6785 90.7596 78.9796 90.7501C79.2796 90.7406 79.5716 90.7323 79.8549 90.7228C80.137 90.7133 80.4016 90.7085 80.6485 90.7085C80.8953 90.7085 81.1005 90.7085 81.2642 90.7085C81.5926 90.7085 81.8157 90.7727 81.9341 90.9006C82.0526 91.0285 82.1215 91.2194 82.1394 91.4744C82.1394 91.676 82.1441 91.8764 82.1536 92.0767C82.162 92.2771 82.1584 92.4775 82.1394 92.6779C82.0847 93.0478 81.7931 93.2482 81.2642 93.285C80.8077 93.3218 80.3343 93.3254 79.841 93.298C79.3489 93.2707 78.8743 93.2755 78.419 93.3123C78.1995 93.3301 78.068 93.3717 78.0216 93.4355C77.9764 93.4996 77.9527 93.6406 77.9527 93.8588C77.9717 94.2418 77.9812 94.6754 77.9812 95.1629C77.9812 95.6464 77.9812 96.1161 77.9812 96.5711C77.9812 97.0273 77.9812 97.4233 77.9812 97.7647C77.9812 98.1025 77.9895 98.3076 78.0085 98.3813C78.0264 98.436 78.068 98.4902 78.1306 98.5449C78.1948 98.5995 78.2538 98.6268 78.3085 98.6268C78.6916 98.6458 79.1611 98.6494 79.7186 98.6411C80.2748 98.6316 80.8169 98.6268 81.3458 98.6268H83.2068C83.3526 98.6458 83.4984 98.6494 83.6446 98.6411C83.7904 98.6316 83.8914 98.7547 83.9457 99.005C83.9635 99.0787 83.9778 99.2102 83.9861 99.3975C83.9956 99.5884 84.0004 99.7935 84.0004 100.008C84.0004 100.228 83.9956 100.433 83.9861 100.633C83.9778 100.833 83.973 100.966 83.973 101.039C83.973 101.184 83.9231 101.317 83.8225 101.431C83.7218 101.549 83.5899 101.617 83.4251 101.636C83.3161 101.636 83.0562 101.636 82.6457 101.636C82.2353 101.636 81.7562 101.636 81.2095 101.636C80.6615 101.636 80.0827 101.636 79.4721 101.636C78.8612 101.636 78.2954 101.636 77.776 101.636C77.2554 101.636 76.8128 101.636 76.4487 101.636C76.0834 101.636 75.8829 101.636 75.8461 101.636C75.6634 101.636 75.5128 101.572 75.394 101.444C75.2755 101.317 75.2078 101.162 75.1887 100.98C75.1709 100.761 75.1614 100.233 75.1614 99.3935C75.1614 98.5556 75.1578 97.5703 75.1483 96.4404C75.1388 95.3094 75.1341 94.1016 75.1341 92.8165C75.1341 91.5302 75.1341 90.3319 75.1341 89.2199C75.1341 88.1079 75.1293 87.1547 75.121 86.3618C75.1115 85.5686 75.1067 85.0993 75.1067 84.9536C75.1067 84.6253 75.2525 84.4618 75.5445 84.4618C75.764 84.4618 76.1872 84.4618 76.8171 84.4618C77.4471 84.4618 78.1349 84.457 78.8834 84.4475C79.6306 84.4392 80.3612 84.4297 81.0716 84.4202C81.7832 84.4119 82.3311 84.4071 82.7143 84.4071C83.4615 84.3703 83.7805 84.7259 83.6715 85.4728C83.6347 85.6233 83.6168 85.7738 83.6168 85.929C83.6168 86.0842 83.6168 86.2347 83.6168 86.3809C83.6347 86.5622 83.58 86.7222 83.4532 86.8584C83.3252 86.9959 83.1604 87.0636 82.9599 87.0636C82.9243 87.0636 82.782 87.0683 82.5364 87.0778C82.2895 87.0873 81.9932 87.0957 81.6469 87.1052C81.3006 87.1147 80.9222 87.123 80.5118 87.1325C80.1001 87.142 79.7217 87.1503 79.3755 87.1598C79.0292 87.1693 78.7281 87.1824 78.4729 87.2014C78.2177 87.2192 78.0624 87.2287 78.0082 87.2287V87.2275Z" fill="white"/>
<path d="M3.93873 108.055V106.538C3.93873 106.285 3.81313 106.158 3.56154 106.158H1.47552C1.22393 106.158 1.09714 106.285 1.09595 106.538V108.055H3.93873ZM4.31591 108.055C4.56869 108.055 4.69548 108.181 4.69667 108.432V108.812C4.69667 108.937 4.63367 109 4.5057 109C4.38129 109 4.31829 108.937 4.31829 108.812V108.432H0.716389V108.812C0.7152 108.937 0.652204 109 0.527795 109C0.401009 109 0.338013 108.937 0.338013 108.812V108.435C0.338013 108.181 0.46361 108.055 0.716389 108.055V106.538C0.716389 106.033 0.970356 105.779 1.47552 105.779H3.55916C4.06551 105.779 4.31829 106.033 4.31829 106.538L4.31591 108.055ZM9.3921 107.675C9.3921 108.18 9.13932 108.432 8.63416 108.432H6.54932C6.04416 108.432 5.79138 108.18 5.79138 107.675V106.538C5.79138 106.033 6.04416 105.779 6.54932 105.779H8.63416C9.13932 105.779 9.3921 106.033 9.3921 106.538V107.675ZM9.01253 107.675L9.01491 106.538C9.01372 106.285 8.88693 106.158 8.63416 106.158H6.54932C6.29654 106.158 6.16976 106.285 6.16976 106.538V107.675C6.17214 107.927 6.29773 108.053 6.54932 108.053H8.63534C8.88812 108.053 9.01253 107.927 9.01253 107.675ZM14.0875 108.432H11.2448C10.7408 108.432 10.488 108.18 10.4868 107.675V106.538C10.4868 106.033 10.7396 105.779 11.2448 105.779H14.0875V106.158H11.2448C10.992 106.158 10.8664 106.285 10.8676 106.538L10.8652 107.675C10.8652 107.927 10.992 108.053 11.2448 108.053H14.0875V108.432ZM15.1834 106.159L15.1822 105.779H18.783V106.159H17.1736V108.432H16.7928V106.159H15.1834ZM20.9462 107.485H22.4098L21.678 106.32L20.9462 107.485ZM22.6483 107.865H20.7081L20.3511 108.433H19.8781L21.5362 105.78H21.8207L23.4788 108.433H23.0057L22.6487 107.865H22.6483ZM24.9515 107.296V107.675C24.9515 107.928 25.0783 108.053 25.331 108.053H27.4159C27.6686 108.053 27.7942 107.928 27.7942 107.675C27.7942 107.421 27.6686 107.296 27.4159 107.296H24.9515ZM28.1738 107.675C28.1738 108.18 27.921 108.433 27.4159 108.433H25.331C24.8259 108.433 24.5731 108.18 24.5731 107.675V106.538C24.5731 106.033 24.8259 105.779 25.331 105.779H27.4159C27.921 105.779 28.1738 106.033 28.1738 106.538C28.1726 106.791 28.1096 106.98 27.9828 107.106C28.1096 107.233 28.1726 107.421 28.1738 107.675ZM27.7942 106.538C27.7942 106.285 27.6686 106.159 27.4159 106.159H25.331C25.0783 106.159 24.9515 106.285 24.9515 106.538V106.916H27.4159C27.6663 106.916 27.7931 106.791 27.7942 106.538ZM29.6469 107.298V108.433H29.2685V105.78H29.6469V106.917H31.9215C32.1719 106.917 32.3617 106.791 32.4897 106.538V105.78H32.8692V106.538C32.8669 106.791 32.7401 106.981 32.4885 107.106C32.7413 107.233 32.868 107.422 32.8692 107.675V108.433H32.4897V107.675C32.3641 107.422 32.1743 107.296 31.9215 107.296L29.6469 107.298V107.298ZM35.0325 107.485H36.4961L35.7643 106.32L35.0325 107.485ZM36.7346 107.865H34.7944L34.4374 108.433H33.9644L35.6225 105.78H35.9069L37.5651 108.433H37.092L36.735 107.865H36.7346ZM44.961 108.433V106.538C44.961 106.285 44.8366 106.159 44.5838 106.159H42.4978C42.2462 106.159 42.1206 106.285 42.1183 106.538V108.433H41.7399V106.538C41.7399 106.033 41.9927 105.779 42.4978 105.779H44.5827C45.0878 105.779 45.3406 106.033 45.3406 106.538L45.3382 108.433H44.961ZM46.8137 106.916H49.2793C49.5321 106.916 49.6565 106.791 49.6565 106.538H49.6588C49.6576 106.285 49.5309 106.159 49.2781 106.159H46.8137V106.916ZM46.8137 107.296V108.433H46.4353V105.78H49.2781C49.7832 105.78 50.036 106.034 50.036 106.538C50.036 107.043 49.7832 107.296 49.2781 107.296H46.8137V107.296ZM54.7315 107.675C54.7315 108.18 54.4787 108.433 53.9735 108.433H51.8887C51.3835 108.433 51.1307 108.18 51.1307 107.675V106.538C51.1307 106.033 51.3835 105.779 51.8887 105.779H53.9735C54.4787 105.779 54.7315 106.033 54.7315 106.538V107.675ZM54.3519 107.675L54.3543 106.538C54.3531 106.285 54.2263 106.159 53.9735 106.159H51.8887C51.6359 106.159 51.5091 106.285 51.5091 106.538V107.675C51.5115 107.928 51.6371 108.053 51.8887 108.053H53.9747C54.2275 108.053 54.3519 107.928 54.3519 107.675ZM59.4269 108.056V106.538C59.4269 106.285 59.3013 106.159 59.0497 106.159H56.9637C56.7121 106.159 56.5853 106.285 56.5841 106.538V108.056H59.4269ZM59.8041 108.056C60.0569 108.056 60.1836 108.181 60.1848 108.433V108.812C60.1848 108.937 60.1218 109 59.9939 109C59.8694 109 59.8064 108.937 59.8064 108.812V108.433H56.2045V108.812C56.2034 108.937 56.1404 109 56.016 109C55.8892 109 55.8262 108.937 55.8262 108.812V108.435C55.8262 108.181 55.9518 108.056 56.2045 108.056V106.538C56.2045 106.033 56.4585 105.779 56.9637 105.779H59.0473C59.5537 105.779 59.8064 106.033 59.8064 106.538L59.8041 108.056ZM64.5007 107.232C64.3965 107.275 64.2705 107.296 64.1223 107.296H62.0375C61.5323 107.296 61.2795 107.043 61.2795 106.538V105.78H61.6579V106.538C61.6603 106.791 61.7859 106.917 62.0375 106.917H64.1235C64.3763 106.917 64.5007 106.791 64.5007 106.538V105.78H64.8779L64.8802 107.675C64.8802 108.18 64.6275 108.433 64.1223 108.433H61.2795V108.054H64.1235C64.3763 108.054 64.5007 107.928 64.5007 107.675V107.232ZM66.3533 107.298V108.433H65.975V105.78H66.3533V106.917H68.628C68.8784 106.917 69.0681 106.791 69.1961 106.539V105.78H69.5757V106.539C69.5733 106.791 69.4465 106.981 69.1949 107.107C69.4477 107.233 69.5745 107.422 69.5757 107.676V108.433H69.1961V107.676C69.0705 107.422 68.8807 107.296 68.628 107.296L66.3533 107.299V107.298ZM70.6716 106.159L70.6704 105.78H74.2711V106.159H72.6617V108.433H72.281V106.159H70.6716ZM78.9665 107.675C78.9665 108.18 78.7138 108.433 78.2086 108.433H76.1238C75.6186 108.433 75.3658 108.18 75.3658 107.675V106.538C75.3658 106.034 75.6186 105.78 76.1238 105.78H78.2086C78.7138 105.78 78.9665 106.034 78.9665 106.538V107.675ZM78.587 107.675L78.5894 106.538C78.5882 106.286 78.4614 106.159 78.2086 106.159H76.1238C75.871 106.159 75.7442 106.286 75.7442 106.538V107.675C75.7466 107.928 75.8722 108.054 76.1238 108.054H78.2098C78.4626 108.054 78.587 107.928 78.587 107.675ZM80.4396 107.296V107.675C80.4396 107.928 80.5664 108.054 80.8192 108.054H82.904C83.1568 108.054 83.2824 107.928 83.2824 107.675C83.2824 107.422 83.1568 107.296 82.904 107.296H80.4396ZM83.662 107.675C83.662 108.18 83.4092 108.433 82.904 108.433H80.8192C80.314 108.433 80.0612 108.18 80.0612 107.675V106.538C80.0612 106.034 80.314 105.78 80.8192 105.78H82.904C83.4092 105.78 83.662 106.034 83.662 106.538C83.6608 106.791 83.5978 106.981 83.471 107.106C83.5978 107.233 83.6608 107.422 83.662 107.675ZM83.2824 106.538C83.2824 106.286 83.1568 106.159 82.904 106.159H80.8192C80.5664 106.159 80.4396 106.286 80.4396 106.538V106.917H82.904C83.1544 106.917 83.2812 106.791 83.2824 106.538Z" fill="white"/>
<path fill-rule="evenodd" clip-rule="evenodd" d="M31.7322 22.807C31.7453 23.4117 35.0813 37.6048 35.3436 38.9149L36.6412 47.4466C36.7941 48.6604 37.7252 55.5123 37.9934 56.0516L63.3315 51.3169C63.4207 50.8143 60.0557 38.0824 59.3548 35.3297L59.1104 34.4977C58.9871 34.2098 59.0616 34.3508 58.9539 34.1956C58.7867 34.8569 58.4332 36.4703 57.9705 36.7051C57.4629 36.9637 56.8734 36.7704 56.6967 36.3257C56.4974 35.8232 56.7323 35.3903 56.8829 34.9032C58.9998 28.0526 58.4118 30.0655 58.2351 22.5103C58.1167 17.4354 58.8766 18.3494 55.8928 18.7918C47.7805 19.996 39.6492 21.7187 31.7322 22.807Z" fill="white"/>
<path fill-rule="evenodd" clip-rule="evenodd" d="M27.2713 26.1865C27.3307 27.11 28.4857 32.2028 28.7575 33.5908C29.2507 36.1182 29.8486 38.5117 30.271 41.0129L32.0499 57.1042C32.6347 57.1173 35.7881 56.5304 36.1193 56.3217C34.7259 46.8415 34.084 40.7413 31.8463 31.7046C31.5226 30.4005 31.2211 29.0362 30.9485 27.7405C30.8027 27.0423 30.2476 24.3205 30.0091 23.8556C29.2297 24.2872 28.2444 25.4333 27.2717 26.1861L27.2713 26.1865Z" fill="white"/>
<path fill-rule="evenodd" clip-rule="evenodd" d="M25.2518 10.8432C25.9884 10.4294 26.4757 11.1335 26.1603 12.0159C25.5838 13.6292 24.0719 15.8235 22.6935 16.4116C21.7803 16.8017 21.199 15.8734 21.8242 15.283C21.9617 15.1527 22.3437 14.9345 22.5846 14.7353C24.8382 12.8621 24.5272 11.2511 25.2518 10.8436V10.8432ZM19.8864 12.7671C19.119 11.2971 19.8353 12.0725 21.3714 10.1981C22.4625 8.86793 22.2716 7.19199 23.4103 7.6981C24.7031 8.27192 21.974 12.9615 19.8864 12.7671ZM26.845 24.1949L26.6397 22.9051C25.7681 23.3165 25.0268 23.7066 25.0767 22.1891C25.4598 21.9154 26.0446 21.5654 26.3529 21.2038C26.3505 20.5908 26.2911 19.2954 26.0529 18.8721C25.8869 18.6313 25.9583 18.9528 24.9915 19.6308C24.6179 19.893 23.8302 20.451 23.459 19.6605C23.1151 18.9315 23.8766 18.9089 25.1868 17.2139C26.5082 15.5055 26.7629 14.7329 27.3204 12.8289C27.6061 11.8519 27.7428 11.8365 27.2067 11.0662C26.6683 10.2884 25.9602 9.25958 25.3647 8.52339C24.7173 7.72186 23.9951 6.80548 23.4007 6.08473C22.4197 4.89471 20.0338 2.31982 18.1265 2.40971C13.6612 2.62079 18.9969 13.7781 19.5996 15.1048L23.6416 23.0472C23.7791 23.2654 23.9463 23.4848 24.0794 23.7941L24.1448 23.9672C24.4305 24.6772 24.5434 24.7046 25.3073 24.8313C26.1504 24.9699 26.4495 24.5363 26.8458 24.1949H26.845Z" fill="white"/>
<path fill-rule="evenodd" clip-rule="evenodd" d="M27.091 58.2091L30.1913 57.5667C30.3335 56.8282 29.5601 50.7351 29.406 49.5637C29.0597 46.9298 28.9246 44.202 28.5165 41.582C28.1286 39.0926 27.4955 36.6362 27.0102 34.1718C26.5252 31.7062 26.007 29.1986 25.4729 26.714L21.5849 25.9873C21.6325 26.6724 25.1167 40.1239 25.36 41.0592C25.8818 43.0627 26.6623 56.284 27.0902 58.2091H27.091Z" fill="white"/>
<path fill-rule="evenodd" clip-rule="evenodd" d="M40.4835 2.70404C37.9728 3.44142 37.1106 6.82695 37.4771 9.26086C37.8127 11.4884 39.3131 14.9936 42.0838 14.3061C44.2268 13.7727 45.5434 10.5103 45.0723 7.76709C44.6833 5.49832 43.1983 1.90726 40.4835 2.70404Z" fill="white"/>
<path fill-rule="evenodd" clip-rule="evenodd" d="M38.8044 15.3741C38.8745 15.9646 39.2244 16.7091 39.3524 17.4524C39.4756 18.1684 39.4673 19.1537 39.7688 19.6372L45.7178 18.6369L45.4591 14.1928C45.1306 14.2582 45.3723 14.1667 45.1282 14.3528C44.757 14.636 44.2566 15.5951 42.6401 16.0434C40.8266 16.5448 40.0307 15.881 38.8044 15.3749V15.3741Z" fill="white"/>
<path fill-rule="evenodd" clip-rule="evenodd" d="M28.5165 22.6944C29.4191 21.919 29.8129 21.1662 31.3308 21.0418L30.9762 18.5418L37.5575 17.8175C37.0369 14.2078 33.582 12.5398 32.6272 6.56628C32.1351 3.49241 32.8027 4.04366 29.9492 4.39691C29.0265 4.51057 29.2674 4.49156 29.4928 6.14769C30.6648 14.7341 26.4769 14.582 28.5165 22.6944Z" fill="white"/>
<path fill-rule="evenodd" clip-rule="evenodd" d="M29.0693 3.02991L31.9964 2.66835C32.0689 2.0272 31.809 0.620952 31.6406 0C31.439 0.024949 28.9056 0.399579 28.8878 0.409084C28.4833 0.623724 28.9627 2.5939 29.0693 3.03031V3.02991Z" fill="white"/>
<path fill-rule="evenodd" clip-rule="evenodd" d="M50.5935 17.7592L56.5402 16.8346L57.9812 9.59143L52.3451 8.44972L50.5935 17.7592Z" fill="white"/>
<path fill-rule="evenodd" clip-rule="evenodd" d="M51.1403 3.31942C51.126 3.32892 52.2077 6.31963 52.4592 6.65189L57.4938 7.57539L56.4205 4.6829C56.1856 4.13877 56.3432 4.18748 55.7089 4.04175C54.676 3.80573 51.9612 3.47743 51.3158 3.1919L51.1403 3.31982V3.31942Z" fill="white"/>
<path fill-rule="evenodd" clip-rule="evenodd" d="M56.1427 2.20741L56.317 1.14055C55.6269 0.860961 51.4152 0.112888 50.973 0.0938797C50.7309 1.45023 50.3431 1.20114 52.8542 1.66685C53.6514 1.81377 55.5036 2.24899 56.1431 2.20741H56.1427Z" fill="white"/>
<path fill-rule="evenodd" clip-rule="evenodd" d="M48.7171 18.065L50.5864 8.10959L46.9417 7.4221L47.4017 16.6865C47.492 18.21 47.1869 18.602 48.7171 18.065Z" fill="white"/>
<path fill-rule="evenodd" clip-rule="evenodd" d="M47.7384 5.64988C48.2103 5.95679 49.5709 6.08747 50.21 6.18687L49.3962 3.86464C48.9809 4.00681 47.9052 5.32633 47.738 5.64988H47.7384Z" fill="white"/>
<g style="mix-blend-mode:multiply">
<path d="M42.9959 73.7174C65.0439 73.7174 82.9171 74.8817 82.9171 76.3185C82.9171 77.7552 65.0439 78.9195 42.9959 78.9195C20.9478 78.9195 3.07463 77.7552 3.07463 76.3185C3.07463 74.8817 20.9478 73.7174 42.9959 73.7174Z" fill="#E6E6E6" fill-opacity="0.501961"/>
</g>
<path fill-rule="evenodd" clip-rule="evenodd" d="M37.9185 54.2034C38.0488 54.7226 37.884 56.0516 37.9922 56.0516C38.68 57.4539 38.2259 60.6735 37.6376 61.9174C35.9414 65.5009 32.0039 65.278 29.0094 62.6975C26.4487 60.4925 25.7074 56.8508 24.0481 59.9626C22.8869 62.1487 21.7921 64.3667 20.7046 66.5904C20.2042 67.6109 20.5088 68.6991 21.6963 68.5296C22.7803 68.3768 24.4931 63.4155 25.4004 62.1589C25.7288 62.2976 30.1968 68.6778 36.0127 66.327C38.9126 65.1568 40.3643 62.1993 40.5279 59.1742C40.6075 57.7339 40.2632 56.8519 40.2399 55.6132C40.808 55.3384 50.2345 53.6858 51.6589 53.407C53.1831 53.112 53.1284 52.9742 54.4117 53.5706C58.6293 55.5312 61.4852 59.8355 62.6227 64.2325C62.7388 64.6808 62.9416 65.8756 63.1433 66.2145C63.492 66.7955 64.3117 66.8533 64.7634 66.4684C65.1501 66.1389 66.5447 62.496 69.6759 60.2129C69.9818 59.9888 70.2096 59.8597 70.4636 59.6914C72.1015 58.5877 71.2817 55.3372 66.6648 59.9333C65.7789 60.8141 64.8181 62.2283 64.4135 62.572C63.5205 60.3789 62.1564 57.2127 60.5458 55.534C59.2482 54.1824 57.0707 52.5005 56.995 52.3865L57.0283 52.3829C56.3024 52.0546 55.8115 51.4867 55.548 50.8301L39.7989 53.7737L39.7335 53.5745C39.2081 53.9777 38.5758 54.218 37.9189 54.2042L37.9185 54.2034Z" fill="white"/>
</g>
<defs>
<clipPath id="clip0">
<rect width="84" height="109" fill="white"/>
</clipPath>
</defs>
</svg>
