<?xml version="1.0" encoding="UTF-8"?>
<!DOCTYPE svg PUBLIC "-//W3C//DTD SVG 1.1//EN" "http://www.w3.org/Graphics/SVG/1.1/DTD/svg11.dtd">
<!-- Creator: CorelDRAW 2019 (64-Bit) -->
<svg xmlns="http://www.w3.org/2000/svg" xml:space="preserve" width="29.1048mm" height="29.104mm" version="1.1" style="shape-rendering:geometricPrecision; text-rendering:geometricPrecision; image-rendering:optimizeQuality; fill-rule:evenodd; clip-rule:evenodd"
viewBox="0 0 348.59 348.58"
 xmlns:xlink="http://www.w3.org/1999/xlink"
 xmlns:xodm="http://www.corel.com/coreldraw/odm/2003">
 <defs>
  <style type="text/css">
   <![CDATA[
    .fil0 {fill:#2B2A29}
   ]]>
  </style>
 </defs>
 <g id="Слой_x0020_1">
  <metadata id="CorelCorpID_0Corel-Layer"/>
  <path class="fil0" d="M228.41 348.57l11.98 0 0.01 -12.02 12.03 0 -0.01 -12.04 12.03 0.1 -0.01 11.94 -12.01 0 -0.12 11.99 72.32 0 -0.1 -11.98 -12.01 0 -0.02 -12 12.14 -0 -0.1 11.99 12.03 -0 -0.04 -24.03 -11.98 0.04 -0.02 -24.07 -12.01 0 0.02 11.99 -12.05 0 0 12.07 -12.01 -0.03 0.02 -12.02 12.02 -0.02 -0.14 -24 24.16 0 -0.01 12 12.04 0 0 12.02 11.99 -0.01 -0 -24.02 -24.01 0.01 0 -12.05 24.02 0.04 0.02 -24.06 -12.03 -0 -0 -12.02 -12.01 0.01 -0.01 11.99 -12.01 0.02 0.02 11.99 -12.05 0 0.01 -48.04 12.02 -0.08 -0 24.13 12.02 0 -0.08 -36.07 -23.96 -0 -0.13 -12 24.16 0 -0.01 12 12.03 -0 -0 -12.01 -12.01 0.02 0.01 -12.04 -24.07 0.01 0.02 -12.03 24.13 -0.04 -0.1 -11.99 12.03 0 -0 -12.01 -11.99 0.01 -0.04 12.01 -12.02 0 0.02 -11.99 -12.05 -0 0.02 24.02 -36.05 -0.07 -0.03 12.06 12.06 0.01 -0.08 11.99 12.08 0.04 0 12.02 12.03 0.01 -0.01 12.02 -48.11 0.04 0.03 11.97 36.06 0 0 24.05 -60.12 -0 0.02 -24.07 12.02 0.03 0 12.02 12.01 -0.04 0 -11.98 -12.02 0 -0 -24.05 24.04 -0 0.02 -11.96 -12.09 -0.11 0.06 -36 -12.02 -0 0 12.02 -12.01 -0.01 -0.03 -12 -24.01 0 -0.03 12 -12 0.01 0 -24.05 12.02 -0.04 -0.01 -11.99 -12.01 0.01 0 -12.02 24.04 0 0 -12.02 24.04 0 -0 12.02 -24.04 -0.01 -0.03 12 24.06 0.02 0 12.02 12.02 -0.04 -0.02 -11.99 24.08 -0 -0.08 11.99 12.07 0.04 0.01 -12.02 12.01 0.03 -0.07 -12.04 24.15 -0.05 -0.06 -11.97 -60.09 -0.01 0.02 11.99 -12.14 0 0.1 -11.99 -12.03 -0.01 0 -12.02 12.02 -0.04 -0.01 -11.99 -12 0.01 -0.01 12.02 -12.03 -0.04 0.02 -11.99 -12.03 0.02 0 24.02 -12.02 -0.01 -0.02 -24.04 -12 0.01 -0 36.07 -48.07 0 -0 12.01 12.01 -0.04 0.01 24.07 12.01 0.01 -0.02 -11.99 12.14 -0 -0.1 11.99 -12.01 0.01 -0.02 11.97 12.07 0.08 -0.02 11.99 24.02 -0.05 0 12.05 12.02 0.01 -0.03 -12.02 24.07 -0 0 12.02 -24.04 -0 -0 12.02 12.02 0.01 0.12 12 -12.16 -0.06 0.02 -11.94 -12.01 -0.01 -0.01 -12.01 -12.01 0 -0.01 24.03 12.05 0.05 -0.04 11.97 12.05 0.02 -0.02 24.03 -12.01 0.02 -0.02 12 -12.02 0 -0.01 -24.05 12.03 -0.04 0 -11.98 -12.02 0 0 -12.02 -36.07 -0.02 0 12.07 -12.01 -0.03 0 -12.02 -24.05 0 -0 -12.01 -12.01 -0.01 -0.01 -12.02 -12.02 0 0 -12.02 -24.05 -0.01 0.01 -12.02 24.04 0 -0 12.02 12.01 -0.04 0.01 12.04 24.14 0.04 -0.1 11.99 12.03 0 -0 12.02 12.02 -0.02 -0.03 -24.01 -12 -0 0.01 -12.02 -12.02 0.04 -0 -12.03 12.03 -0.03 -0 12.02 12 0.03 0.02 -24.07 -12.03 0 0.01 -12.02 -12.03 -0.04 0.02 -11.99 -12.04 0.02 0.03 36.01 -12.05 0 0.01 -48.04 12.02 -0.1 -0 -11.94 -12.01 0 -0.08 -36.06 24.13 -0.02 -0.02 12.04 12.02 0 0 12.02 -12.03 -0.04 0 -11.99 -12.02 0.02 0 24.02 36.07 -0.01 -0.01 -36.04 -24.06 -0.03 0.13 -24 -12.13 0.05 0 -24.14 -12.05 0.07 0.02 12 -12.01 -0.03 0 72.12 12.03 0.01 -0.01 12.02 -24.03 -0.02 -0.01 12.04 12.02 0 0 24.05 -24.05 -0 -0.03 -11.98 12.06 -0.11 -0.01 -11.96 -24.04 0.01 -0.07 -12.04 24.1 -0.01 -0.01 -11.98 -60.08 -0.01 0.02 24.02 -12.06 0.01 0.03 24.05 -12.03 0 -0 12.01 24.04 -0.08 -0.03 -23.93 12.05 -0.01 0 -12.07 12.02 0.03 0 12.02 -12.02 0.02 -0 11.99 36.07 0.01 -0 12.01 -12.06 0.05 0.1 23.96 -12.09 0.03 -0 -12.02 -24.04 0.02 0.02 12.04 -24.05 -0.03 0 24.03 12 -0.01 0.02 -12 24.02 -0.03 0.03 -12 12 0 0 24.04 11.99 -0.01 0.03 -12 12.02 -0 -0.03 -11.99 12.14 -0 -0.1 11.99 -12.01 0.01 -0.02 11.98 12.07 0.08 -0.04 11.98 -12.02 0.02 0 12.02 -12.05 -0.07 0.01 -11.98 -24.03 0.05 0.07 -12.03 -12.08 -0.09 0.03 12.07 -12.06 0.01 -0.1 36.04 12.13 -0.06 -0.01 -11.94 12.01 -0.02 0.03 -12 12 -0 0 12.02 12.03 0.01 -0.12 11.99 24.19 0 -0.06 -11.97 -12.01 -0.01 0.01 -12.01 12.03 -0.08 -0.01 -11.96 12.02 0 0 12.02 12.01 -0.04 -0.01 -11.99 -12.01 0.01 -0 -24.05 12.04 0.01 -0.12 11.99 12.14 0.03 -0.03 12 12.06 0.01 -0.02 12.03 24.03 0.01 0.01 12.02 -24.05 -0 0.01 12.03 -12.02 -0.01 0.03 12.02 -12.05 0 -0 -12.02 12.02 -0 0 -12.02 12.01 0 0.01 -12.04 -12.02 0.1 0 11.94 -12 0.02 -0.02 12 -12.01 0 0 12.01 12.02 0 -0.01 12.01 24.09 0.04 -0.06 11.99 -12.01 0.01 -0.01 12.01 -12.05 -0.02 0.03 -24.02 -12.01 0 -0 48.07 12.02 -0.04 -0.02 -11.98 12.05 -0.02 -0 -12.01 24.05 0 -0 12.02 -12.02 -0.03 0.06 12.03 -12.09 0.1 0 11.94 -24.04 0 0 12.01 24.04 -0.08 -0 -11.94 36.07 0 -0.12 11.99 24.24 0 -0.1 -11.99 24.07 0 -0.12 12 12.13 -0.07 -0.01 -11.93 -12.01 -0.01 -0.04 -12.01 -11.99 -0 0 -24.04 -24.04 -0.07 0 36.12 -12.02 0 -0.04 -12.01 -12 -0 0.01 -12.02 12 0.03 -0.01 -36.08 -11.99 -0 -0.01 -12.02 -12 0.04 -0.01 -12.06 24.02 -0.01 0.03 -12.01 12.01 0.01 -0.02 -11.99 12.14 -0 -0.1 11.99 -12.01 0.01 -0.02 11.98 12.07 0.08 -0.02 12 24.01 0 0.01 -12.03 12.02 -0.1 -0 -11.94 12.02 0 0.07 36.04 -12.09 0.1 0 11.94 -12.01 0 -0.04 -12.01 -11.98 -0 -0 12.01 12.03 0.01 -0.03 24.04 24.04 0 0.07 -11.99 -12.1 -0.11 0.02 -11.95 24.05 -0 -0 24.05 12.01 -0.04 0.01 12.06 -12.01 0 -0.01 12.02 -12.02 0.01 -0.01 7.2 0.04 4.8zm-60.12 -156.26l12 -0.01 -0.02 -7.2 0.15 -4.79 -12.13 0.07 0.01 11.93zm0 96.16l12 -0.01 -0.02 -7.19 0.15 -4.79 -12.13 0.07 0.01 11.93zm168.3 -72.12l7.19 -0.01 4.8 0.04 0 -12.02 -4.8 -0.03 -7.2 0 0.01 12.02zm-0.01 -48.08l7.2 -0 4.8 0.03 0 -12.02 -4.8 -0.03 -7.2 0 0 12.01zm0 -48.08l7.2 -0 4.8 0.04 0 -12.02 -4.8 -0.03 -7.2 0 0 12.01zm-336.57 -12.02l11.99 -0.01 0.03 -4.79 0 -7.21 -12.02 -0 0 12.01zm264.44 168.32l12.03 -0.1 0 -11.96 -4.82 0.01 -7.21 0.02 0 12.03zm-96.15 -199.57l-0.01 19.23 10.81 -0.01 1.19 -0 0.01 -24.03 -4.81 0.01 -7.23 0.01 0.04 4.79zm120.19 -16.83l26.4 0 9.76 -0.03 -0.15 -4.78 0.03 -26.45 0.03 -4.81 -4.82 0.01 -4.81 -0.01 -26.44 0 -0 36.06zm-264.45 -0.08l36.03 0.08 0.04 -4.81 -0.01 -19.23 -0.02 -12.05 -36.07 0.04 0.02 35.96zm0 264.59l36.05 -0.08 0.01 -9.6 -0 -26.44 -36.06 -0 0 36.12zm-12.02 -312.54l60.11 -0.06 -0 60.1 -4.81 0.01 -50.49 -0 -4.83 0.01 0.03 -60.06zm-12.02 72.07l73.32 0 10.88 -0.02 -0.09 -4.79 0.02 -79.31 -7.2 -0.01 -7.21 -0 -69.71 0 0 84.13zm276.45 -72.12l60.11 -0.01 -0.01 60.11 -55.29 -0.01 -4.82 0.04 0 -60.14zm-12.01 72.12l84.14 -0.04 0.01 -9.57 0 -74.52 -84.14 0 -0 84.14zm-252.42 197.13l-0.1 -4.79 60.22 -0.02 -0.02 60.11 -60.1 -0 0 -55.3zm-12.02 67.31l2.4 0 69.72 0 2.4 -0.01 9.61 -0.02 0.02 -84.1 -84.15 -0 0 84.14zm168.26 -324.53l7.23 -0.02 4.83 -0.01 0.01 11.99 -12.05 0.05 -0.02 -12.02zm-36.05 -12.03l0.02 12.05 12.01 -0.03 0 24.03 12.02 0 -0.1 -11.99 12.12 -0.02 0 12.01 12.01 0.02 0.02 12 24 0.01 0.04 -12.01 12.01 0 -0 11.94 36.04 0.08 0.03 -12.01 -36.07 -0.01 0 -11.94 -12.13 -0.07 0.12 12 -12.04 0 0.01 -24.05 24.06 -0.02 -0.03 -12.07 23.97 0.07 0.08 12.02 -12.01 -0.01 -0.04 11.98 12.04 0.05 0 -12.02 12.01 0.01 0.02 -24.05 -48.07 0 -0.03 12.01 -12.01 0.01 0 -12.02 -36.04 0.01 -0.01 24.06 -12.02 -0.04 -0.01 -24.03 -12.02 0 0 12.02zm144.23 317.33l0.03 -4.8 23.88 -0.01 0.17 4.81 -0 7.21 -23.98 0.01 -0.09 -7.22zm-12.01 -28.92l12.08 0.09 -0.06 12.02 -4.81 -0.01 -7.24 -0.01 0.03 -12.08zm-12.01 -43.2l-0.06 -4.76 9.67 -0.08 26.6 0.02 -0.14 36.07 -36.06 -0.01 0 -31.25z"/>
 </g>
</svg>
