<svg width="26" height="25" viewBox="0 0 26 25" fill="none" xmlns="http://www.w3.org/2000/svg">
<path d="M13.1306 0.0120495C8.01463 0.0120495 3.15654 -0.443044 1.30094 4.31924C0.534467 6.28614 0.645775 8.84058 0.645775 12.4982C0.645775 15.7078 0.542921 18.7244 1.30094 20.6758C3.15231 25.4409 8.04985 24.9844 13.1277 24.9844C18.0267 24.9844 23.0778 25.4945 24.9559 20.6758C25.7238 18.6892 25.6111 16.1728 25.6111 12.4982C25.6111 7.62043 25.8802 4.4714 23.5146 2.10717C21.1194 -0.288059 17.8802 0.0120495 13.1249 0.0120495H13.1306ZM12.0118 2.26216C22.6833 2.24525 24.0415 1.05891 23.292 17.5395C23.0257 23.3684 18.5875 22.7287 13.132 22.7287C3.18472 22.7287 2.8987 22.4441 2.8987 12.4926C2.8987 2.4256 3.68772 2.26779 12.0118 2.25934V2.26216ZM19.7949 4.33473C18.9679 4.33473 18.2972 5.0054 18.2972 5.83246C18.2972 6.65952 18.9679 7.33018 19.7949 7.33018C20.622 7.33018 21.2927 6.65952 21.2927 5.83246C21.2927 5.0054 20.622 4.33473 19.7949 4.33473ZM13.1306 6.08607C9.58984 6.08607 6.7198 8.95753 6.7198 12.4982C6.7198 16.039 9.58984 18.909 13.1306 18.909C16.6713 18.909 19.5399 16.039 19.5399 12.4982C19.5399 8.95753 16.6713 6.08607 13.1306 6.08607ZM13.1306 8.33618C18.6325 8.33618 18.6396 16.6603 13.1306 16.6603C7.62998 16.6603 7.62153 8.33618 13.1306 8.33618Z" fill="white"/>
</svg>
