<svg width="26" height="25" viewBox="0 0 26 25" fill="none" xmlns="http://www.w3.org/2000/svg">
<path d="M13.1213 0.0120495C8.00535 0.0120495 3.14726 -0.443044 1.29166 4.31924C0.52519 6.28614 0.636498 8.84058 0.636498 12.4982C0.636498 15.7078 0.533644 18.7244 1.29166 20.6758C3.14304 25.4409 8.04058 24.9844 13.1185 24.9844C18.0174 24.9844 23.0685 25.4945 24.9467 20.6758C25.7146 18.6892 25.6018 16.1728 25.6018 12.4982C25.6018 7.62043 25.8709 4.4714 23.5053 2.10717C21.1101 -0.288059 17.8709 0.0120495 13.1156 0.0120495H13.1213ZM12.0026 2.26216C22.674 2.24525 24.0323 1.05891 23.2827 17.5395C23.0164 23.3684 18.5782 22.7287 13.1227 22.7287C3.17544 22.7287 2.88942 22.4441 2.88942 12.4926C2.88942 2.4256 3.67844 2.26779 12.0026 2.25934V2.26216ZM19.7857 4.33473C18.9586 4.33473 18.2879 5.0054 18.2879 5.83246C18.2879 6.65952 18.9586 7.33018 19.7857 7.33018C20.6127 7.33018 21.2834 6.65952 21.2834 5.83246C21.2834 5.0054 20.6127 4.33473 19.7857 4.33473ZM13.1213 6.08607C9.58057 6.08607 6.71052 8.95753 6.71052 12.4982C6.71052 16.039 9.58057 18.909 13.1213 18.909C16.662 18.909 19.5306 16.039 19.5306 12.4982C19.5306 8.95753 16.662 6.08607 13.1213 6.08607ZM13.1213 8.33618C18.6233 8.33618 18.6303 16.6603 13.1213 16.6603C7.62071 16.6603 7.61225 8.33618 13.1213 8.33618Z" fill="#252525"/>
</svg>
