<svg width="26" height="22" viewBox="0 0 26 22" fill="none" xmlns="http://www.w3.org/2000/svg">
<path d="M23.8621 1.02124L1.18444 9.85849C0.449903 10.1448 0.494402 11.1988 1.25052 11.4221L7.01315 13.1237L9.16377 19.9479C9.38842 20.6607 10.2917 20.8768 10.8146 20.3429L13.7941 17.3007L19.64 21.5918C20.3554 22.1169 21.3742 21.7267 21.5559 20.8581L25.4277 2.34707C25.6173 1.44034 24.7252 0.684897 23.8621 1.02124ZM21.0189 5.1293L10.4853 14.4442C10.3803 14.5371 10.3135 14.6656 10.2978 14.8049L9.89228 18.4101C9.87903 18.5276 9.7145 18.5432 9.67938 18.4302L8.01081 13.0536C7.93439 12.8075 8.03403 12.5408 8.25303 12.405L20.6922 4.69012C20.9782 4.51257 21.2711 4.90636 21.0189 5.1293Z" fill="#252525"/>
</svg>
