<svg width="26" height="22" viewBox="0 0 26 22" fill="none" xmlns="http://www.w3.org/2000/svg">
<path d="M23.8721 1.02124L1.19445 9.85849C0.459913 10.1448 0.504412 11.1988 1.26053 11.4221L7.02316 13.1237L9.17378 19.9479C9.39843 20.6607 10.3017 20.8768 10.8246 20.3429L13.8041 17.3007L19.65 21.5918C20.3654 22.1169 21.3843 21.7267 21.5659 20.8581L25.4377 2.34707C25.6273 1.44034 24.7352 0.684897 23.8721 1.02124ZM21.0289 5.1293L10.4953 14.4442C10.3903 14.5371 10.3235 14.6656 10.3078 14.8049L9.90229 18.4101C9.88904 18.5276 9.72451 18.5432 9.68939 18.4302L8.02082 13.0536C7.9444 12.8075 8.04404 12.5408 8.26304 12.405L20.7022 4.69012C20.9882 4.51257 21.2811 4.90636 21.0289 5.1293Z" fill="white"/>
</svg>
