<svg width="24" height="25" viewBox="0 0 24 25" fill="none" xmlns="http://www.w3.org/2000/svg">
<path d="M0.172852 24.3637L1.83398 18.4639C0.765776 16.6492 0.203361 14.5845 0.203361 12.4634C0.203361 5.93252 5.51662 0.619263 12.0475 0.619263C18.5784 0.619263 23.8916 5.93252 23.8916 12.4634C23.8916 18.9943 18.5784 24.3075 12.0475 24.3075C10.0125 24.3075 8.01988 23.7866 6.2571 22.7975L0.172852 24.3637ZM6.56815 20.6428L6.93069 20.8641C8.46762 21.8024 10.237 22.2984 12.0475 22.2984C17.4705 22.2984 21.8824 17.8864 21.8824 12.4634C21.8824 7.04038 17.4705 2.62842 12.0475 2.62842C6.62448 2.62842 2.21252 7.04038 2.21252 12.4634C2.21252 14.353 2.74956 16.1879 3.76545 17.7699L4.0096 18.1501L3.05302 21.5476L6.56815 20.6428Z" fill="#252525"/>
<path d="M8.72018 6.95079L7.95164 6.90889C7.71024 6.89572 7.47346 6.97639 7.291 7.13489C6.91841 7.45844 6.32266 8.08395 6.13967 8.89908C5.8668 10.1145 6.2885 11.6027 7.37992 13.091C8.47134 14.5793 10.5053 16.9605 14.1019 17.9775C15.2609 18.3052 16.1726 18.0843 16.876 17.6343C17.4332 17.2779 17.8172 16.7059 17.9556 16.0593L18.0783 15.4861C18.1173 15.304 18.0248 15.1191 17.8556 15.0411L15.2582 13.8439C15.0896 13.7662 14.8896 13.8153 14.7762 13.9623L13.7565 15.2842C13.6795 15.384 13.5477 15.4236 13.4286 15.3818C12.7303 15.1364 10.3912 14.1567 9.10772 11.6844C9.05206 11.5772 9.0659 11.4471 9.14485 11.3556L10.1194 10.2282C10.2189 10.1131 10.2441 9.95128 10.1843 9.81138L9.06464 7.19196C9.00503 7.05251 8.87146 6.95905 8.72018 6.95079Z" fill="#252525"/>
</svg>
