<svg width="24" height="25" viewBox="0 0 24 25" fill="none" xmlns="http://www.w3.org/2000/svg">
<path d="M0.181641 24.3637L1.84277 18.4639C0.774565 16.6492 0.21215 14.5845 0.21215 12.4634C0.21215 5.93252 5.52541 0.619263 12.0563 0.619263C18.5872 0.619263 23.9003 5.93252 23.9003 12.4634C23.9003 18.9943 18.5872 24.3075 12.0563 24.3075C10.0213 24.3075 8.02867 23.7866 6.26589 22.7975L0.181641 24.3637ZM6.57694 20.6428L6.93948 20.8641C8.47641 21.8024 10.2458 22.2984 12.0563 22.2984C17.4793 22.2984 21.8912 17.8864 21.8912 12.4634C21.8912 7.04038 17.4793 2.62842 12.0563 2.62842C6.63327 2.62842 2.22131 7.04038 2.22131 12.4634C2.22131 14.353 2.75835 16.1879 3.77424 17.7699L4.01839 18.1501L3.06181 21.5476L6.57694 20.6428Z" fill="white"/>
<path d="M8.72897 6.95079L7.96043 6.90889C7.71903 6.89572 7.48225 6.97639 7.29978 7.13489C6.9272 7.45844 6.33144 8.08395 6.14846 8.89908C5.87559 10.1145 6.29729 11.6027 7.38871 13.091C8.48013 14.5793 10.5141 16.9605 14.1107 17.9775C15.2697 18.3052 16.1814 18.0843 16.8848 17.6343C17.4419 17.2779 17.826 16.7059 17.9644 16.0593L18.0871 15.4861C18.1261 15.304 18.0336 15.1191 17.8644 15.0411L15.267 13.8439C15.0984 13.7662 14.8984 13.8153 14.785 13.9623L13.7653 15.2842C13.6883 15.384 13.5565 15.4236 13.4374 15.3818C12.7391 15.1364 10.4 14.1567 9.11651 11.6844C9.06085 11.5772 9.07469 11.4471 9.15364 11.3556L10.1282 10.2282C10.2277 10.1131 10.2529 9.95128 10.193 9.81138L9.07343 7.19196C9.01382 7.05251 8.88025 6.95905 8.72897 6.95079Z" fill="white"/>
</svg>
