<svg width="35" height="25" viewBox="0 0 35 25" fill="none" xmlns="http://www.w3.org/2000/svg">
<path fill-rule="evenodd" clip-rule="evenodd" d="M31.2173 1.68753C32.6698 2.07873 33.8152 3.22387 34.2062 4.67664C34.9327 7.33018 34.9047 12.8613 34.9047 12.8613C34.9047 12.8613 34.9047 18.3642 34.2064 21.018C33.8152 22.4706 32.6701 23.616 31.2173 24.0069C28.5635 24.7055 17.9486 24.7055 17.9486 24.7055C17.9486 24.7055 7.36134 24.7055 4.67986 23.9792C3.22709 23.588 2.08194 22.4426 1.69074 20.9901C0.992432 18.3642 0.992432 12.8334 0.992432 12.8334C0.992432 12.8334 0.992432 7.33018 1.69074 4.67664C2.08169 3.22413 3.25503 2.05079 4.6796 1.65984C7.33339 0.961273 17.9483 0.961273 17.9483 0.961273C17.9483 0.961273 28.5635 0.961273 31.2173 1.68753ZM23.3958 12.8334L14.5687 17.9175V7.74931L23.3958 12.8334Z" fill="#252525"/>
</svg>
