<svg width="34" height="25" viewBox="0 0 34 25" fill="none" xmlns="http://www.w3.org/2000/svg">
<path fill-rule="evenodd" clip-rule="evenodd" d="M30.2249 1.68753C31.6774 2.07873 32.8228 3.22387 33.2137 4.67664C33.9402 7.33018 33.9123 12.8613 33.9123 12.8613C33.9123 12.8613 33.9123 18.3642 33.214 21.018C32.8228 22.4706 31.6776 23.616 30.2249 24.0069C27.5711 24.7055 16.9561 24.7055 16.9561 24.7055C16.9561 24.7055 6.3689 24.7055 3.68742 23.9792C2.23465 23.588 1.08951 22.4426 0.698313 20.9901C0 18.3642 0 12.8334 0 12.8334C0 12.8334 0 7.33018 0.698313 4.67664C1.08925 3.22413 2.2626 2.05079 3.68717 1.65984C6.34096 0.961273 16.9559 0.961273 16.9559 0.961273C16.9559 0.961273 27.5711 0.961273 30.2249 1.68753ZM22.4034 12.8334L13.5762 17.9175V7.74931L22.4034 12.8334Z" fill="white"/>
</svg>
