<svg xmlns="http://www.w3.org/2000/svg" width="16" height="16"><defs><clipPath id="a"><path fill="#fff" d="M0 16V0h16v16zm8.825-8.002l6.178-6.179-.825-.823L8 7.17 1.822.996l-.825.823 6.178 6.179-6.178 6.177.825.825L8 8.823 14.178 15l.825-.825z"/></clipPath></defs><path fill="#000100" d="M15.003 14.175l-.825.825L8 8.823 1.822 15l-.825-.825 6.178-6.177L.997 1.819l.825-.823L8 7.17 14.178.996l.825.823-6.178 6.179z"/><path fill="#dac498" d="M15.003 14.175l-.825.825L8 8.823 1.822 15l-.825-.825 6.178-6.177L.997 1.819l.825-.823L8 7.17 14.178.996l.825.823-6.178 6.179z"/><path fill="none" stroke="#dac498" stroke-linecap="round" stroke-linejoin="round" stroke-miterlimit="20" stroke-width="2" d="M15.003 14.175v0l-.825.825v0L8 8.823v0L1.822 15v0l-.825-.825v0l6.178-6.177v0L.997 1.819v0l.825-.823v0L8 7.17v0L14.178.996v0l.825.823v0L8.825 7.998v0z" clip-path="url(&quot;#a&quot;)"/></svg>