<svg width="198" height="58" viewBox="0 0 198 58" fill="none" xmlns="http://www.w3.org/2000/svg">
<path fill-rule="evenodd" clip-rule="evenodd" d="M56.5987 15.5543C56.5987 15.4918 56.6612 15.4149 56.7815 15.3235C56.9065 15.2322 57.0122 15.1697 57.1036 15.1408C58.2384 15.0783 59.3635 15.0639 60.4694 15.0927C61.5753 15.1216 62.6956 15.1408 63.8352 15.1408C64.6958 15.1408 65.494 15.2466 66.2297 15.463C66.9653 15.6793 67.6433 16.1217 68.2588 16.7997C68.8117 17.3238 69.2204 17.92 69.4801 18.5979C69.7397 19.2711 69.9176 19.9443 70.009 20.603C70.1003 21.2617 70.134 21.8868 70.1003 22.4686C70.0715 23.0552 70.0234 23.512 69.9609 23.8534C69.8984 24.1323 69.8166 24.3919 69.7061 24.6371C69.6003 24.8823 69.4849 25.1276 69.3599 25.3728C69.2974 25.4978 69.2204 25.594 69.1291 25.6709C69.0377 25.7478 68.9848 25.8151 68.9656 25.8777C68.9512 25.9402 68.98 26.0219 69.0569 26.1325C69.1339 26.2383 69.3118 26.3873 69.5859 26.57C69.8311 26.7528 70.0955 27.0316 70.3696 27.4019C70.6485 27.7721 70.8937 28.1856 71.1101 28.6472C71.3264 29.1088 71.5091 29.5944 71.663 30.0993C71.8169 30.609 71.9082 31.0898 71.9419 31.5514C72.0332 32.7198 72.1054 33.8786 72.1487 35.0326C72.1967 36.1866 72.2015 37.3453 72.1727 38.5138C72.1727 40.6967 71.3409 42.5383 69.682 44.0432C69.1916 44.4712 68.653 44.7933 68.0712 45.0097C67.4846 45.2261 66.8884 45.3607 66.273 45.4232C65.9989 45.4521 65.3979 45.4905 64.4747 45.5386C63.5515 45.5867 62.585 45.63 61.5705 45.6781C60.5559 45.7261 59.6279 45.7454 58.7817 45.7454C57.9354 45.7454 57.4209 45.7165 57.2382 45.654C57.0844 45.5915 56.9594 45.4617 56.868 45.2597C56.7766 45.0578 56.6997 44.8847 56.6372 44.7308C56.6372 44.702 56.6276 44.2692 56.6132 43.4422C56.5987 42.6152 56.5843 41.5285 56.5651 40.1918C56.5507 38.8551 56.5362 37.3405 56.517 35.6528C56.5026 33.9603 56.493 32.2294 56.493 30.4455C56.493 28.6616 56.493 26.9114 56.493 25.1901C56.493 23.4687 56.493 21.9205 56.493 20.5357C56.493 19.1509 56.5026 18.0162 56.517 17.1218C56.5314 16.2323 56.5555 15.7082 56.5843 15.5543H56.5987ZM12.5214 19.1894C12.531 19.6798 15.2477 31.2437 15.4593 32.3063L16.5171 39.2542C16.6373 40.2063 17.3393 45.3992 17.5893 46.1877C17.5941 46.2358 17.6038 46.2599 17.6182 46.2599C18.1759 47.4042 17.8105 50.0247 17.3297 51.0393C15.9497 53.9579 12.7426 53.7752 10.3048 51.674C8.22285 49.8805 7.61701 46.9138 6.26589 49.4477C5.32347 51.2268 4.42913 53.0347 3.54442 54.8474C3.13571 55.6792 3.38574 56.564 4.3522 56.4293C5.23692 56.3043 6.62651 52.2654 7.36698 51.2412C7.63624 51.3566 11.2713 56.5495 16.0074 54.6358C18.3683 53.6838 19.5511 51.2749 19.6857 48.8082C19.7482 47.6398 19.4742 46.9234 19.4501 45.9233L30.1389 43.923C30.3505 43.9615 30.5909 44.0577 30.9851 44.2452C34.4182 45.8415 36.7454 49.3468 37.6686 52.9289C37.7648 53.2943 37.9283 54.2656 38.0918 54.5445C38.3754 55.0157 39.0438 55.0638 39.4092 54.7512C39.7218 54.482 40.8565 51.5153 43.4097 49.6545C43.6597 49.4718 43.8472 49.366 44.0492 49.2314C45.3811 48.3322 44.7175 45.6829 40.9575 49.4285C40.2362 50.1449 39.4525 51.2989 39.1255 51.5778C38.3995 49.7939 37.2888 47.2119 35.9761 45.8463C35.0385 44.8703 33.5383 43.6826 33.1681 43.3605L38.2456 42.4132C38.3177 42.0045 35.577 31.6331 35.0097 29.3925L34.8125 28.7145C34.7115 28.4789 34.7741 28.5943 34.6827 28.4693C34.5481 29.0078 34.2596 30.3205 33.8845 30.5128C33.471 30.7244 32.9902 30.5657 32.8459 30.2051C32.6825 29.7964 32.8748 29.4454 32.9998 29.0463C34.7212 23.4639 34.2451 25.1035 34.1009 18.9538C34.0047 14.8187 34.625 15.5639 32.192 15.9246C25.5903 16.9054 18.9693 18.3095 12.5214 19.1942V19.1894ZM8.8912 21.9445C8.93928 22.6946 9.8817 26.8441 10.0981 27.9741C10.502 30.032 10.9876 31.9841 11.329 34.018L12.7763 47.1253C13.2523 47.135 15.8199 46.6589 16.0892 46.4907C14.9544 38.7686 14.4303 33.8017 12.608 26.4402C12.3435 25.3776 12.0983 24.2669 11.8771 23.2139C11.7569 22.6465 11.3049 20.4299 11.1126 20.05C10.4779 20.401 9.67494 21.3338 8.88158 21.9493L8.8912 21.9445ZM7.24677 9.44783C7.84781 9.11126 8.24208 9.68344 7.98725 10.3999C7.51604 11.7125 6.28512 13.5012 5.1648 13.982C4.41952 14.2994 3.94831 13.5445 4.45798 13.0636C4.56857 12.9579 4.88111 12.78 5.07825 12.6165C6.915 11.0923 6.66017 9.7796 7.25158 9.44783H7.24677ZM2.88088 11.0153C2.2558 9.81807 2.8376 10.448 4.08775 8.92373C4.97728 7.84188 4.82341 6.47633 5.7466 6.88503C6.79961 7.35143 4.57819 11.174 2.88088 11.0153ZM8.545 20.3241L8.37671 19.2759C7.6699 19.6125 7.06406 19.9298 7.10253 18.6941C7.41506 18.4729 7.89108 18.1844 8.14111 17.8911C8.14111 17.3911 8.09303 16.3381 7.89589 15.9919C7.76126 15.7947 7.81896 16.0592 7.0304 16.6073C6.72748 16.8189 6.08318 17.2757 5.78026 16.6314C5.50138 16.04 6.12164 16.0207 7.18908 14.6359C8.26613 13.2415 8.47288 12.6165 8.92486 11.0634C9.15565 10.27 9.26624 10.2556 8.8335 9.63055C8.39595 8.99586 7.81896 8.15922 7.33332 7.55819C6.80441 6.90427 6.21781 6.15899 5.73217 5.57238C4.934 4.60111 2.99147 2.50471 1.4384 2.58164C-2.19665 2.75474 2.14521 11.8423 2.63565 12.9194L5.9245 19.3865C6.03509 19.5644 6.17453 19.7423 6.28031 19.9923L6.33321 20.1318C6.564 20.7088 6.65536 20.7328 7.28043 20.8338C7.96801 20.9492 8.21323 20.5934 8.53058 20.3145L8.545 20.3241ZM8.74695 48.0293L11.2713 47.5052C11.3867 46.9042 10.7568 41.942 10.6318 40.9852C10.3481 38.8407 10.2375 36.6193 9.90574 34.4844C9.5884 32.4553 9.07391 30.4551 8.67964 28.4501C8.28536 26.4402 7.86223 24.4015 7.42949 22.3772L4.26565 21.7858C4.30412 22.3436 7.14099 33.3016 7.33813 34.0613C7.76126 35.6913 8.39595 46.4618 8.74695 48.0293ZM19.6473 2.82206C17.6038 3.42309 16.9018 6.17822 17.1999 8.16403C17.4739 9.97674 18.6952 12.8328 20.9503 12.2703C22.6957 11.8375 23.768 9.17857 23.3833 6.94754C23.0659 5.10117 21.8591 2.17294 19.6473 2.82206ZM18.2817 13.1406C18.3394 13.6214 18.6231 14.2272 18.7289 14.8331C18.8299 15.4149 18.8251 16.2179 19.0655 16.6121L23.9074 15.7947L23.6958 12.1741C23.4266 12.227 23.6237 12.1549 23.4266 12.3039C23.1236 12.5347 22.7197 13.3137 21.4023 13.6791C19.9262 14.0878 19.277 13.5493 18.2817 13.1358V13.1406ZM9.90574 19.1028C10.6414 18.4729 10.9587 17.8575 12.1993 17.7565L17.5413 16.8381L17.2672 15.1312C16.8441 12.1885 14.0312 10.8326 13.2523 5.96666C12.8532 3.46155 13.3965 3.91353 11.0741 4.19722C10.3241 4.28857 10.5212 4.27415 10.7039 5.62527C11.6559 12.6165 8.24689 12.4963 9.91055 19.1028H9.90574ZM10.3529 3.08651L12.7378 2.79321C12.7955 2.26911 12.5839 1.12474 12.4493 0.619873C12.2858 0.639106 10.2231 0.946835 10.2087 0.951643C9.8817 1.12474 10.2712 2.7307 10.3577 3.08651H10.3529ZM27.8742 15.0831L32.7161 14.3282L33.8893 8.42848L29.3023 7.50049L27.8742 15.0831ZM28.3214 3.32211C28.3118 3.33173 29.1917 5.76471 29.3936 6.03878L33.4902 6.78887L32.6151 4.43282C32.4228 3.99046 32.5526 4.02893 32.0333 3.91353C31.1919 3.7212 28.9849 3.45194 28.456 3.22114L28.3118 3.32692L28.3214 3.32211ZM32.394 2.41816L32.5334 1.54787C31.9708 1.31707 28.5426 0.71123 28.1819 0.696805C27.9848 1.8027 27.6674 1.59595 29.7158 1.9758C30.3649 2.09601 31.8747 2.45182 32.394 2.41816ZM26.35 15.3331L27.8694 7.22642L24.9027 6.66866L25.2777 14.2128C25.3499 15.4533 25.1046 15.7755 26.35 15.338V15.3331ZM25.5518 5.22138C25.9365 5.47141 27.0424 5.57719 27.5617 5.65893L26.8981 3.76928C26.5615 3.88468 25.6864 4.96173 25.547 5.22138H25.5518ZM63.1861 55.8331V53.2751C63.1861 52.852 62.9745 52.6356 62.5514 52.6356H59.0413C58.6182 52.6356 58.4066 52.8472 58.4018 53.2751V55.8331H63.1861ZM191.961 54.5541V55.1936C191.961 55.6215 192.172 55.8331 192.6 55.8331H196.11C196.533 55.8331 196.745 55.6215 196.745 55.1936C196.745 54.7657 196.533 54.5541 196.11 54.5541H191.961ZM197.385 55.1936C197.385 56.0447 196.961 56.4726 196.11 56.4726H192.6C191.749 56.4726 191.321 56.0447 191.321 55.1936V53.2799C191.321 52.4288 191.749 52.0009 192.6 52.0009H196.11C196.961 52.0009 197.385 52.4288 197.385 53.2799C197.385 53.7078 197.274 54.0252 197.062 54.2368C197.274 54.4483 197.38 54.7705 197.385 55.1936ZM196.745 53.2799C196.745 52.8568 196.533 52.6404 196.11 52.6404H192.6C192.172 52.6404 191.961 52.852 191.961 53.2799V53.9194H196.11C196.529 53.9194 196.745 53.7078 196.745 53.2799ZM189.48 55.1936C189.48 56.0447 189.057 56.4726 188.206 56.4726H184.696C183.844 56.4726 183.417 56.0447 183.417 55.1936V53.2799C183.417 52.4288 183.844 52.0009 184.696 52.0009H188.206C189.057 52.0009 189.48 52.4288 189.48 53.2799V55.1936ZM188.84 55.1936L188.845 53.2799C188.845 52.8568 188.629 52.6404 188.206 52.6404H184.696C184.268 52.6404 184.056 52.852 184.056 53.2799V55.1936C184.056 55.6215 184.268 55.8331 184.696 55.8331H188.21C188.634 55.8331 188.845 55.6215 188.845 55.1936H188.84ZM175.517 52.6404L175.512 52.0009H181.575V52.6404H178.868V56.4726H178.228V52.6404H175.521H175.517ZM168.246 54.5589V56.4726H167.607V52.0057H168.246V53.9194H172.074C172.497 53.9194 172.814 53.7078 173.031 53.2799V52.0009H173.67V53.2799C173.665 53.7078 173.454 54.0252 173.031 54.2368C173.454 54.4483 173.67 54.7705 173.67 55.1936V56.4726H173.031V55.1936C172.819 54.7657 172.497 54.5541 172.074 54.5541L168.246 54.5589ZM165.131 54.4483C164.953 54.5204 164.741 54.5541 164.496 54.5541H160.986C160.135 54.5541 159.707 54.131 159.707 53.2751V51.9961H160.347V53.2751C160.347 53.703 160.558 53.9146 160.986 53.9146H164.501C164.924 53.9146 165.136 53.703 165.136 53.2751V51.9961H165.77L165.775 55.1888C165.775 56.0399 165.352 56.4678 164.501 56.4678H159.712V55.8283H164.501C164.924 55.8283 165.136 55.6167 165.136 55.1888V54.4435L165.131 54.4483ZM156.586 55.8379V53.2799C156.586 52.8568 156.375 52.6404 155.952 52.6404H152.442C152.019 52.6404 151.807 52.852 151.802 53.2799V55.8379H156.586ZM157.221 55.8379C157.649 55.8379 157.861 56.0495 157.861 56.4726V57.1121C157.861 57.3237 157.755 57.4342 157.538 57.4342C157.327 57.4342 157.221 57.3285 157.221 57.1121V56.4726H151.158V57.1121C151.153 57.3237 151.047 57.4342 150.836 57.4342C150.624 57.4342 150.518 57.3285 150.518 57.1121V56.4774C150.518 56.0495 150.73 55.8379 151.158 55.8379V53.2799C151.158 52.4288 151.586 52.0009 152.437 52.0009H155.947C156.798 52.0009 157.226 52.4288 157.226 53.2799L157.221 55.8379ZM148.682 55.1984C148.682 56.0495 148.259 56.4774 147.408 56.4774H143.897C143.046 56.4774 142.618 56.0495 142.618 55.1984V53.2847C142.618 52.4337 143.046 52.0057 143.897 52.0057H147.408C148.259 52.0057 148.682 52.4337 148.682 53.2847V55.1984ZM148.042 55.1984L148.047 53.2847C148.047 52.8616 147.831 52.6452 147.408 52.6452H143.897C143.47 52.6452 143.258 52.8568 143.258 53.2847V55.1984C143.258 55.6263 143.47 55.8379 143.897 55.8379H147.412C147.835 55.8379 148.047 55.6263 148.047 55.1984H148.042ZM135.353 53.9194H139.503C139.926 53.9194 140.137 53.7078 140.137 53.2799H140.142C140.142 52.8568 139.926 52.6404 139.503 52.6404H135.353V53.9194ZM135.353 54.5589V56.4726H134.714V52.0057H139.503C140.354 52.0057 140.777 52.4337 140.777 53.2847C140.777 54.1358 140.354 54.5637 139.503 54.5637H135.353V54.5589ZM132.237 56.4726V53.2799C132.237 52.8568 132.026 52.6404 131.603 52.6404H128.088C127.665 52.6404 127.453 52.852 127.448 53.2799V56.4726H126.809V53.2799C126.809 52.4288 127.237 52.0009 128.088 52.0009H131.598C132.449 52.0009 132.872 52.4288 132.872 53.2799L132.867 56.4726H132.233H132.237ZM115.524 54.8763H117.986L116.755 52.9145L115.524 54.8763ZM118.39 55.5158H115.125L114.524 56.4726H113.726L116.519 52.0057H117L119.794 56.4726H118.996L118.394 55.5158H118.39ZM106.46 54.5637V56.4774H105.821V52.0105H106.46V53.9242H110.288C110.711 53.9242 111.028 53.7127 111.245 53.2847V52.0057H111.884V53.2847C111.879 53.7127 111.668 54.03 111.245 54.2416C111.668 54.4531 111.884 54.7753 111.884 55.1984V56.4774H111.245V55.1984C111.033 54.7705 110.711 54.5589 110.288 54.5589L106.46 54.5637ZM98.5556 54.5589V55.1984C98.5556 55.6263 98.7672 55.8379 99.1951 55.8379H102.705C103.128 55.8379 103.34 55.6263 103.34 55.1984C103.34 54.7705 103.128 54.5589 102.705 54.5589H98.5556ZM103.979 55.1984C103.979 56.0495 103.556 56.4774 102.705 56.4774H99.1951C98.344 56.4774 97.9161 56.0495 97.9161 55.1984V53.2847C97.9161 52.4337 98.344 52.0057 99.1951 52.0057H102.705C103.556 52.0057 103.979 52.4337 103.979 53.2847C103.979 53.7127 103.869 54.03 103.657 54.2416C103.869 54.4531 103.975 54.7753 103.979 55.1984ZM103.34 53.2847C103.34 52.8616 103.128 52.6452 102.705 52.6452H99.1951C98.7672 52.6452 98.5556 52.8568 98.5556 53.2847V53.9242H102.705C103.123 53.9242 103.34 53.7127 103.34 53.2847ZM91.8096 54.8811H94.2714L93.0405 52.9193L91.8096 54.8811ZM94.6753 55.5206H91.4105L90.8095 56.4774H90.0113L92.8049 52.0105H93.2858L96.0793 56.4774H95.2812L94.6802 55.5206H94.6753ZM82.1114 52.65L82.1066 52.0105H88.1698V52.65H85.4627V56.4822H84.8232V52.65H82.1162H82.1114ZM80.265 56.4822H75.4808C74.6345 56.4822 74.2066 56.0543 74.2018 55.2032V53.2895C74.2018 52.4385 74.6297 52.0105 75.4808 52.0105H80.265V52.65H75.4808C75.0528 52.65 74.8461 52.8616 74.8461 53.2895L74.8413 55.2032C74.8413 55.6311 75.0528 55.8427 75.4808 55.8427H80.265V56.4822ZM72.3602 55.2032C72.3602 56.0543 71.9371 56.4822 71.086 56.4822H67.576C66.7249 56.4822 66.297 56.0543 66.297 55.2032V53.2895C66.297 52.4385 66.7249 52.0105 67.576 52.0105H71.086C71.9371 52.0105 72.3602 52.4385 72.3602 53.2895V55.2032ZM71.7207 55.2032L71.7255 53.2895C71.7255 52.8664 71.5091 52.65 71.086 52.65H67.576C67.1481 52.65 66.9365 52.8616 66.9365 53.2895V55.2032C66.9365 55.6311 67.1481 55.8427 67.576 55.8427H71.0908C71.514 55.8427 71.7255 55.6311 71.7255 55.2032H71.7207ZM63.8111 55.8427C64.2391 55.8427 64.4506 56.0543 64.4506 56.4774V57.1169C64.4506 57.3285 64.3448 57.4391 64.1285 57.4391C63.9169 57.4391 63.8111 57.3333 63.8111 57.1169V56.4774H57.7479V57.1169C57.7431 57.3285 57.6373 57.4391 57.4258 57.4391C57.2142 57.4391 57.1084 57.3333 57.1084 57.1169V56.4822C57.1084 56.0543 57.32 55.8427 57.7479 55.8427V53.2847C57.7479 52.4337 58.1758 52.0057 59.0269 52.0057H62.5369C63.388 52.0057 63.8159 52.4337 63.8159 53.2847L63.8111 55.8427ZM187.898 20.7376C187.835 20.7665 187.754 20.8386 187.643 20.9444C187.537 21.0502 187.48 21.1367 187.48 21.1992C187.48 21.5069 187.489 21.8916 187.504 22.358C187.518 22.8196 187.532 23.286 187.552 23.762C187.566 24.238 187.581 24.7044 187.6 25.166C187.614 25.6276 187.638 26.0123 187.667 26.3248C187.667 26.3873 187.72 26.4643 187.831 26.5556C187.936 26.647 188.023 26.6951 188.085 26.6951C188.547 26.6951 189.033 26.6854 189.537 26.671C190.047 26.6566 190.538 26.6422 191.014 26.6229C191.49 26.6085 191.937 26.5989 192.35 26.5989C192.764 26.5989 193.11 26.5989 193.389 26.5989C193.942 26.5989 194.317 26.7047 194.519 26.921C194.721 27.1374 194.836 27.4596 194.865 27.8875C194.865 28.2241 194.875 28.5607 194.889 28.902C194.903 29.2386 194.899 29.5752 194.865 29.9166C194.774 30.5369 194.283 30.8782 193.389 30.9359C192.62 30.9984 191.821 31.0033 190.994 30.96C190.163 30.9119 189.364 30.9215 188.6 30.984C188.23 31.0129 188.008 31.085 187.932 31.1908C187.855 31.2966 187.816 31.537 187.816 31.9072C187.845 32.5515 187.864 33.2824 187.864 34.1046C187.864 34.9172 187.864 35.7105 187.864 36.4799C187.864 37.2492 187.864 37.9175 187.864 38.4945C187.864 39.0619 187.879 39.4081 187.912 39.5331C187.941 39.6245 188.013 39.7158 188.119 39.8072C188.225 39.8985 188.326 39.9466 188.417 39.9466C189.061 39.9755 189.855 39.9851 190.792 39.9707C191.73 39.9562 192.644 39.9466 193.533 39.9466H196.668C196.913 39.9755 197.159 39.9851 197.404 39.9707C197.649 39.9562 197.817 40.163 197.909 40.5861C197.937 40.7111 197.962 40.9323 197.976 41.2497C197.99 41.5718 198 41.918 198 42.2786C198 42.6489 197.99 42.995 197.976 43.3316C197.962 43.6682 197.952 43.8942 197.952 44.0144C197.952 44.2596 197.865 44.4808 197.697 44.6731C197.529 44.8751 197.308 44.9905 197.029 45.0193C196.846 45.0193 196.404 45.0193 195.716 45.0193C195.024 45.0193 194.216 45.0193 193.298 45.0193C192.374 45.0193 191.398 45.0193 190.369 45.0193C189.34 45.0193 188.388 45.0193 187.513 45.0193C186.638 45.0193 185.893 45.0193 185.277 45.0193C184.662 45.0193 184.325 45.0193 184.263 45.0193C183.955 45.0193 183.7 44.9135 183.503 44.6972C183.301 44.4808 183.191 44.2212 183.157 43.9134C183.128 43.5432 183.109 42.6537 183.109 41.24C183.109 39.8264 183.099 38.1676 183.085 36.2635C183.07 34.3594 183.061 32.3207 183.061 30.157C183.061 27.9933 183.061 25.969 183.061 24.0986C183.061 22.2234 183.051 20.6174 183.037 19.2807C183.022 17.944 183.013 17.1555 183.013 16.9054C183.013 16.3525 183.258 16.0736 183.753 16.0736C184.123 16.0736 184.835 16.0736 185.898 16.0736C186.96 16.0736 188.119 16.064 189.379 16.0496C190.639 16.0351 191.869 16.0207 193.067 16.0015C194.264 15.9871 195.187 15.9774 195.831 15.9774C197.091 15.9149 197.63 16.516 197.447 17.7757C197.385 18.0306 197.356 18.2854 197.356 18.5451C197.356 18.8047 197.356 19.0595 197.356 19.3048C197.385 19.6125 197.293 19.8818 197.077 20.1126C196.86 20.3433 196.586 20.4587 196.245 20.4587C196.182 20.4587 195.947 20.4684 195.533 20.4828C195.12 20.4972 194.62 20.5116 194.033 20.5309C193.451 20.5453 192.812 20.5597 192.119 20.579C191.427 20.5934 190.792 20.6078 190.206 20.627C189.619 20.6415 189.114 20.6655 188.686 20.6943C188.258 20.7232 187.994 20.7424 187.903 20.7424L187.898 20.7376ZM163.15 15.8428C163.275 15.814 163.712 15.7899 164.462 15.7755C165.217 15.7611 166.116 15.7515 167.16 15.7515C168.203 15.7515 169.319 15.7418 170.502 15.7274C171.684 15.713 172.8 15.7034 173.843 15.7034C174.887 15.7034 175.776 15.713 176.517 15.7274C177.257 15.7418 177.685 15.7515 177.805 15.7515C178.204 15.7803 178.474 15.8669 178.613 16.0063C178.753 16.1457 178.805 16.415 178.777 16.8141C178.748 17.2132 178.748 17.6074 178.777 17.9873C178.805 18.372 178.791 18.7662 178.729 19.1605C178.603 19.9587 178.099 20.3578 177.209 20.3578C176.594 20.3289 176.002 20.3337 175.435 20.3818C174.867 20.4299 174.276 20.4491 173.661 20.4491C173.324 20.4491 173.17 20.6174 173.199 20.9588C173.199 21.3579 173.199 22.1897 173.199 23.4495C173.199 24.7092 173.199 26.1758 173.199 27.8538C173.199 29.5271 173.199 31.3014 173.199 33.1766C173.199 35.0518 173.199 36.7924 173.199 38.408C173.199 40.0187 173.199 41.3939 173.199 42.5335C173.199 43.6682 173.199 44.3462 173.199 44.5625C173.199 44.8991 173.031 45.0722 172.689 45.0722C172.165 45.1011 171.651 45.1107 171.146 45.0963C170.641 45.0818 170.127 45.0866 169.602 45.1203C168.896 45.1828 168.545 44.8414 168.545 44.1058C168.516 43.3989 168.492 42.3555 168.477 40.9708C168.463 39.586 168.448 38.0666 168.429 36.4077C168.415 34.7489 168.405 33.0612 168.405 31.3398C168.405 29.6185 168.396 28.0462 168.381 26.6181C168.367 25.1901 168.357 24.0217 168.357 23.1177C168.357 22.209 168.357 21.757 168.357 21.757C168.357 21.4781 168.343 21.2329 168.309 21.0213C168.28 20.8386 168.242 20.6655 168.194 20.5116C168.146 20.3578 168.078 20.2808 167.987 20.2808C167.895 20.2808 167.655 20.2905 167.275 20.3049C166.891 20.3193 166.453 20.3289 165.963 20.3289C165.472 20.3289 164.972 20.3289 164.462 20.3289C163.958 20.3289 163.549 20.3289 163.241 20.3289C163.179 20.3289 163.111 20.2616 163.034 20.1222C162.957 19.9827 162.919 19.8818 162.919 19.8241C162.919 19.6077 162.909 19.3 162.895 18.9009C162.88 18.5018 162.871 18.0931 162.871 17.6796C162.871 17.2661 162.895 16.8814 162.938 16.5256C162.986 16.1698 163.054 15.9486 163.145 15.8572L163.15 15.8428ZM150.014 20.7376C149.951 20.7665 149.869 20.8386 149.759 20.9444C149.653 21.0502 149.595 21.1367 149.595 21.1992C149.595 21.5069 149.605 21.8916 149.619 22.358C149.634 22.8196 149.648 23.286 149.667 23.762C149.682 24.238 149.696 24.7044 149.715 25.166C149.73 25.6276 149.754 26.0123 149.783 26.3248C149.783 26.3873 149.836 26.4643 149.946 26.5556C150.052 26.647 150.139 26.6951 150.201 26.6951C150.663 26.6951 151.148 26.6854 151.653 26.671C152.163 26.6566 152.653 26.6422 153.129 26.6229C153.605 26.6085 154.053 26.5989 154.466 26.5989C154.88 26.5989 155.226 26.5989 155.505 26.5989C156.058 26.5989 156.433 26.7047 156.635 26.921C156.837 27.1374 156.952 27.4596 156.981 27.8875C156.981 28.2241 156.99 28.5607 157.005 28.902C157.019 29.2386 157.014 29.5752 156.981 29.9166C156.889 30.5369 156.399 30.8782 155.505 30.9359C154.735 30.9984 153.937 31.0033 153.11 30.96C152.278 30.9119 151.48 30.9215 150.716 30.984C150.345 31.0129 150.124 31.085 150.047 31.1908C149.97 31.2966 149.932 31.537 149.932 31.9072C149.961 32.5515 149.98 33.2824 149.98 34.1046C149.98 34.9172 149.98 35.7105 149.98 36.4799C149.98 37.2492 149.98 37.9175 149.98 38.4945C149.98 39.0619 149.994 39.4081 150.028 39.5331C150.057 39.6245 150.129 39.7158 150.235 39.8072C150.341 39.8985 150.442 39.9466 150.533 39.9466C151.177 39.9755 151.971 39.9851 152.908 39.9707C153.846 39.9562 154.759 39.9466 155.649 39.9466H158.784C159.029 39.9755 159.274 39.9851 159.52 39.9707C159.765 39.9562 159.933 40.163 160.024 40.5861C160.053 40.7111 160.077 40.9323 160.092 41.2497C160.106 41.5718 160.116 41.918 160.116 42.2786C160.116 42.6489 160.106 42.995 160.092 43.3316C160.077 43.6682 160.068 43.8942 160.068 44.0144C160.068 44.2596 159.981 44.4808 159.813 44.6731C159.645 44.8751 159.423 44.9905 159.144 45.0193C158.962 45.0193 158.519 45.0193 157.832 45.0193C157.139 45.0193 156.332 45.0193 155.413 45.0193C154.49 45.0193 153.514 45.0193 152.485 45.0193C151.456 45.0193 150.504 45.0193 149.629 45.0193C148.754 45.0193 148.009 45.0193 147.393 45.0193C146.778 45.0193 146.441 45.0193 146.379 45.0193C146.071 45.0193 145.816 44.9135 145.619 44.6972C145.417 44.4808 145.306 44.2212 145.273 43.9134C145.244 43.5432 145.225 42.6537 145.225 41.24C145.225 39.8264 145.215 38.1676 145.201 36.2635C145.186 34.3594 145.176 32.3207 145.176 30.157C145.176 27.9933 145.176 25.969 145.176 24.0986C145.176 22.2234 145.167 20.6174 145.152 19.2807C145.138 17.944 145.128 17.1555 145.128 16.9054C145.128 16.3525 145.374 16.0736 145.869 16.0736C146.239 16.0736 146.951 16.0736 148.013 16.0736C149.076 16.0736 150.235 16.064 151.495 16.0496C152.754 16.0351 153.985 16.0207 155.182 16.0015C156.38 15.9871 157.303 15.9774 157.947 15.9774C159.207 15.9149 159.745 16.516 159.563 17.7757C159.5 18.0306 159.471 18.2854 159.471 18.5451C159.471 18.8047 159.471 19.0595 159.471 19.3048C159.5 19.6125 159.409 19.8818 159.193 20.1126C158.976 20.3433 158.702 20.4587 158.361 20.4587C158.298 20.4587 158.063 20.4684 157.649 20.4828C157.236 20.4972 156.736 20.5116 156.149 20.5309C155.567 20.5453 154.928 20.5597 154.235 20.579C153.543 20.5934 152.908 20.6078 152.322 20.627C151.735 20.6415 151.23 20.6655 150.802 20.6943C150.374 20.7232 150.11 20.7424 150.018 20.7424L150.014 20.7376ZM131.117 25.1564C131.117 25.3103 131.348 25.3872 131.81 25.3872C132.271 25.3872 132.776 25.2478 133.329 24.9737C133.882 24.6948 134.392 24.2573 134.848 23.661C135.31 23.06 135.541 22.257 135.541 21.2425C135.541 20.9973 135.531 20.5886 135.517 20.0212C135.502 19.4538 135.493 18.8768 135.493 18.295C135.493 17.7084 135.493 17.1987 135.493 16.7516C135.493 16.3044 135.493 16.0688 135.493 16.0351C135.521 16.0063 135.661 15.9871 135.906 15.9871C136.151 15.9871 136.445 15.9871 136.781 15.9871C137.118 15.9871 137.474 15.9871 137.839 15.9871C138.209 15.9871 138.531 15.9871 138.806 15.9871C139.421 15.9871 139.772 16.04 139.863 16.1505C139.955 16.2563 140.017 16.6025 140.046 17.1891C140.046 17.5257 140.046 17.9729 140.046 18.5258C140.046 19.0788 140.046 19.6317 140.046 20.1847C140.046 20.7376 140.036 21.2617 140.022 21.7522C140.008 22.2426 139.998 22.5984 139.998 22.81C139.969 23.0552 139.907 23.3725 139.815 23.7524C139.724 24.1371 139.584 24.5361 139.402 24.9497C139.219 25.3632 138.979 25.7719 138.69 26.171C138.397 26.57 138.022 26.8922 137.56 27.1374C137.344 27.2624 137.252 27.3826 137.281 27.5077C137.31 27.6327 137.406 27.724 137.56 27.7865C138.084 28.0943 138.522 28.4645 138.873 28.8924C139.229 29.3252 139.527 29.7531 139.772 30.181C140.08 30.734 140.277 31.3158 140.368 31.9312C140.46 32.5467 140.474 33.1622 140.416 33.7776C140.416 34.0517 140.416 34.4892 140.416 35.0903C140.416 35.6913 140.407 36.3741 140.392 37.1386C140.378 37.9079 140.378 38.7061 140.392 39.5379C140.407 40.3649 140.407 41.1343 140.392 41.8411C140.378 42.5479 140.368 43.1537 140.368 43.6634C140.368 44.1731 140.368 44.4856 140.368 44.6106C140.368 44.702 140.339 44.803 140.277 44.9087C140.214 45.0145 140.152 45.0722 140.094 45.0722C139.911 45.1011 139.657 45.1203 139.334 45.1203C139.012 45.1203 138.681 45.1203 138.344 45.1203C138.007 45.1203 137.7 45.1203 137.421 45.1203C137.142 45.1203 136.988 45.1203 136.959 45.1203C136.68 45.1203 136.469 45.1059 136.315 45.0722C136.161 45.0434 136.055 44.9664 135.993 44.8414C135.93 44.7164 135.892 44.5337 135.877 44.2885C135.863 44.0433 135.853 43.7019 135.853 43.2739C135.853 42.8123 135.844 42.1055 135.829 41.1535C135.815 40.2015 135.805 39.1821 135.805 38.0906C135.805 36.9992 135.796 35.9606 135.781 34.9797C135.767 33.9988 135.743 33.2439 135.714 32.7198C135.622 31.9216 135.32 31.2821 134.815 30.8061C134.31 30.3301 133.747 30.0176 133.132 29.8637C132.915 29.8348 132.685 29.7868 132.439 29.7243C132.194 29.6618 131.968 29.6569 131.771 29.7002C131.574 29.7483 131.41 29.8637 131.29 30.0464C131.165 30.2291 131.108 30.5224 131.108 30.9215C131.108 31.3543 131.098 31.9505 131.083 32.7198C131.069 33.4891 131.055 34.3402 131.035 35.2778C131.021 36.2154 131.011 37.1771 131.011 38.1579C131.011 39.1436 131.002 40.0572 130.987 40.8986C130.973 41.7449 130.963 42.4902 130.963 43.1345C130.963 43.7788 130.963 44.2115 130.963 44.4231C130.963 44.6683 130.896 44.8366 130.757 44.928C130.617 45.0193 130.458 45.0818 130.276 45.1107C130.093 45.1107 129.804 45.1251 129.42 45.1588C129.035 45.1876 128.636 45.2068 128.223 45.2068C127.809 45.2068 127.424 45.1972 127.069 45.1828C126.713 45.1684 126.477 45.1299 126.352 45.0674C126.29 45.0386 126.251 44.9761 126.237 44.8847C126.222 44.7933 126.213 44.702 126.213 44.6106V16.6795C126.213 16.4006 126.242 16.1938 126.304 16.0592C126.367 15.9197 126.549 15.8524 126.857 15.8524C127.41 15.8524 128.001 15.8428 128.631 15.8284C129.261 15.814 129.838 15.7899 130.362 15.7611C130.824 15.7611 131.035 15.9919 131.007 16.4535C131.007 16.9151 131.007 17.5834 131.007 18.4585C131.007 19.3336 131.016 20.2328 131.031 21.1559C131.045 22.0791 131.059 22.9254 131.079 23.6899C131.093 24.4592 131.103 24.9497 131.103 25.166L131.117 25.1564ZM111.759 16.4438C111.913 16.4438 112.235 16.4438 112.726 16.4438C113.216 16.4438 113.73 16.4535 114.269 16.4679C114.808 16.4823 115.284 16.516 115.697 16.5592C116.111 16.6073 116.337 16.6746 116.365 16.766C116.457 17.0112 116.606 17.5594 116.803 18.4008C117.005 19.2471 117.24 20.276 117.515 21.4877C117.793 22.6994 118.092 24.0361 118.414 25.4978C118.736 26.9595 119.068 28.4453 119.404 29.9695C119.741 31.4889 120.073 32.9794 120.395 34.4412C120.717 35.9029 121.02 37.2203 121.294 38.4032C121.573 39.586 121.794 40.5765 121.962 41.3747C122.131 42.1728 122.246 42.6633 122.308 42.8508C122.462 43.4663 122.477 43.9086 122.356 44.1875C122.231 44.4664 121.866 44.7116 121.251 44.9232C120.635 45.1395 120.005 45.3222 119.361 45.4761C118.928 45.6011 118.63 45.6011 118.462 45.4761C118.294 45.3511 118.164 45.0914 118.068 44.6924C117.914 43.8942 117.745 43.1104 117.558 42.3411C117.375 41.5718 117.207 40.7881 117.053 39.9899C116.962 39.6533 116.731 39.4802 116.361 39.4802C115.562 39.4802 114.716 39.4898 113.827 39.5043C112.937 39.5187 112.076 39.5283 111.245 39.5283C111.12 39.5283 110.999 39.5812 110.874 39.6918C110.749 39.7976 110.658 39.913 110.595 40.038C110.533 40.1918 110.451 40.4611 110.341 40.8458C110.235 41.2304 110.124 41.6295 110.018 42.043C109.913 42.4565 109.817 42.8364 109.74 43.173C109.663 43.5095 109.61 43.7115 109.576 43.774C109.331 44.3894 109.047 44.7741 108.725 44.928C108.403 45.0818 107.932 45.0963 107.321 44.9761C107.013 44.9135 106.715 44.8703 106.422 44.8366C106.129 44.8078 105.83 44.7597 105.523 44.6972C104.816 44.6058 104.556 44.2356 104.739 43.5913C104.768 43.4663 104.883 43.0143 105.085 42.2305C105.287 41.4468 105.547 40.4467 105.869 39.235C106.191 38.0233 106.547 36.653 106.932 35.1335C107.316 33.6141 107.715 32.0515 108.129 30.4551C108.542 28.8588 108.961 27.2817 109.374 25.7286C109.788 24.1755 110.158 22.7571 110.48 21.4637C110.802 20.1751 111.081 19.0836 111.307 18.1941C111.538 17.3045 111.682 16.7179 111.745 16.4438H111.759ZM113.788 26.1229C113.634 26.6758 113.48 27.3201 113.327 28.0606C113.173 28.7963 113.019 29.5608 112.865 30.3397C112.711 31.1235 112.557 31.8928 112.403 32.6429C112.25 33.393 112.096 34.0469 111.942 34.5998C111.85 34.9701 111.971 35.1528 112.312 35.1528C112.745 35.1528 113.216 35.1432 113.74 35.1287C114.264 35.1143 114.74 35.0903 115.168 35.0614C115.601 35.0614 115.846 34.9989 115.909 34.8787C115.971 34.7537 115.971 34.494 115.909 34.095C115.817 33.7247 115.726 33.2679 115.63 32.7102C115.538 32.1572 115.447 31.5802 115.351 30.984C115.259 30.383 115.168 29.8108 115.072 29.253C114.981 28.7001 114.904 28.2385 114.841 27.8683C114.687 27.0989 114.548 26.546 114.428 26.2094C114.303 25.8728 114.206 25.6661 114.13 25.5892C114.053 25.5122 113.985 25.5411 113.923 25.6805C113.86 25.82 113.817 25.9642 113.783 26.1181L113.788 26.1229ZM96.2765 21.6512C96.2765 21.1896 96.0745 20.9588 95.6755 20.9588C95.0312 21.0213 94.3291 21.0261 93.5791 20.9828C92.8242 20.9348 92.127 20.9444 91.4827 21.0069C91.4202 21.0069 91.3432 21.0742 91.2519 21.2136C91.1605 21.3531 91.1124 21.4685 91.1124 21.5598C91.1124 21.8051 91.1124 22.5119 91.1124 23.6803C91.1124 24.8487 91.1124 26.2479 91.1124 27.8731C91.1124 29.5031 91.1028 31.2389 91.0884 33.0804C91.074 34.922 91.0643 36.6433 91.0643 38.2445C91.0643 39.8408 91.0547 41.192 91.0403 42.3027C91.0259 43.4086 91.0163 44.024 91.0163 44.1442C90.9874 44.2356 90.9393 44.3366 90.8768 44.4423C90.8143 44.5481 90.7374 44.6347 90.646 44.6972C89.569 45.0963 88.4486 45.202 87.2802 45.0193C86.6936 44.928 86.4051 44.5433 86.4051 43.8653C86.4051 43.6826 86.4051 42.9902 86.4051 41.793C86.4051 40.5957 86.4148 39.1292 86.4292 37.3934C86.4436 35.6576 86.458 33.768 86.4773 31.7245C86.4917 29.681 86.5013 27.7384 86.5013 25.8921C86.5013 24.0505 86.4917 22.4205 86.4773 21.0069C86.4628 19.5933 86.4532 18.6412 86.4532 18.1508C86.4532 18.0594 86.4436 17.9056 86.4292 17.6892C86.4148 17.4728 86.4196 17.2516 86.4532 17.0208C86.4821 16.79 86.5446 16.5881 86.6359 16.4198C86.7273 16.2515 86.8956 16.165 87.1408 16.165C87.2658 16.165 87.6697 16.1554 88.3621 16.1409C89.0545 16.1265 89.8815 16.1169 90.8528 16.1169C91.8192 16.1169 92.8578 16.1073 93.9637 16.0928C95.0696 16.0784 96.1082 16.064 97.0747 16.0448C98.0411 16.0303 98.8729 16.0207 99.5653 16.0207C100.258 16.0207 100.681 16.0207 100.835 16.0207C101.017 16.0496 101.142 16.2227 101.205 16.5304C101.267 16.8381 101.296 17.0208 101.296 17.0833C101.296 17.2997 101.287 17.8142 101.272 18.6268C101.258 19.4394 101.248 20.4491 101.248 21.6464C101.248 22.8436 101.248 24.19 101.248 25.6805C101.248 27.1711 101.248 28.6905 101.248 30.2435C101.248 31.7966 101.248 33.3304 101.248 34.8499C101.248 36.3693 101.239 37.7781 101.224 39.0667C101.21 40.3553 101.2 41.4612 101.2 42.3844C101.2 43.3076 101.2 43.9519 101.2 44.3221C101.2 44.8751 101.109 45.2357 100.921 45.404C100.739 45.5723 100.368 45.6252 99.8154 45.5675C99.4163 45.5675 98.998 45.5675 98.57 45.5675C98.1373 45.5675 97.7238 45.553 97.3247 45.5194C96.8968 45.4569 96.6035 45.3415 96.4496 45.1732C96.2957 45.0049 96.2188 44.702 96.2188 44.274C96.2188 44.0577 96.2188 43.4134 96.2188 42.3363C96.2188 41.2593 96.2188 39.961 96.2188 38.4416C96.2188 36.9222 96.2188 35.2826 96.2188 33.5324C96.2188 31.7822 96.2188 30.1041 96.2188 28.5078C96.2188 26.9114 96.2284 25.4882 96.2428 24.2428C96.2573 22.9975 96.2669 22.132 96.2669 21.6368L96.2765 21.6512ZM66.4124 30.8686C66.1672 30.4359 65.845 30.0705 65.4459 29.7627C65.0469 29.455 64.5853 29.2723 64.0612 29.2098C63.6284 29.1809 63.2149 29.1809 62.8158 29.2098C62.4167 29.2386 62.0032 29.2723 61.5705 29.3011C61.1714 29.3011 60.9694 29.5175 60.9694 29.9454C60.9983 30.4695 61.0223 30.9888 61.0368 31.5129C61.0512 32.037 61.0752 32.5563 61.1041 33.0804C61.1041 34.3113 61.1041 35.5374 61.1041 36.7684C61.1041 37.9993 61.0897 39.2254 61.056 40.4563C61.056 40.9179 61.2868 41.1343 61.7484 41.1006C62.21 41.0717 62.6716 41.0717 63.1332 41.1006C63.5948 41.1294 64.0564 41.1294 64.5179 41.1006C65.1334 41.0381 65.6623 40.7929 66.1095 40.3649C66.5566 39.9322 66.8548 39.4273 67.0086 38.8455C67.0711 38.5666 67.1529 38.1243 67.2635 37.5088C67.3692 36.8934 67.4318 36.201 67.4462 35.4317C67.4606 34.6623 67.3981 33.8738 67.2635 33.0564C67.124 32.2438 66.8403 31.5129 66.4124 30.8686ZM62.4937 19.5788C62.2484 19.6077 62.0273 19.6269 61.8253 19.6269C61.6234 19.6269 61.4022 19.6558 61.157 19.7183C61.0656 19.7471 60.9743 19.8192 60.8781 19.925C60.7867 20.0308 60.7386 20.1318 60.7386 20.2231C60.7675 20.8674 60.7771 21.5069 60.7627 22.1368C60.7483 22.7667 60.7723 23.4062 60.83 24.0505C60.83 24.4785 61.0464 24.666 61.4743 24.6035C61.782 24.5746 62.0802 24.565 62.3735 24.5794C62.6668 24.5938 62.9504 24.5698 63.2245 24.5121C63.84 24.3582 64.3064 24.1274 64.6285 23.8197C64.9507 23.512 65.1574 23.161 65.2488 22.7619C65.3402 22.3628 65.3257 21.9493 65.2007 21.5166C65.0757 21.0886 64.8786 20.6559 64.5997 20.2279C64.3256 19.8289 63.9842 19.6365 63.5851 19.651C63.1861 19.6654 62.8158 19.6413 62.4792 19.5836L62.4937 19.5788Z" fill="#FEFEFE"/>
</svg>
