<svg width="201" height="64" viewBox="0 0 201 64" fill="none" xmlns="http://www.w3.org/2000/svg">
<path d="M57.3399 15.8425C57.3399 15.7797 57.4027 15.7024 57.5284 15.6106C57.654 15.5139 57.7603 15.4559 57.857 15.4221C59.012 15.3593 60.1526 15.3448 61.2738 15.3738C62.3998 15.4076 63.5356 15.4221 64.6906 15.4221C65.5653 15.4221 66.3772 15.5332 67.1263 15.7507C67.8754 15.9682 68.5617 16.4225 69.1851 17.1087C69.7457 17.6403 70.1613 18.2493 70.4271 18.9355C70.6929 19.6218 70.8718 20.2984 70.9636 20.9702C71.0554 21.6419 71.0892 22.275 71.0554 22.8646C71.0264 23.459 70.9781 23.9278 70.9153 24.271C70.8524 24.5513 70.7654 24.8171 70.6591 25.0684C70.5528 25.3197 70.432 25.5662 70.3063 25.8175C70.2435 25.9431 70.1662 26.0446 70.0743 26.1219C69.9825 26.1993 69.9245 26.2717 69.91 26.3346C69.8955 26.3974 69.9245 26.4844 70.0019 26.5907C70.0792 26.7019 70.258 26.8468 70.5383 27.0353C70.7896 27.2238 71.0554 27.5041 71.3357 27.8762C71.616 28.2532 71.8673 28.6736 72.0848 29.1424C72.3023 29.6112 72.4907 30.1042 72.6454 30.6164C72.8 31.1335 72.8967 31.6217 72.9257 32.0904C73.0175 33.2745 73.09 34.4537 73.1383 35.6232C73.1867 36.7928 73.1915 37.972 73.1625 39.156C73.1625 41.3743 72.3216 43.2446 70.6349 44.7766C70.1372 45.2115 69.5862 45.5401 68.9966 45.7576C68.4022 45.9751 67.7933 46.1153 67.1698 46.1781C66.8895 46.2071 66.2806 46.2506 65.343 46.2941C64.4055 46.3424 63.4244 46.3907 62.395 46.4342C61.3656 46.4825 60.4232 46.5067 59.563 46.5067C58.7027 46.5067 58.1808 46.4777 57.9923 46.4101C57.8377 46.3472 57.712 46.2167 57.6154 46.0138C57.5235 45.8108 57.4462 45.632 57.3834 45.4773C57.3834 45.4483 57.3737 45.0085 57.3592 44.1676C57.3447 43.3219 57.3254 42.2248 57.3109 40.8668C57.2964 39.5088 57.2819 37.972 57.2626 36.2563C57.2481 34.5407 57.2384 32.7767 57.2384 30.9644C57.2384 29.1521 57.2384 27.3736 57.2384 25.629C57.2384 23.8795 57.2384 22.304 57.2384 20.9025C57.2384 19.4961 57.2481 18.3411 57.2626 17.4374C57.2771 16.5336 57.3012 16.002 57.3351 15.8474L57.3399 15.8425ZM64.0527 56.7523V54.157C64.0527 53.7269 63.8352 53.5094 63.4051 53.5094H59.8385C59.4083 53.5094 59.1909 53.7269 59.1909 54.157V56.7523H64.0527ZM64.6954 56.7523C65.1304 56.7523 65.343 56.9649 65.3479 57.395V58.0426C65.3479 58.2601 65.2415 58.3664 65.0192 58.3664C64.8066 58.3664 64.7003 58.2601 64.7003 58.0426V57.395H58.5433V58.0426C58.5433 58.2601 58.4321 58.3664 58.2195 58.3664C58.002 58.3664 57.8957 58.2601 57.8957 58.0426V57.3999C57.8957 56.9649 58.1131 56.7523 58.5433 56.7523V54.157C58.5433 53.292 58.9782 52.8619 59.8385 52.8619H63.4051C64.2701 52.8619 64.7003 53.292 64.7003 54.157L64.6954 56.7523ZM73.3752 56.0998C73.3752 56.9649 72.945 57.395 72.08 57.395H68.5133C67.6483 57.395 67.2182 56.9649 67.2182 56.0998V54.157C67.2182 53.292 67.6531 52.8619 68.5133 52.8619H72.08C72.945 52.8619 73.3752 53.292 73.3752 54.157V56.0998ZM72.7276 56.0998L72.7324 54.157C72.7324 53.7269 72.5149 53.5094 72.08 53.5094H68.5133C68.0832 53.5094 67.8657 53.7269 67.8657 54.157V56.0998C67.8706 56.53 68.0832 56.7474 68.5133 56.7474H72.08C72.5101 56.7474 72.7276 56.53 72.7276 56.0998ZM81.4024 57.395H76.5406C75.6804 57.395 75.2454 56.9649 75.2454 56.0998V54.157C75.2454 53.292 75.6804 52.8619 76.5406 52.8619H81.4024V53.5094H76.5406C76.1105 53.5094 75.893 53.7269 75.8979 54.157L75.893 56.0998C75.893 56.53 76.1105 56.7474 76.5406 56.7474H81.4024V57.395ZM83.2776 53.5046L83.2727 52.857H89.4297V53.5046H86.6799V57.395H86.0274V53.5046H83.2776ZM93.1268 55.776H95.6302L94.3785 53.7801L93.1268 55.776ZM96.0362 56.4236H92.7161L92.1071 57.395H91.2952L94.1321 52.857H94.6202L97.457 57.395H96.6451L96.0362 56.4236ZM99.9701 55.4522V56.0998C99.9701 56.53 100.188 56.7474 100.618 56.7474H104.184C104.614 56.7474 104.832 56.53 104.832 56.0998C104.832 55.6697 104.614 55.4522 104.184 55.4522H99.9701ZM105.479 56.0998C105.479 56.9649 105.049 57.395 104.184 57.395H100.618C99.7526 57.395 99.3225 56.9649 99.3225 56.0998V54.157C99.3225 53.292 99.7575 52.8619 100.618 52.8619H104.184C105.049 52.8619 105.479 53.292 105.479 54.157C105.475 54.5872 105.368 54.9158 105.151 55.1284C105.368 55.3459 105.475 55.6697 105.479 56.0998ZM104.832 54.157C104.832 53.7269 104.614 53.5094 104.184 53.5094H100.618C100.188 53.5094 99.9701 53.7269 99.9701 54.157V54.8046H104.184C104.61 54.8046 104.827 54.5872 104.832 54.157ZM107.997 55.4571V57.3999H107.35V52.8619H107.997V54.8046H111.888C112.313 54.8046 112.637 54.5872 112.859 54.157V52.8619H113.507V54.157C113.502 54.5872 113.284 54.9158 112.854 55.1284C113.284 55.3459 113.502 55.6697 113.507 56.0998V57.395H112.859V56.0998C112.642 55.6697 112.318 55.4522 111.888 55.4522L107.997 55.4571ZM117.204 55.776H119.707L118.456 53.7801L117.204 55.776ZM120.113 56.4236H116.793L116.184 57.395H115.372L118.209 52.857H118.697L121.534 57.395H120.722L120.113 56.4236ZM134.177 57.395V54.1522C134.177 53.7221 133.959 53.5046 133.529 53.5046H129.963C129.532 53.5046 129.315 53.7221 129.315 54.1522V57.395H128.667V54.1522C128.667 53.2871 129.102 52.857 129.963 52.857H133.529C134.394 52.857 134.824 53.2871 134.824 54.1522L134.819 57.395H134.177ZM137.342 54.8046H141.556C141.987 54.8046 142.204 54.5872 142.204 54.157H142.209C142.209 53.7269 141.991 53.5094 141.556 53.5094H137.342V54.8046ZM137.342 55.4522V57.395H136.695V52.857H141.556C142.421 52.857 142.852 53.2871 142.852 54.1522C142.852 55.0173 142.421 55.4474 141.556 55.4474H137.342V55.4522ZM150.879 56.0998C150.879 56.9649 150.449 57.395 149.584 57.395H146.017C145.152 57.395 144.722 56.9649 144.722 56.0998V54.157C144.722 53.292 145.157 52.8619 146.017 52.8619H149.584C150.449 52.8619 150.879 53.292 150.879 54.157V56.0998ZM150.231 56.0998L150.236 54.157C150.236 53.7269 150.019 53.5094 149.584 53.5094H146.017C145.587 53.5094 145.369 53.7269 145.369 54.157V56.0998C145.374 56.53 145.587 56.7474 146.017 56.7474H149.584C150.014 56.7474 150.231 56.53 150.231 56.0998ZM158.906 56.7523V54.157C158.906 53.7269 158.689 53.5094 158.259 53.5094H154.692C154.262 53.5094 154.044 53.7269 154.044 54.157V56.7523H158.906ZM159.549 56.7523C159.984 56.7523 160.197 56.9649 160.201 57.395V58.0426C160.201 58.2601 160.095 58.3664 159.873 58.3664C159.66 58.3664 159.554 58.2601 159.554 58.0426V57.395H153.397V58.0426C153.397 58.2601 153.286 58.3664 153.073 58.3664C152.856 58.3664 152.749 58.2601 152.749 58.0426V57.3999C152.749 56.9649 152.967 56.7523 153.397 56.7523V54.157C153.397 53.292 153.832 52.8619 154.692 52.8619H158.259C159.124 52.8619 159.554 53.292 159.554 54.157L159.549 56.7523ZM167.581 55.3411C167.402 55.4136 167.185 55.4522 166.933 55.4522H163.367C162.502 55.4522 162.072 55.0221 162.072 54.157V52.8619H162.719V54.157C162.724 54.5872 162.937 54.8046 163.367 54.8046H166.933C167.364 54.8046 167.581 54.5872 167.581 54.157V52.8619H168.224L168.229 56.1047C168.229 56.9697 167.799 57.3999 166.933 57.3999H162.072V56.7523H166.933C167.364 56.7523 167.581 56.5348 167.581 56.1047V55.3459V55.3411ZM170.747 55.4522V57.395H170.099V52.857H170.747V54.7998H174.637C175.062 54.7998 175.386 54.5823 175.608 54.1522V52.857H176.256V54.1522C176.251 54.5823 176.034 54.911 175.604 55.1236C176.034 55.3411 176.251 55.6649 176.256 56.095V57.3902H175.608V56.095C175.391 55.6649 175.067 55.4474 174.637 55.4474L170.747 55.4522ZM178.126 53.5046L178.121 52.857H184.278V53.5046H181.529V57.395H180.876V53.5046H178.126ZM192.306 56.095C192.306 56.9601 191.876 57.3902 191.011 57.3902H187.444C186.579 57.3902 186.149 56.9601 186.149 56.095V54.1522C186.149 53.2871 186.584 52.857 187.444 52.857H191.011C191.876 52.857 192.306 53.2871 192.306 54.1522V56.095ZM191.658 56.095L191.663 54.1522C191.663 53.7221 191.445 53.5046 191.011 53.5046H187.444C187.014 53.5046 186.796 53.7221 186.796 54.1522V56.095C186.801 56.5251 187.014 56.7426 187.444 56.7426H191.011C191.441 56.7426 191.658 56.5251 191.658 56.095ZM194.824 55.4474V56.095C194.824 56.5251 195.041 56.7426 195.471 56.7426H199.038C199.468 56.7426 199.685 56.5251 199.685 56.095C199.685 55.6649 199.468 55.4474 199.038 55.4474H194.824ZM200.333 56.095C200.333 56.9601 199.903 57.3902 199.038 57.3902H195.471C194.606 57.3902 194.176 56.9601 194.176 56.095V54.1522C194.176 53.2871 194.611 52.857 195.471 52.857H199.038C199.903 52.857 200.333 53.2871 200.333 54.1522C200.328 54.5823 200.222 54.911 200.004 55.1236C200.222 55.3411 200.328 55.6649 200.333 56.095ZM199.685 54.1522C199.685 53.7221 199.468 53.5046 199.038 53.5046H195.471C195.041 53.5046 194.824 53.7221 194.824 54.1522V54.7998H199.038C199.463 54.7998 199.681 54.5823 199.685 54.1522ZM67.3196 31.38C67.0683 30.9451 66.7445 30.5681 66.3386 30.2588C65.9326 29.9447 65.4638 29.761 64.9371 29.6982C64.5021 29.6692 64.0768 29.6692 63.6709 29.6982C63.2649 29.7272 62.8445 29.761 62.4047 29.79C61.9987 29.79 61.7957 30.0075 61.7957 30.4473C61.8247 30.9789 61.8489 31.5105 61.8634 32.0373C61.8779 32.5689 61.9021 33.1005 61.9359 33.6273C61.9359 34.8741 61.9359 36.1258 61.9359 37.3727C61.9359 38.6196 61.9214 39.8713 61.8876 41.1181C61.8876 41.5869 62.1195 41.8044 62.5883 41.7754C63.0571 41.7464 63.5259 41.7464 63.9898 41.7754C64.4586 41.8044 64.9274 41.8044 65.3962 41.7754C66.0196 41.7126 66.5609 41.4613 67.0103 41.0263C67.4646 40.5914 67.7691 40.0742 67.9237 39.4798C67.9866 39.1995 68.0736 38.7452 68.1799 38.1218C68.291 37.4984 68.3539 36.7976 68.3684 36.0147C68.3829 35.2366 68.32 34.4295 68.1799 33.6031C68.0397 32.7767 67.7498 32.0325 67.3148 31.38H67.3196ZM63.3422 19.9118C63.0909 19.9408 62.8686 19.9601 62.6656 19.9601C62.4627 19.9601 62.2355 19.9939 61.9842 20.0568C61.8924 20.0857 61.7957 20.1582 61.7039 20.2694C61.6073 20.3805 61.5638 20.482 61.5638 20.5739C61.5928 21.2263 61.6024 21.8787 61.5879 22.5166C61.5734 23.1546 61.5976 23.8022 61.6556 24.4594C61.6556 24.8944 61.8731 25.0829 62.3129 25.02C62.627 24.991 62.9266 24.9814 63.2263 24.9959C63.5211 25.0104 63.811 24.9862 64.0913 24.9282C64.7148 24.7736 65.1932 24.5368 65.5218 24.2275C65.8505 23.9133 66.0583 23.5557 66.1549 23.1497C66.2468 22.7438 66.2323 22.3233 66.1066 21.8836C65.9809 21.4486 65.778 21.0088 65.4977 20.5739C65.2174 20.1679 64.8742 19.9746 64.4683 19.9891C64.0623 20.0036 63.6902 19.9794 63.3422 19.9214V19.9118ZM97.66 22.0189C97.66 21.5501 97.457 21.3181 97.0511 21.3181C96.3938 21.3809 95.6834 21.3858 94.9198 21.3423C94.1562 21.2939 93.4458 21.3036 92.7885 21.3664C92.7257 21.3664 92.6484 21.4389 92.5566 21.5791C92.4647 21.7192 92.4164 21.8352 92.4164 21.9319C92.4164 22.1832 92.4164 22.8984 92.4164 24.0825C92.4164 25.2665 92.4164 26.6874 92.4164 28.345C92.4164 29.9978 92.4067 31.7618 92.3922 33.6369C92.3777 35.5121 92.3681 37.2567 92.3681 38.8805C92.3681 40.5044 92.3584 41.8769 92.3439 43.0029C92.3294 44.129 92.3198 44.7524 92.3198 44.8781C92.2908 44.9699 92.2424 45.0714 92.1796 45.1825C92.1168 45.2937 92.0395 45.3758 91.9476 45.4387C90.8554 45.8446 89.7149 45.9558 88.5308 45.7673C87.9364 45.6755 87.6416 45.284 87.6416 44.5978C87.6416 44.4093 87.6416 43.7085 87.6416 42.4906C87.6416 41.2728 87.6513 39.7843 87.6658 38.0203C87.6803 36.2563 87.6948 34.3377 87.7141 32.2644C87.7286 30.1911 87.7383 28.2145 87.7383 26.3394C87.7383 24.4643 87.7286 22.8115 87.7141 21.3761C87.6996 19.9408 87.6899 18.9742 87.6899 18.4716C87.6899 18.3749 87.6803 18.2203 87.6658 18.0028C87.6513 17.7853 87.6561 17.5582 87.6899 17.3262C87.7189 17.0942 87.7817 16.8913 87.8784 16.7173C87.9751 16.5433 88.1442 16.4611 88.3955 16.4611C88.5212 16.4611 88.932 16.4515 89.6375 16.437C90.3383 16.4225 91.1841 16.4128 92.1651 16.4128C93.1462 16.4128 94.1997 16.4031 95.3258 16.3886C96.447 16.3742 97.5005 16.3597 98.4864 16.3403C99.4675 16.3258 100.313 16.3162 101.014 16.3162C101.715 16.3162 102.145 16.3162 102.3 16.3162C102.488 16.3452 102.614 16.5191 102.676 16.8333C102.739 17.1474 102.773 17.331 102.773 17.3939C102.773 17.6114 102.763 18.1333 102.749 18.9645C102.734 19.7909 102.725 20.8155 102.725 22.0285C102.725 23.2464 102.725 24.6093 102.725 26.1268C102.725 27.6394 102.725 29.1859 102.725 30.7614C102.725 32.3369 102.725 33.8979 102.725 35.4444C102.725 36.9909 102.715 38.4166 102.701 39.7263C102.686 41.036 102.676 42.162 102.676 43.0996C102.676 44.0371 102.676 44.6896 102.676 45.0665C102.676 45.6271 102.585 45.9944 102.396 46.1684C102.208 46.3424 101.836 46.3956 101.27 46.3327C100.864 46.3327 100.444 46.3327 100.004 46.3327C99.569 46.3327 99.1437 46.3182 98.7377 46.2844C98.3028 46.2216 98.0031 46.1056 97.8485 45.9316C97.6938 45.7576 97.6165 45.458 97.6165 45.0182C97.6165 44.8007 97.6165 44.1435 97.6165 43.0513C97.6165 41.959 97.6165 40.6397 97.6165 39.0932C97.6165 37.5467 97.6165 35.8842 97.6165 34.1057C97.6165 32.3273 97.6165 30.6261 97.6165 29.0023C97.6165 27.3785 97.6262 25.9334 97.6407 24.6721C97.6552 23.4059 97.6648 22.5263 97.6648 22.0285L97.66 22.0189ZM113.391 16.7269C113.545 16.7269 113.874 16.7269 114.372 16.7269C114.87 16.7269 115.396 16.7366 115.943 16.7511C116.489 16.7656 116.972 16.7994 117.392 16.8478C117.813 16.8961 118.04 16.9638 118.069 17.0604C118.166 17.3117 118.311 17.8627 118.514 18.7229C118.717 19.5831 118.958 20.627 119.238 21.8594C119.519 23.0918 119.823 24.4498 120.152 25.9334C120.481 27.4171 120.814 28.9298 121.157 30.4763C121.5 32.0228 121.834 33.5355 122.162 35.0191C122.491 36.5028 122.795 37.8415 123.076 39.0449C123.356 40.2482 123.583 41.2535 123.757 42.0654C123.931 42.8773 124.047 43.3751 124.11 43.5635C124.265 44.187 124.284 44.6412 124.158 44.9215C124.033 45.2019 123.661 45.4532 123.032 45.6706C122.409 45.8881 121.771 46.0766 121.114 46.2312C120.679 46.3569 120.374 46.3569 120.2 46.2312C120.026 46.1056 119.896 45.8398 119.804 45.4338C119.649 44.6219 119.475 43.8293 119.292 43.0464C119.103 42.2683 118.934 41.4709 118.775 40.659C118.683 40.3159 118.446 40.1419 118.074 40.1419C117.262 40.1419 116.406 40.1516 115.498 40.1661C114.594 40.1806 113.719 40.1902 112.874 40.1902C112.748 40.1902 112.622 40.2434 112.497 40.3545C112.371 40.4657 112.279 40.5817 112.216 40.7073C112.154 40.862 112.067 41.1375 111.96 41.5289C111.849 41.9204 111.743 42.3263 111.632 42.7468C111.521 43.1672 111.429 43.549 111.351 43.8922C111.274 44.2353 111.216 44.4383 111.187 44.5011C110.936 45.1245 110.651 45.516 110.322 45.6706C109.993 45.8253 109.52 45.8398 108.891 45.719C108.577 45.6561 108.278 45.6078 107.978 45.5788C107.683 45.5498 107.379 45.5015 107.065 45.4387C106.345 45.3468 106.084 44.9699 106.267 44.3126C106.301 44.187 106.417 43.7278 106.62 42.9304C106.823 42.133 107.089 41.1181 107.417 39.8858C107.746 38.6534 108.104 37.2615 108.495 35.7199C108.887 34.1734 109.293 32.5882 109.713 30.9692C110.133 29.3454 110.554 27.7457 110.979 26.1703C111.4 24.5948 111.777 23.1497 112.1 21.8401C112.429 20.5304 112.709 19.4237 112.946 18.5151C113.178 17.6114 113.328 17.0169 113.391 16.7366V16.7269ZM115.45 26.5569C115.295 27.1175 115.135 27.7747 114.981 28.5238C114.826 29.2729 114.667 30.0462 114.512 30.8436C114.357 31.641 114.198 32.4191 114.043 33.1827C113.889 33.9462 113.729 34.6083 113.574 35.1738C113.478 35.5507 113.603 35.7344 113.951 35.7344C114.386 35.7344 114.874 35.7247 115.401 35.7102C115.933 35.6957 116.416 35.6716 116.851 35.6377C117.286 35.6377 117.537 35.5749 117.6 35.4492C117.663 35.3236 117.663 35.0578 117.6 34.6518C117.508 34.2749 117.412 33.8109 117.32 33.2455C117.228 32.6849 117.131 32.1001 117.04 31.4912C116.943 30.8822 116.851 30.2975 116.759 29.7369C116.667 29.1763 116.585 28.7075 116.527 28.3305C116.373 27.5524 116.232 26.987 116.107 26.6439C115.981 26.3007 115.88 26.0881 115.802 26.0108C115.725 25.9334 115.653 25.9624 115.59 26.1026C115.527 26.2427 115.483 26.3926 115.45 26.5472V26.5569ZM133.051 25.5758C133.051 25.7305 133.283 25.8078 133.751 25.8078C134.22 25.8078 134.732 25.6676 135.298 25.3873C135.859 25.107 136.376 24.6624 136.844 24.0535C137.313 23.4445 137.545 22.6278 137.545 21.5936C137.545 21.3423 137.536 20.9315 137.521 20.3516C137.507 19.7764 137.497 19.1868 137.497 18.5972C137.497 18.0028 137.497 17.4809 137.497 17.0314C137.497 16.5771 137.497 16.3355 137.497 16.3065C137.526 16.2775 137.671 16.2582 137.917 16.2582C138.169 16.2582 138.463 16.2582 138.807 16.2582C139.15 16.2582 139.507 16.2582 139.884 16.2582C140.261 16.2582 140.585 16.2582 140.87 16.2582C141.494 16.2582 141.851 16.3113 141.948 16.4225C142.04 16.5336 142.103 16.8816 142.136 17.476C142.136 17.8192 142.136 18.2734 142.136 18.8341C142.136 19.3947 142.136 19.9553 142.136 20.5207C142.136 21.0813 142.127 21.6129 142.112 22.1107C142.098 22.6085 142.088 22.9709 142.088 23.1884C142.059 23.4397 141.996 23.7587 141.9 24.1501C141.808 24.5416 141.668 24.9476 141.479 25.368C141.291 25.7885 141.049 26.2041 140.754 26.61C140.459 27.016 140.073 27.3446 139.609 27.5911C139.391 27.7168 139.295 27.8424 139.328 27.9681C139.357 28.0937 139.454 28.1855 139.609 28.2484C140.14 28.5625 140.585 28.9346 140.943 29.3744C141.3 29.8094 141.605 30.2491 141.856 30.6841C142.165 31.2447 142.373 31.8391 142.465 32.4626C142.557 33.086 142.576 33.7094 142.513 34.3377C142.513 34.618 142.513 35.0626 142.513 35.6716C142.513 36.2805 142.504 36.9764 142.489 37.7545C142.475 38.5326 142.475 39.3445 142.489 40.1902C142.504 41.0311 142.504 41.8141 142.489 42.5293C142.475 43.2494 142.465 43.8632 142.465 44.3803C142.465 44.8974 142.465 45.2164 142.465 45.342C142.465 45.4338 142.436 45.5353 142.373 45.6465C142.31 45.7528 142.247 45.8108 142.185 45.8108C141.996 45.8398 141.74 45.8591 141.411 45.8591C141.083 45.8591 140.749 45.8591 140.406 45.8591C140.063 45.8591 139.754 45.8591 139.469 45.8591C139.188 45.8591 139.034 45.8591 139 45.8591C138.72 45.8591 138.502 45.8446 138.343 45.8108C138.188 45.7818 138.077 45.7045 138.014 45.5788C137.951 45.4532 137.912 45.2647 137.898 45.0182C137.883 44.7669 137.874 44.4238 137.874 43.9888C137.874 43.52 137.864 42.8048 137.85 41.8334C137.835 40.8668 137.825 39.8278 137.825 38.7211C137.825 37.6143 137.816 36.5608 137.801 35.5604C137.787 34.56 137.763 33.7964 137.734 33.2648C137.642 32.4529 137.337 31.8053 136.82 31.322C136.303 30.8387 135.738 30.5198 135.109 30.3603C134.892 30.3313 134.655 30.283 134.409 30.2201C134.157 30.1573 133.93 30.1477 133.727 30.196C133.524 30.2443 133.36 30.3603 133.234 30.5488C133.109 30.7373 133.046 31.0321 133.046 31.438C133.046 31.873 133.036 32.4819 133.022 33.2648C133.007 34.0429 132.993 34.9128 132.973 35.8649C132.959 36.8169 132.949 37.7932 132.949 38.7935C132.949 39.7939 132.94 40.7218 132.925 41.5772C132.911 42.4375 132.901 43.1914 132.901 43.8487C132.901 44.5059 132.901 44.9409 132.901 45.1584C132.901 45.4097 132.828 45.5788 132.688 45.6755C132.548 45.7673 132.384 45.8301 132.195 45.8639C132.007 45.8639 131.722 45.8784 131.33 45.9123C130.939 45.9413 130.533 45.9606 130.112 45.9606C129.692 45.9606 129.3 45.9509 128.943 45.9364C128.585 45.9219 128.344 45.8833 128.218 45.8205C128.155 45.7915 128.116 45.7286 128.102 45.632C128.087 45.5401 128.078 45.4435 128.078 45.3517V16.9783C128.078 16.6979 128.112 16.4853 128.174 16.3452C128.237 16.205 128.426 16.1325 128.735 16.1325C129.296 16.1325 129.9 16.1228 130.538 16.1083C131.176 16.0938 131.76 16.0697 132.292 16.0359C132.761 16.0359 132.978 16.2678 132.944 16.7366C132.944 17.2054 132.944 17.882 132.944 18.7712C132.944 19.6605 132.954 20.5739 132.969 21.5114C132.983 22.449 132.998 23.3044 133.017 24.0873C133.031 24.8654 133.041 25.368 133.041 25.5855L133.051 25.5758ZM152.247 21.091C152.184 21.12 152.097 21.1925 151.99 21.3036C151.879 21.4148 151.826 21.4969 151.826 21.5598C151.826 21.8739 151.836 22.2605 151.85 22.739C151.865 23.2077 151.879 23.6814 151.899 24.1646C151.913 24.6479 151.928 25.1264 151.947 25.5951C151.961 26.0639 151.986 26.4554 152.019 26.7744C152.019 26.8372 152.073 26.9145 152.184 27.0063C152.295 27.0982 152.377 27.1465 152.44 27.1465C152.909 27.1465 153.402 27.1368 153.914 27.1223C154.426 27.1078 154.929 27.0933 155.412 27.074C155.895 27.0595 156.35 27.0498 156.77 27.0498C157.191 27.0498 157.543 27.0498 157.824 27.0498C158.384 27.0498 158.766 27.161 158.969 27.3785C159.172 27.5959 159.288 27.9246 159.322 28.3595C159.322 28.7026 159.331 29.0458 159.346 29.3889C159.36 29.732 159.356 30.0752 159.322 30.4183C159.23 31.0514 158.727 31.3945 157.824 31.4573C157.046 31.5202 156.234 31.5298 155.388 31.4815C154.542 31.4332 153.735 31.4428 152.952 31.5057C152.575 31.5347 152.353 31.6072 152.276 31.7183C152.198 31.8295 152.16 32.0711 152.16 32.4432C152.189 33.1005 152.208 33.8399 152.208 34.676C152.208 35.5024 152.208 36.3047 152.208 37.0876C152.208 37.8657 152.208 38.5471 152.208 39.1318C152.208 39.707 152.222 40.0597 152.256 40.1854C152.285 40.2772 152.358 40.3739 152.469 40.4657C152.58 40.5624 152.682 40.6059 152.773 40.6059C153.426 40.6348 154.233 40.6445 155.185 40.63C156.137 40.6155 157.065 40.6059 157.969 40.6059H161.153C161.405 40.6348 161.651 40.6445 161.903 40.63C162.154 40.6155 162.323 40.8233 162.42 41.2534C162.449 41.3791 162.473 41.6062 162.492 41.9252C162.507 42.2538 162.516 42.6018 162.516 42.9691C162.516 43.3461 162.507 43.694 162.492 44.0371C162.478 44.3803 162.468 44.6074 162.468 44.7331C162.468 44.9844 162.381 45.2115 162.212 45.4048C162.038 45.6078 161.816 45.7238 161.53 45.7576C161.342 45.7576 160.897 45.7576 160.197 45.7576C159.496 45.7576 158.674 45.7576 157.737 45.7576C156.799 45.7576 155.808 45.7576 154.764 45.7576C153.716 45.7576 152.749 45.7576 151.86 45.7576C150.971 45.7576 150.212 45.7576 149.589 45.7576C148.965 45.7576 148.622 45.7576 148.559 45.7576C148.245 45.7576 147.989 45.6465 147.786 45.429C147.583 45.2115 147.467 44.9457 147.433 44.6316C147.404 44.2546 147.385 43.3509 147.385 41.9155C147.385 40.4802 147.375 38.7935 147.361 36.8604C147.346 34.9273 147.336 32.8589 147.336 30.6551C147.336 28.4562 147.336 26.4022 147.336 24.4981C147.336 22.594 147.327 20.9653 147.312 19.6073C147.298 18.2493 147.288 17.447 147.288 17.1957C147.288 16.6351 147.539 16.3548 148.037 16.3548C148.414 16.3548 149.139 16.3548 150.212 16.3548C151.29 16.3548 152.469 16.3452 153.745 16.3307C155.025 16.3162 156.272 16.3017 157.49 16.2823C158.708 16.2678 159.641 16.2582 160.298 16.2582C161.579 16.1953 162.125 16.8043 161.936 18.085C161.874 18.3411 161.845 18.5972 161.845 18.863C161.845 19.1289 161.845 19.385 161.845 19.6363C161.874 19.9504 161.782 20.2211 161.564 20.4579C161.347 20.6898 161.066 20.8107 160.723 20.8107C160.661 20.8107 160.419 20.8203 159.998 20.8348C159.578 20.8493 159.071 20.8638 158.476 20.8832C157.882 20.8977 157.234 20.9122 156.533 20.9315C155.833 20.946 155.185 20.9605 154.59 20.9798C153.996 20.9943 153.484 21.0185 153.044 21.0475C152.609 21.0765 152.343 21.0958 152.247 21.0958V21.091ZM165.59 16.118C165.716 16.089 166.16 16.0649 166.924 16.0504C167.687 16.0359 168.601 16.0262 169.664 16.0262C170.727 16.0262 171.858 16.0165 173.057 16.002C174.26 15.9875 175.391 15.9779 176.449 15.9779C177.512 15.9779 178.416 15.9875 179.165 16.002C179.914 16.0165 180.349 16.0262 180.475 16.0262C180.881 16.0552 181.156 16.1422 181.297 16.2823C181.437 16.4225 181.49 16.6979 181.461 17.0991C181.432 17.505 181.432 17.9013 181.461 18.2928C181.495 18.6842 181.475 19.0805 181.413 19.4865C181.287 20.2984 180.775 20.7043 179.866 20.7043C179.243 20.6754 178.643 20.6802 178.063 20.7285C177.488 20.7768 176.884 20.801 176.261 20.801C175.918 20.801 175.763 20.975 175.792 21.3181C175.792 21.7241 175.792 22.565 175.792 23.8457C175.792 25.1264 175.792 26.6149 175.792 28.316C175.792 30.0172 175.792 31.8198 175.792 33.7239C175.792 35.6281 175.792 37.3969 175.792 39.0352C175.792 40.6735 175.792 42.0702 175.792 43.2252C175.792 44.3803 175.792 45.0665 175.792 45.284C175.792 45.6271 175.618 45.7963 175.275 45.7963C174.743 45.8253 174.221 45.8349 173.709 45.8205C173.192 45.806 172.67 45.8108 172.143 45.8446C171.423 45.9074 171.066 45.5643 171.066 44.8152C171.037 44.0951 171.012 43.0368 170.998 41.6304C170.983 40.2241 170.969 38.6824 170.95 36.9957C170.935 35.3091 170.925 33.5934 170.925 31.844C170.925 30.0945 170.916 28.4948 170.901 27.045C170.887 25.5951 170.877 24.4063 170.877 23.488C170.877 22.565 170.877 22.1059 170.877 22.1059C170.877 21.8256 170.863 21.5743 170.829 21.3568C170.8 21.1683 170.761 20.9991 170.713 20.8397C170.664 20.685 170.597 20.6077 170.5 20.6077C170.403 20.6077 170.167 20.6174 169.775 20.6319C169.384 20.6464 168.939 20.656 168.441 20.656C167.944 20.656 167.436 20.656 166.919 20.656C166.402 20.656 165.991 20.656 165.677 20.656C165.614 20.656 165.542 20.5835 165.464 20.4434C165.387 20.3032 165.348 20.2017 165.348 20.1389C165.348 19.9214 165.339 19.6073 165.324 19.2013C165.31 18.7954 165.3 18.3798 165.3 17.9593C165.3 17.5389 165.324 17.1474 165.368 16.7898C165.416 16.4321 165.484 16.205 165.58 16.1083L165.59 16.118ZM190.73 21.091C190.667 21.12 190.58 21.1925 190.474 21.3036C190.363 21.4148 190.31 21.4969 190.31 21.5598C190.31 21.8739 190.319 22.2605 190.334 22.739C190.348 23.2077 190.363 23.6814 190.382 24.1646C190.397 24.6479 190.411 25.1264 190.431 25.5951C190.445 26.0639 190.469 26.4554 190.503 26.7744C190.503 26.8372 190.556 26.9145 190.667 27.0063C190.779 27.0982 190.861 27.1465 190.924 27.1465C191.392 27.1465 191.885 27.1368 192.398 27.1223C192.91 27.1078 193.412 27.0933 193.896 27.074C194.379 27.0595 194.833 27.0498 195.254 27.0498C195.674 27.0498 196.027 27.0498 196.307 27.0498C196.868 27.0498 197.25 27.161 197.453 27.3785C197.656 27.5959 197.772 27.9246 197.805 28.3595C197.805 28.7026 197.815 29.0458 197.83 29.3889C197.844 29.732 197.839 30.0752 197.805 30.4183C197.714 31.0514 197.211 31.3945 196.307 31.4573C195.529 31.5202 194.717 31.5298 193.872 31.4815C193.026 31.4332 192.219 31.4428 191.436 31.5057C191.059 31.5347 190.837 31.6072 190.759 31.7183C190.682 31.8295 190.643 32.0711 190.643 32.4432C190.672 33.1005 190.692 33.8399 190.692 34.676C190.692 35.5024 190.692 36.3047 190.692 37.0876C190.692 37.8657 190.692 38.5471 190.692 39.1318C190.692 39.707 190.706 40.0597 190.74 40.1854C190.769 40.2772 190.841 40.3739 190.953 40.4657C191.064 40.5624 191.165 40.6059 191.257 40.6059C191.909 40.6348 192.717 40.6445 193.669 40.63C194.621 40.6155 195.549 40.6059 196.452 40.6059H199.637C199.888 40.6348 200.135 40.6445 200.386 40.63C200.637 40.6155 200.807 40.8233 200.903 41.2534C200.932 41.3791 200.956 41.6062 200.976 41.9252C200.99 42.2538 201 42.6018 201 42.9691C201 43.3461 200.99 43.694 200.976 44.0371C200.961 44.3803 200.952 44.6074 200.952 44.7331C200.952 44.9844 200.865 45.2115 200.695 45.4048C200.521 45.6078 200.299 45.7238 200.014 45.7576C199.826 45.7576 199.381 45.7576 198.68 45.7576C197.979 45.7576 197.158 45.7576 196.22 45.7576C195.283 45.7576 194.292 45.7576 193.248 45.7576C192.199 45.7576 191.233 45.7576 190.344 45.7576C189.454 45.7576 188.696 45.7576 188.072 45.7576C187.449 45.7576 187.106 45.7576 187.043 45.7576C186.729 45.7576 186.473 45.6465 186.27 45.429C186.067 45.2115 185.951 44.9457 185.917 44.6316C185.888 44.2546 185.868 43.3509 185.868 41.9155C185.868 40.4802 185.859 38.7935 185.844 36.8604C185.83 34.9273 185.82 32.8589 185.82 30.6551C185.82 28.4562 185.82 26.4022 185.82 24.4981C185.82 22.594 185.81 20.9653 185.796 19.6073C185.781 18.2493 185.772 17.447 185.772 17.1957C185.772 16.6351 186.023 16.3548 186.521 16.3548C186.898 16.3548 187.623 16.3548 188.696 16.3548C189.773 16.3548 190.953 16.3452 192.228 16.3307C193.509 16.3162 194.756 16.3017 195.974 16.2823C197.192 16.2678 198.124 16.2582 198.782 16.2582C200.062 16.1953 200.608 16.8043 200.42 18.085C200.357 18.3411 200.328 18.5972 200.328 18.863C200.328 19.1289 200.328 19.385 200.328 19.6363C200.357 19.9504 200.265 20.2211 200.048 20.4579C199.83 20.6898 199.55 20.8107 199.207 20.8107C199.144 20.8107 198.903 20.8203 198.482 20.8348C198.062 20.8493 197.554 20.8638 196.96 20.8832C196.365 20.8977 195.718 20.9122 195.017 20.9315C194.316 20.946 193.669 20.9605 193.074 20.9798C192.48 20.9943 191.967 21.0185 191.528 21.0475C191.093 21.0765 190.827 21.0958 190.73 21.0958V21.091Z" fill="black"/>
<path fill-rule="evenodd" clip-rule="evenodd" d="M13.5742 19.5492C13.5839 20.0277 16.2226 31.2591 16.4304 32.2982L17.455 39.0496C17.5758 40.0113 18.3104 45.4337 18.523 45.859L38.5695 42.1136C38.6372 41.7173 35.9791 31.6409 35.4234 29.4613L35.2301 28.8041C35.1334 28.5769 35.1914 28.6881 35.1044 28.5672C34.9739 29.0892 34.6936 30.3651 34.3263 30.5535C33.9252 30.7565 33.4564 30.6067 33.3211 30.2539C33.1616 29.8576 33.3501 29.5145 33.4661 29.1279C35.1431 23.7054 34.6743 25.3003 34.5341 19.3173C34.4423 15.3012 35.0416 16.0213 32.6832 16.3741C26.2652 17.3261 19.8327 18.689 13.5694 19.5541L13.5742 19.5492ZM9.90131 47.5699L12.3515 47.0624C12.4627 46.4776 11.8538 41.6545 11.7329 40.7266C11.4575 38.6437 11.3511 36.4834 11.0274 34.4101C10.7181 32.4383 10.2203 30.4955 9.83365 28.5431C9.45186 26.5906 9.04107 24.6092 8.61578 22.6422L5.54211 22.0671C5.58078 22.6084 8.33548 33.2551 8.52879 33.9945C8.93958 35.5797 9.55818 46.0427 9.89647 47.565L9.90131 47.5699ZM10.0415 22.2266C10.0898 22.9564 11.0032 26.9869 11.2158 28.0888C11.6073 30.0896 12.0809 31.984 12.4144 33.9655L13.8207 46.6999C14.2847 46.7096 16.7784 46.2457 17.0394 46.0813C15.9375 38.576 15.43 33.748 13.6564 26.5955C13.4003 25.5612 13.1635 24.4835 12.946 23.4541C12.83 22.9032 12.3902 20.7478 12.2017 20.3805C11.5831 20.7236 10.805 21.6273 10.0366 22.2266H10.0415Z" fill="#41AB3C"/>
<path d="M22.4859 63.01C31.8838 63.01 39.5022 62.5124 39.5022 61.8985C39.5022 61.2846 31.8838 60.7869 22.4859 60.7869C13.0881 60.7869 5.4696 61.2846 5.4696 61.8985C5.4696 62.5124 13.0881 63.01 22.4859 63.01Z" fill="#D9DADA"/>
<path fill-rule="evenodd" clip-rule="evenodd" d="M10.0461 22.2216C10.8145 21.6271 11.5974 20.7185 12.2112 20.3754C12.3997 20.7427 12.8394 22.8981 12.9554 23.4491C13.1729 24.4736 13.4097 25.5562 13.6659 26.5856C15.4347 33.7381 15.9421 38.5661 17.0488 46.0715C16.7878 46.2358 14.2941 46.6997 13.8302 46.6901L12.4238 33.9556C12.0904 31.9742 11.6167 30.0797 11.2253 28.0789C11.0078 26.9819 10.0944 22.9513 10.0509 22.2167L10.0461 22.2216ZM4.20321 11.599C5.85603 11.7537 8.01147 8.0421 6.99174 7.58781C6.09284 7.18669 6.24266 8.51571 5.37759 9.56443C4.16455 11.0481 3.59428 10.4343 4.20321 11.599ZM8.44642 10.0767C7.87615 10.4005 8.11779 11.6764 6.33448 13.1552C6.146 13.3147 5.84154 13.4887 5.73521 13.5902C5.24227 14.0589 5.70138 14.7935 6.42147 14.4842C7.50885 14.0203 8.70739 12.2805 9.16651 11.0046C9.41781 10.3087 9.03119 9.74808 8.44642 10.0767ZM12.3562 47.0574L9.90593 47.5648C9.56763 46.0425 8.94903 35.5794 8.53824 33.9943C8.34493 33.2549 5.59023 22.6082 5.55157 22.0669L8.62523 22.642C9.04569 24.609 9.45648 26.5904 9.83827 28.5429C10.2249 30.4953 10.7227 32.4381 11.032 34.4099C11.3558 36.4832 11.4621 38.6434 11.7327 40.7264C11.8535 41.6543 12.4673 46.4774 12.3562 47.0622V47.0574ZM13.574 19.5442C19.8373 18.6839 26.2698 17.3163 32.6878 16.3642C35.051 16.0114 34.4469 15.2913 34.5387 19.3074C34.6789 25.2904 35.1429 23.6956 33.4707 29.118C33.3499 29.5046 33.1662 29.8477 33.3209 30.244C33.461 30.5968 33.9298 30.7466 34.3261 30.5436C34.6934 30.3552 34.9737 29.0793 35.1042 28.5574C35.1912 28.683 35.1284 28.567 35.2298 28.7942L35.4232 29.4514C35.9789 31.631 38.6418 41.7074 38.5693 42.1037L18.5228 45.8492C18.3102 45.4239 17.5756 39.9966 17.4548 39.0397L16.4254 32.2883C16.2176 31.2541 13.5789 20.0178 13.5692 19.5393L13.574 19.5442ZM19.1704 13.6627C20.1418 14.0638 20.7701 14.5906 22.2054 14.1894C23.4861 13.8366 23.8824 13.0779 24.1724 12.8556C24.3657 12.7058 24.1772 12.7782 24.4334 12.7299L24.6363 16.2482L19.9292 17.0408C19.6924 16.659 19.6972 15.8761 19.6005 15.3106C19.4991 14.721 19.2236 14.1314 19.1656 13.6675L19.1704 13.6627ZM29.8799 8.18225L34.3406 9.08598L33.2001 14.8177L28.4977 15.5523L29.8848 8.18708L29.8799 8.18225ZM20.4994 3.63457C22.6452 3.00631 23.8196 5.848 24.1289 7.64097C24.501 9.8109 23.462 12.3965 21.7656 12.8169C19.5764 13.363 18.3875 10.589 18.1217 8.82501C17.8317 6.90155 18.5132 4.21934 20.4994 3.63457ZM27.0141 15.7939C25.8059 16.2192 26.0427 15.9051 25.975 14.7017L25.6126 7.37034L28.4977 7.91161L27.0189 15.7891L27.0141 15.7939ZM7.17539 19.7375L3.97607 13.45C3.49762 12.4013 -0.721418 3.57175 2.81136 3.4026C4.3192 3.33011 6.20883 5.36955 6.98208 6.31195C7.45086 6.88222 8.02596 7.60714 8.53824 8.24024C9.01186 8.82501 9.56763 9.63692 9.99292 10.2507C10.4182 10.8645 10.3071 10.8741 10.0847 11.6474C9.64496 13.1552 9.44198 13.7641 8.39809 15.1173C7.35904 16.4608 6.75977 16.4802 7.03041 17.0553C7.32521 17.6787 7.94864 17.2389 8.24344 17.0311C9.00702 16.4947 8.95386 16.2385 9.08435 16.4319C9.27283 16.7653 9.32116 17.7947 9.32116 18.278C9.07952 18.5631 8.61557 18.8434 8.3111 19.0561C8.27244 20.2594 8.85721 19.9501 9.5483 19.6215L9.71262 20.6412C9.39848 20.9119 9.16167 21.255 8.49475 21.1438C7.89065 21.0423 7.80366 21.023 7.57651 20.4576L7.52335 20.3174C7.42186 20.071 7.28655 19.9018 7.17539 19.7278V19.7375ZM26.2408 5.96882C26.3713 5.71268 27.2219 4.6688 27.5505 4.55764L28.1933 6.39411C27.6858 6.31678 26.6129 6.21046 26.2408 5.96882ZM11.032 19.4572C9.41781 13.0392 12.4625 14.2619 12.3272 10.3328C12.1483 9.02315 11.9599 9.03765 12.6896 8.94583C14.9465 8.66553 14.7919 8.02276 15.1834 10.4585C16.6429 13.6433 17.7737 12.7396 18.1894 15.6006L18.4117 17.3404L13.2647 18.1523C12.0614 18.249 11.7521 18.8483 11.0368 19.462L11.032 19.4572ZM33.1082 5.2004L33.9588 7.49116L29.9766 6.7614C29.7784 6.50043 28.923 4.13235 28.9327 4.12269L29.0728 4.0212C29.5851 4.24834 31.7309 4.50931 32.5476 4.69296C33.0502 4.80895 32.9246 4.77028 33.1131 5.2004H33.1082ZM32.8908 3.23828C32.3833 3.27211 30.919 2.92898 30.2907 2.813C28.3044 2.4457 28.6137 2.63902 28.8022 1.57097C29.155 1.58546 32.4848 2.1799 33.0309 2.39738L32.8908 3.24312V3.23828ZM12.0034 7.18186L11.8487 5.79001L14.0283 5.46621L14.3231 6.89672L12.0082 7.18186H12.0034ZM10.0702 4.57214C10.2346 6.28295 10.6405 7.42833 10.5294 8.48188C8.98286 6.65508 5.31959 0.841211 1.94629 2.10741C-2.06977 3.61524 1.19721 10.8065 2.30392 13.2374C2.82103 14.3731 3.39613 15.5378 3.96641 16.659C4.26121 17.2341 4.53668 17.756 4.83148 18.336C5.13111 18.9111 5.48391 19.491 5.72072 20.0613C3.55078 21.2453 3.24148 18.8096 5.01029 25.9428C5.88986 29.4901 7.12223 33.4578 7.44603 36.9713C7.57168 38.31 7.64901 39.8275 7.82299 41.0985C8.06463 42.8576 8.18545 45.2692 8.40776 47.2458C8.52374 48.309 8.34493 48.3235 8.80405 49.0823C10.0896 49.3191 15.3235 47.6373 17.102 47.6615C17.6481 48.773 17.2856 51.3199 16.8217 52.3058C15.4782 55.1426 12.3658 54.9638 9.99292 52.9244C7.96797 51.1797 7.3832 48.2946 6.06868 50.7593C5.75938 51.3441 5.48391 51.8805 5.16978 52.4943C4.56567 53.6735 4.00507 54.8188 3.42513 56.0077C3.02884 56.8148 3.27048 57.675 4.20805 57.5445C4.88464 57.4479 5.73038 55.249 6.20883 54.2921C6.4698 53.775 6.81776 52.9389 7.13673 52.4991C7.3977 52.6102 10.9305 57.6605 15.5313 55.7999C17.8221 54.872 18.9723 52.5329 19.1028 50.1359C19.1656 48.9953 18.895 48.2994 18.8756 47.3183C19.3251 47.1008 26.7821 45.796 27.9081 45.5737C29.1163 45.3417 29.0728 45.2306 30.0877 45.7042C30.658 45.97 31.3539 46.3759 31.7889 46.7142C32.277 47.096 32.7699 47.4971 33.2436 47.9949C34.8432 49.6526 36.0128 51.9288 36.583 54.1423C36.6749 54.495 36.8343 55.4423 36.9938 55.7129C37.2693 56.172 37.9169 56.2204 38.2745 55.9159C38.579 55.6549 39.6857 52.7697 42.1601 50.9623C42.4017 50.7834 42.5805 50.682 42.7835 50.5466C44.0787 49.6719 43.4311 47.1008 39.7775 50.74C39.0768 51.4359 38.318 52.5571 37.9942 52.8277C37.2886 51.0927 36.2109 48.5845 34.935 47.2555C33.9105 46.1875 32.1852 44.8536 32.1272 44.7666C33.983 44.583 36.9455 43.8532 39.0091 43.4956C40.0482 43.3168 40.4831 43.2636 40.1496 42.1037C38.9801 38.0103 37.9507 33.0519 36.7908 29.002C36.583 28.2722 36.438 27.5956 36.2351 26.861C36.0128 26.0395 35.9934 19.8921 35.9644 18.7564C35.9451 18.1765 36.0176 15.1995 35.7711 14.8322C35.2395 14.0493 34.6209 15.2285 34.9012 13.8318L35.7325 9.50644C35.9064 8.6172 36.0079 8.52538 35.6793 7.76662C35.254 6.79523 34.906 5.848 34.4856 4.82828C34.157 4.03086 34.1956 4.09852 34.3503 3.22862C34.7611 0.97653 35.1284 1.23267 31.4893 0.585072C30.9528 0.488416 28.4059 -0.0818552 28.0483 0.00996811C27.1446 0.23711 27.5022 2.26206 26.8932 2.99664C26.6999 3.22862 26.5646 3.32044 26.3906 3.52825L25.4241 4.63013C25.0471 5.06509 25.1873 5.04092 24.8973 5.08925C22.7805 0.773552 18.5132 1.39698 17.0875 5.31156C16.58 6.70824 16.5704 7.82462 16.696 9.44361C15.6473 8.42872 15.7391 6.54876 15.3718 4.345C15.2607 3.67324 15.3235 3.86655 13.9462 4.04053C12.7621 4.18551 11.2398 4.51898 10.0509 4.57697L10.0702 4.57214Z" fill="black"/>
</svg>
