<svg width="29" height="27" viewBox="0 0 29 27" fill="none" xmlns="http://www.w3.org/2000/svg">
<path fill-rule="evenodd" clip-rule="evenodd" d="M22.2696 24.6579C22.1509 24.6579 22.0519 24.6168 21.9727 24.5962C21.7945 24.5346 20.6464 23.5485 20.4485 23.4046L16.6082 20.3435C16.2519 20.0558 15.6382 19.5422 15.3215 19.3162C15.2027 19.3778 13.7181 20.816 13.4608 21.042C13.2034 21.268 12.9857 21.5351 12.7085 21.7405C12.6491 21.7816 12.6294 21.8227 12.5898 21.8638L11.3427 23.0348C11.3427 22.8499 11.798 20.0147 11.8177 19.8709C11.8969 19.3573 11.9761 18.8026 12.0553 18.289C12.1741 17.5904 12.0553 17.6521 12.4116 17.2823L13.3222 16.3988C13.7181 15.9879 14.2724 15.4948 14.6881 15.084C14.7672 15.0018 14.8464 14.9607 14.9256 14.858C15.0048 14.7758 15.0642 14.7141 15.1433 14.6525L15.7174 14.0978C15.9945 13.8307 16.2717 13.5842 16.529 13.3171L16.9843 12.8651C17.2812 12.5569 17.598 12.2898 17.8949 11.9817L18.6867 11.201C18.7461 11.1393 18.7659 11.1393 18.8055 11.0982C18.8846 11.0161 18.944 10.9339 19.0232 10.8722C19.3399 10.5846 19.6567 10.297 19.9536 9.98881C20.2505 9.68064 20.5672 9.41356 20.8642 9.10538L22.4676 7.56451C22.5468 7.48233 22.6061 7.40015 22.6853 7.33852C22.8437 7.21525 23.002 7.05089 23.1208 6.88653C23.2198 6.76326 23.2396 6.74272 23.2 6.55781C23.0812 5.90038 21.9925 6.80435 21.656 7.0098L19.8348 8.18086C19.6171 8.30413 19.4389 8.4274 19.241 8.57121L18.6471 8.96157C18.4294 9.08484 18.2512 9.22865 18.0334 9.35192C17.0239 9.98881 16.0341 10.6668 15.0246 11.2831C14.8266 11.4064 14.6287 11.5297 14.4307 11.6735L11.4218 13.6047C11.3229 13.6664 11.2239 13.728 11.1249 13.8102C11.0259 13.8923 10.927 13.9334 10.828 14.0156C10.729 14.0772 10.63 14.1389 10.5311 14.2005L9.1256 15.125C9.08601 15.1456 9.08601 15.1456 9.04642 15.1867C8.94744 15.2483 8.78908 15.1456 8.6901 15.1045L3.60273 13.3171C3.34539 13.2349 2.67235 12.9473 2.4744 12.9473C2.51399 12.8856 2.55358 12.8856 2.63276 12.8446L5.48328 11.6119C6.49283 11.1804 7.48259 10.7079 8.51195 10.297C8.65051 10.2354 8.74949 10.1943 8.86826 10.1326L10.7488 9.31083C10.8874 9.2492 11.0061 9.20811 11.1249 9.14647L16.7863 6.66054C17.0437 6.55781 17.301 6.45509 17.5584 6.33182C18.2908 5.98255 19.0826 5.67438 19.815 5.32512L25.1003 3.02409C25.4765 2.85973 26.2881 2.55155 26.6246 2.36665C26.6246 2.69537 26.3276 4.05133 26.2485 4.48278C26.0505 5.65384 25.813 6.84544 25.5754 7.99596C25.1201 10.3175 24.7044 12.6802 24.2689 15.0018C24.1898 15.4538 24.0908 15.9468 24.0116 16.4194C23.8334 17.3644 23.6553 18.289 23.4771 19.234C23.2792 20.364 22.9823 21.6583 22.8041 22.7472C22.7645 22.9527 22.527 24.3908 22.4676 24.4935C22.428 24.5552 22.329 24.6579 22.23 24.6579H22.2696ZM0 12.7007C0 13.2349 0.0791809 13.6047 0.356314 14.0156C0.534471 14.2827 0.791809 14.5292 1.06894 14.7141C1.60341 15.084 2.43481 15.3305 3.04846 15.5359C3.40478 15.6592 3.7413 15.7825 4.07782 15.9057L6.15631 16.6248C6.29488 16.6659 7.08669 16.9741 7.20546 16.9946C7.20546 17.0974 7.81911 19.1724 7.91809 19.46C8.05666 19.8709 8.15563 20.3024 8.2744 20.6927C8.61092 21.6994 8.86826 22.7267 9.18498 23.7539C9.5215 24.7606 9.9372 25.8084 11.1051 25.8084C11.3823 25.8084 11.699 25.7262 11.8771 25.6235C11.9761 25.5824 12.1147 25.5002 12.1741 25.4386L13.1638 24.4935C13.3222 24.3292 13.5003 24.1853 13.6785 24.021C13.7379 23.9594 13.7379 23.9594 13.7973 23.9183L14.0546 23.6923C14.0942 23.6512 14.1338 23.6101 14.1734 23.569L14.4307 23.343C14.5099 23.2608 14.5891 23.1992 14.6881 23.117C14.787 23.0143 14.8464 22.9732 14.9454 22.891L15.3215 22.5418C15.3809 22.5007 15.4007 22.4596 15.4601 22.4185C15.5392 22.439 15.4997 22.439 15.559 22.4801C15.5986 22.5212 15.6184 22.5418 15.658 22.5623C15.7372 22.6239 15.7768 22.665 15.856 22.7061C15.9945 22.8294 16.1133 22.9116 16.2519 23.0143C16.9447 23.5895 17.6771 24.1443 18.3898 24.7195C18.4689 24.7812 18.5283 24.8222 18.5877 24.8839C19.043 25.2537 19.6567 25.7673 20.1515 26.1166L20.7256 26.5686C21.0225 26.8151 21.6164 27 22.0519 27C22.7447 27 23.2792 26.8973 23.7741 26.5069C23.9522 26.3837 24.1304 26.1987 24.2689 26.0344C24.3481 25.9317 24.4075 25.87 24.4669 25.7468C24.6055 25.5208 24.7242 25.3153 24.7638 25.0482L25.9317 18.8437C26.4662 16.0701 26.9611 13.3171 27.4956 10.5435L28.4259 5.57166C28.5249 5.05803 29 2.77755 29 2.20229C29 1.62703 28.802 1.07232 28.4259 0.661422L28.1686 0.414884C27.0007 -0.509638 25.6744 0.332704 24.5263 0.805237C23.5167 1.21614 22.527 1.68867 21.5174 2.09957C19.6567 2.90082 17.7959 3.74316 15.9352 4.54441L14.6485 5.11967C14.0744 5.38675 13.5003 5.61275 12.9065 5.87983L9.04642 7.56451C8.88805 7.62615 8.76928 7.68778 8.61092 7.74942L7.75973 8.11923C6.6116 8.63285 5.48328 9.14647 4.31536 9.619C4.01843 9.74227 3.7413 9.86554 3.46416 9.98881C2.8901 10.2354 2.31604 10.5024 1.74198 10.749C1.04915 11.0366 0.395904 11.468 0.118771 12.2077C0.0791809 12.3309 0 12.5775 0 12.7418L0 12.7007Z" fill="white"/>
</svg>
