<svg width="71" height="80" viewBox="0 0 71 80" fill="none" xmlns="http://www.w3.org/2000/svg">
<path d="M70.9175 21.1332V7.92496C70.9126 3.55022 67.3673 0.0049531 62.9926 0H52.4259C48.0512 0.0049531 44.5059 3.55022 44.501 7.92496V21.1332C44.5063 24.9981 47.295 28.2972 51.1051 28.9461V46.2289C51.1051 46.5793 51.2443 46.9153 51.4919 47.1629L56.7753 52.4462C57.291 52.962 58.1273 52.962 58.6432 52.4462L63.9265 47.1629C64.1742 46.9153 64.3134 46.5793 64.3134 46.2289V42.8134L66.5682 40.5588C67.084 40.043 67.084 39.2068 66.5682 38.6908L64.8604 36.9832L66.5682 35.2755C67.084 34.7597 67.084 33.9235 66.5682 33.4075L64.3134 31.1529V28.9461C68.1235 28.2972 70.9122 24.9981 70.9175 21.1332ZM62.0586 37.9171L63.7664 39.6248L62.0586 41.3325C61.8109 41.5801 61.6717 41.9161 61.6717 42.2665V45.6819L59.0301 48.3236V31.6998H56.3884V48.3236L53.7468 45.6819V29.0582H61.6717V31.6998C61.6717 32.0502 61.8109 32.3862 62.0586 32.6338L63.7664 34.3415L62.0586 36.0492C61.5428 36.5649 61.5428 37.4012 62.0586 37.9171ZM62.9926 26.4165H52.4259C49.5094 26.4132 47.1459 24.0498 47.1426 21.1332V7.92496C47.1459 5.00841 49.5094 2.64496 52.4259 2.64165H62.9926C65.9091 2.64496 68.2726 5.00841 68.2759 7.92496V21.1332C68.2726 24.0498 65.9091 26.4132 62.9926 26.4165Z" fill="#693490"/>
<path d="M61.6716 5.2832H53.7467C51.5592 5.28568 49.7867 7.05823 49.7842 9.24568V11.8873C49.7842 12.6168 50.3756 13.2082 51.105 13.2082H64.3133C65.0427 13.2082 65.6341 12.6168 65.6341 11.8873V9.24568C65.6316 7.05823 63.8591 5.28568 61.6716 5.2832ZM62.9924 10.5665H52.4258V9.24568C52.4267 8.51659 53.0176 7.92568 53.7467 7.92486H61.6716C62.4007 7.92568 62.9916 8.51659 62.9924 9.24568V10.5665Z" fill="#693490"/>
<path d="M64.3133 15.8501H51.105C50.3756 15.8501 49.7842 16.4415 49.7842 17.1709V19.8126C49.7867 22 51.5592 23.7726 53.7467 23.7751H61.6716C63.8591 23.7726 65.6316 22 65.6341 19.8126V17.1709C65.6341 16.4415 65.0427 15.8501 64.3133 15.8501ZM62.9924 19.8126C62.9916 20.5417 62.4007 21.1326 61.6716 21.1334H53.7467C53.0176 21.1326 52.4267 20.5417 52.4258 19.8126V18.4918H62.9924V19.8126Z" fill="#693490"/>
<path d="M66.6326 58.1158C65.358 58.115 64.1473 58.6734 63.3203 59.6432C61.7585 57.8138 59.0093 57.597 57.18 59.1589C57.0083 59.3055 56.8481 59.4654 56.701 59.6369C55.2808 57.9743 52.8455 57.6276 51.0177 58.8279C50.3554 58.3673 49.5685 58.1189 48.7619 58.1158H41.5123C39.5763 55.614 36.5904 54.1507 33.4271 54.1533H31.0628C28.4885 54.1523 26.0091 55.1259 24.1235 56.8785C23.9767 56.8235 23.8215 56.7953 23.6648 56.795H14.419C14.419 56.0656 13.8276 55.4742 13.0982 55.4742H2.30838C1.57895 55.4742 0.987549 56.0656 0.987549 56.795V77.9282C0.987549 78.6576 1.57895 79.249 2.30838 79.249H23.6648C24.3943 79.249 24.9857 78.6576 24.9857 77.9282V76.8093L41.971 79.2363C42.0329 79.2452 42.0953 79.2495 42.1577 79.2495C42.2125 79.2495 42.2673 79.2461 42.3217 79.2393L60.9036 76.9145C62.9165 76.6752 64.7046 75.5154 65.744 73.775L68.3989 69.3635C68.43 69.312 68.4575 69.2583 68.4815 69.203L70.6338 64.1855C71.5818 61.9761 70.559 59.4165 68.3495 58.4685C67.807 58.2357 67.2229 58.1158 66.6326 58.1158ZM11.7774 76.6074H3.6292V58.1158H11.7774V76.6074ZM22.344 76.6074H14.419V59.4366H22.344V76.6074ZM57.4034 64.2055C57.4214 64.1662 57.4394 64.1219 57.4565 64.0734L58.4326 61.795C58.7026 61.1651 59.3222 60.757 60.0075 60.7575C60.9542 60.7575 61.7218 61.5249 61.7218 62.4717C61.7218 62.7039 61.6746 62.9337 61.5833 63.147L59.7769 67.3616H56.0495L57.4034 64.2055ZM52.7243 66.0408V62.0783C52.7242 61.7058 52.6712 61.3353 52.567 60.9779C53.3407 60.54 54.3209 60.7725 54.8155 61.5112C55.137 61.9716 55.2052 62.563 54.9971 63.0846C54.9841 63.1176 54.9739 63.1506 54.9641 63.1848L53.1729 67.3616H51.4035C52.1329 67.3616 52.7243 66.7702 52.7243 66.0408ZM68.2057 63.1425L66.0885 68.0791L63.4792 72.4138C62.8559 73.4561 61.784 74.1501 60.5778 74.2921L42.1688 76.595L24.987 74.1411V59.8548C26.4133 57.9302 28.6671 56.7951 31.0628 56.795H33.4271C35.9632 56.7933 38.3321 58.0603 39.7388 60.1707C39.984 60.5374 40.3959 60.7575 40.8369 60.7575H48.7619C49.2114 60.7593 49.6291 60.9894 49.871 61.3683C50.0085 61.5797 50.082 61.8262 50.0827 62.0783V64.7199H35.329V67.3616H46.5713L46.227 68.1622C45.9397 68.8327 46.2503 69.6091 46.9208 69.8964C47.0852 69.9669 47.2622 70.0032 47.441 70.0032H60.6625C61.1905 70.0032 61.6678 69.6889 61.8762 69.2038L65.0597 61.7928C65.3295 61.1639 65.9483 60.7565 66.6326 60.7575C67.5779 60.7576 68.3439 61.5239 68.3439 62.4691C68.3439 62.7006 68.2969 62.9297 68.2057 63.1425Z" fill="#693490"/>
<path d="M17.1035 7.73926C8.22743 7.73926 1.00586 14.9608 1.00586 23.8369C1.00586 32.713 8.22743 39.9346 17.1035 39.9346C25.9796 39.9346 33.2012 32.713 33.2012 23.8369C33.2012 14.9608 25.9796 7.73926 17.1035 7.73926ZM17.1035 37.9224C9.33667 37.9224 3.01808 31.6038 3.01808 23.8369C3.01808 16.0701 9.33667 9.75148 17.1035 9.75148C24.8704 9.75148 31.189 16.0701 31.189 23.8369C31.189 31.6038 24.8704 37.9224 17.1035 37.9224Z" fill="#693490" stroke="#693490" stroke-width="0.5"/>
<path d="M18.1099 13.7764H16.0977V24.254L22.429 30.5854L23.8517 29.1627L18.1099 23.4208V13.7764Z" fill="#693490" stroke="#693490" stroke-width="0.5"/>
</svg>
