<svg width="71" height="71" viewBox="0 0 71 71" fill="none" xmlns="http://www.w3.org/2000/svg">
<path d="M56.8725 61.1102L54.2528 53.2498C53.3373 50.5055 51.0015 48.4799 48.1543 47.9616L40.5916 46.5855V45.9993C41.9077 45.2355 43.0529 44.2136 43.965 43.0039H46.2498C48.1215 43.0039 49.6447 41.4807 49.6447 39.6089V26.0292C49.6447 17.9176 43.045 11.3179 34.9333 11.3179C26.8217 11.3179 20.222 17.9176 20.222 26.0292V33.9507C20.222 36.1325 21.7735 37.9579 23.8308 38.3834C24.4657 41.6357 26.4981 44.3879 29.2751 45.9993V46.5855L21.7112 47.9616C18.8652 48.4799 16.5283 50.5055 15.6139 53.2498L15.1613 54.6089L11.3069 50.7545C10.8656 50.3131 10.8656 49.5946 11.3069 49.1532L15.7769 44.6844L7.3869 36.2944L2.33525 41.346C0.839217 42.842 0.0153809 44.8315 0.0153809 46.9476C0.0153809 49.0638 0.839217 51.0521 2.33525 52.5481L17.6294 67.8423C19.1254 69.3383 21.1149 70.1633 23.231 70.1633C25.3472 70.1633 27.3355 69.3383 28.7965 67.8762L34.3087 62.8257L32.5897 61.1102H56.8725ZM47.3814 39.6089C47.3814 40.2336 46.8733 40.7406 46.2498 40.7406H45.2981C45.6262 39.9926 45.8752 39.2038 46.0359 38.3834C46.5202 38.2827 46.9661 38.0903 47.3814 37.8481V39.6089ZM46.2498 35.8994V32.002C46.9231 32.3947 47.3814 33.1167 47.3814 33.9507C47.3814 34.7847 46.9231 35.5067 46.2498 35.8994ZM23.6169 35.8994C22.9436 35.5067 22.4853 34.7847 22.4853 33.9507C22.4853 33.1167 22.9436 32.3947 23.6169 32.002V35.8994ZM23.6169 28.2925V29.5849C23.2141 29.6901 22.8361 29.8485 22.4853 30.0533V26.0292C22.4853 19.1658 28.0699 13.5812 34.9333 13.5812C41.7968 13.5812 47.3814 19.1658 47.3814 26.0292V30.0533C47.0306 29.8485 46.6526 29.689 46.2498 29.5849V28.2925H45.1181C41.7719 28.2925 38.6259 26.9889 36.2585 24.6226L34.9333 23.2974L33.6082 24.6226C31.2408 26.9889 28.0948 28.2925 24.7486 28.2925H23.6169ZM25.8802 36.214V30.5128C29.2785 30.257 32.4471 28.8549 34.9333 26.4909C37.4196 28.8549 40.5882 30.2582 43.9865 30.5128V36.214C43.9865 37.8639 43.5361 39.4075 42.7621 40.7406H34.9333V43.0039H40.9016C39.306 44.4082 37.2204 45.2672 34.9333 45.2672C29.9417 45.2672 25.8802 41.2057 25.8802 36.214ZM38.3283 47.0088V47.0619L34.9333 50.4569L31.5384 47.0619V47.0088C32.6112 47.346 33.7508 47.5304 34.9333 47.5304C36.1159 47.5304 37.2555 47.346 38.3283 47.0088ZM17.7595 53.965C18.4125 52.005 20.0817 50.5576 22.1152 50.1864L30.0254 48.7492L34.9333 53.6572L39.8402 48.7504L47.7492 50.1875C49.7828 50.5587 51.4519 52.005 52.1049 53.9661L53.7333 58.8469H30.3264L25.9187 54.4391L21.0209 58.8695C20.5943 59.2984 19.8486 59.2984 19.4208 58.8695L16.9493 56.398L17.7595 53.965ZM7.38577 39.4946L12.5755 44.6844L11.3465 45.9133L6.15681 40.7236L7.38577 39.4946ZM27.2291 66.2444C26.1609 67.3104 24.7395 67.9 23.2288 67.9C21.718 67.9 20.2967 67.3104 19.2273 66.2422L3.93313 50.9491C2.86486 49.8809 2.2764 48.4595 2.2764 46.9488C2.2764 45.4369 2.86486 44.0156 3.93313 42.9473L4.55553 42.3249L9.74524 47.5146L9.70451 47.5553C8.38162 48.8794 8.38162 51.0329 9.70451 52.3569L17.8195 60.4719C18.4612 61.1124 19.3133 61.4666 20.2209 61.4666C21.1284 61.4666 21.9806 61.1136 22.5803 60.5115L22.6652 60.4357L27.8787 65.6492L27.2291 66.2444ZM29.549 64.1169L24.3468 58.9148L25.8417 57.5636L31.0348 62.7567L29.549 64.1169Z" fill="#693490"/>
<path d="M66.6195 0H50.7765C48.9048 0 47.3816 1.52319 47.3816 3.39493V12.4481C47.3816 14.3198 48.9048 15.843 50.7765 15.843H53.7991L52.629 22.6679L63.5494 15.843H66.6195C68.4913 15.843 70.0145 14.3198 70.0145 12.4481V3.39493C70.0145 1.52319 68.4913 0 66.6195 0ZM67.7512 12.4481C67.7512 13.0716 67.2431 13.5797 66.6195 13.5797H62.8998L55.7127 18.0712L56.4834 13.5797H50.7765C50.153 13.5797 49.6449 13.0716 49.6449 12.4481V3.39493C49.6449 2.77139 50.153 2.26329 50.7765 2.26329H66.6195C67.2431 2.26329 67.7512 2.77139 67.7512 3.39493V12.4481Z" fill="#693490"/>
<path d="M65.4877 4.52734H51.908V6.79063H65.4877V4.52734Z" fill="#693490"/>
<path d="M60.9611 9.05273H51.908V11.316H60.9611V9.05273Z" fill="#693490"/>
<path d="M65.4881 9.05273H63.2249V11.316H65.4881V9.05273Z" fill="#693490"/>
<path d="M34.9335 3.396C20.1475 3.396 7.41082 13.6238 4.09963 27.8904L1.95517 24.3155L0.0144043 25.48L3.99213 32.108L10.6202 28.1303L9.4557 26.1895L6.38895 28.0296C9.59602 14.9784 21.3323 5.65928 34.9335 5.65928C37.9063 5.65928 40.8396 6.10062 43.6517 6.97199L44.3216 4.81055C41.2922 3.87129 38.1338 3.396 34.9335 3.396Z" fill="#693490"/>
<path d="M69.4643 25.0563L62.8363 21.0786L58.8597 27.7078L60.8005 28.8722L62.7808 25.5712C63.8231 28.621 64.3561 31.8111 64.3561 35.0804C64.3561 41.8103 62.0249 48.3897 57.7937 53.6054L59.5511 55.0313C64.1094 49.4138 66.6194 42.3275 66.6194 35.0804C66.6194 31.6187 66.0615 28.2385 64.974 25.002L68.2999 26.9971L69.4643 25.0563Z" fill="#693490"/>
</svg>
