<svg width="71" height="73" viewBox="0 0 71 73" fill="none" xmlns="http://www.w3.org/2000/svg">
<path d="M64.1775 31.1067L60.6167 29.2638C56.3709 27.1472 51.6925 26.0429 46.9485 26.0371H42.6817C38.5778 26.0331 34.5653 27.2481 31.1529 29.5279L29.0535 30.9274H22.0881C16.0141 30.9343 11.0918 35.8565 11.085 41.9306V43.1532C11.085 43.8284 11.6324 44.3758 12.3075 44.3758H19.6464C21.6683 47.0748 25.4953 47.6237 28.1943 45.6017C28.6592 45.2534 29.072 44.8406 29.4202 44.3758H53.8785C55.9005 47.0748 59.7274 47.6237 62.4264 45.6017C62.8913 45.2534 63.3041 44.8406 63.6524 44.3758H64.7068C66.7525 44.3787 68.6636 43.3564 69.7966 41.6532L70.7869 40.1617C70.92 39.9613 70.991 39.726 70.9912 39.4855C70.986 35.4329 68.1437 31.9379 64.1775 31.1067ZM48.9848 34.8838V36.6107L44.7295 41.9306H35.5365V33.3726H48.2293L48.9848 34.8838ZM49.7404 30.9274L50.8263 28.7558C53.4428 29.1223 55.9952 29.8532 58.409 30.9274H49.7404ZM42.6817 28.4823H46.9485C47.3703 28.4823 47.7919 28.495 48.2132 28.5141L47.0067 30.9274H33.5364C36.3171 29.3231 39.4713 28.4797 42.6817 28.4823ZM24.5333 44.3758C22.5076 44.3758 20.8656 42.7337 20.8656 40.708C20.8656 38.6824 22.5076 37.0403 24.5333 37.0403C26.559 37.0403 28.201 38.6824 28.201 40.708C28.1986 42.7326 26.5579 44.3733 24.5333 44.3758ZM24.5333 34.5952C21.1561 34.5964 18.4192 37.3351 18.4204 40.7123C18.4206 41.1216 18.4618 41.5296 18.5434 41.9306H13.5301C13.5301 41.1025 13.6505 40.2788 13.8879 39.4855H15.9753V37.0403H15.071C16.6692 34.7434 19.29 33.3736 22.0881 33.3726H33.0913V41.9306H30.5239C31.198 38.6212 29.0617 35.3923 25.7524 34.7182C25.351 34.6364 24.9427 34.5952 24.5333 34.5952ZM58.7654 44.3758C56.7398 44.3758 55.0977 42.7337 55.0977 40.708C55.0977 38.6824 56.7398 37.0403 58.7654 37.0403C60.7911 37.0403 62.4332 38.6824 62.4332 40.708C62.4307 42.7326 60.79 44.3733 58.7654 44.3758ZM67.7611 40.2988C67.0904 41.3054 65.9656 41.9156 64.7561 41.9291C65.4291 38.6208 63.2928 35.3933 59.9846 34.7202C56.6765 34.047 53.4489 36.1834 52.7757 39.4916C52.6121 40.2963 52.612 41.1258 52.776 41.9305H47.861L51.1619 37.8043C51.3355 37.5874 51.43 37.318 51.43 37.0401V34.595C51.43 34.4052 51.3858 34.218 51.3008 34.0482L50.9629 33.3724H62.4332C64.3558 33.3729 66.166 34.2788 67.3187 35.8176H64.8783V38.2627H68.4229C68.4814 38.5493 68.5191 38.8396 68.536 39.1317L67.7611 40.2988Z" fill="#693490"/>
<path d="M61.753 53.383C60.5732 53.3823 59.4526 53.8991 58.6871 54.7968C57.2414 53.1035 54.6968 52.9029 53.0035 54.3486C52.8446 54.4843 52.6963 54.6322 52.5602 54.791C51.2456 53.2521 48.9915 52.9312 47.2996 54.0422C46.6866 53.6158 45.9583 53.386 45.2116 53.383H38.5014C36.7094 51.0673 33.9456 49.7129 31.0176 49.7153H28.8292C26.4464 49.7144 24.1514 50.6156 22.4061 52.2378C22.2702 52.1869 22.1266 52.1608 21.9815 52.1605H13.4235C13.4235 51.4853 12.8761 50.9379 12.201 50.9379H2.21378C1.53862 50.9379 0.991211 51.4853 0.991211 52.1605V71.7216C0.991211 72.3968 1.53862 72.9442 2.21378 72.9442H21.9815C22.6567 72.9442 23.2041 72.3968 23.2041 71.7216V70.6859L38.9259 72.9324C38.9832 72.9407 39.041 72.9446 39.0988 72.9446C39.1495 72.9446 39.2002 72.9414 39.2505 72.9352L56.4501 70.7833C58.3133 70.5619 59.9683 69.4883 60.9305 67.8774L63.3879 63.794C63.4166 63.7463 63.4421 63.6967 63.4643 63.6455L65.4565 59.0012C66.334 56.9562 65.3872 54.587 63.3422 53.7095C62.84 53.494 62.2993 53.383 61.753 53.383ZM10.9784 70.499H3.43635V53.383H10.9784V70.499ZM20.759 70.499H13.4235V54.6056H20.759V70.499ZM53.2103 59.0197C53.2269 58.9833 53.2436 58.9424 53.2595 58.8975L54.163 56.7885C54.4128 56.2055 54.9864 55.8277 55.6207 55.8282C56.497 55.8282 57.2075 56.5385 57.2075 57.4149C57.2075 57.6298 57.1638 57.8425 57.0793 58.04L55.4072 61.941H51.9571L53.2103 59.0197ZM48.8793 60.7185V57.0508C48.8792 56.706 48.8301 56.3631 48.7337 56.0322C49.4498 55.6269 50.3571 55.8421 50.815 56.5258C51.1125 56.952 51.1756 57.4994 50.9831 57.9822C50.971 58.0128 50.9615 58.0433 50.9525 58.075L49.2945 61.941H47.6567C48.3319 61.941 48.8793 61.3936 48.8793 60.7185ZM63.2091 58.0359L61.2493 62.6052L58.8341 66.6174C58.2572 67.5821 57.2651 68.2246 56.1486 68.356L39.109 70.4876L23.2053 68.2162V54.9927C24.5256 53.2113 26.6117 52.1606 28.8292 52.1605H31.0176C33.365 52.1589 35.5577 53.3317 36.8598 55.2851C37.0867 55.6245 37.468 55.8282 37.8762 55.8282H45.2116C45.6277 55.8299 46.0144 56.0429 46.2383 56.3936C46.3656 56.5892 46.4336 56.8174 46.4342 57.0508V59.4959H32.7781V61.941H43.184L42.8653 62.6821C42.5994 63.3027 42.8869 64.0214 43.5075 64.2873C43.6597 64.3526 43.8235 64.3862 43.989 64.3862H56.227C56.7157 64.3862 57.1575 64.0952 57.3504 63.6462L60.2971 56.7865C60.5468 56.2044 61.1195 55.8273 61.753 55.8282C62.6279 55.8283 63.337 56.5376 63.337 57.4125C63.337 57.6267 63.2934 57.8389 63.2091 58.0359Z" fill="#693490"/>
<path d="M5.02215 19.5618C6.20193 19.5625 7.32257 19.0457 8.08806 18.148C9.53375 19.8413 12.0784 20.0419 13.7716 18.5963C13.9306 18.4605 14.0788 18.3126 14.215 18.1538C15.5295 19.6927 17.7837 20.0137 19.4755 18.9027C20.0885 19.329 20.8169 19.5589 21.5635 19.5618H28.2738C30.0658 21.8775 32.8295 23.2319 35.7576 23.2295H37.946C40.3288 23.2304 42.6237 22.3292 44.3691 20.707C44.5049 20.7579 44.6486 20.784 44.7936 20.7843H53.3516C53.3516 21.4595 53.899 22.0069 54.5742 22.0069H64.5614C65.2365 22.0069 65.7839 21.4595 65.7839 20.7843V1.22321C65.7839 0.548046 65.2365 0.000638962 64.5614 0.000638962H44.7936C44.1184 0.000638962 43.571 0.548046 43.571 1.22321V2.25888L27.8492 0.0124054C27.7919 0.0041523 27.7342 0.000183105 27.6764 0.000183105C27.6257 0.000183105 27.5749 0.00338745 27.5246 0.00965309L10.3251 2.16154C8.46186 2.38297 6.8068 3.45654 5.84464 5.06743L3.38727 9.15082C3.35854 9.1985 3.33302 9.24816 3.31086 9.29936L1.31868 13.9436C0.441177 15.9887 1.38791 18.3579 3.43296 19.2354C3.93513 19.4508 4.47581 19.5618 5.02215 19.5618ZM55.7968 2.44578H63.3388V19.5618H55.7968V2.44578ZM46.0162 2.44578H53.3516V18.3392H46.0162V2.44578ZM13.5649 13.9251C13.5482 13.9615 13.5316 14.0024 13.5157 14.0474L12.6122 16.1563C12.3623 16.7393 11.7888 17.1171 11.1544 17.1166C10.2781 17.1166 9.56767 16.4063 9.56767 15.5299C9.56767 15.315 9.61138 15.1023 9.69589 14.9049L11.3679 11.0038H14.818L13.5649 13.9251ZM17.8958 12.2263V15.8941C17.896 16.2388 17.945 16.5818 18.0415 16.9126C17.3253 17.3179 16.418 17.1027 15.9602 16.419C15.6626 15.9928 15.5995 15.4454 15.7921 14.9626C15.8042 14.9321 15.8136 14.9015 15.8227 14.8699L17.4806 11.0038H19.1184C18.4432 11.0038 17.8958 11.5512 17.8958 12.2263ZM3.56607 14.909L5.52585 10.3396L7.94104 6.32744C8.51794 5.36268 9.51006 4.72022 10.6266 4.5888L27.6662 2.45724L43.5698 4.72862V17.9521C42.2496 19.7335 40.1634 20.7842 37.946 20.7843H35.7576C33.4101 20.7859 31.2174 19.6131 29.9154 17.6598C29.6884 17.3203 29.3072 17.1166 28.899 17.1166H21.5635C21.1474 17.115 20.7608 16.9019 20.5369 16.5512C20.4096 16.3556 20.3416 16.1274 20.341 15.8941V13.4489H33.9971V11.0038H23.5912L23.9098 10.2627C24.1757 9.64214 23.8883 8.92342 23.2677 8.65751C23.1154 8.59226 22.9516 8.55863 22.7861 8.55863H10.5482C10.0595 8.55863 9.61765 8.84961 9.42479 9.2986L6.47808 16.1583C6.22837 16.7404 5.6556 17.1175 5.02215 17.1166C4.14725 17.1165 3.43816 16.4072 3.43816 15.5323C3.43816 15.3181 3.48172 15.106 3.56607 14.909Z" fill="#693490"/>
</svg>
