<svg xmlns="http://www.w3.org/2000/svg" viewBox="0 0 1432.51 880.61"><defs><style>.cls-1{fill:#fff;}</style></defs><g id="Слой_2" data-name="Слой 2"><g id="logo_1"><path class="cls-1" d="M416.51,837.17a14.63,14.63,0,0,1,5.63,5.93,18.14,18.14,0,0,1,2,8.66,17.87,17.87,0,0,1-2,8.57,14.72,14.72,0,0,1-5.6,5.89,16,16,0,0,1-8.19,2.11,15,15,0,0,1-7.94-2.05,14,14,0,0,1-5.29-5.7v7.62H390.9V821.46h4.22v21.35a13.54,13.54,0,0,1,5.26-5.7,15.17,15.17,0,0,1,7.9-2.05A16.13,16.13,0,0,1,416.51,837.17ZM413.89,863a11.51,11.51,0,0,0,4.41-4.63,15,15,0,0,0,0-13.42,11.63,11.63,0,0,0-4.41-4.63,13.09,13.09,0,0,0-12.76,0,11.91,11.91,0,0,0-4.41,4.63,13.83,13.83,0,0,0-1.6,6.68,14.11,14.11,0,0,0,1.57,6.74A11.51,11.51,0,0,0,401.1,863a12.36,12.36,0,0,0,6.43,1.67A12.23,12.23,0,0,0,413.89,863Z"/><path class="cls-1" d="M444.16,878.66a9,9,0,0,1-5.7,2,10.82,10.82,0,0,1-6.8-2.27l1.89-3.27a8.17,8.17,0,0,0,4.72,1.51,5.65,5.65,0,0,0,3.65-1.32,9.61,9.61,0,0,0,2.71-3.84L446,868l-13.67-32.82h4.47l11.34,28.35,10.9-28.35h4.35l-15.25,37.74A13.39,13.39,0,0,1,444.16,878.66Z"/><path class="cls-1" d="M533,868.2l-5.23-11.72H503.35l-5.17,11.72h-4.66l19.85-44h4.53l19.85,44Zm-28-15.62h21l-10.58-23.82Z"/><path class="cls-1" d="M550.85,821.46h4.22V868.2h-4.22Z"/><path class="cls-1" d="M598.6,840q4,4.88,3.72,13.13H574.79a12.66,12.66,0,0,0,3.91,8.54,12.05,12.05,0,0,0,8.56,3.24,14.93,14.93,0,0,0,5.86-1.13,13.63,13.63,0,0,0,4.67-3.21l2.39,2.39a16.43,16.43,0,0,1-5.77,4,19,19,0,0,1-7.4,1.42,17,17,0,0,1-8.5-2.11,15.14,15.14,0,0,1-5.83-5.89,18.64,18.64,0,0,1,0-17.23,15.11,15.11,0,0,1,5.83-5.93,16.74,16.74,0,0,1,8.38-2.11Q594.57,835.06,598.6,840Zm-.06,9.86a12,12,0,0,0-3.43-8.22,11.15,11.15,0,0,0-8.16-3.06,11.79,11.79,0,0,0-8.32,3.09,12.38,12.38,0,0,0-3.84,8.19Z"/><path class="cls-1" d="M611.71,835.19h4.91l9.2,13.1,9.26-13.1h4.73l-11.22,16,12,17h-5l-9.89-14.11L615.61,868.2h-4.78l12.16-17Z"/><path class="cls-1" d="M673.7,868.2l-.06-5.54a12,12,0,0,1-5.11,4.31,17.39,17.39,0,0,1-7.24,1.42,12.87,12.87,0,0,1-5.89-1.29,9.42,9.42,0,0,1-5.33-8.66,7.94,7.94,0,0,1,3.31-6.74q3.32-2.46,9.1-2.46h11.09v-2.52a7.81,7.81,0,0,0-2.33-6.05q-2.32-2.14-6.8-2.14-5.3,0-10.65,4l-1.89-2.9a28.21,28.21,0,0,1,6.36-3.43,20.09,20.09,0,0,1,6.94-1.11q6,0,9.25,3a10.8,10.8,0,0,1,3.34,8.28l.07,21.86Zm-4.19-5.38a10.08,10.08,0,0,0,4.13-5.77v-4.54H663a12.39,12.39,0,0,0-6.61,1.45,4.81,4.81,0,0,0-2.27,4.35,5.86,5.86,0,0,0,2.17,4.76,8.8,8.8,0,0,0,5.76,1.79A13.16,13.16,0,0,0,669.51,862.82Z"/><path class="cls-1" d="M722,838.5q3.36,3.43,3.37,9.42V868.2h-4.28V848.92a10,10,0,0,0-2.59-7.3,9.56,9.56,0,0,0-7.18-2.65,11.17,11.17,0,0,0-8.16,3.15,13,13,0,0,0-3.5,8.32V868.2h-4.22v-33h4.22v7.69a12.29,12.29,0,0,1,5-5.8,16.08,16.08,0,0,1,8-2Q718.62,835.06,722,838.5Z"/><path class="cls-1" d="M773,821.46V868.2h-4.23v-7.56a13.94,13.94,0,0,1-5.29,5.77,15.14,15.14,0,0,1-7.94,2,16.07,16.07,0,0,1-8.31-2.14,14.66,14.66,0,0,1-5.67-6,18.39,18.39,0,0,1-2-8.7,17.78,17.78,0,0,1,2.05-8.63,15,15,0,0,1,5.67-5.92,15.85,15.85,0,0,1,8.22-2.14,15,15,0,0,1,8,2.08,14.06,14.06,0,0,1,5.32,5.79V821.46Zm-10.27,41.67a11.78,11.78,0,0,0,4.44-4.63,13.9,13.9,0,0,0,1.6-6.74,14.07,14.07,0,0,0-1.6-6.77,12,12,0,0,0-4.44-4.7,13,13,0,0,0-12.86,0,12.18,12.18,0,0,0-4.47,4.7,14.85,14.85,0,0,0,0,13.51,11.71,11.71,0,0,0,4.47,4.63,12.61,12.61,0,0,0,6.46,1.67A12.48,12.48,0,0,0,762.72,863.13Z"/><path class="cls-1" d="M816.52,840c2.69,3.25,3.92,7.63,3.72,13.13H792.7a12.7,12.7,0,0,0,3.91,8.54,12.08,12.08,0,0,0,8.57,3.24,15,15,0,0,0,5.86-1.13,13.59,13.59,0,0,0,4.66-3.21l2.39,2.39a16.31,16.31,0,0,1-5.76,4,19,19,0,0,1-7.4,1.42,17,17,0,0,1-8.51-2.11,15.14,15.14,0,0,1-5.83-5.89,18.64,18.64,0,0,1,0-17.23,15.11,15.11,0,0,1,5.83-5.93,16.74,16.74,0,0,1,8.38-2.11Q812.48,835.06,816.52,840Zm-.07,9.86a12,12,0,0,0-3.43-8.22,11.15,11.15,0,0,0-8.16-3.06,11.75,11.75,0,0,0-8.31,3.09,12.34,12.34,0,0,0-3.85,8.19Z"/><path class="cls-1" d="M844.27,837.11a13.65,13.65,0,0,1,7.34-2.05v4a11.29,11.29,0,0,0-8.41,3.06,12.86,12.86,0,0,0-3.62,8.47V868.2h-4.23v-33h4.23v7.69A12.6,12.6,0,0,1,844.27,837.11Z"/><path class="cls-1" d="M907.62,828.73a22.17,22.17,0,0,0-6-.91,13.16,13.16,0,0,0-7.28,1.79,5.59,5.59,0,0,0-2.74,4.89,6.45,6.45,0,0,0,1.51,4.41,10.9,10.9,0,0,0,3.72,2.68,59.8,59.8,0,0,0,6.05,2.17,51.59,51.59,0,0,1,7.21,2.61,12.7,12.7,0,0,1,4.66,3.75,10.19,10.19,0,0,1,1.93,6.49,10.32,10.32,0,0,1-2,6.24,12.77,12.77,0,0,1-5.57,4.19,21.69,21.69,0,0,1-8.26,1.48,23.11,23.11,0,0,1-9-1.83,24.33,24.33,0,0,1-7.53-4.85l2-3.59a21.62,21.62,0,0,0,6.87,4.53,19.64,19.64,0,0,0,7.69,1.64,13.82,13.82,0,0,0,8-2,6.38,6.38,0,0,0,3-5.51,6.73,6.73,0,0,0-1.51-4.53,10,10,0,0,0-3.72-2.71q-2.21-.95-6.18-2.21a62.9,62.9,0,0,1-7.18-2.61,12.15,12.15,0,0,1-4.6-3.66,10,10,0,0,1-1.89-6.33,9.51,9.51,0,0,1,1.89-5.86,11.92,11.92,0,0,1,5.3-3.87,21,21,0,0,1,7.87-1.36,25.45,25.45,0,0,1,7.21,1.07,25.17,25.17,0,0,1,6.4,2.84l-1.89,3.72A22.71,22.71,0,0,0,907.62,828.73Z"/><path class="cls-1" d="M953.67,868.2l-.07-5.54a11.92,11.92,0,0,1-5.1,4.31,17.39,17.39,0,0,1-7.24,1.42,12.87,12.87,0,0,1-5.89-1.29,9.42,9.42,0,0,1-5.33-8.66,7.94,7.94,0,0,1,3.31-6.74q3.31-2.46,9.1-2.46h11.09v-2.52a7.81,7.81,0,0,0-2.33-6.05q-2.33-2.14-6.8-2.14-5.29,0-10.65,4l-1.89-2.9a28.21,28.21,0,0,1,6.36-3.43,20.09,20.09,0,0,1,6.94-1.11q6,0,9.25,3a10.8,10.8,0,0,1,3.34,8.28l.07,21.86Zm-4.19-5.38a10.07,10.07,0,0,0,4.12-5.77v-4.54H943a12.46,12.46,0,0,0-6.62,1.45,4.83,4.83,0,0,0-2.26,4.35,5.86,5.86,0,0,0,2.17,4.76,8.8,8.8,0,0,0,5.76,1.79A13.16,13.16,0,0,0,949.48,862.82Z"/><path class="cls-1" d="M982.3,826.56a6.61,6.61,0,0,0-1.8,4.85v4.66h9.71v3.34H980.5V868.2h-4.22V839.41h-4.22v-3.34h4.22v-4.16a11.69,11.69,0,0,1,1.39-5.76,9.61,9.61,0,0,1,3.72-3.81,10,10,0,0,1,5-1.33,11.68,11.68,0,0,1,5.79,1.52l-1.07,3.4a9.39,9.39,0,0,0-4.41-1.2A6,6,0,0,0,982.3,826.56Z"/><path class="cls-1" d="M1006.4,823.57a2.94,2.94,0,0,1,.82,2.11,3,3,0,0,1-.85,2.14,2.74,2.74,0,0,1-2,.88,2.79,2.79,0,0,1-2.11-.88,3,3,0,0,1-.85-2.14,2.9,2.9,0,0,1,3-3A2.76,2.76,0,0,1,1006.4,823.57Zm-4.22,11.62h4.22v33h-4.22Z"/><path class="cls-1" d="M1041.61,865.93a13.37,13.37,0,0,1-7.3,2.46,7.87,7.87,0,0,1-6-2.33c-1.47-1.55-2.2-3.89-2.2-7V839.41h-4.73l-.06-3.28h4.79v-8.5h4.22v8.5l10.71-.06v3.34h-10.71v19q0,6.12,4.53,6.12a10.82,10.82,0,0,0,5.48-1.77Z"/><path class="cls-1" d="M459.07,0V514.37H973.44V0ZM793.74,238.76q-3.45,2.52-7.22,5t-7.86,4.71A92.58,92.58,0,0,0,750.38,246q-14.13.94-25.44,2.2a10.25,10.25,0,0,0-8.17-3.62,43.44,43.44,0,0,0-9.9,1.57q-5.19,1.43-10.21,2.83a22.83,22.83,0,0,1-9.43.79,18.49,18.49,0,0,1-9.11,4.24q-5.65,1.09-11.94,1.73a1.94,1.94,0,0,0,.63,2.2c.63.42.73,1.25.31,2.51a11.41,11.41,0,0,0,6,3.93c2.52.73,5.08,1.41,7.7,2a28.51,28.51,0,0,1,7.07,2.67,8.23,8.23,0,0,1,4.08,5.5,19.53,19.53,0,0,1,9.74,3A27.32,27.32,0,0,1,708.6,284a25.32,25.32,0,0,1,4.08,8,20.54,20.54,0,0,1,.94,7.69q1.26,3.15,2.67,2.52c1-.42,2.05.11,3.3,1.57a25.47,25.47,0,0,0,5.82,9.9,41.06,41.06,0,0,1,7.07,11.15q.62,9.42,1.1,17a31.57,31.57,0,0,1-2.68,14.76,78.2,78.2,0,0,1-15.39,24.83c-6.71,7.33-13.5,15.23-22.78,19.32-63.19,27.83-140.87,79.81-140.87,79.81-2.83-.11-11,8.18-13.86,8a36.1,36.1,0,0,0-8.33.32,66.7,66.7,0,0,1-4.56-5,20.4,20.4,0,0,1-3.3-6,1.66,1.66,0,0,1-1.41-2c.1-1.15-.37-1.73-1.41-1.73a4.43,4.43,0,0,1,.31-1.89l.63-1.25c.83-.63,1.2-1.1,1.1-1.42a2.08,2.08,0,0,0-.94-.94,12.8,12.8,0,0,1-1.57-1.1,1.31,1.31,0,0,1-.48-1.57c1.05-1.89-1.26-18.19-.09-20.56,18.82-38,139.06-84.19,145.24-87.65s19.69-13.45,21.06-14.92,2.77-2.88,4.24-4.24a41.52,41.52,0,0,0,4.08-4.4,15.77,15.77,0,0,0,2.83-5.81,2.84,2.84,0,0,0,0-1.89,3.15,3.15,0,0,0-.94-1.1,11.26,11.26,0,0,1-1.26-1.1,2.53,2.53,0,0,1-.63-1.88c-.63-.21-1.21-.42-1.73-.63a3.83,3.83,0,0,0-1.41-.32,116.6,116.6,0,0,0-17.28-6.91,82.71,82.71,0,0,1-15.4-6.28,8.32,8.32,0,0,1-7.54,1.26q-3.76-1.26-9.11-2.52a226,226,0,0,1-25-2.51,96.5,96.5,0,0,1-22.78-6.6,13.65,13.65,0,0,0-1.57-3.3c-.63-.94-2.09-1.2-4.4-.79a67.29,67.29,0,0,0-4.55-5.81,33.13,33.13,0,0,1-4.24-6.12c.62-3.15,1-5.71,1.25-7.7s-.52-4.14-2.2-6.44q1.26-5,2-7.86a20.76,20.76,0,0,0,.16-7.85,34.86,34.86,0,0,1,8.64-13.83,62.57,62.57,0,0,1,12.73-9.58,89.41,89.41,0,0,1,14.45-6.6q7.54-2.67,14.14-4.56a1.11,1.11,0,0,0-1.26-1.25c-.84,0-1-.52-.63-1.57a232.56,232.56,0,0,0,34.1-9.11q17.12-6,35-10.69A187.46,187.46,0,0,1,732.79,189a118,118,0,0,1,39.59,4.87,32.39,32.39,0,0,0,3.46,7.23q2.19,3.45,4.55,6.75c1.57,2.2,3,4.35,4.24,6.44a15.42,15.42,0,0,1,2.2,6.6,33.4,33.4,0,0,1,6.13,7.38C794.53,230.86,794.79,234.36,793.74,238.76Zm93.41,41.62c-9,1.82-48.85-.35-49.54-.87a10.88,10.88,0,0,1-2.14-2.45,4.17,4.17,0,0,1,1.78-.66c.61-.08.86-.55.76-1.44-1.87-.08-2.86-.57-3-1.46a37.62,37.62,0,0,0-4.39-5.79c-2.15-2.44-3.27-4.12-3.38-5l1.27-1a10.45,10.45,0,0,0-2.33-6,26.8,26.8,0,0,0-3.65-3.4c-1.19-.92-2.37-1.83-3.57-2.74a5.64,5.64,0,0,1-2.1-4c-.14-1.18.1-1.81.71-1.88l.46-.06c-.14-1.18-.67-1.72-1.58-1.61a2.72,2.72,0,0,1-2.45-1.07l2.75-.32q-.46-4-3.87-9.23a110.66,110.66,0,0,1-5.8-9.9l-.47-4a39.64,39.64,0,0,0-3.61-7,21,21,0,0,0-4.83-5.51,3.87,3.87,0,0,0,1.07-2.83l-.11-.89a1.87,1.87,0,0,0-.33-.86,1.92,1.92,0,0,1-.34-.86l-1.07-1.23a69,69,0,0,1-4.95-6.62,17.36,17.36,0,0,1-3.18-7.28l-4.58.54-1.07-1.23,2.64-1.21L784,179.07a9.13,9.13,0,0,1-.87-3.5,36.11,36.11,0,0,0-1.11-5.49,17.28,17.28,0,0,0-2.2-4.93c-.94-1.38-62-114.9-57.29-119.65,0,0-1.21-12.92-1.28-13.52a9.25,9.25,0,0,1,3.09-5.31c1.43-1.07,33.92-1.79,34.57-.23a20.61,20.61,0,0,0,1.54,3.2,34.9,34.9,0,0,1,3.6,5,8.42,8.42,0,0,1,1,2.59l-.4.5,2.86,4.61q2,4.74,5.27,11.31C775,58,777.24,62.2,779.4,66.15s4,7.33,5.6,10.15,2.51,4.21,2.81,4.17l5.62,8.35-3.76,3.59,11,10.42,1.85,7.89,2.24-.71,1.85,7.88,5.31,5.69,6,11.45.1.89c.14,1.18,1.09,2,2.84,2.37s22.29,45.56,22.29,45.56l.77,2.61a6.44,6.44,0,0,0,2.53,3.76,4.39,4.39,0,0,1,2,3.37l-.92.1c.11.89.55,1.29,1.3,1.2s1.24.61,1.41,2.09l-1.48-.73.11.89a2.6,2.6,0,0,0,1.43,2.31,2.2,2.2,0,0,1,1.38,1.86,2.67,2.67,0,0,1-1.73,1.11,1.94,1.94,0,0,0,1.43.28c1.22-.14,3.51,2.82,6.84,8.88s6.82,12.63,10.44,19.71l-.33,9.05,2.81,4.17,1.58,1.61a29.29,29.29,0,0,0,2.41,4.67l3.37,5,2,5.16.57,4.89C881.44,269.11,891.74,279.46,887.15,280.38Z"/><path class="cls-1" d="M0,640.89H72.26v11.48H12.65v26.12H65.76V690H12.65V726.2h61v11.49H0Z"/><path class="cls-1" d="M110.78,640.89h14.15l25.16,55.57q1.71,3.84,3.14,7.59,3.28,8.41,5.06,13.74h.62c.64-2,1.34-4.12,2.12-6.22l2.46-6.7c1-2.46,2-5,3.21-7.52l25.57-56.46h13.4l-44.44,98.16h-6Z"/><path class="cls-1" d="M249.66,640.89h72.26v11.48H262.31v26.12h53.11V690H262.31V726.2h61v11.49H249.66Z"/><path class="cls-1" d="M371.31,640.89h11.08l62.34,76.42V640.89H456v96.8H445.42l-62.83-77v77H371.31Z"/><path class="cls-1" d="M537.54,652.37H501.17V640.89h85.38v11.48H550.18v85.32H537.54Z"/><path class="cls-1" d="M734,640.89h7.17l41.91,96.8H769.29l-9.16-21.2H711.66l-9.91,21.2h-13ZM755.21,705l-8.75-20.3c-1.1-2.55-2.17-5.2-3.22-7.93l-2.73-7.73a83.21,83.21,0,0,1-3.08-10.25h-.82a52.86,52.86,0,0,1-2.46,7.79l-3.48,8.89q-1.57,3.82-3.42,7.79L717.06,705Z"/><path class="cls-1" d="M828.94,715.71a48.69,48.69,0,0,1-5-11.83,50.75,50.75,0,0,1-1.78-13.7,51.35,51.35,0,0,1,1.88-14,47.73,47.73,0,0,1,5.37-12.31,48.69,48.69,0,0,1,8.34-10.15,50.15,50.15,0,0,1,10.8-7.66,57.32,57.32,0,0,1,27.14-6.56q21.6,0,35.75,12l-7.11,9.71q-12-10.39-29.87-10.39-16.2,0-27.48,10.66a35.2,35.2,0,0,0-11.42,26.73q0,17.43,11.28,28.44t28.64,11A38.54,38.54,0,0,0,899.08,720a30.51,30.51,0,0,0,5-4.58V704.94H870.5V693.46h46.21v44.23H904.07v-9.37q-7.8,7-20.85,9.78a58.11,58.11,0,0,1-11.15.95,54.32,54.32,0,0,1-12.92-1.6A50.41,50.41,0,0,1,847,732.8a49.42,49.42,0,0,1-10.22-7.35A43.52,43.52,0,0,1,828.94,715.71Z"/><path class="cls-1" d="M969.87,640.89h72.26v11.48H982.52v26.12h53.11V690H982.52V726.2h61v11.49H969.87Z"/><path class="cls-1" d="M1091.52,640.89h11.08l62.34,76.42V640.89h11.28v96.8h-10.6l-62.82-77v77h-11.28Z"/><path class="cls-1" d="M1307.65,661q-11.36-10.12-29.19-10.12-16.2,0-27.48,10.66a35.2,35.2,0,0,0-11.42,26.73,37.69,37.69,0,0,0,11.76,28,39.1,39.1,0,0,0,28.37,11.42,52.61,52.61,0,0,0,24.13-6.16,32.94,32.94,0,0,0,6.15-3.89l4.92,9.43q-10,8.61-25.91,11.14a66,66,0,0,1-10.52.82,56.66,56.66,0,0,1-20.24-3.59,51.91,51.91,0,0,1-16.64-10A47.1,47.1,0,0,1,1230.3,710a42.67,42.67,0,0,1-4.14-18A58.51,58.51,0,0,1,1228,676.2a47.73,47.73,0,0,1,5.37-12.31,48.69,48.69,0,0,1,8.34-10.15,50.15,50.15,0,0,1,10.8-7.66,57.32,57.32,0,0,1,27.14-6.56q19.89,0,34.31,11.35Z"/><path class="cls-1" d="M1385,696.4l-35.68-55.51h13.88l28.23,44.23,28-44.23h13.06l-34.86,55.3v41.5H1385Z"/></g></g></svg>