<svg width="33" height="33" viewBox="0 0 33 33" fill="none" xmlns="http://www.w3.org/2000/svg">
<g clip-path="url(#clip0)">
<path d="M29.8233 20.5381C29.3899 20.5381 29.0387 20.8893 29.0387 21.3226V28.2882C29.0372 29.5875 27.9846 30.6405 26.6852 30.6417H4.67257C3.37322 30.6405 2.32056 29.5875 2.31903 28.2882V7.84457C2.32056 6.54552 3.37322 5.49256 4.67257 5.49102H11.6382C12.0715 5.49102 12.4227 5.13983 12.4227 4.70651C12.4227 4.2735 12.0715 3.922 11.6382 3.922H4.67257C2.50719 3.92445 0.752452 5.67919 0.75 7.84457V28.2885C0.752452 30.4539 2.50719 32.2086 4.67257 32.2111H26.6852C28.8506 32.2086 30.6053 30.4539 30.6078 28.2885V21.3226C30.6078 20.8893 30.2566 20.5381 29.8233 20.5381Z" fill="black"/>
<path d="M30.2971 1.90343C28.9184 0.524705 26.6831 0.524705 25.3044 1.90343L11.3082 15.8996C11.2123 15.9956 11.143 16.1145 11.1068 16.245L9.2663 22.8898C9.19061 23.1622 9.26752 23.4539 9.46733 23.6541C9.66744 23.8539 9.95918 23.9308 10.2316 23.8554L16.8764 22.0145C17.0069 21.9784 17.1258 21.9091 17.2218 21.8132L31.2177 7.81669C32.5943 6.43705 32.5943 4.20364 31.2177 2.824L30.2971 1.90343ZM13.0176 16.4096L24.4724 4.95445L28.1667 8.64871L16.7115 20.1038L13.0176 16.4096ZM12.2796 17.8903L15.2311 20.8421L11.1485 21.9732L12.2796 17.8903ZM30.1083 6.70734L29.2763 7.53936L25.5817 3.84479L26.4141 3.01278C27.1799 2.24696 28.4216 2.24696 29.1875 3.01278L30.1083 3.93335C30.8729 4.70009 30.8729 5.94091 30.1083 6.70734Z" fill="black"/>
</g>
<defs>
<clipPath id="clip0">
<rect width="31.5" height="31.5" fill="white" transform="translate(0.75 0.75)"/>
</clipPath>
</defs>
</svg>
