<svg width="75" height="75" viewBox="0 0 75 75" fill="none" xmlns="http://www.w3.org/2000/svg">
<g clip-path="url(#clip0)">
<path d="M72.9023 29.1996L61.7049 22.4774C61.7083 22.4413 61.71 22.4047 61.71 22.3675V1.10722C61.71 0.49553 61.2145 0 60.6028 0H55.7305C55.1194 0 54.6233 0.49553 54.6233 1.10722C54.6233 1.7189 55.1194 2.21443 55.7305 2.21443H59.4956V21.151L49.5942 15.2069H54.6976C55.3088 15.2069 55.8049 14.7114 55.8049 14.0997C55.8049 13.488 55.3088 12.9925 54.6976 12.9925H46.0848C46.031 12.9925 45.9784 12.9976 45.9263 13.0051L41.724 10.4828H54.6971C55.3088 10.4828 55.8043 9.98669 55.8043 9.37501C55.8043 8.76389 55.3088 8.26779 54.6971 8.26779H38.1615C38.122 8.26779 38.0837 8.27008 38.0453 8.27409L32.396 4.88263C31.8787 4.57192 31.1863 4.7453 30.8762 5.262L30.4899 5.90573H19.2633C18.6522 5.90573 18.1561 6.40126 18.1561 7.01295V18.8244C18.1561 19.4355 18.6522 19.9316 19.2633 19.9316H22.0699L14.4653 32.5997V2.21443H50.6127C51.2244 2.21443 51.7199 1.7189 51.7199 1.10722C51.7199 0.49553 51.2244 0 50.6127 0H13.3581C12.7464 0 12.2503 0.49553 12.2503 1.10722V36.2887L1.69602 53.8702C1.38131 54.3944 1.55125 55.0747 2.07539 55.3895L34.4811 74.8427C34.7294 74.9921 35.0384 75.0378 35.3194 74.9674L48.2838 71.7299C48.5653 71.6595 48.8154 71.4741 48.9647 71.2252L56.3588 58.9091H60.6028C61.2145 58.9091 61.7106 58.413 61.7106 57.8013V49.9941L73.2817 30.7188C73.5964 30.1941 73.4265 29.5143 72.9023 29.1996ZM23.3975 17.7172H20.3711V8.12016H29.1607L23.3992 17.7172C23.3986 17.7172 23.398 17.7172 23.3975 17.7172ZM37.3759 72.1711L40.2935 67.3113L45.1538 70.229L44.3522 70.4287L37.3759 72.1711ZM59.4956 56.6941H57.6886L59.4956 53.6837V56.6941ZM47.6361 69.1361L40.4841 64.8428C39.9599 64.5281 39.2796 64.6981 38.9649 65.2222L34.6716 72.3742L4.16508 54.0602L32.2054 7.35112L70.8132 30.5283L47.6361 69.1361Z" fill="#FFC700"/>
<path d="M39.7602 20.1524L47.8615 25.0156C48.04 25.1226 48.2363 25.1735 48.4303 25.1735C48.8062 25.1735 49.173 24.9818 49.3807 24.6362C49.696 24.1115 49.526 23.4317 49.0013 23.1164L40.9 18.2533C40.3759 17.9386 39.6955 18.1085 39.3808 18.6326C39.0661 19.1574 39.2361 19.8377 39.7602 20.1524Z" fill="#FFC700"/>
<path d="M51.9122 27.4478L63.0519 34.1346C63.6109 34.4699 64.3571 34.2376 64.6289 33.646C64.8606 33.1401 64.6684 32.5221 64.1917 32.236L53.052 25.5487C52.5279 25.234 51.8475 25.4039 51.5328 25.9281C51.2181 26.4528 51.388 27.1331 51.9122 27.4478Z" fill="#FFC700"/>
<path d="M29.024 21.9726L38.1381 27.4441C38.3166 27.5511 38.5129 27.602 38.7069 27.602C39.0828 27.602 39.4496 27.4103 39.6573 27.0647C39.9726 26.5406 39.8026 25.8602 39.2779 25.5455L30.1638 20.0741C29.6397 19.7594 28.9593 19.9293 28.6446 20.4534C28.3299 20.9776 28.4999 21.6579 29.024 21.9726Z" fill="#FFC700"/>
<path d="M60.5439 38.3116L43.3285 27.9764C42.8044 27.6617 42.124 27.8316 41.8093 28.3563C41.4946 28.8805 41.6645 29.5608 42.1887 29.8755L59.404 40.2102C59.9631 40.5455 60.7098 40.3131 60.981 39.7215C61.2133 39.2157 61.0211 38.5977 60.5439 38.3116Z" fill="#FFC700"/>
<path d="M57.5044 43.3756L27.1243 25.1377C26.6001 24.823 25.9198 24.9923 25.6051 25.5171C25.2904 26.0412 25.4603 26.7215 25.9844 27.0363L56.3646 45.2741C56.9236 45.6095 57.6703 45.3771 57.9416 44.7855C58.1739 44.2791 57.981 43.6617 57.5044 43.3756Z" fill="#FFC700"/>
<path d="M54.4648 48.4382L31.1738 34.4564C30.6491 34.1417 29.9693 34.3116 29.654 34.8358C29.3393 35.3599 29.5092 36.0403 30.0339 36.355L53.325 50.3374C53.884 50.6727 54.6308 50.4404 54.902 49.8487C55.1343 49.3423 54.9415 48.7243 54.4648 48.4382Z" fill="#FFC700"/>
<path d="M19.9053 37.1627L38.1335 48.1049C38.3121 48.2119 38.5083 48.2629 38.7023 48.2629C39.0782 48.2629 39.445 48.0712 39.6527 47.7256C39.9674 47.2014 39.7975 46.5211 39.2734 46.2064L21.0452 35.2635C20.5205 34.9488 19.8407 35.1187 19.526 35.6434C19.2113 36.1676 19.3812 36.8479 19.9053 37.1627Z" fill="#FFC700"/>
<path d="M51.4252 53.5018L43.3239 48.6387C42.7997 48.3239 42.1194 48.4933 41.8047 49.018C41.4894 49.5422 41.6593 50.2225 42.1841 50.5372L50.2853 55.4004C50.8444 55.7363 51.5911 55.5034 51.8623 54.9117C52.0941 54.4059 51.9018 53.7879 51.4252 53.5018Z" fill="#FFC700"/>
<path d="M16.8658 42.2261L23.9543 46.4816C24.1328 46.5891 24.3291 46.6401 24.523 46.6401C24.8995 46.6401 25.2663 46.4484 25.474 46.1022C25.7888 45.5781 25.6188 44.8977 25.0941 44.583L18.0056 40.3275C17.4815 40.0128 16.8011 40.1827 16.4864 40.7069C16.1717 41.2316 16.3417 41.9119 16.8658 42.2261Z" fill="#FFC700"/>
<path d="M48.3857 58.5655L29.1452 47.015C28.6205 46.7003 27.9407 46.8702 27.6255 47.3944C27.3107 47.9185 27.4807 48.5989 28.0048 48.9136L47.2458 60.4641C47.8049 60.7994 48.551 60.5671 48.8228 59.9754C49.0546 59.4696 48.8623 58.8516 48.3857 58.5655Z" fill="#FFC700"/>
<path d="M45.3462 63.6288L14.9661 45.391C14.4414 45.0763 13.7616 45.2462 13.4469 45.7703C13.1322 46.2945 13.3021 46.9748 13.8262 47.2895L44.2063 65.5274C44.7648 65.8627 45.5115 65.6304 45.7828 65.0388C46.0151 64.5329 45.8228 63.915 45.3462 63.6288Z" fill="#FFC700"/>
<path d="M24.0784 57.7495L11.9265 50.4544C11.4018 50.1397 10.722 50.3097 10.4067 50.8338C10.092 51.358 10.2619 52.0383 10.7866 52.353L22.9386 59.648C23.1171 59.7556 23.3134 59.8065 23.5073 59.8065C23.8833 59.8065 24.2501 59.6149 24.4578 59.2687C24.7725 58.7445 24.6025 58.0642 24.0784 57.7495Z" fill="#FFC700"/>
<path d="M35.2175 64.4365L28.1291 60.181C27.6044 59.8663 26.9246 60.0362 26.6099 60.5604C26.2946 61.0845 26.4645 61.7649 26.9892 62.0796L34.0777 66.3351C34.6368 66.6704 35.3835 66.4381 35.6547 65.8464C35.887 65.3406 35.6948 64.7226 35.2175 64.4365Z" fill="#FFC700"/>
</g>
<defs>
<clipPath id="clip0">
<rect width="74.8536" height="75" fill="white"/>
</clipPath>
</defs>
</svg>
