<svg width="75" height="75" viewBox="0 0 75 75" fill="none" xmlns="http://www.w3.org/2000/svg">
<g clip-path="url(#clip0)">
<path d="M74.7456 33.7503C74.3788 33.3398 73.7496 33.3089 73.3421 33.6747L71.392 35.425L60.8164 24.9389C60.4268 24.5533 59.7986 24.5543 59.411 24.9449C59.0244 25.3345 59.0263 25.9637 59.417 26.3503L69.911 36.7549L64.7157 41.4175L47.437 23.9162L64.6123 7.66818C65.0109 7.29048 65.0288 6.66132 64.6511 6.26274C64.2724 5.86318 63.6442 5.84827 63.2456 6.22299L45.3328 23.1697C45.139 23.3536 45.0267 23.6071 45.0217 23.8744C45.0167 24.1418 45.1211 24.3992 45.3079 24.5901L46.8992 26.2022L43.3936 29.8699L36.6318 29.1493C36.3326 29.1135 36.0394 29.2209 35.8267 29.4316L33.0785 32.156L27.9696 27.1097L29.6911 25.3663C29.878 25.1765 29.9823 24.9181 29.9774 24.6507C29.9724 24.3833 29.8611 24.1299 29.6662 23.946L11.7544 7.00025C11.3568 6.62454 10.7267 6.63945 10.349 7.04001C9.97126 7.43858 9.98915 8.06775 10.3877 8.44544L22.4751 19.8788L4.77393 37.2479L1.65791 34.452C1.2504 34.0862 0.621229 34.119 0.254464 34.5275C-0.112301 34.936 -0.0785071 35.5642 0.330004 35.931L9.66214 44.3069C9.85099 44.4769 10.0895 44.5614 10.3261 44.5614C10.5835 44.5614 10.84 44.462 11.0338 44.2662L12.7245 42.5536L22.0188 51.7208L20.3113 53.4572C19.9286 53.8468 19.9306 54.471 20.3172 54.8567L23.802 58.3414C23.802 58.3414 23.804 58.3424 23.804 58.3434C23.804 58.3444 23.805 58.3454 23.806 58.3454L27.2917 61.7914L30.7725 65.2732L34.2573 68.7579C34.4511 68.9518 34.7055 69.0492 34.96 69.0492C35.2144 69.0492 35.4689 68.9518 35.6627 68.7579L37.4657 66.9549L39.2986 68.7629C39.4914 68.9538 39.7438 69.0492 39.9963 69.0492C40.2508 69.0492 40.5052 68.9518 40.699 68.7579L43.4811 65.9759L43.8916 66.3864C44.0854 66.5802 44.3398 66.6776 44.5943 66.6776C44.8487 66.6776 45.1032 66.5802 45.297 66.3864L48.0791 63.6043L48.4896 64.0148C48.6834 64.2087 48.9378 64.3061 49.1923 64.3061C49.4467 64.3061 49.7012 64.2087 49.895 64.0148L52.677 61.2328L53.0865 61.6423C53.2804 61.8361 53.5348 61.9335 53.7893 61.9335C54.0437 61.9335 54.2982 61.8361 54.492 61.6423L57.9767 58.1575C58.3654 57.7689 58.3654 57.1407 57.9767 56.7521L52.8023 51.5776L62.1543 41.6551L63.9672 43.4919C64.1611 43.6887 64.4175 43.7871 64.6749 43.7871C64.9115 43.7871 65.15 43.7026 65.3389 43.5326L74.671 35.1567C75.0785 34.7869 75.1123 34.1588 74.7456 33.7503ZM24.4759 34.3039C24.4759 36.7023 22.5248 38.6524 20.1274 38.6524C19.1732 38.6524 18.2568 38.3383 17.5093 37.7737L23.5972 31.6848C24.1618 32.4333 24.4759 33.3497 24.4759 34.3039ZM25.0066 30.2754L26.6655 28.6165L27.5621 29.5021L25.7352 31.3727C25.5324 30.9841 25.2889 30.6164 25.0066 30.2754ZM10.2843 42.1938L6.2559 38.5778L23.9203 21.2455L27.5641 24.6924L10.2843 42.1938ZM16.0999 39.1832C16.4518 39.4744 16.8315 39.7239 17.235 39.9316C16.9199 40.2556 16.5949 40.5926 16.2679 40.9305C15.8723 41.339 15.4866 41.7356 15.1139 42.1183L14.1329 41.1512L16.0999 39.1832ZM23.4342 53.1153L25.5235 55.1757L24.4967 56.2243L22.4194 54.147L23.4342 53.1153ZM27.9855 59.6822L25.9091 57.6298L26.9458 56.5792L29.0311 58.6356L27.9855 59.6822ZM30.4465 60.0321L32.5397 62.0965L31.4732 63.163L29.3939 61.0837L30.4465 60.0321ZM34.959 66.6478L32.8797 64.5685L33.9561 63.492L36.0494 65.5574L34.959 66.6478ZM53.7883 59.5312L53.3788 59.1217L49.3662 55.1091C49.3662 55.1091 49.3652 55.1091 49.3652 55.1081L48.1456 53.8885C47.757 53.4999 47.1288 53.4999 46.7402 53.8885C46.3516 54.2772 46.3516 54.9054 46.7402 55.294L51.2716 59.8244L49.1923 61.9037L43.5487 56.2601C43.16 55.8715 42.5319 55.8715 42.1432 56.2601C41.7546 56.6487 41.7546 57.2769 42.1432 57.6655L43.3648 58.8871L46.6736 62.1969L44.5943 64.2763L41.3312 61.0141L40.1712 59.8542C40.1712 59.8542 40.1702 59.8542 40.1702 59.8532L38.9507 58.6336C38.562 58.245 37.9339 58.245 37.5452 58.6336C37.1566 59.0223 37.1566 59.6504 37.5452 60.0391L39.8263 62.3202L42.0756 64.5695L39.9913 66.6538L16.5293 43.5138C16.906 43.1271 17.2966 42.7246 17.6952 42.3121C18.2806 41.7078 18.8571 41.1124 19.37 40.5916C19.6205 40.6214 19.8719 40.6403 20.1274 40.6403C23.6221 40.6403 26.4638 37.7976 26.4638 34.3039C26.4638 34.0425 26.4439 33.784 26.4121 33.5276L28.9774 30.8996L31.6681 33.5564L22.2852 42.8607C22.0835 43.0605 21.9771 43.3368 21.993 43.6211C22.0089 43.9054 22.1441 44.1678 22.3667 44.3447C22.5983 44.5306 28.0412 48.6525 37.4916 39.0748L55.8676 57.4518L53.7883 59.5312ZM51.3949 50.1692L38.1804 36.9537C37.9905 36.7639 37.755 36.6585 37.4617 36.6625C37.1924 36.6665 36.9379 36.7798 36.7531 36.9756C30.6562 43.4631 26.5721 43.6599 24.7303 43.2345L36.8902 31.1759L41.6582 31.6838L40.9425 32.4333C40.5629 32.8299 40.5778 33.459 40.9734 33.8387C41.3699 34.2174 41.9981 34.2045 42.3788 33.8069L48.092 27.8303L60.6306 40.3689L51.3949 50.1692ZM53.1333 21.6341C53.1333 23.3466 54.5268 24.7402 56.2393 24.7402C57.9519 24.7402 59.3454 23.3466 59.3454 21.6341C59.3454 19.9215 57.9519 18.528 56.2393 18.528C54.5268 18.528 53.1333 19.9215 53.1333 21.6341ZM57.3575 21.6341C57.3575 22.2503 56.8556 22.7523 56.2393 22.7523C55.6231 22.7523 55.1211 22.2503 55.1211 21.6341C55.1211 21.0178 55.6231 20.5159 56.2393 20.5159C56.8556 20.5159 57.3575 21.0178 57.3575 21.6341Z" fill="#FFC700"/>
</g>
<defs>
<clipPath id="clip0">
<rect width="75" height="75" fill="white"/>
</clipPath>
</defs>
</svg>
