<svg width="75" height="75" viewBox="0 0 75 75" fill="none" xmlns="http://www.w3.org/2000/svg">
<path d="M73.1272 34.9546H69.0845V34.1945C69.0845 33.6367 68.6317 33.1839 68.0738 33.1839C67.5159 33.1839 67.0631 33.6367 67.0631 34.1945V34.9546H66.5578V34.1945C66.5578 33.6367 66.105 33.1839 65.5471 33.1839C64.9892 33.1839 64.5364 33.6367 64.5364 34.1945V34.9546H56.8713V16.6763H72.821C73.3789 16.6763 73.8317 16.2235 73.8317 15.6656V8.83239C73.8317 8.27449 73.3789 7.8217 72.821 7.8217H63.5671V5.05343C63.5671 4.49553 63.1144 4.04275 62.5565 4.04275H49.1649C48.607 4.04275 48.1542 4.49553 48.1542 5.05343V7.8217H29.1624V1.01069C29.1624 0.452787 28.7096 0 28.1517 0H9.62177C9.06387 0 8.61108 0.452787 8.61108 1.01069V7.8217H1.87385C1.31595 7.8217 0.863159 8.27449 0.863159 8.83239V15.6656C0.863159 16.2235 1.31595 16.6763 1.87385 16.6763H8.61108V62.9152H1.87385C1.31595 62.9152 0.863159 63.368 0.863159 63.9259V73.9893C0.863159 74.5472 1.31595 75 1.87385 75H35.5631C36.1209 75 36.5737 74.5472 36.5737 73.9893V63.9259C36.5737 63.368 36.1209 62.9152 35.5631 62.9152H29.1624V16.6763H54.85V34.9546H47.101V34.1945C47.101 33.6367 46.6483 33.1839 46.0904 33.1839C45.5325 33.1839 45.0797 33.6367 45.0797 34.1945V34.9546H44.5743V34.1945C44.5743 33.6367 44.1215 33.1839 43.5636 33.1839C43.0057 33.1839 42.553 33.6367 42.553 34.1945V34.9546H38.5941C38.0362 34.9546 37.5834 35.4074 37.5834 35.9653V39.1985V39.5845V42.4316V42.8177V45.6658V46.0519V49.2851C37.5834 49.843 38.0362 50.2958 38.5941 50.2958H42.553V51.0397C42.553 51.5976 43.0057 52.0503 43.5636 52.0503C44.1215 52.0503 44.5743 51.5976 44.5743 51.0397V50.2968H45.0797V51.0397C45.0797 51.5976 45.5325 52.0503 46.0904 52.0503C46.6483 52.0503 47.101 51.5976 47.101 51.0397V50.2968H54.85V51.0397C54.85 51.5976 55.3028 52.0503 55.8607 52.0503C56.4186 52.0503 56.8713 51.5976 56.8713 51.0397V50.2968H64.5354V51.0397C64.5354 51.5976 64.9882 52.0503 65.5461 52.0503C66.104 52.0503 66.5568 51.5976 66.5568 51.0397V50.2968H67.0621V51.0397C67.0621 51.5976 67.5149 52.0503 68.0728 52.0503C68.6307 52.0503 69.0835 51.5976 69.0835 51.0397V50.2968H73.1262C73.6841 50.2968 74.1369 49.844 74.1369 49.2861V46.0529V45.6668V42.8187V42.4327V39.5855V39.1995V35.9663C74.1379 35.4074 73.6851 34.9546 73.1272 34.9546ZM71.8103 14.655H56.8713V9.84307H62.5565H71.8103V14.655ZM50.1756 6.06412H61.5458V7.8217H50.1756V6.06412ZM10.6325 2.02137H27.14V7.8217H10.6325V2.02137ZM10.6325 37.1073L24.1878 44.5005H10.6325V37.1073ZM10.6325 27.238L24.1878 34.6312H10.6325V27.238ZM27.141 46.5219V53.6786L14.0203 46.5219H27.141ZM14.0203 36.6525H27.14V43.8092L14.0203 36.6525ZM14.0203 26.7832H27.14V33.9399L14.0203 26.7832ZM10.6325 46.9767L24.1878 54.3699H10.6325V46.9767ZM10.6325 24.7618V17.3686L24.1878 24.7618H10.6325ZM10.6325 57.596L20.3977 62.9152H10.6325V57.596ZM34.5524 72.9786H2.88453V64.9366H9.62177H28.1507H34.5514V72.9786H34.5524ZM24.6224 62.9152L12.6467 56.3912H27.141V62.9152H24.6224ZM27.141 24.0695L13.5857 16.6763H27.141V24.0695ZM2.88453 14.655V9.84307H49.1659H54.851V14.655H2.88453ZM56.8713 41.422V40.5962H64.5354V41.422H56.8713ZM54.85 41.422H47.101V40.5962H54.85V41.422ZM54.85 43.8294V44.6562H47.101V43.8294H54.85ZM56.8713 43.8294H64.5354V44.6562H56.8713V43.8294ZM66.5578 41.422V40.5962H67.0631V41.422H66.5578ZM45.0807 40.5962V41.422H44.5753V40.5962H45.0807ZM45.0807 43.8294V44.6562H44.5753V43.8294H45.0807ZM66.5578 44.6562V43.8294H67.0631V44.6562H66.5578ZM69.0845 41.422V40.5962H72.1165V41.422H69.0845ZM42.554 40.5962V41.422H39.6058V40.5962H42.554ZM39.6058 43.8294H42.554V44.6562H39.6058V43.8294ZM69.0845 44.6562V43.8294H72.1165V44.6562H69.0845ZM72.1165 36.976V38.1878H69.0845V36.976H72.1165ZM67.0631 36.976V38.1878H66.5578V36.976H67.0631ZM64.5364 36.976V38.1878H56.8713V36.976H64.5364ZM54.85 36.976V38.1878H47.101V36.976H54.85ZM45.0807 36.976V38.1878H44.5753V36.976H45.0807ZM42.554 36.976V38.1878H39.6058V36.976H42.554ZM39.6058 48.2754V47.0636H42.554V48.2754H39.6058ZM44.5753 48.2754V47.0636H45.0807V48.2754H44.5753ZM47.1021 48.2754V47.0636H54.851V48.2754H47.1021ZM56.8713 48.2754V47.0636H64.5354V48.2754H56.8713ZM66.5578 48.2754V47.0636H67.0631V48.2754H66.5578ZM69.0845 48.2754V47.0636H72.1165V48.2754H69.0845Z" fill="#FFC700"/>
</svg>
