<svg width="71" height="75" viewBox="0 0 71 75" fill="none" xmlns="http://www.w3.org/2000/svg">
<path d="M24.5169 20.8873L23.2485 21.3469C21.2908 22.0568 19.8304 23.7692 19.4368 25.8172L19.0064 28.0725C18.7917 29.1896 19.0841 30.3336 19.809 31.2109C20.5343 32.0891 21.6036 32.5927 22.7424 32.5927H33.737C34.867 32.5927 35.9309 32.0957 36.656 31.2291C37.3805 30.3632 37.682 29.2295 37.4831 28.1188L37.0817 25.8753C36.7098 23.7951 35.2445 22.0549 33.2573 21.3337L31.9126 20.8464V18.8645C31.9126 18.8088 31.9072 18.7546 31.8991 18.7011C32.8801 17.7024 33.442 16.3405 33.442 14.9472V11.9942C33.442 9.11167 31.0968 6.7666 28.2141 6.7666C25.3315 6.7666 22.9858 9.11167 22.9858 11.9942V15.0392C22.9858 16.4715 23.5764 17.7792 24.5261 18.7288C24.5205 18.7733 24.5169 18.8183 24.5169 18.8643V20.8873ZM34.9184 26.2621L35.3198 28.5058C35.4039 28.9747 35.2766 29.4532 34.9706 29.8188C34.6641 30.1851 34.2144 30.3953 33.7367 30.3953H22.7421C22.2609 30.3953 21.8091 30.1826 21.5027 29.8115C21.1968 29.4412 21.0733 28.9585 21.1641 28.4858L21.5945 26.2306C21.8425 24.9397 22.7633 23.86 23.9969 23.4128L24.8277 23.1118C24.8485 23.1332 24.8695 23.1547 24.892 23.1745C25.8387 24.0022 27.0263 24.4162 28.2146 24.4161C29.4014 24.4161 30.5886 24.003 31.5355 23.1768C31.5697 23.1471 31.601 23.115 31.6309 23.0816L32.5073 23.3993C33.7603 23.8537 34.6841 24.9506 34.9184 26.2621ZM25.1831 11.9942C25.1831 10.3234 26.5426 8.96387 28.2137 8.96387C29.624 8.96387 30.8091 9.93359 31.1456 11.2402C31.0044 11.3092 30.8595 11.3744 30.7111 11.4337C29.3602 11.9746 28.2691 11.9028 27.9572 11.6842C27.4603 11.3359 26.7754 11.456 26.4269 11.9529C26.0785 12.4498 26.1988 13.1347 26.6955 13.4832C27.2321 13.8595 27.9604 14.0476 28.7916 14.0476C29.5467 14.0476 30.3868 13.8907 31.2445 13.5803V14.9469C31.2445 15.7867 30.8971 16.609 30.2914 17.203C30.0111 17.4781 29.6898 17.6913 29.3448 17.8383C29.3207 17.8476 29.2969 17.8575 29.2737 17.8684C28.9193 18.0085 28.5408 18.079 28.1539 18.0689C26.5157 18.0374 25.1831 16.6782 25.1831 15.039V11.9942ZM28.1117 20.266C28.1453 20.2666 28.1785 20.2669 28.2121 20.2669C28.7276 20.2669 29.2326 20.1894 29.7152 20.0407V21.7984C28.7995 22.3629 27.6289 22.3626 26.7144 21.7975V20.0439C27.1589 20.1786 27.6272 20.2566 28.1117 20.266Z" fill="#FFC700"/>
<path d="M10.9292 51.4023H45.1436C45.7504 51.4023 46.2422 50.9106 46.2422 50.3037C46.2422 49.6968 45.7504 49.2051 45.1436 49.2051H10.9292C10.3223 49.2051 9.83057 49.6968 9.83057 50.3037C9.83057 50.9106 10.3223 51.4023 10.9292 51.4023Z" fill="#FFC700"/>
<path d="M10.9292 57.3257H45.1436C45.7504 57.3257 46.2422 56.8339 46.2422 56.2271C46.2422 55.6202 45.7504 55.1284 45.1436 55.1284H10.9292C10.3223 55.1284 9.83057 55.6202 9.83057 56.2271C9.83057 56.8339 10.3223 57.3257 10.9292 57.3257Z" fill="#FFC700"/>
<path d="M10.9292 63.2495H45.1436C45.7504 63.2495 46.2422 62.7578 46.2422 62.1509C46.2422 61.544 45.7504 61.0522 45.1436 61.0522H10.9292C10.3223 61.0522 9.83057 61.544 9.83057 62.1509C9.83057 62.7578 10.3223 63.2495 10.9292 63.2495Z" fill="#FFC700"/>
<path d="M10.9292 69.1733H45.1436C45.7504 69.1733 46.2422 68.6816 46.2422 68.0747C46.2422 67.4678 45.7504 66.9761 45.1436 66.9761H10.9292C10.3223 66.9761 9.83057 67.4678 9.83057 68.0747C9.83057 68.6816 10.3223 69.1733 10.9292 69.1733Z" fill="#FFC700"/>
<path d="M9.83057 38.4556C9.83057 39.0624 10.3223 39.5542 10.9292 39.5542H45.1436C45.7504 39.5542 46.2422 39.0624 46.2422 38.4556C46.2422 37.8487 45.7504 37.3569 45.1436 37.3569H10.9292C10.3223 37.3569 9.83057 37.8488 9.83057 38.4556Z" fill="#FFC700"/>
<path d="M10.9292 45.478H45.1436C45.7504 45.478 46.2422 44.9863 46.2422 44.3794C46.2422 43.7725 45.7504 43.2808 45.1436 43.2808H10.9292C10.3223 43.2808 9.83057 43.7725 9.83057 44.3794C9.83057 44.9863 10.3223 45.478 10.9292 45.478Z" fill="#FFC700"/>
<path d="M6.87239 51.4062C7.48147 51.4062 7.97527 50.9125 7.97527 50.3034C7.97527 49.6945 7.48147 49.2007 6.87239 49.2007C6.26331 49.2007 5.76965 49.6943 5.76965 50.3034C5.76965 50.9125 6.26345 51.4062 6.87239 51.4062Z" fill="#FFC700"/>
<path d="M6.87239 39.5585C7.48147 39.5585 7.97527 39.0648 7.97527 38.4558C7.97527 37.8467 7.48147 37.353 6.87239 37.353C6.26331 37.353 5.76965 37.8467 5.76965 38.4558C5.76965 39.0648 6.26345 39.5585 6.87239 39.5585Z" fill="#FFC700"/>
<path d="M6.87239 45.4823C7.48147 45.4823 7.97527 44.9887 7.97527 44.3796C7.97527 43.7705 7.48147 43.2769 6.87239 43.2769C6.26331 43.2769 5.76965 43.7705 5.76965 44.3796C5.76965 44.9887 6.26345 45.4823 6.87239 45.4823Z" fill="#FFC700"/>
<path d="M6.87239 57.33C7.48147 57.33 7.97527 56.8363 7.97527 56.2272C7.97527 55.6182 7.48147 55.1245 6.87239 55.1245C6.26331 55.1245 5.76965 55.6182 5.76965 56.2272C5.76965 56.8363 6.26345 57.33 6.87239 57.33Z" fill="#FFC700"/>
<path d="M6.87239 63.2538C7.48147 63.2538 7.97527 62.7602 7.97527 62.1511C7.97527 61.542 7.48147 61.0483 6.87239 61.0483C6.26331 61.0483 5.76965 61.542 5.76965 62.1511C5.76965 62.76 6.26345 63.2538 6.87239 63.2538Z" fill="#FFC700"/>
<path d="M6.87239 69.1776C7.48147 69.1776 7.97527 68.684 7.97527 68.0749C7.97527 67.466 7.48147 66.9722 6.87239 66.9722C6.26331 66.9722 5.76965 67.4658 5.76965 68.0749C5.76965 68.6838 6.26345 69.1776 6.87239 69.1776Z" fill="#FFC700"/>
<path d="M69.1372 17.3029C68.6939 16.7418 68.275 16.2117 68.0724 15.7233C67.8538 15.1961 67.7677 14.4996 67.6766 13.7619C67.5168 12.4696 67.3357 11.0049 66.3135 9.98291C65.2914 8.96089 63.8265 8.77983 62.5343 8.62002C61.7964 8.52891 61.0996 8.44277 60.5724 8.22422C60.0839 8.02163 59.5539 7.60298 58.9927 7.15957C58.2206 6.54946 57.3714 5.87959 56.3674 5.57563V5.24326C56.3676 2.35225 54.0152 0 51.1237 0H5.35554C2.46409 0 0.111694 2.35225 0.111694 5.24341V9.48398C0.111694 10.0909 0.603442 10.5826 1.21033 10.5826C1.81721 10.5826 2.30896 10.0909 2.30896 9.48398V5.24341C2.30896 3.56367 3.67566 2.19727 5.35554 2.19727H51.1237C52.8036 2.19727 54.1703 3.56367 54.1703 5.24341V5.57593C53.1666 5.88003 52.3177 6.54961 51.5456 7.15972C50.9844 7.60298 50.4544 8.02178 49.966 8.22437C49.4388 8.44277 48.742 8.52891 48.0042 8.62017C46.7119 8.77983 45.2472 8.96089 44.2249 9.98291C43.2026 11.0051 43.0215 12.4698 42.8617 13.7621C42.7706 14.4996 42.6844 15.1963 42.4659 15.7235C42.2633 16.2119 41.8445 16.742 41.4011 17.303C40.5802 18.3417 39.65 19.519 39.65 21.0262C39.65 22.5334 40.5803 23.7107 41.4011 24.7494C41.8444 25.3104 42.2633 25.8406 42.4659 26.329C42.6844 26.8562 42.7706 27.5527 42.8617 28.2905C43.0215 29.5827 43.2026 31.0474 44.2247 32.0694C45.2469 33.0916 46.7117 33.2725 48.004 33.4323C48.3893 33.4799 48.7627 33.5266 49.1073 33.5911V50.1976C49.1073 50.8484 49.4706 51.4296 50.0555 51.7144C50.6403 51.9996 51.3219 51.9272 51.8347 51.5257L54.1701 49.6972V69.7567C54.1701 71.4365 52.8034 72.8029 51.1236 72.8029H5.35554C3.67566 72.8029 2.30896 71.4365 2.30896 69.7567V14.3219C2.30896 13.715 1.81721 13.2233 1.21033 13.2233C0.603442 13.2233 0.111694 13.715 0.111694 14.3219V69.7566C0.111694 72.6478 2.46409 75 5.35554 75H51.1237C54.0152 75 56.3675 72.6478 56.3675 69.7566V49.697L58.7029 51.5254C59.0078 51.7642 59.3725 51.8867 59.7414 51.8867C59.9928 51.8867 60.2459 51.8297 60.4832 51.7141C61.0682 51.4293 61.4318 50.8481 61.4318 50.1974V37.9371C61.4318 37.3302 60.9401 36.8385 60.3332 36.8385C59.7263 36.8385 59.2345 37.3302 59.2345 37.9371V49.1512L56.3141 46.8647C56.0189 46.6311 55.6477 46.5023 55.2688 46.5023C54.8898 46.5023 54.5186 46.6311 54.2281 46.8609L51.3045 49.1501V34.703C51.3842 34.7654 51.4643 34.8286 51.5454 34.8926C52.5843 35.7135 53.7617 36.6435 55.2691 36.6435C56.7762 36.6435 57.9537 35.7133 58.9926 34.8927C59.5537 34.4495 60.0839 34.0305 60.5722 33.8279C61.0994 33.6095 61.7963 33.5234 62.5341 33.4321C63.8264 33.2725 65.2911 33.0914 66.3135 32.0694C67.3356 31.0472 67.5166 29.5825 67.6764 28.2904C67.7677 27.5527 67.8538 26.856 68.0724 26.3288C68.275 25.8404 68.6938 25.3103 69.1372 24.7493C69.9581 23.7105 70.8883 22.5333 70.8883 21.0261C70.8883 19.5189 69.9579 18.3416 69.1372 17.3029ZM67.4132 23.387C66.8964 24.041 66.362 24.7172 66.0429 25.4871C65.7099 26.2898 65.6011 27.1698 65.4959 28.0207C65.3683 29.0528 65.2479 30.0277 64.7601 30.5155C64.2721 31.0033 63.2971 31.1237 62.2649 31.2513C61.4138 31.3564 60.534 31.4651 59.731 31.7981C58.9611 32.1173 58.2849 32.6515 57.6308 33.1683C56.799 33.8253 56.0134 34.4461 55.2694 34.4461C54.5254 34.4461 53.7398 33.8254 52.9079 33.1683C52.2538 32.6517 51.5777 32.1173 50.8077 31.7981C50.7547 31.7761 50.5707 31.7061 50.531 31.6938C49.8049 31.4413 49.0281 31.3444 48.2737 31.2513C47.2414 31.1237 46.2664 31.0031 45.7785 30.5153C45.2908 30.0277 45.1703 29.0528 45.0427 28.0208C44.9375 27.1698 44.8288 26.2901 44.4959 25.4871C44.1765 24.7172 43.6423 24.041 43.1255 23.387C42.4685 22.5552 41.8477 21.7698 41.8477 21.0261C41.8477 20.2824 42.4684 19.4969 43.1255 18.6652C43.6423 18.0111 44.1767 17.335 44.4959 16.565C44.8288 15.7623 44.9377 14.8824 45.0427 14.0314C45.1703 12.9993 45.2908 12.0245 45.7786 11.5367C46.2666 11.0489 47.2416 10.9285 48.2738 10.8009C49.1249 10.6957 50.0047 10.587 50.8077 10.2541C51.5777 9.93486 52.2538 9.40063 52.9079 8.88384C53.738 8.22803 54.5223 7.60869 55.265 7.60635C55.2663 7.60635 55.2677 7.60649 55.2691 7.60649C55.2705 7.60649 55.272 7.60635 55.2735 7.60635C56.0163 7.60854 56.8006 8.22803 57.6308 8.88384C58.2849 9.40049 58.9611 9.93486 59.731 10.2541C60.5339 10.587 61.4139 10.6958 62.265 10.8009C63.2973 10.9285 64.2723 11.049 64.7601 11.5368C65.2479 12.0246 65.3684 12.9993 65.496 14.0314C65.6012 14.8824 65.7099 15.7622 66.0429 16.565C66.3622 17.335 66.8964 18.0111 67.4132 18.6652C68.0702 19.4969 68.691 20.2824 68.691 21.0261C68.691 21.7698 68.0703 22.5554 67.4132 23.387Z" fill="#FFC700"/>
<path d="M62.3226 17.5346L58.584 16.4769L56.4223 13.2483C56.1641 12.8628 55.7331 12.6328 55.2692 12.6328C54.8053 12.6328 54.3742 12.8629 54.1161 13.2483L51.9544 16.4769L48.2155 17.5348C47.769 17.6612 47.4169 18.0003 47.2736 18.4415C47.1304 18.8827 47.2162 19.3639 47.503 19.7281L49.9058 22.7812L49.7567 26.6626C49.7387 27.1264 49.952 27.5662 50.3274 27.8391C50.5684 28.0141 50.8539 28.1046 51.1426 28.1046C51.304 28.1046 51.4663 28.0764 51.6222 28.0189L55.2689 26.6774L58.9153 28.0188C59.3508 28.1793 59.8347 28.112 60.2101 27.8394C60.5855 27.5667 60.7991 27.1271 60.7813 26.6632L60.6321 22.7811L63.0351 19.7279C63.3219 19.3633 63.4076 18.8824 63.2642 18.4412C63.1213 18 62.7692 17.661 62.3226 17.5346ZM58.721 21.6571C58.5179 21.9155 58.4129 22.2387 58.4253 22.5681L58.5393 25.5394L55.7483 24.5127C55.4391 24.3989 55.0985 24.399 54.7899 24.5125L51.9986 25.5394L52.1128 22.5671C52.1251 22.2388 52.0199 21.9157 51.8164 21.6564L49.9774 19.3197L52.8396 18.5101C53.1562 18.4203 53.4314 18.2202 53.6144 17.9468L55.2689 15.4756L56.9233 17.9465C57.1064 18.22 57.3816 18.4201 57.6988 18.5102L60.5604 19.3197L58.721 21.6571Z" fill="#FFC700"/>
</svg>
