<svg width="75" height="75" viewBox="0 0 75 75" fill="none" xmlns="http://www.w3.org/2000/svg">
<path d="M22.5026 18.0294C27.3775 19.1187 32.3814 19.6716 37.3764 19.6716C42.3715 19.6716 47.3753 19.1197 52.2316 18.0333C52.726 17.9337 53.063 17.4755 53.0112 16.9743C52.3127 10.2775 47.5433 4.7832 41.4668 3.03841V1.87586C41.4668 1.33659 41.0292 0.898926 40.4899 0.898926C39.9506 0.898926 39.513 1.33659 39.513 1.87586V2.62516C38.8096 2.52161 38.0984 2.45127 37.3735 2.45127C36.6506 2.45127 35.9413 2.52161 35.2389 2.62419V1.87586C35.2389 1.33659 34.8012 0.898926 34.262 0.898926C33.7227 0.898926 33.285 1.33659 33.285 1.87586V3.03743C27.2105 4.78125 22.4391 10.2765 21.7416 16.9743C21.6898 17.4667 22.019 17.921 22.5026 18.0294ZM33.285 5.08508V8.11063C33.285 8.6499 33.7227 9.08756 34.262 9.08756C34.8012 9.08756 35.2389 8.6499 35.2389 8.11063V4.59466C35.9393 4.47645 36.6525 4.40416 37.3784 4.40416C38.1023 4.40416 38.8135 4.47645 39.513 4.59368V8.10965C39.513 8.64892 39.9506 9.08659 40.4899 9.08659C41.0292 9.08659 41.4668 8.64892 41.4668 8.10965V5.0841C46.2802 6.68627 50.0687 11.0033 50.9499 16.311C42.0393 18.1769 32.7497 18.1828 23.801 16.311C24.6831 11.0043 28.4707 6.68822 33.285 5.08508ZM43.4246 15.2471C41.4434 15.6906 39.4074 15.9153 37.3754 15.9153C35.3454 15.9153 33.3104 15.6906 31.3273 15.2471C30.8007 15.1289 30.4695 14.6072 30.5867 14.0807C30.7049 13.5541 31.2305 13.2249 31.7522 13.3401C35.445 14.1647 39.3176 14.1637 42.9986 13.3401C43.5262 13.2239 44.0469 13.5541 44.1651 14.0807C44.2833 14.6072 43.9512 15.1289 43.4246 15.2471ZM21.0851 22.4442C21.1037 21.8101 21.1603 19.8797 22.5456 19.3571C23.9143 18.8412 25.3113 20.2314 25.577 20.5157C25.9453 20.9104 25.9248 21.5288 25.5311 21.8971C25.1364 22.2644 24.518 22.2449 24.1497 21.8512C23.8791 21.5649 23.4737 21.2787 23.2578 21.2123C23.1914 21.3383 23.0624 21.6861 23.038 22.5028C22.9383 25.8937 25.5663 26.8081 25.5927 26.8179C25.9014 26.9205 26.1388 27.1706 26.2257 27.4842L26.2677 27.6375C26.2843 27.6962 26.2941 27.7567 26.3 27.8173C27.0473 36.723 34.0851 39.604 37.3764 39.604C40.6677 39.604 47.7055 36.723 48.4529 27.8173C48.4577 27.7577 48.4685 27.6981 48.4841 27.6405L48.5261 27.4871C48.6121 27.1725 48.8505 26.9214 49.1592 26.8179C49.2608 26.7817 51.8116 25.8468 51.7139 22.5028C51.6904 21.687 51.5615 21.3402 51.495 21.2132C51.2781 21.2816 50.861 21.5757 50.6021 21.8521C50.2338 22.2468 49.6154 22.2664 49.2207 21.8981C48.826 21.5298 48.8065 20.9114 49.1748 20.5167C49.4396 20.2314 50.8336 18.8403 52.2062 19.358C53.5915 19.8817 53.6482 21.8111 53.6667 22.4451C53.7664 25.8175 51.7891 27.6942 50.3569 28.424C49.3809 37.4772 42.2318 41.5559 37.3764 41.5559C32.5201 41.5559 25.3709 37.4782 24.3959 28.4249C22.9637 27.6932 20.9855 25.8165 21.0851 22.4442ZM38.8692 22.2556C38.5839 22.2556 38.3133 22.3797 38.1277 22.5966C38.0778 22.6552 38.0554 22.7275 38.0212 22.7949H36.7307C36.6965 22.7275 36.674 22.6552 36.6242 22.5966C36.4386 22.3807 36.1679 22.2556 35.8827 22.2556H28.1825C27.9207 22.2556 27.6696 22.3611 27.486 22.5477C27.3023 22.7343 27.2017 22.9873 27.2056 23.2492C27.2222 24.1626 27.3785 27.2262 28.7218 28.3175C29.5785 29.014 30.9169 29.4468 32.2153 29.4468C33.456 29.4468 34.4964 29.0541 35.1471 28.3409C35.8514 27.5691 36.3203 25.9504 36.588 24.7478H38.1638C38.4315 25.9504 38.9004 27.5691 39.6048 28.3409C40.2564 29.0541 41.2978 29.4468 42.5375 29.4468C43.8349 29.4468 45.1733 29.014 46.031 28.3175C47.3733 27.2262 47.5306 24.1626 47.5472 23.2492C47.5511 22.9873 47.4505 22.7343 47.2669 22.5477C47.0832 22.3611 46.8321 22.2556 46.5703 22.2556H38.8692ZM33.7041 27.024C33.4316 27.323 32.8894 27.4929 32.2153 27.4929C31.3722 27.4929 30.4636 27.2155 29.9547 26.8013C29.6176 26.5277 29.3421 25.372 29.222 24.2085H34.7045C34.4515 25.3554 34.0714 26.6215 33.7041 27.024ZM44.7982 26.8023C44.2892 27.2155 43.3806 27.4939 42.5375 27.4939C41.8635 27.4939 41.3203 27.323 41.0477 27.024C40.6814 26.6215 40.3004 25.3554 40.0483 24.2105H45.5309C45.4107 25.373 45.1352 26.5277 44.7982 26.8023ZM69.1277 41.9027C59.3935 45.0845 49.2832 46.7795 39.0421 46.9456V70.4809C39.0421 71.0201 38.6044 71.4578 38.0651 71.4578C37.5259 71.4578 37.0882 71.0201 37.0882 70.4809V50.4821C29.644 50.4635 22.2643 49.6312 15.035 48.0095C14.9578 48.0026 14.8816 47.986 14.8064 47.9597C11.73 47.2621 8.6771 46.4376 5.66326 45.4538L6.21328 53.0104C6.25235 53.5487 5.8479 54.0166 5.30961 54.0557C5.28519 54.0567 5.26174 54.0577 5.23732 54.0577C4.72932 54.0577 4.30142 53.6659 4.26332 53.1521L3.6078 44.133C3.58435 43.8057 3.72601 43.4882 3.98587 43.288C4.24574 43.0867 4.58864 43.031 4.89833 43.1375C8.11829 44.2405 11.3861 45.1539 14.6823 45.9208C16.7602 42.6139 20.1355 40.1032 24.7388 38.4463L24.6783 37.4244C24.646 36.8861 25.0573 36.4241 25.5956 36.3918C26.129 36.3449 26.597 36.7699 26.6282 37.3092L26.8793 41.5412L29.7984 40.4959C30.3093 40.3142 30.8661 40.578 31.0478 41.086C31.2296 41.594 30.9658 42.1538 30.4578 42.3355L26.3107 43.8214C26.2032 43.8595 26.0919 43.879 25.9815 43.879C25.7929 43.879 25.6044 43.8243 25.4432 43.7169C25.1863 43.5469 25.0251 43.2665 25.0065 42.9597L24.86 40.4852C21.1808 41.891 18.4835 43.8292 16.6987 46.3829C23.3936 47.7955 30.2155 48.5087 37.0892 48.5282V45.9814C37.0892 45.4441 37.522 45.0084 38.0593 45.0044C43.829 44.9654 49.5558 44.4163 55.2005 43.3964C53.7762 42.2544 52.006 41.252 50.0199 40.4764L49.8723 42.9597C49.8538 43.2665 49.6926 43.5478 49.4357 43.7169C49.2735 43.8233 49.0859 43.879 48.8974 43.879C48.786 43.879 48.6746 43.8595 48.5681 43.8214L44.422 42.3355C43.914 42.1538 43.6503 41.594 43.832 41.086C44.0137 40.578 44.5696 40.3122 45.0815 40.4959L47.9996 41.5412L48.2506 37.3092C48.2819 36.7699 48.743 36.3459 49.2832 36.3918C49.8215 36.4241 50.2328 36.8861 50.2006 37.4244L50.14 38.4404C53.1363 39.5287 55.7525 41.1006 57.6155 42.9333C61.7509 42.0805 65.8374 40.9736 69.8555 39.5981C70.1613 39.4946 70.5003 39.5473 70.7582 39.7407C71.0171 39.9352 71.1626 40.2448 71.147 40.5682L70.5266 53.6913C70.5012 54.2306 70.0489 54.6428 69.5048 54.6214C68.9655 54.596 68.5493 54.1378 68.5747 53.5995L69.1277 41.9027ZM73.8482 57.0832C72.9758 56.2069 71.61 55.78 69.6728 55.78C67.7355 55.78 66.3688 56.2069 65.4974 57.0832C64.3309 58.2565 64.3397 59.9026 64.3475 61.3553L64.3485 68.1352C64.3485 71.0709 66.7371 73.4595 69.6728 73.4595C72.6085 73.4595 74.9971 71.0709 74.9971 68.1352L74.998 61.3553C75.0059 59.9026 75.0156 58.2565 73.8482 57.0832ZM73.0452 61.3446L73.0442 68.1352C73.0442 69.9934 71.5319 71.5057 69.6738 71.5057C68.3041 71.5057 67.1279 70.6811 66.6003 69.5049H68.5903C69.1296 69.5049 69.5673 69.0672 69.5673 68.528C69.5673 67.9887 69.1296 67.551 68.5903 67.551H66.3024V65.902H68.5903C69.1296 65.902 69.5673 65.4643 69.5673 64.925C69.5673 64.3858 69.1296 63.9481 68.5903 63.9481H66.3014V62.1691H68.5903C69.1296 62.1691 69.5673 61.7315 69.5673 61.1922C69.5673 60.6529 69.1296 60.2153 68.5903 60.2153H66.319C66.359 59.4914 66.486 58.8603 66.8827 58.4617C67.3623 57.9791 68.3012 57.7339 69.6728 57.7339C71.0444 57.7339 71.9832 57.9781 72.4629 58.4617C73.0569 59.0576 73.051 60.1684 73.0452 61.3446ZM5.6828 55.1372C3.60878 55.1372 2.15022 55.5905 1.22213 56.5234C-0.0166168 57.769 -0.00684753 59.5324 0.000967924 61.0877L0.00194486 68.4215C0.00194486 71.5535 2.54978 74.1014 5.68182 74.1014C8.81387 74.1014 11.3617 71.5535 11.3617 68.4215L11.3627 61.0867C11.3715 59.5314 11.3812 57.7681 10.1415 56.5234C9.21539 55.5905 7.75585 55.1372 5.6828 55.1372ZM5.6828 72.1475C3.62831 72.1475 1.95678 70.476 1.95678 68.4215L1.95581 61.0769C1.94897 59.7883 1.94213 58.5701 2.60742 57.9009C3.1418 57.3636 4.17637 57.0901 5.6828 57.0901C7.18923 57.0901 8.2238 57.3626 8.75818 57.9009C9.22125 58.3659 9.35606 59.0986 9.39514 59.9339H6.85414C6.31488 59.9339 5.87721 60.3716 5.87721 60.9108C5.87721 61.4501 6.31488 61.8878 6.85414 61.8878H9.40979V63.9725H6.85414C6.31488 63.9725 5.87721 64.4102 5.87721 64.9495C5.87721 65.4887 6.31488 65.9264 6.85414 65.9264H9.40882V67.8705H6.85414C6.31488 67.8705 5.87721 68.3082 5.87721 68.8474C5.87721 69.3867 6.31488 69.8244 6.85414 69.8244H9.12942C8.57452 71.1842 7.24101 72.1475 5.6828 72.1475Z" fill="#FFC700"/>
</svg>
