<svg width="75" height="75" viewBox="0 0 75 75" fill="none" xmlns="http://www.w3.org/2000/svg">
<path d="M10.0686 38.88C10.0857 38.2949 10.138 36.515 11.4748 36.01C12.7945 35.5135 14.0896 36.8044 14.3352 37.067C14.7377 37.4984 14.7153 38.1743 14.285 38.5768C13.8547 38.9793 13.1789 38.9569 12.7753 38.5266C12.6397 38.3835 12.4496 38.2319 12.2948 38.1348C12.2553 38.2928 12.2136 38.548 12.203 38.943C12.1229 41.6903 14.2487 42.5647 14.3384 42.6C14.7164 42.7495 14.9854 43.1029 15.0196 43.5075C15.6517 51.0457 21.5882 53.4843 24.3643 53.4843C27.1404 53.4843 33.078 51.0457 33.7101 43.5075C33.7443 43.0965 34.0133 42.7409 34.3998 42.5968C34.481 42.5647 36.6068 41.6903 36.5267 38.943C36.515 38.548 36.4734 38.2928 36.4349 38.1348C36.279 38.233 36.089 38.3846 35.9512 38.5298C35.5455 38.9569 34.8707 38.9761 34.4425 38.5736C34.0144 38.1711 33.992 37.4984 34.3934 37.0692C34.6401 36.8054 35.9363 35.5124 37.2539 36.0121C38.5906 36.5172 38.643 38.2971 38.66 38.8822C38.7551 42.111 36.814 43.6816 35.7751 44.288C34.8301 52.0984 28.6042 55.6219 24.3632 55.6219C20.1223 55.6219 13.8964 52.0995 12.9514 44.288C11.9147 43.6794 9.97356 42.1088 10.0686 38.88ZM24.3654 60.7876C24.6964 60.7876 27.3913 60.1192 27.3913 57.42H24.3654H21.3395C21.3384 60.1192 24.0344 60.7876 24.3654 60.7876ZM26.3065 61.1805C26.0289 61.1314 25.7406 61.189 25.5057 61.3481C25.0114 61.6866 24.5682 61.8232 24.3654 61.8724C24.1561 61.8222 23.7151 61.6844 23.2219 61.3481C22.988 61.189 22.7008 61.1303 22.4211 61.1805C22.1424 61.2328 21.8968 61.394 21.7367 61.6279C21.3021 62.2653 19.2126 73.0888 19.1944 73.1945C19.0908 73.7753 19.4784 74.3295 20.0593 74.432C20.6454 74.5377 21.1942 74.148 21.2967 73.5671C21.6523 71.5619 22.7723 66.1934 23.3211 63.7836C23.8272 63.9672 24.1849 64.0121 24.2479 64.0195C24.3237 64.0281 24.4028 64.0281 24.4786 64.0195C24.5416 64.0131 24.8992 63.9683 25.4053 63.7836C25.9542 66.1934 27.0742 71.5619 27.4308 73.5671C27.5226 74.085 27.9721 74.448 28.4804 74.448C28.5423 74.448 28.6053 74.4426 28.6683 74.4309C29.2491 74.3284 29.6357 73.7743 29.5332 73.1934C29.5139 73.0877 27.4255 62.2642 26.9898 61.6268C26.8318 61.394 26.5852 61.2328 26.3065 61.1805ZM11.1331 70.0148C10.5437 70.0148 10.0654 70.4931 10.0654 71.0825V73.3803C10.0654 73.9697 10.5437 74.448 11.1331 74.448C11.7225 74.448 12.2008 73.9697 12.2008 73.3803V71.0825C12.2008 70.4931 11.7225 70.0148 11.1331 70.0148ZM15.0217 29.8204C14.0458 30.996 13.417 32.4673 13.2002 34.0796C13.1223 34.6636 13.5323 35.2007 14.1163 35.2797C14.1644 35.2861 14.2124 35.2893 14.2594 35.2893C14.7858 35.2893 15.2438 34.8996 15.3164 34.3636C15.4787 33.1506 15.9453 32.0509 16.665 31.185C17.0419 30.7312 16.9789 30.0585 16.5251 29.6816C16.0724 29.3047 15.3987 29.3666 15.0217 29.8204ZM32.8004 35.2807C32.8004 35.8701 33.2787 36.3485 33.8681 36.3485C34.4575 36.3485 34.9358 35.8701 34.9358 35.2807C34.9358 29.1445 30.3617 27.4629 27.9284 27.4298H18.1875C17.5982 27.4298 17.1198 27.9081 17.1198 28.4975C17.1198 29.0869 17.5982 29.5652 18.1875 29.5652H27.9081C28.4099 29.577 32.8004 29.8375 32.8004 35.2807ZM36.3506 32.8997C36.3922 32.8997 36.4338 32.8976 36.4766 32.8922C37.0617 32.8239 37.4813 32.2933 37.4129 31.7081C36.6976 25.5922 31.4444 24.0291 28.7505 24.0974H19.5649C18.9755 24.0974 18.4972 24.5758 18.4972 25.1651C18.4972 25.7545 18.9755 26.2329 19.5649 26.2329H28.7633C29.0014 26.2425 34.6241 26.2457 35.2924 31.9569C35.3554 32.4993 35.8167 32.8997 36.3506 32.8997ZM72.7033 0H2.50057C1.91119 0 1.43285 0.478339 1.43285 1.06772V56.743C1.43285 57.3324 1.91119 57.8107 2.50057 57.8107H8.98912C5.26917 60.5793 1.22998 65.4151 1.22998 73.3813C1.22998 73.9707 1.70832 74.4491 2.2977 74.4491C2.88709 74.4491 3.36542 73.9707 3.36542 73.3813C3.36542 62.6208 11.399 58.3265 14.4975 57.0708L14.6406 59.6942C14.6598 60.0487 14.8541 60.3701 15.1584 60.5527C15.3271 60.653 15.5161 60.7043 15.7062 60.7043C15.861 60.7043 16.0158 60.6712 16.1599 60.6028L19.7197 58.9319C20.2536 58.6809 20.4831 58.0456 20.2322 57.5118C19.9813 56.9769 19.3439 56.7494 18.8122 56.9993L16.6853 57.9976L16.4557 53.7929C16.4237 53.2035 15.9154 52.7583 15.3314 52.785C14.7431 52.817 14.2914 53.3199 14.3235 53.9093L14.3747 54.8425C13.9102 55.0176 13.2483 55.2899 12.4624 55.6796C12.456 55.6796 12.4496 55.6753 12.4432 55.6753H3.56829V2.13544H71.6356V55.6753H52.8757C56.2828 48.4276 55.5653 39.7235 55.5258 39.2762C55.4767 38.7252 55.0154 38.3035 54.4623 38.3035H49.2123C48.623 38.3035 48.1446 38.7818 48.1446 39.3712C48.1446 44.8304 46.6872 48.7981 43.8118 51.1631C40.473 53.9093 36.0324 53.8004 34.2333 53.6189C34.1297 53.1662 33.7549 52.8117 33.2681 52.785C32.6829 52.754 32.1758 53.2035 32.1437 53.7929L31.9131 57.9976L29.9592 57.0804C29.4253 56.8306 28.79 57.058 28.5391 57.5929C28.2882 58.1268 28.5178 58.7621 29.0516 59.013L32.4384 60.6028C32.5826 60.6701 32.7374 60.7043 32.8922 60.7043C33.0823 60.7043 33.2713 60.6541 33.44 60.5527C33.7443 60.3711 33.9386 60.0487 33.9578 59.6942L34.1735 55.765C36.3837 55.9764 41.2802 55.9999 45.1529 52.8245C48.355 50.2 50.0708 46.0359 50.2619 40.4389H53.448C53.5505 43.5268 53.4224 53.2227 48.2418 58.8795C45.6291 61.7325 42.0469 63.1782 37.5955 63.1782C37.0061 63.1782 36.5278 63.6565 36.5278 64.2459C36.5278 64.8353 37.0061 65.3136 37.5955 65.3136C42.6736 65.3136 46.7875 63.632 49.822 60.3156C50.5352 59.5351 51.1588 58.6927 51.7097 57.8107H56.9523V73.9323C56.9523 74.5217 57.4306 75 58.02 75C58.6094 75 59.0877 74.5217 59.0877 73.9323V57.8107H61.757V73.9323C61.757 74.5217 62.2353 75 62.8247 75C63.4141 75 63.8925 74.5217 63.8925 73.9323V57.8107H72.7012C73.2905 57.8107 73.7689 57.3324 73.7689 56.743V1.06772C73.771 0.478339 73.2927 0 72.7033 0ZM37.5977 66.6739C37.0083 66.6739 36.5299 67.1522 36.5299 67.7416V73.3803C36.5299 73.9697 37.0083 74.448 37.5977 74.448C38.187 74.448 38.6654 73.9697 38.6654 73.3803V67.7416C38.6654 67.1522 38.187 66.6739 37.5977 66.6739ZM33.2104 8.76279C33.7998 8.76279 34.2781 8.28446 34.2781 7.69507C34.2781 7.10569 33.7998 6.62735 33.2104 6.62735H14.1761C13.5867 6.62735 13.1084 7.10569 13.1084 7.69507C13.1084 8.28446 13.5867 8.76279 14.1761 8.76279H33.2104ZM8.55028 11.9222C8.55028 12.5116 9.02862 12.9899 9.61801 12.9899H33.2104C33.7998 12.9899 34.2781 12.5116 34.2781 11.9222C34.2781 11.3328 33.7998 10.8545 33.2104 10.8545H9.61801C9.02862 10.8545 8.55028 11.3328 8.55028 11.9222ZM9.61801 17.217H33.2104C33.7998 17.217 34.2781 16.7387 34.2781 16.1493C34.2781 15.5599 33.7998 15.0816 33.2104 15.0816H9.61801C9.02862 15.0816 8.55028 15.5599 8.55028 16.1493C8.55028 16.7387 9.02862 17.217 9.61801 17.217ZM9.61801 21.4441H33.2104C33.7998 21.4441 34.2781 20.9658 34.2781 20.3764C34.2781 19.787 33.7998 19.3087 33.2104 19.3087H9.61801C9.02862 19.3087 8.55028 19.787 8.55028 20.3764C8.55028 20.9658 9.02862 21.4441 9.61801 21.4441ZM69.2108 9.62445C69.6603 9.24434 69.7169 8.57061 69.3357 8.12003C68.9556 7.67052 68.2819 7.61286 67.8313 7.9951L56.2657 17.7808L50.2139 11.4321C49.8572 10.9837 49.2081 10.8993 48.7457 11.2356L41.4874 17.3323C41.0122 17.6815 40.9097 18.3499 41.2589 18.825C41.607 19.2991 42.2754 19.4026 42.7516 19.0535L49.1824 13.5643L55.2802 19.9707C55.4596 20.196 55.7244 20.3401 56.0116 20.3689C56.0468 20.3721 56.081 20.3743 56.1162 20.3743C56.3671 20.3743 56.6127 20.2857 56.806 20.1212L69.2108 9.62445ZM50.6313 20.4234L50.2886 28.1751C50.7894 28.1195 51.2335 28.1185 51.5261 28.1185C52.6814 28.1185 56.1963 28.1185 56.1963 31.5576V33.0311C56.1963 35.6064 54.1014 37.7013 51.5261 37.7013C48.9507 37.7013 46.8559 35.6064 46.8559 33.0311V31.5576C46.8559 30.2133 47.3951 29.3987 48.119 28.9L48.498 20.3294C48.5247 19.74 49.0639 19.2948 49.6117 19.3098C50.2 19.3364 50.657 19.8351 50.6313 20.4234ZM51.5261 30.2539C48.9913 30.2539 48.9913 30.9469 48.9913 31.5576V33.0311C48.9913 34.4287 50.1284 35.5658 51.5261 35.5658C52.9237 35.5658 54.0609 34.4287 54.0609 33.0311V31.5576C54.0609 30.9469 54.0609 30.2539 51.5261 30.2539ZM24.4871 39.3712V44.7781H23.1759C22.5866 44.7781 22.1082 45.2565 22.1082 45.8459C22.1082 46.4352 22.5866 46.9136 23.1759 46.9136H25.5548C26.1442 46.9136 26.6225 46.4352 26.6225 45.8459V39.3712C26.6225 38.7818 26.1442 38.3035 25.5548 38.3035C24.9654 38.3035 24.4871 38.7807 24.4871 39.3712Z" fill="#FFC700"/>
</svg>
