<?xml version="1.0" encoding="utf-8"?>
<!-- Generator: Adobe Illustrator 22.0.1, SVG Export Plug-In . SVG Version: 6.00 Build 0)  -->
<svg version="1.1" id="Layer_1" xmlns="http://www.w3.org/2000/svg" xmlns:xlink="http://www.w3.org/1999/xlink" x="0px" y="0px"
	 viewBox="0 0 394 94.5" style="enable-background:new 0 0 394 94.5;" xml:space="preserve">
<style type="text/css">
	.st0{fill:#61298A;}
</style>
<g>
	<g>
		<path d="M1.9,83.4v7.3h2.7v-7.3h1.8v7.3h1v3.8H5.9v-2.4H0v-8.7L1.9,83.4L1.9,83.4z"/>
		<path d="M12.5,92.1v-8.7H18l-0.3,1.4h-3.4v2h2.8v1.4h-2.8v2.3h3.8v1.5L12.5,92.1L12.5,92.1z"/>
		<path d="M28.2,92.1v-3.9h-3v3.9h-1.8v-8.7h1.8v3.4h3v-3.4H30v8.7H28.2z"/>
		<path d="M41.5,84.9h-2.4v7.2h-1.8v-7.2h-2.4v-1.5h6.9L41.5,84.9z"/>
		<path d="M51.8,88.4c-0.7,0.4-1.3,0.5-2.2,0.5h-1.2v3.2h-1.8v-8.7h2.5c1.7,0,2.1,0.2,2.7,0.4c0.9,0.4,1.4,1.3,1.4,2.3
			C53.1,87.2,52.5,88,51.8,88.4z M49.4,84.8h-1.1v2.7h1.2c1,0,1.5-0.3,1.5-1.4C51.1,85.1,50.4,84.8,49.4,84.8z"/>
		<path d="M69.7,92.1v-7.3h-2.8v7.3h-1.8v-8.7h6.4v8.7H69.7z"/>
		<path d="M82.9,88.4c-0.7,0.4-1.3,0.5-2.2,0.5h-1.2v3.2h-1.8v-8.7h2.5c1.7,0,2.1,0.2,2.7,0.4c0.9,0.4,1.4,1.3,1.4,2.3
			C84.2,87.2,83.6,88,82.9,88.4z M80.5,84.8h-1.1v2.7h1.2c1,0,1.5-0.3,1.5-1.4C82.2,85.1,81.5,84.8,80.5,84.8z"/>
		<path d="M93.1,92.2c-2.7,0-4.2-1.8-4.2-4.5c0-2.8,1.6-4.5,4.1-4.5c2.8,0,4.1,1.8,4.1,4.5C97.1,90.4,95.9,92.2,93.1,92.2z M93,84.6
			c-1.8,0-2.1,1.7-2.1,3.1c0,1.6,0.2,3.2,2.1,3.2c1.9,0,2.1-1.7,2.1-3.1C95.1,86.3,94.9,84.6,93,84.6z"/>
		<path d="M105.9,92.1v-1.4h-0.2c-0.8,0-1.9-0.1-2.7-0.9c-0.9-0.9-0.9-2-0.9-2.6c0-0.6,0.1-1.8,1-2.6c0.9-0.8,2-0.9,2.6-0.9h0.2
			v-1.5h1.8v1.5h0.2c0.6,0,1.8,0.1,2.6,0.9c0.9,0.8,1,1.9,1,2.6c0,0.6,0,1.8-0.9,2.6c-0.8,0.8-1.9,0.9-2.7,0.9h-0.2v1.4H105.9z
			 M105.9,85c-0.4,0-1,0.1-1.4,0.4c-0.5,0.5-0.6,1.3-0.6,1.8c0,0.5,0,1.3,0.5,1.8c0.4,0.4,1,0.5,1.4,0.5h0.2V85L105.9,85L105.9,85z
			 M107.6,89.5h0.2c0.4,0,1,0,1.4-0.5c0.5-0.5,0.5-1.3,0.5-1.8c0-0.5,0-1.3-0.6-1.8c-0.4-0.4-1-0.4-1.4-0.4h-0.1L107.6,89.5
			L107.6,89.5z"/>
		<path d="M117,92.1v-8.7h5.5l-0.3,1.4h-3.4v2h2.8v1.4h-2.8v2.3h3.8v1.5L117,92.1L117,92.1z"/>
		<path d="M131.6,92.3c-1.2,0-2.2-0.3-3-1c-0.9-0.8-1.3-1.9-1.3-3.3c0-1.1,0.2-2,0.7-2.8c0.8-1.2,2.1-1.9,3.6-1.9
			c0.9,0,1.9,0.3,2.4,0.7l-0.9,1.2c-0.5-0.3-1-0.5-1.6-0.5c-0.8,0-1.4,0.4-1.8,0.9c-0.3,0.5-0.5,1.2-0.5,2.1c0,1.2,0.1,1.9,0.6,2.4
			c0.5,0.5,1,0.8,1.8,0.8c0.6,0,1.1-0.2,1.7-0.5l0.8,1.1C133.6,92,132.7,92.3,131.6,92.3z"/>
		<path d="M143.3,92.3c-1.2,0-2.2-0.3-3-1c-0.8-0.8-1.3-1.9-1.3-3.3c0-1.1,0.2-2,0.7-2.8c0.8-1.2,2.1-1.9,3.6-1.9
			c0.9,0,1.9,0.3,2.4,0.7l-0.9,1.2c-0.5-0.3-1-0.5-1.6-0.5c-0.8,0-1.4,0.4-1.8,0.9c-0.3,0.5-0.5,1.2-0.5,2.1c0,1.2,0.1,1.9,0.6,2.4
			c0.4,0.5,1,0.8,1.8,0.8c0.6,0,1.1-0.2,1.7-0.5l0.9,1.1C145.3,92,144.4,92.3,143.3,92.3z"/>
		<path d="M156.1,92.1v-4.4c0-0.7,0-1.4,0.1-2.1c-0.3,0.8-0.5,1.3-0.9,2l-2.5,4.6h-1.8v-8.7h1.7v4.2c0,0.7,0,1.3-0.1,2.3
			c0.3-0.7,0.6-1.4,1-2.2l2.3-4.3h1.9v8.7L156.1,92.1L156.1,92.1z"/>
		<path d="M167.7,92.2c-2.7,0-4.2-1.8-4.2-4.5c0-2.8,1.6-4.5,4.1-4.5c2.8,0,4.1,1.8,4.1,4.5C171.8,90.4,170.5,92.2,167.7,92.2z
			 M167.6,84.6c-1.8,0-2.1,1.7-2.1,3.1c0,1.6,0.2,3.2,2.1,3.2c1.9,0,2.1-1.7,2.1-3.1C169.7,86.3,169.5,84.6,167.6,84.6z"/>
		<path d="M182.2,92.1v-3.9h-3v3.9h-1.8v-8.7h1.8v3.4h3v-3.4h1.8v8.7H182.2z"/>
		<path d="M195.1,92.1l-0.8-2.1h-3l-0.7,2.1h-1.9l3.2-8.7h2l3.1,8.7H195.1z M192.9,84.9l-1.1,3.7h2.2L192.9,84.9z"/>
		<path d="M203.8,86.1c-0.1,1.8-0.1,1.9-0.3,3.2c-0.1,0.8-0.2,1.7-0.8,2.2c-0.5,0.5-1.3,0.6-1.8,0.7l-0.5,0.1l-0.3-1.2l0.3-0.1
			c0.3-0.1,0.6-0.2,0.9-0.4c0.6-0.5,0.6-1.6,0.8-3.2c0-0.3,0.1-1.9,0.1-2.5l0-1.4h5.4v8.7h-1.8v-7.3h-2L203.8,86.1z"/>
		<path d="M215.6,83.4v3.4h0.9c0.9,0,2,0.1,2.7,0.6c1,0.6,1.1,1.5,1.1,2.1c0,1-0.5,1.7-1.1,2.1c-0.8,0.5-1.9,0.6-2.5,0.6h-3v-8.7
			L215.6,83.4L215.6,83.4z M216.4,90.7c0.7,0,1.1-0.1,1.4-0.3c0.4-0.3,0.5-0.6,0.5-1c0-0.3,0-0.7-0.4-1c-0.4-0.3-0.9-0.3-1.7-0.3
			h-0.6v2.6H216.4z"/>
		<path d="M230.4,92.1v-3.9h-3v3.9h-1.8v-8.7h1.8v3.4h3v-3.4h1.8v8.7H230.4z"/>
		<path d="M242,92.2c-2.7,0-4.2-1.8-4.2-4.5c0-2.8,1.6-4.5,4.1-4.5c2.8,0,4.1,1.8,4.1,4.5C246.1,90.4,244.8,92.2,242,92.2z
			 M241.9,84.6c-1.8,0-2.1,1.7-2.1,3.1c0,1.6,0.2,3.2,2.1,3.2c1.8,0,2.1-1.7,2.1-3.1C244.1,86.3,243.8,84.6,241.9,84.6z"/>
		<path d="M256.6,84.8h-3v7.3h-1.8v-8.7h5L256.6,84.8z"/>
		<path d="M265.5,92.2c-2.7,0-4.2-1.8-4.2-4.5c0-2.8,1.6-4.5,4.1-4.5c2.8,0,4.1,1.8,4.1,4.5C269.5,90.4,268.3,92.2,265.5,92.2z
			 M265.4,84.6c-1.8,0-2.1,1.7-2.1,3.1c0,1.6,0.2,3.2,2.1,3.2c1.8,0,2.1-1.7,2.1-3.1C267.5,86.3,267.3,84.6,265.4,84.6z"/>
		<path d="M288.3,90.8h0.9v3.6h-1.5v-2.4h-5.4v2.4h-1.5v-3.6h0.7c0.6-1.1,0.9-2.1,1.1-3.2c0.3-1.4,0.4-2.7,0.4-3.1l0-1.1h5.4
			L288.3,90.8L288.3,90.8z M284.3,85.6c-0.1,1-0.2,1.8-0.4,2.8c-0.2,0.9-0.5,1.7-0.9,2.5h3.5v-6h-2L284.3,85.6z"/>
		<path d="M294.2,92.1v-8.7h5.5l-0.3,1.4H296v2h2.9v1.4h-2.8v2.3h3.8v1.5L294.2,92.1L294.2,92.1z"/>
		<path d="M310.5,84.9h-2.4v7.2h-1.8v-7.2h-2.4v-1.5h6.9L310.5,84.9z"/>
		<path d="M315.5,92.1v-8.7h5.5l-0.3,1.4h-3.4v2h2.9v1.4h-2.8v2.3h3.8v1.5L315.5,92.1L315.5,92.1z"/>
		<path d="M331.4,92.1v-4.4c0-0.7,0-1.4,0.1-2.1c-0.3,0.8-0.5,1.3-0.9,2l-2.4,4.6h-1.8v-8.7h1.7v4.2c0,0.7,0,1.3-0.1,2.3
			c0.3-0.7,0.6-1.4,1-2.2l2.3-4.3h1.9v8.7L331.4,92.1L331.4,92.1z M332.1,81.3c-0.2,0.5-0.5,0.8-0.7,1c-0.5,0.4-1.1,0.4-1.6,0.4
			c-0.6,0-1.2-0.1-1.6-0.4c-0.3-0.2-0.6-0.6-0.7-1l0.9-0.5c0.1,0.2,0.3,0.4,0.5,0.6c0.3,0.2,0.8,0.2,1,0.2c0.5,0,0.8-0.1,0.9-0.2
			c0.2-0.1,0.4-0.4,0.5-0.6L332.1,81.3z"/>
		<path d="M341.3,86.1c-0.1,1.8-0.1,1.9-0.3,3.2c-0.1,0.8-0.2,1.7-0.8,2.2c-0.5,0.5-1.3,0.6-1.8,0.7l-0.5,0.1l-0.3-1.2l0.3-0.1
			c0.3-0.1,0.6-0.2,0.9-0.4c0.6-0.5,0.6-1.6,0.8-3.2c0-0.3,0.1-1.9,0.1-2.5l0-1.4h5.4v8.7h-1.8v-7.3h-2L341.3,86.1z"/>
		<path d="M356.4,92.1v-4.4c0-0.7,0-1.4,0.1-2.1c-0.3,0.8-0.5,1.3-0.9,2l-2.4,4.6h-1.8v-8.7h1.7v4.2c0,0.7,0,1.3-0.1,2.3
			c0.3-0.7,0.6-1.4,1-2.2l2.3-4.3h1.9v8.7L356.4,92.1L356.4,92.1z"/>
		<path d="M369.1,92.1v-3.9h-3v3.9h-1.8v-8.7h1.8v3.4h3v-3.4h1.8v8.7H369.1z"/>
		<path d="M381.8,84.8h-3v7.3H377v-8.7h5.1L381.8,84.8z"/>
		<path d="M391.9,92.1l-0.8-2.1h-3l-0.7,2.1h-1.9l3.2-8.7h2l3.1,8.7H391.9z M389.7,84.9l-1.1,3.7h2.2L389.7,84.9z"/>
	</g>
	<g>
		<g>
			<path d="M38.3,62.2L26.8,27.5H16L4.2,62.2H0.4v5.4h15.3v-5.4h-3.2l1.2-3.7h14.6l1.1,3.7h-3.2v5.4h15.6v-5.4H38.3z M15.7,52.6
				l5.4-19.3h0.3l5.3,19.3H15.7z"/>
			<path d="M70.1,62.2V25.9h-12v5.4h3.7v8.8c-2.4-1.4-5.7-1.8-7.6-1.8c-9.1,0-12.4,6.8-12.4,15.6c0,7.6,2.5,14.1,11.4,14.1
				c2.5,0,6-0.8,8.8-3.1c0.1,0,0.1,0.1,0.2,0.1v2.6h11.6v-5.4L70.1,62.2L70.1,62.2z M61.8,60c-1.3,1-4.2,2.2-5.9,2.2
				c-3.2,0-5.6-1.6-5.6-8.4c0-7.8,2.9-9.5,5.8-9.5c1.8,0,4.4,0.8,5.8,1.5V60z"/>
			<path d="M152.4,38.3c-2.7,0-6.8,1.2-10.1,3.5l-0.2-0.1V39h-11.8v5.4h3.7v23.2h8.4V46.9c2-1.1,4.6-2.1,6.5-2.1
				c3.7,0,4.1,2.1,4.1,5.1v17.7h8.4V48.1C161.4,42.8,160,38.3,152.4,38.3L152.4,38.3z"/>
			<path d="M179.1,61.7c-5.2,0-6.9-3.2-6.9-8.4c0-5.4,2.5-8.5,7.1-8.5c0.6,0,1.3,0,2.1,0.1v3.4h5.3v-8.4c-2.9-1.4-6.5-1.6-8.9-1.6
				c-11.6,0-14.2,8.5-14.2,15.3c0,7.9,2.8,14.4,13.8,14.4c3.9,0,8-0.8,10.8-2.3l-1.6-5.6C184.2,61.2,181.8,61.7,179.1,61.7
				L179.1,61.7z"/>
			<path d="M215.7,52.2c0-5.1-0.8-14-13.1-14c-11.3,0-14,8.8-14,15.1c0,7.8,2.7,14.7,14.4,14.7c3.9,0,8.3-0.8,12.1-2.8l-1.7-5.1
				c-3,1.1-6.1,1.8-9.2,1.8c-5.1,0-7.2-2.3-7.2-6.7h18.7L215.7,52.2L215.7,52.2z M197.1,50c0.3-3.4,1.7-6.6,5.8-6.6
				c3.9,0,5.1,2.8,5.1,6.6H197.1z"/>
			<path d="M128.3,62.2V48.3c0-8.6-5.3-9.4-14.6-9.4H96.5c-1.9,6.1-5.5,17.2-6.8,23.1h-0.3c-0.7-2-2-7.8-6.8-23.1H72v5.4h3.7l8,23.2
				h11.4c1.6-4.6,5.4-15.7,8-23.2h8.3c6.5,0,9,0.5,9,5.1v0.7c-9.5,0.6-18.4,0.4-18.4,9.6c0,3.4,1.8,8.4,8.9,8.4
				c1.6,0,5.8-0.1,9.9-3.6c0,3,2.4,3.6,4.7,3.6c2.4,0,5.1-0.6,7-1.5v-4.5L128.3,62.2L128.3,62.2z M120.4,60.2
				c-1.9,1.6-4.1,2.6-5.9,2.6c-2.7,0-4-1.3-4-3.7c0-2.3,1.3-3.7,4.1-3.9l5.8-0.5L120.4,60.2L120.4,60.2z"/>
		</g>
		<g>
			<path d="M302.8,43.6c-4.2-1-8-2-8-5.1c0-3.4,3-5.1,6.5-5.1c2.2,0,4.4,0.2,7.3,1.1v3.7h5.2v-8.5c-4.2-2.3-8.8-3-12.8-3
				c-10.1,0-15.4,4.9-15.4,12.2c0,8.3,7,9.9,14.9,11.9c3.9,1,6.5,2.1,6.5,5.4c0,3.9-3.2,5.3-7.9,5.3c-2.2,0-5-0.2-9.4-1.6v-3.4h-5.2
				v8.5c4.9,2.3,10.6,3.1,14.6,3.1c11.2,0,16.9-4.4,16.9-12C316.3,46.7,308.3,45,302.8,43.6L302.8,43.6z"/>
			<path d="M363.4,62.2V48.3c0-7.4-3.8-9.4-11.7-9.4h-24.9v-8l-5.6,0.6c-0.4,1-1.6,6.3-2,7.3l-4.6,0.9v4.6h4.1v15.1
				c0,4.6,1.9,8.5,9.9,8.5c2.5,0,5.8-0.5,8.2-1.6l-1.1-5.4c-2,0.5-3.9,0.8-4.9,0.8c-3,0-3.9-1.4-3.9-4.4v-13h23.2
				c4.2,0,5.4,1.8,5.4,5.1v0.7c-9.1,0.6-18.4,0.4-18.4,9.6c0,3.4,1.8,8.4,8.9,8.4c1.6,0,5.9-0.1,9.9-3.6c0.1,0.1,0.1,0.1,0.1,0.1
				c0.3,2.9,2.1,3.4,4.6,3.4c2.5,0,5.1-0.6,7-1.5v-4.5L363.4,62.2L363.4,62.2z M355.5,60.2c-1.8,1.6-4.1,2.6-5.9,2.6
				c-2.7,0-3.9-1.3-3.9-3.7c0-2.3,1.3-3.7,4-3.9l5.8-0.5L355.5,60.2L355.5,60.2L355.5,60.2z"/>
			<path d="M391.2,47.7c1.2-1.7,2.6-5.4,2.6-7.6c0-1.2-0.4-1.9-1.6-1.9c-3.2,0-7.7,2.7-10.9,5.8l-0.3-0.2c0.2-1.3,0.4-3.5,0.4-4.9
				h-12v5.4h3.7v17.8h-3.7v5.4h15.8v-5.4h-3.7V47.7L391.2,47.7L391.2,47.7z"/>
		</g>
		<path class="st0" d="M325.8,15.8c-6.7-1.7-12.7-2.2-19.7-2.3c-10.7-0.2-27.5,2.2-40.1,5.9c-0.1-4.6,0-10.2,1.9-16.4
			c0.8-2.4-5.5-3.6-6.8-2.5c-9.2,7.3-17.1,16.8-21.9,27.8c-11.3,5.4-17.4,9.8-20,12.7c-2.4,2.7,0.3,6.3,3.1,6.4
			c4.7,0.2,8.8,0.7,12.9,1.4c-0.4,4-0.5,5.7-0.6,8.2c0,0.7,0,1.5,0.3,1.5c0.3,0,0.5-0.2,0.6-0.5c0.6-3.4,1.5-6.5,2-8.6
			c2.6,0.7,6,1.5,9.7,3c-6.2,6.1-15.9,12.8-22.7,15.1c-0.5,0.1-0.6,0.5,0.4,0.3c7.2-1.6,17.9-8.1,25.4-14.1
			c11.9,5.6,24.8,13.9,34.6,25.1c1.2,1.4,2.5,0.7,1.7-0.9c-7-13.1-13.1-24.7-17.4-41.4c18.2-16.2,25.1-22,42.7-21.7
			c3.4,0.1,9,0.6,13.8,1.3C326.6,16.3,326.3,16,325.8,15.8L325.8,15.8z M258.4,21.6c-6.1,1.8-9.5,2.9-14.7,4.9
			c4.2-7.2,9.4-12.9,15-18.5C258.1,13.2,258.1,17.4,258.4,21.6L258.4,21.6z M237.1,36.4c-0.2,1.2-0.8,4.3-1.2,6.6
			c-1.6-0.3-6.6-0.8-8.4-0.8C231.9,39,237.1,36.4,237.1,36.4z M259.1,26.9c1.2,5.9,2.1,8.5,3.2,12.1c-5,4.8-10.2,9.4-10.4,9.4
			c-4.3-2.3-8.5-3.5-13.3-4.7c0.6-2.7,1.6-6.9,2.5-9.3C242,33.9,250.7,29.5,259.1,26.9L259.1,26.9z M263.7,42.1
			c3.5,8,8.5,17.8,13.4,25.8l-0.2,0.2c-6.8-6.5-14-13.3-22.2-18L263.7,42.1z M266.4,24.4c0,0,7.3-2.9,16.4-4.5l0.1,0.3
			c-4.9,3.2-10.1,8.9-15,13.1C267.4,31,266.5,26.8,266.4,24.4z"/>
	</g>
</g>
</svg>
