<?xml version="1.0" encoding="utf-8"?>
<!-- Generator: Adobe Illustrator 22.0.1, SVG Export Plug-In . SVG Version: 6.00 Build 0)  -->
<svg version="1.1" id="Layer_1" xmlns="http://www.w3.org/2000/svg" xmlns:xlink="http://www.w3.org/1999/xlink" x="0px" y="0px"
	 viewBox="0 0 393.8 94.3" style="enable-background:new 0 0 393.8 94.3;" xml:space="preserve">
<style type="text/css">
	.st0{fill:#FFFFFF;}
	.st1{fill:#61298A;}
</style>
<g>
	<g>
		<path class="st0" d="M1.8,83.3v7.3h2.7v-7.3h1.8v7.3h1v3.8H5.9V92H0v-8.7L1.8,83.3L1.8,83.3z"/>
		<path class="st0" d="M12.5,92v-8.7h5.5l-0.3,1.4h-3.4v2h2.8v1.4h-2.8v2.3h3.8V92L12.5,92L12.5,92z"/>
		<path class="st0" d="M28.1,92v-3.9h-3V92h-1.8v-8.7h1.8v3.4h3v-3.4H30V92H28.1z"/>
		<path class="st0" d="M41.5,84.7h-2.4V92h-1.8v-7.2h-2.4v-1.5h6.9L41.5,84.7z"/>
		<path class="st0" d="M51.7,88.3c-0.7,0.4-1.3,0.5-2.2,0.5h-1.2V92h-1.8v-8.7H49c1.7,0,2.1,0.2,2.7,0.4c0.9,0.4,1.4,1.3,1.4,2.3
			C53.1,87,52.5,87.9,51.7,88.3z M49.4,84.7h-1.1v2.7h1.2c1,0,1.5-0.3,1.5-1.4C51.1,85,50.3,84.7,49.4,84.7z"/>
		<path class="st0" d="M69.6,92v-7.3h-2.8V92h-1.8v-8.7h6.4V92H69.6z"/>
		<path class="st0" d="M82.8,88.3c-0.7,0.4-1.3,0.5-2.2,0.5h-1.2V92h-1.8v-8.7h2.5c1.7,0,2.1,0.2,2.7,0.4c0.9,0.4,1.4,1.3,1.4,2.3
			C84.1,87,83.5,87.9,82.8,88.3z M80.5,84.7h-1.1v2.7h1.2c1,0,1.5-0.3,1.5-1.4C82.1,85,81.4,84.7,80.5,84.7z"/>
		<path class="st0" d="M93,92.1c-2.7,0-4.2-1.8-4.2-4.5c0-2.8,1.6-4.5,4.1-4.5c2.8,0,4.1,1.8,4.1,4.5C97.1,90.2,95.8,92.1,93,92.1z
			 M92.9,84.5c-1.8,0-2.1,1.7-2.1,3.1c0,1.6,0.2,3.2,2.1,3.2c1.9,0,2.1-1.7,2.1-3.1C95,86.1,94.8,84.5,92.9,84.5z"/>
		<path class="st0" d="M105.9,92v-1.4h-0.2c-0.8,0-1.9-0.1-2.7-0.9c-0.9-0.9-0.9-2-0.9-2.6c0-0.6,0.1-1.8,1-2.6
			c0.9-0.8,2-0.9,2.6-0.9h0.2v-1.5h1.8v1.5h0.2c0.6,0,1.8,0.1,2.6,0.9c0.9,0.8,1,1.9,1,2.6c0,0.6,0,1.8-0.9,2.6
			c-0.8,0.8-1.9,0.9-2.7,0.9h-0.2V92H105.9z M105.8,84.9c-0.4,0-1,0.1-1.4,0.4c-0.5,0.5-0.6,1.3-0.6,1.8c0,0.5,0,1.3,0.5,1.8
			c0.4,0.4,1,0.5,1.4,0.5h0.2v-4.5L105.8,84.9L105.8,84.9z M107.6,89.3h0.2c0.4,0,1,0,1.4-0.5c0.5-0.5,0.5-1.3,0.5-1.8
			c0-0.5,0-1.3-0.6-1.8c-0.4-0.4-1-0.4-1.4-0.4h-0.1L107.6,89.3L107.6,89.3z"/>
		<path class="st0" d="M116.9,92v-8.7h5.5l-0.3,1.4h-3.4v2h2.8v1.4h-2.8v2.3h3.8V92L116.9,92L116.9,92z"/>
		<path class="st0" d="M131.6,92.1c-1.2,0-2.2-0.3-3-1c-0.9-0.8-1.3-1.9-1.3-3.3c0-1.1,0.2-2,0.7-2.8c0.8-1.2,2.1-1.9,3.6-1.9
			c0.9,0,1.9,0.3,2.4,0.7l-0.9,1.2c-0.5-0.3-1-0.5-1.6-0.5c-0.8,0-1.4,0.4-1.8,0.9c-0.3,0.5-0.5,1.2-0.5,2.1c0,1.2,0.1,1.9,0.6,2.4
			c0.5,0.5,1,0.8,1.8,0.8c0.6,0,1.1-0.2,1.7-0.5l0.8,1.1C133.6,91.8,132.7,92.1,131.6,92.1z"/>
		<path class="st0" d="M143.2,92.1c-1.2,0-2.2-0.3-3-1c-0.8-0.8-1.3-1.9-1.3-3.3c0-1.1,0.2-2,0.7-2.8c0.8-1.2,2.1-1.9,3.6-1.9
			c0.9,0,1.9,0.3,2.5,0.7l-0.9,1.2c-0.5-0.3-1-0.5-1.6-0.5c-0.8,0-1.4,0.4-1.8,0.9c-0.3,0.5-0.5,1.2-0.5,2.1c0,1.2,0.1,1.9,0.6,2.4
			c0.4,0.5,1,0.8,1.8,0.8c0.6,0,1.1-0.2,1.7-0.5l0.9,1.1C145.2,91.8,144.3,92.1,143.2,92.1z"/>
		<path class="st0" d="M156.1,92v-4.4c0-0.7,0-1.4,0.1-2.1c-0.3,0.8-0.5,1.3-0.9,2l-2.5,4.6h-1.8v-8.7h1.7v4.2c0,0.7,0,1.3-0.1,2.3
			c0.3-0.7,0.6-1.4,1-2.2l2.3-4.3h1.9V92L156.1,92L156.1,92z"/>
		<path class="st0" d="M167.7,92.1c-2.7,0-4.2-1.8-4.2-4.5c0-2.8,1.6-4.5,4.1-4.5c2.8,0,4.1,1.8,4.1,4.5
			C171.7,90.2,170.5,92.1,167.7,92.1z M167.6,84.5c-1.8,0-2.1,1.7-2.1,3.1c0,1.6,0.2,3.2,2.1,3.2c1.9,0,2.1-1.7,2.1-3.1
			C169.7,86.1,169.5,84.5,167.6,84.5z"/>
		<path class="st0" d="M182.2,92v-3.9h-3V92h-1.8v-8.7h1.8v3.4h3v-3.4h1.8V92H182.2z"/>
		<path class="st0" d="M195,92l-0.8-2.1h-3l-0.7,2.1h-1.9l3.2-8.7h2L197,92H195z M192.8,84.8l-1.1,3.7h2.2L192.8,84.8z"/>
		<path class="st0" d="M203.7,85.9c-0.1,1.8-0.1,1.9-0.3,3.2c-0.1,0.8-0.2,1.7-0.8,2.2c-0.5,0.5-1.3,0.6-1.8,0.7l-0.5,0.1l-0.3-1.2
			l0.3-0.1c0.3-0.1,0.6-0.2,0.9-0.4c0.6-0.5,0.6-1.6,0.8-3.2c0-0.3,0.1-1.9,0.1-2.5l0-1.4h5.4V92h-1.8v-7.3h-2L203.7,85.9z"/>
		<path class="st0" d="M215.6,83.3v3.4h0.9c0.9,0,2,0.1,2.7,0.6c1,0.6,1.1,1.5,1.1,2.1c0,1-0.5,1.7-1.1,2.1
			c-0.8,0.5-1.9,0.6-2.5,0.6h-3v-8.7L215.6,83.3L215.6,83.3z M216.4,90.6c0.7,0,1.1-0.1,1.4-0.3c0.4-0.3,0.5-0.6,0.5-1
			c0-0.3,0-0.7-0.4-1c-0.4-0.3-0.9-0.3-1.7-0.3h-0.6v2.6H216.4z"/>
		<path class="st0" d="M230.3,92v-3.9h-3V92h-1.8v-8.7h1.8v3.4h3v-3.4h1.8V92H230.3z"/>
		<path class="st0" d="M242,92.1c-2.7,0-4.2-1.8-4.2-4.5c0-2.8,1.6-4.5,4.1-4.5c2.8,0,4.1,1.8,4.1,4.5C246,90.2,244.8,92.1,242,92.1
			z M241.9,84.5c-1.8,0-2.1,1.7-2.1,3.1c0,1.6,0.2,3.2,2.1,3.2c1.8,0,2.1-1.7,2.1-3.1C244,86.1,243.8,84.5,241.9,84.5z"/>
		<path class="st0" d="M256.5,84.7h-3V92h-1.8v-8.7h5L256.5,84.7z"/>
		<path class="st0" d="M265.4,92.1c-2.7,0-4.2-1.8-4.2-4.5c0-2.8,1.6-4.5,4.1-4.5c2.8,0,4.1,1.8,4.1,4.5
			C269.5,90.2,268.3,92.1,265.4,92.1z M265.3,84.5c-1.8,0-2.1,1.7-2.1,3.1c0,1.6,0.2,3.2,2.1,3.2c1.8,0,2.1-1.7,2.1-3.1
			C267.5,86.1,267.2,84.5,265.3,84.5z"/>
		<path class="st0" d="M288.2,90.7h0.9v3.6h-1.5V92h-5.4v2.4h-1.5v-3.6h0.7c0.6-1.1,0.9-2.1,1.1-3.2c0.3-1.4,0.4-2.7,0.4-3.1l0-1.1
			h5.4L288.2,90.7L288.2,90.7z M284.3,85.5c-0.1,1-0.2,1.8-0.4,2.8c-0.2,0.9-0.5,1.7-0.9,2.5h3.5v-6h-2L284.3,85.5z"/>
		<path class="st0" d="M294.2,92v-8.7h5.5l-0.3,1.4H296v2h2.9v1.4H296v2.3h3.8V92L294.2,92L294.2,92z"/>
		<path class="st0" d="M310.4,84.7H308V92h-1.8v-7.2h-2.4v-1.5h6.9L310.4,84.7z"/>
		<path class="st0" d="M315.4,92v-8.7h5.5l-0.3,1.4h-3.4v2h2.9v1.4h-2.8v2.3h3.8V92L315.4,92L315.4,92z"/>
		<path class="st0" d="M331.3,92v-4.4c0-0.7,0-1.4,0.1-2.1c-0.3,0.8-0.5,1.3-0.9,2l-2.4,4.6h-1.8v-8.7h1.7v4.2c0,0.7,0,1.3-0.1,2.3
			c0.3-0.7,0.6-1.4,1-2.2l2.3-4.3h1.9V92L331.3,92L331.3,92z M332,81.2c-0.2,0.5-0.5,0.8-0.7,1c-0.5,0.4-1.1,0.4-1.6,0.4
			c-0.6,0-1.2-0.1-1.6-0.4c-0.3-0.2-0.6-0.6-0.7-1l0.9-0.5c0.1,0.2,0.3,0.4,0.5,0.6c0.3,0.2,0.8,0.2,1,0.2c0.5,0,0.8-0.1,0.9-0.2
			c0.2-0.1,0.4-0.4,0.5-0.6L332,81.2z"/>
		<path class="st0" d="M341.3,85.9c-0.1,1.8-0.1,1.9-0.3,3.2c-0.1,0.8-0.2,1.7-0.8,2.2c-0.5,0.5-1.3,0.6-1.8,0.7l-0.5,0.1l-0.3-1.2
			l0.3-0.1c0.3-0.1,0.6-0.2,0.9-0.4c0.6-0.5,0.6-1.6,0.8-3.2c0-0.3,0.1-1.9,0.1-2.5l0-1.4h5.4V92h-1.8v-7.3h-2L341.3,85.9z"/>
		<path class="st0" d="M356.3,92v-4.4c0-0.7,0-1.4,0.1-2.1c-0.3,0.8-0.5,1.3-0.9,2l-2.4,4.6h-1.8v-8.7h1.7v4.2c0,0.7,0,1.3-0.1,2.3
			c0.3-0.7,0.6-1.4,1-2.2l2.3-4.3h1.9V92L356.3,92L356.3,92z"/>
		<path class="st0" d="M369,92v-3.9h-3V92h-1.8v-8.7h1.8v3.4h3v-3.4h1.8V92H369z"/>
		<path class="st0" d="M381.8,84.7h-3V92H377v-8.7h5.1L381.8,84.7z"/>
		<path class="st0" d="M391.9,92l-0.8-2.1h-3l-0.7,2.1h-1.9l3.2-8.7h2l3.1,8.7H391.9z M389.7,84.8l-1.1,3.7h2.2L389.7,84.8z"/>
	</g>
	<g>
		<g>
			<path class="st0" d="M38.3,62.1L26.8,27.4H15.9L4.1,62.1H0.4v5.4h15.3v-5.4h-3.2l1.2-3.7h14.6l1.1,3.7h-3.2v5.4H42v-5.4H38.3z
				 M15.6,52.5L21,33.2h0.3l5.3,19.3H15.6z"/>
			<path class="st0" d="M70.1,62.1V25.7H58v5.4h3.7V40c-2.4-1.4-5.7-1.8-7.6-1.8c-9.1,0-12.4,6.8-12.4,15.6
				c0,7.6,2.5,14.1,11.4,14.1c2.5,0,6-0.8,8.8-3.1c0.1,0,0.1,0.1,0.2,0.1v2.6h11.6v-5.4L70.1,62.1L70.1,62.1z M61.8,59.9
				c-1.3,1-4.2,2.2-5.9,2.2c-3.2,0-5.6-1.6-5.6-8.4c0-7.8,2.9-9.5,5.8-9.5c1.8,0,4.4,0.8,5.8,1.5V59.9z"/>
			<path class="st0" d="M152.3,38.1c-2.7,0-6.8,1.2-10.1,3.5l-0.2-0.1v-2.6h-11.8v5.4h3.7v23.2h8.4V46.7c2-1.1,4.6-2.1,6.5-2.1
				c3.7,0,4.1,2.1,4.1,5.1v17.7h8.4V48C161.3,42.6,159.9,38.1,152.3,38.1L152.3,38.1z"/>
			<path class="st0" d="M179.1,61.6c-5.2,0-6.9-3.2-6.9-8.4c0-5.4,2.5-8.5,7.1-8.5c0.6,0,1.3,0,2.1,0.1v3.4h5.3v-8.4
				c-2.9-1.4-6.5-1.6-8.9-1.6c-11.6,0-14.2,8.5-14.2,15.3c0,7.9,2.8,14.4,13.8,14.4c3.9,0,8-0.8,10.8-2.3l-1.6-5.6
				C184.1,61,181.7,61.6,179.1,61.6L179.1,61.6z"/>
			<path class="st0" d="M215.6,52.1c0-5.1-0.8-14-13.1-14c-11.3,0-14,8.8-14,15.1c0,7.8,2.7,14.7,14.4,14.7c3.9,0,8.3-0.8,12.1-2.8
				l-1.7-5.1c-3,1.1-6.1,1.8-9.2,1.8c-5.1,0-7.2-2.3-7.2-6.7h18.7L215.6,52.1L215.6,52.1z M197,49.9c0.3-3.4,1.7-6.6,5.8-6.6
				c3.9,0,5.1,2.8,5.1,6.6H197z"/>
			<path class="st0" d="M128.2,62.1V48.2c0-8.6-5.3-9.4-14.6-9.4H96.5C94.6,45,91,56,89.7,61.9h-0.3c-0.7-2-2-7.8-6.8-23.1H72v5.4
				h3.7l8,23.2h11.4c1.6-4.6,5.4-15.7,8-23.2h8.3c6.5,0,9,0.5,9,5.1V50c-9.5,0.6-18.4,0.4-18.4,9.6c0,3.4,1.8,8.4,8.9,8.4
				c1.6,0,5.8-0.1,9.9-3.6c0,3,2.4,3.6,4.7,3.6c2.4,0,5.1-0.6,7-1.5v-4.5L128.2,62.1L128.2,62.1z M120.3,60.1
				c-1.9,1.6-4.1,2.6-5.9,2.6c-2.7,0-4-1.3-4-3.7c0-2.3,1.3-3.7,4.1-3.9l5.8-0.5L120.3,60.1L120.3,60.1z"/>
		</g>
		<g>
			<path class="st0" d="M302.8,43.5c-4.2-1-8-2-8-5.1c0-3.4,3-5.1,6.5-5.1c2.2,0,4.4,0.2,7.3,1.1v3.7h5.2v-8.5
				c-4.2-2.3-8.8-3-12.8-3c-10.1,0-15.4,4.9-15.4,12.2c0,8.3,7,9.9,14.9,11.9c3.9,1,6.5,2.1,6.5,5.4c0,3.9-3.2,5.3-7.9,5.3
				c-2.2,0-5-0.2-9.4-1.6v-3.4h-5.2v8.5c4.9,2.3,10.6,3.1,14.6,3.1c11.2,0,16.9-4.4,16.9-12C316.2,46.6,308.3,44.9,302.8,43.5
				L302.8,43.5z"/>
			<path class="st0" d="M363.4,62.1V48.2c0-7.4-3.8-9.4-11.7-9.4h-24.9v-8l-5.6,0.6c-0.4,1-1.6,6.3-2,7.3l-4.6,0.9v4.6h4.1v15.1
				c0,4.6,1.9,8.5,9.9,8.5c2.5,0,5.8-0.5,8.2-1.6l-1.1-5.4c-2,0.5-3.9,0.8-4.9,0.8c-3,0-3.9-1.4-3.9-4.4v-13H350
				c4.2,0,5.4,1.8,5.4,5.1V50c-9.1,0.6-18.4,0.4-18.4,9.6c0,3.4,1.8,8.4,8.9,8.4c1.6,0,5.9-0.1,9.9-3.6c0.1,0.1,0.1,0.1,0.1,0.1
				c0.3,2.9,2.1,3.4,4.6,3.4c2.5,0,5.1-0.6,7-1.5v-4.5L363.4,62.1L363.4,62.1z M355.4,60.1c-1.8,1.6-4.1,2.6-5.9,2.6
				c-2.7,0-3.9-1.3-3.9-3.7c0-2.3,1.3-3.7,4-3.9l5.8-0.5L355.4,60.1L355.4,60.1L355.4,60.1z"/>
			<path class="st0" d="M391.2,47.6c1.2-1.7,2.6-5.4,2.6-7.6c0-1.2-0.4-1.9-1.6-1.9c-3.2,0-7.7,2.7-10.9,5.8l-0.3-0.2
				c0.2-1.3,0.4-3.5,0.4-4.9h-12v5.4h3.7v17.8h-3.7v5.4h15.8v-5.4h-3.7V47.6L391.2,47.6L391.2,47.6z"/>
		</g>
		<path class="st1" d="M325.7,15.7C319,14,313,13.5,306,13.4c-10.7-0.2-27.5,2.2-40.1,5.9c-0.1-4.6,0-10.2,1.9-16.4
			c0.8-2.4-5.5-3.6-6.8-2.5c-9.2,7.3-17.1,16.8-21.9,27.8c-11.3,5.4-17.4,9.8-20,12.7c-2.4,2.7,0.3,6.3,3.1,6.4
			c4.7,0.2,8.8,0.7,12.9,1.4c-0.4,4-0.5,5.7-0.6,8.2c0,0.7,0,1.5,0.3,1.5c0.3,0,0.5-0.2,0.6-0.5c0.6-3.4,1.5-6.5,2-8.6
			c2.6,0.7,6,1.5,9.7,3c-6.2,6.1-15.9,12.8-22.7,15.1c-0.5,0.1-0.6,0.5,0.4,0.3c7.2-1.6,17.9-8.1,25.4-14.1
			c11.9,5.6,24.8,13.9,34.6,25.1c1.2,1.4,2.5,0.7,1.7-0.9c-7-13.1-13.1-24.7-17.4-41.4c18.2-16.2,25.1-22,42.7-21.7
			c3.4,0.1,9,0.6,13.8,1.3C326.5,16.2,326.2,15.8,325.7,15.7L325.7,15.7z M258.3,21.4c-6.1,1.8-9.5,2.9-14.7,4.9
			c4.2-7.2,9.4-12.9,15-18.5C258.1,13.1,258,17.2,258.3,21.4L258.3,21.4z M237.1,36.3c-0.2,1.2-0.8,4.3-1.2,6.6
			c-1.6-0.3-6.6-0.8-8.4-0.8C231.8,38.8,237.1,36.3,237.1,36.3z M259,26.7c1.2,5.9,2.1,8.5,3.2,12.1c-5,4.8-10.2,9.4-10.4,9.4
			c-4.3-2.3-8.5-3.5-13.3-4.7c0.6-2.7,1.6-6.9,2.5-9.3C242,33.7,250.7,29.4,259,26.7L259,26.7z M263.7,42c3.5,8,8.5,17.8,13.4,25.8
			l-0.2,0.2c-6.8-6.5-14-13.3-22.2-18L263.7,42z M266.3,24.2c0,0,7.3-2.9,16.4-4.5l0.1,0.3c-4.9,3.2-10.1,8.9-15,13.1
			C267.3,30.9,266.5,26.7,266.3,24.2z"/>
	</g>
</g>
</svg>
