<?xml version="1.0" encoding="utf-8"?>
<!-- Generator: Adobe Illustrator 16.0.0, SVG Export Plug-In . SVG Version: 6.00 Build 0)  -->
<!DOCTYPE svg PUBLIC "-//W3C//DTD SVG 1.1//EN" "http://www.w3.org/Graphics/SVG/1.1/DTD/svg11.dtd">
<svg version="1.1" id="Layer_1" xmlns="http://www.w3.org/2000/svg" xmlns:xlink="http://www.w3.org/1999/xlink" x="0px" y="0px"
	 width="595.28px" height="425.2px" viewBox="0 0 595.28 425.2" enable-background="new 0 0 595.28 425.2" xml:space="preserve">
<g>
	<g>
		<path d="M127.629,250.396v6.313h2.375v-6.313h1.593v6.313h0.901v3.297h-1.346v-2.041h-5.116v-7.569H127.629z"/>
		<path d="M136.903,257.965v-7.569h4.753l-0.218,1.25h-2.965v1.744h2.471v1.25h-2.465v2.012h3.291v1.313H136.903z"/>
		<path d="M150.496,257.965v-3.384h-2.587v3.384h-1.599v-7.569h1.599v2.924h2.587v-2.924h1.59v7.569H150.496z"/>
		<path d="M162.072,251.674h-2.055v6.291h-1.579v-6.291h-2.084v-1.278h5.983L162.072,251.674z"/>
		<path d="M171.009,254.75c-0.628,0.349-1.122,0.447-1.948,0.447h-1.018v2.768h-1.576v-7.569h2.181c1.436,0,1.849,0.145,2.308,0.366
			c0.753,0.378,1.204,1.122,1.204,1.977C172.16,253.686,171.643,254.401,171.009,254.75z M168.968,251.616h-0.925v2.337h1.035
			c0.872,0,1.34-0.268,1.34-1.174C170.419,251.866,169.776,251.616,168.968,251.616z"/>
		<path d="M186.553,257.965v-6.308h-2.396v6.308h-1.579v-7.569h5.564v7.569H186.553z"/>
		<path d="M197.999,254.75c-0.622,0.349-1.117,0.447-1.945,0.447h-1.012v2.768h-1.584v-7.569h2.18c1.445,0,1.843,0.145,2.306,0.366
			c0.759,0.378,1.209,1.122,1.209,1.977C199.152,253.686,198.632,254.401,197.999,254.75z M195.963,251.616h-0.921v2.337h1.032
			c0.87,0,1.343-0.268,1.343-1.174C197.417,251.866,196.774,251.616,195.963,251.616z"/>
		<path d="M206.854,258.076c-2.334,0-3.651-1.582-3.651-3.873c0-2.447,1.36-3.913,3.582-3.913c2.393,0,3.596,1.605,3.596,3.873
			C210.38,256.453,209.304,258.076,206.854,258.076z M206.754,251.459c-1.564,0-1.788,1.488-1.788,2.715
			c0,1.373,0.183,2.768,1.863,2.768c1.608,0,1.785-1.477,1.785-2.727C208.615,252.901,208.42,251.459,206.754,251.459z"/>
		<path d="M218.017,257.965v-1.215h-0.183c-0.671,0-1.607-0.099-2.305-0.773c-0.773-0.738-0.814-1.773-0.814-2.291
			c0-0.54,0.07-1.522,0.837-2.227c0.742-0.669,1.748-0.738,2.3-0.738h0.166v-1.343h1.564v1.343h0.169
			c0.546,0,1.549,0.069,2.291,0.738c0.771,0.704,0.837,1.687,0.837,2.227c0,0.518-0.035,1.553-0.805,2.291
			c-0.707,0.675-1.637,0.773-2.309,0.773h-0.183v1.215H218.017z M217.973,251.785c-0.346,0-0.852,0.058-1.201,0.366
			c-0.459,0.4-0.491,1.116-0.491,1.563c0,0.419,0.032,1.146,0.459,1.576c0.37,0.366,0.837,0.395,1.189,0.395h0.151v-3.9H217.973z
			 M219.511,255.686h0.154c0.352,0,0.826-0.028,1.186-0.395c0.439-0.431,0.462-1.157,0.462-1.576c0-0.447-0.023-1.163-0.488-1.563
			c-0.349-0.309-0.852-0.366-1.204-0.366h-0.111V255.686z"/>
		<path d="M227.639,257.965v-7.569h4.748l-0.218,1.25h-2.965v1.744h2.471v1.25h-2.457v2.012h3.288v1.313H227.639z"/>
		<path d="M240.349,258.093c-1.049,0-1.93-0.267-2.587-0.896c-0.744-0.709-1.131-1.68-1.131-2.866c0-0.965,0.212-1.75,0.628-2.407
			c0.66-1.034,1.817-1.68,3.134-1.68c0.794,0,1.648,0.238,2.125,0.604l-0.741,1.018c-0.433-0.268-0.881-0.407-1.357-0.407
			c-0.657,0-1.242,0.326-1.593,0.814c-0.296,0.418-0.436,1.006-0.436,1.831c0,1.075,0.113,1.634,0.503,2.099
			c0.398,0.46,0.896,0.687,1.582,0.687c0.543,0,0.979-0.14,1.471-0.448l0.736,0.937C242.064,257.854,241.3,258.093,240.349,258.093z
			"/>
		<path d="M250.46,258.093c-1.049,0-1.927-0.267-2.587-0.896c-0.735-0.709-1.134-1.68-1.134-2.866c0-0.965,0.215-1.75,0.631-2.407
			c0.66-1.034,1.823-1.68,3.131-1.68c0.797,0,1.651,0.238,2.128,0.604l-0.738,1.018c-0.436-0.268-0.884-0.407-1.36-0.407
			c-0.654,0-1.244,0.326-1.596,0.814c-0.293,0.418-0.43,1.006-0.43,1.831c0,1.075,0.11,1.634,0.503,2.099
			c0.39,0.46,0.896,0.687,1.579,0.687c0.546,0,0.979-0.14,1.468-0.448l0.745,0.937C252.181,257.854,251.414,258.093,250.46,258.093z
			"/>
		<path d="M261.635,257.965v-3.831c0-0.576,0.029-1.221,0.067-1.832c-0.221,0.657-0.459,1.157-0.747,1.71l-2.131,3.953h-1.552
			v-7.569h1.509v3.668c0,0.611,0,1.146-0.082,1.96c0.224-0.604,0.488-1.187,0.852-1.878l1.986-3.75h1.607v7.569H261.635z"/>
		<path d="M271.688,258.076c-2.337,0-3.648-1.582-3.648-3.873c0-2.447,1.358-3.913,3.584-3.913c2.39,0,3.593,1.605,3.593,3.873
			C275.217,256.453,274.141,258.076,271.688,258.076z M271.595,251.459c-1.573,0-1.791,1.488-1.791,2.715
			c0,1.373,0.18,2.768,1.86,2.768c1.608,0,1.785-1.477,1.785-2.727C273.449,252.901,273.257,251.459,271.595,251.459z"/>
		<path d="M284.29,257.965v-3.384h-2.59v3.384h-1.587v-7.569h1.587v2.924h2.59v-2.924h1.596v7.569H284.29z"/>
		<path d="M295.436,257.965l-0.654-1.813h-2.587l-0.646,1.813h-1.634l2.811-7.569h1.718l2.686,7.569H295.436z M293.52,251.727
			l-0.948,3.221h1.872L293.52,251.727z"/>
		<path d="M302.994,252.721c-0.084,1.541-0.113,1.663-0.227,2.744c-0.073,0.687-0.172,1.437-0.684,1.925
			c-0.424,0.396-1.107,0.535-1.529,0.604l-0.418,0.07l-0.241-1.035l0.241-0.088c0.238-0.081,0.531-0.18,0.741-0.36
			c0.503-0.447,0.558-1.384,0.674-2.744c0.023-0.279,0.108-1.646,0.122-2.209l0.044-1.232h4.669v7.569h-1.593v-6.308h-1.75
			L302.994,252.721z"/>
		<path d="M313.294,250.396v2.924h0.785c0.796,0,1.694,0.07,2.349,0.506c0.828,0.547,0.939,1.326,0.939,1.82
			c0,0.907-0.422,1.482-0.951,1.831c-0.697,0.46-1.651,0.488-2.154,0.488h-2.563v-7.569H313.294z M313.983,256.773
			c0.616,0,0.991-0.053,1.256-0.221c0.378-0.222,0.45-0.547,0.45-0.907c0-0.268-0.035-0.587-0.349-0.843
			c-0.312-0.233-0.803-0.291-1.485-0.291h-0.562v2.262H313.983z"/>
		<path d="M326.091,257.965v-3.384h-2.581v3.384h-1.594v-7.569h1.594v2.924h2.581v-2.924h1.599v7.569H326.091z"/>
		<path d="M336.231,258.076c-2.338,0-3.651-1.582-3.651-3.873c0-2.447,1.354-3.913,3.584-3.913c2.39,0,3.594,1.605,3.594,3.873
			C339.758,256.453,338.679,258.076,336.231,258.076z M336.135,251.459c-1.566,0-1.79,1.488-1.79,2.715
			c0,1.373,0.177,2.768,1.857,2.768c1.607,0,1.796-1.477,1.796-2.727C337.998,252.901,337.795,251.459,336.135,251.459z"/>
		<path d="M348.848,251.628h-2.628v6.337h-1.566v-7.569h4.384L348.848,251.628z"/>
		<path d="M356.606,258.076c-2.334,0-3.646-1.582-3.646-3.873c0-2.447,1.355-3.913,3.579-3.913c2.39,0,3.593,1.605,3.593,3.873
			C360.133,256.453,359.058,258.076,356.606,258.076z M356.511,251.459c-1.566,0-1.794,1.488-1.794,2.715
			c0,1.373,0.184,2.768,1.864,2.768c1.604,0,1.79-1.477,1.79-2.727C358.371,252.901,358.174,251.459,356.511,251.459z"/>
		<path d="M376.384,256.843h0.782v3.163h-1.346v-2.041h-4.692v2.041h-1.343v-3.163h0.628c0.488-0.936,0.767-1.802,0.959-2.75
			c0.253-1.203,0.313-2.366,0.328-2.703l0.038-0.994h4.646V256.843z M372.971,252.302c-0.072,0.844-0.18,1.605-0.381,2.39
			c-0.194,0.773-0.459,1.466-0.822,2.151h3.035v-5.215h-1.779L372.971,252.302z"/>
		<path d="M381.57,257.965v-7.569h4.756l-0.224,1.25h-2.963v1.744h2.475v1.25h-2.463v2.012h3.288v1.313H381.57z"/>
		<path d="M395.658,251.674h-2.062v6.291h-1.578v-6.291h-2.082v-1.278h5.983L395.658,251.674z"/>
		<path d="M400.048,257.965v-7.569h4.753l-0.224,1.25h-2.966v1.744h2.478v1.25h-2.463v2.012h3.288v1.313H400.048z"/>
		<path d="M413.824,257.965v-3.831c0-0.576,0.023-1.221,0.067-1.832c-0.222,0.657-0.46,1.157-0.756,1.71l-2.119,3.953h-1.562v-7.569
			h1.512v3.668c0,0.611,0,1.146-0.084,1.96c0.229-0.604,0.494-1.187,0.854-1.878l1.985-3.75h1.61v7.569H413.824z M414.42,248.599
			c-0.15,0.43-0.418,0.709-0.645,0.878c-0.442,0.337-0.96,0.39-1.35,0.39c-0.534,0-1.025-0.128-1.387-0.39
			c-0.25-0.187-0.503-0.5-0.643-0.878l0.794-0.477c0.085,0.197,0.238,0.39,0.416,0.518c0.296,0.191,0.721,0.209,0.828,0.209
			c0.437,0,0.669-0.128,0.771-0.198c0.184-0.127,0.34-0.349,0.419-0.528L414.42,248.599z"/>
		<path d="M422.476,252.721c-0.081,1.541-0.107,1.663-0.224,2.744c-0.063,0.687-0.163,1.437-0.68,1.925
			c-0.425,0.396-1.105,0.535-1.529,0.604l-0.422,0.07l-0.235-1.035l0.235-0.088c0.244-0.081,0.538-0.18,0.747-0.36
			c0.5-0.447,0.559-1.384,0.672-2.744c0.026-0.279,0.107-1.646,0.125-2.209l0.04-1.232h4.669v7.569h-1.593v-6.308h-1.744
			L422.476,252.721z"/>
		<path d="M435.555,257.965v-3.831c0-0.576,0.029-1.221,0.073-1.832c-0.228,0.657-0.463,1.157-0.759,1.71l-2.128,3.953h-1.553
			v-7.569h1.515v3.668c0,0.611,0,1.146-0.081,1.96c0.218-0.604,0.485-1.187,0.849-1.878l1.985-3.75h1.61v7.569H435.555z"/>
		<path d="M446.556,257.965v-3.384h-2.582v3.384h-1.593v-7.569h1.593v2.924h2.582v-2.924h1.599v7.569H446.556z"/>
		<path d="M457.666,251.628h-2.628v6.337h-1.566v-7.569h4.387L457.666,251.628z"/>
		<path d="M466.44,257.965l-0.663-1.813h-2.585l-0.647,1.813h-1.637l2.813-7.569h1.718l2.687,7.569H466.44z M464.516,251.727
			l-0.948,3.221h1.872L464.516,251.727z"/>
	</g>
	<g>
		<g>
			<path d="M139.007,228.627l-11.471-34.712h-10.847l-11.829,34.712h-3.727v5.419h15.35v-5.419h-3.172l1.201-3.732h14.643
				l1.125,3.732h-3.168v5.419h15.628v-5.419H139.007z M116.341,219.051l5.419-19.293h0.285l5.349,19.293H116.341z"/>
			<path d="M170.829,228.627v-36.329h-12.041v5.418h3.732v8.803c-2.393-1.407-5.704-1.831-7.596-1.831
				c-9.09,0-12.399,6.759-12.399,15.63c0,7.604,2.468,14.082,11.411,14.082c2.462,0,5.983-0.779,8.8-3.1
				c0.07,0,0.14,0.07,0.209,0.14v2.605h11.617v-5.419H170.829z M162.52,226.446c-1.332,0.982-4.221,2.181-5.913,2.181
				c-3.163,0-5.628-1.622-5.628-8.379c0-7.815,2.881-9.504,5.773-9.504c1.826,0,4.436,0.773,5.768,1.549V226.446z"/>
			<path d="M253.056,204.688c-2.745,0-6.753,1.197-10.064,3.451l-0.212-0.143v-2.605h-11.826v5.422h3.73v23.232h8.378v-20.767
				c1.971-1.128,4.648-2.114,6.544-2.114c3.666,0,4.084,2.114,4.084,5.142v17.739h8.381v-19.5
				C262.071,209.194,260.664,204.688,253.056,204.688L253.056,204.688z"/>
			<path d="M279.81,228.133c-5.204,0-6.896-3.238-6.896-8.448c0-5.351,2.465-8.52,7.105-8.52c0.639,0,1.343,0,2.116,0.07v3.448
				h5.349v-8.375c-2.887-1.41-6.474-1.55-8.867-1.55c-11.62,0-14.152,8.521-14.152,15.275c0,7.89,2.814,14.437,13.794,14.437
				c3.948,0,7.957-0.773,10.779-2.256l-1.555-5.558C284.883,227.568,282.487,228.133,279.81,228.133L279.81,228.133z"/>
			<path d="M316.35,218.632c0-5.141-0.841-14.013-13.094-14.013c-11.332,0-14.009,8.802-14.009,15.135
				c0,7.814,2.744,14.716,14.361,14.716c3.942,0,8.312-0.773,12.111-2.813l-1.689-5.146c-2.956,1.058-6.125,1.762-9.224,1.762
				c-5.141,0-7.181-2.32-7.181-6.687h18.725V218.632z M297.764,216.446c0.285-3.45,1.692-6.551,5.843-6.551
				c3.942,0,5.07,2.75,5.14,6.551H297.764z"/>
			<path d="M228.982,228.627v-13.871c0-8.588-5.349-9.364-14.646-9.364h-17.1c-1.907,6.125-5.495,17.177-6.768,23.096h-0.279
				c-0.704-1.977-2.041-7.75-6.832-23.096H172.73v5.422h3.732l7.957,23.232h11.401c1.625-4.576,5.352-15.698,7.951-23.232h8.314
				c6.547,0,9.009,0.494,9.009,5.068v0.704c-9.5,0.634-18.442,0.424-18.442,9.646c0,3.378,1.759,8.378,8.875,8.378
				c1.617,0,5.837-0.069,9.922-3.593c0,3.029,2.395,3.593,4.718,3.593c2.39,0,5.137-0.563,6.966-1.477v-4.506H228.982z
				 M221.095,226.656c-1.898,1.616-4.148,2.604-5.91,2.604c-2.744,0-3.951-1.338-3.951-3.733c0-2.25,1.34-3.656,4.09-3.872
				l5.771-0.494V226.656z"/>
		</g>
		<g>
			<path d="M403.507,210.04c-4.151-0.988-7.95-1.971-7.95-5.07c0-3.381,2.95-5.14,6.543-5.14c2.184,0,4.37,0.212,7.326,1.055v3.733
				h5.213v-8.518c-4.16-2.253-8.806-2.959-12.817-2.959c-10.07,0-15.35,4.858-15.35,12.181c0,8.309,6.968,9.855,14.853,11.898
				c3.872,0.982,6.55,2.11,6.55,5.424c0,3.867-3.169,5.279-7.885,5.279c-2.18,0-4.994-0.209-9.363-1.552v-3.372h-5.21v8.512
				c4.858,2.325,10.632,3.099,14.644,3.099c11.192,0,16.896-4.366,16.896-11.966C416.955,213.136,409.002,211.447,403.507,210.04
				L403.507,210.04z"/>
			<path d="M464.126,228.627v-13.871c0-7.39-3.8-9.364-11.687-9.364h-24.92v-7.954l-5.637,0.561
				c-0.352,0.988-1.619,6.337-2.041,7.323l-4.578,0.919v4.573h4.087v15.139c0,4.576,1.901,8.518,9.85,8.518
				c2.471,0,5.779-0.494,8.169-1.622l-1.053-5.419c-2.043,0.494-3.872,0.773-4.931,0.773c-2.953,0-3.866-1.407-3.866-4.437v-12.952
				h23.228c4.228,0,5.419,1.832,5.419,5.068v0.704c-9.151,0.634-18.442,0.354-18.442,9.646c0,3.378,1.756,8.378,8.872,8.378
				c1.617,0,5.91-0.069,9.92-3.593c0.069,0.075,0.147,0.075,0.147,0.146c0.285,2.884,2.114,3.447,4.573,3.447
				c2.468,0,5.146-0.563,7.041-1.477v-4.506H464.126z M456.166,226.656c-1.825,1.616-4.151,2.604-5.91,2.604
				c-2.747,0-3.869-1.338-3.869-3.733c0-2.25,1.265-3.656,4.012-3.872l5.768-0.494V226.656z"/>
			<path d="M491.933,214.122c1.197-1.689,2.604-5.419,2.604-7.603c0-1.198-0.422-1.901-1.613-1.901
				c-3.175,0-7.748,2.747-10.919,5.843l-0.279-0.212c0.209-1.337,0.354-3.521,0.354-4.858h-11.972v5.422h3.733v17.813h-3.733v5.419
				h15.769v-5.419h-3.66v-14.505H491.933z"/>
		</g>
		<path fill="#61298A" d="M426.45,182.263c-6.666-1.671-12.698-2.221-19.676-2.326c-10.698-0.163-27.486,2.245-40.109,5.855
			c-0.136-4.64,0.003-10.245,1.922-16.361c0.756-2.404-5.5-3.596-6.835-2.5c-9.166,7.344-17.064,16.751-21.942,27.833
			c-11.285,5.367-17.448,9.759-20.013,12.695c-2.438,2.733,0.317,6.329,3.122,6.413c4.672,0.195,8.794,0.712,12.92,1.439
			c-0.439,3.979-0.526,5.723-0.622,8.177c-0.029,0.738,0.018,1.488,0.343,1.534c0.253-0.04,0.485-0.156,0.552-0.528
			c0.556-3.355,1.463-6.535,1.969-8.611c2.64,0.657,6.032,1.541,9.732,3c-6.212,6.064-15.919,12.792-22.651,15.123
			c-0.469,0.128-0.616,0.518,0.424,0.285c7.222-1.622,17.858-8.076,25.351-14.076c11.942,5.593,24.757,13.913,34.576,25.082
			c1.204,1.366,2.46,0.698,1.739-0.884c-6.995-13.128-13.051-24.692-17.37-41.393c18.181-16.175,25.138-21.98,42.655-21.713
			c3.393,0.055,8.96,0.593,13.826,1.288C427.275,182.731,426.984,182.396,426.45,182.263L426.45,182.263z M359.075,187.973
			c-6.148,1.764-9.538,2.893-14.695,4.921c4.203-7.169,9.445-12.939,15.021-18.475C358.831,179.658,358.764,183.792,359.075,187.973
			L359.075,187.973z M337.815,202.833c-0.212,1.163-0.814,4.305-1.209,6.62c-1.567-0.271-6.608-0.846-8.394-0.829
			C332.545,205.369,337.815,202.833,337.815,202.833z M359.778,193.272c1.187,5.89,2.099,8.468,3.244,12.079
			c-4.953,4.802-10.229,9.39-10.396,9.39c-4.262-2.34-8.521-3.518-13.3-4.71c0.561-2.718,1.628-6.872,2.521-9.306
			C342.72,200.284,351.43,195.955,359.778,193.272L359.778,193.272z M364.424,208.514c3.466,8.031,8.489,17.775,13.448,25.793
			l-0.206,0.203c-6.806-6.512-13.975-13.279-22.213-17.995L364.424,208.514z M367.087,190.781c0,0,7.326-2.907,16.445-4.459
			l0.151,0.291c-4.922,3.233-10.1,8.905-14.957,13.082C368.069,197.467,367.227,193.257,367.087,190.781z"/>
	</g>
</g>
</svg>
