<?xml version="1.0" encoding="utf-8"?>
<!-- Generator: Adobe Illustrator 22.0.1, SVG Export Plug-In . SVG Version: 6.00 Build 0)  -->
<svg version="1.1" id="Layer_1" xmlns="http://www.w3.org/2000/svg" xmlns:xlink="http://www.w3.org/1999/xlink" x="0px" y="0px"
	 viewBox="0 0 393.4 93.4" style="enable-background:new 0 0 393.4 93.4;" xml:space="preserve">
<style type="text/css">
	.st0{fill:#FFFFFF;}
	.st1{fill:#61298A;}
</style>
<g>
	<g>
		<path class="st0" d="M26.5,83.9v6.3h2.4v-6.3h1.6v6.3h0.9v3.3H30v-2h-5.1v-7.6H26.5z"/>
		<path class="st0" d="M35.8,91.4v-7.6h4.8l-0.2,1.3h-3v1.7h2.5v1.3h-2.5v2h3.3v1.3H35.8z"/>
		<path class="st0" d="M49.4,91.4v-3.4h-2.6v3.4h-1.6v-7.6h1.6v2.9h2.6v-2.9h1.6v7.6H49.4z"/>
		<path class="st0" d="M60.9,85.2h-2.1v6.3h-1.6v-6.3h-2.1v-1.3h6L60.9,85.2z"/>
		<path class="st0" d="M69.9,88.2c-0.6,0.3-1.1,0.4-1.9,0.4h-1v2.8h-1.6v-7.6h2.2c1.4,0,1.9,0.1,2.3,0.4c0.8,0.4,1.2,1.1,1.2,2
			C71,87.2,70.5,87.9,69.9,88.2z M67.8,85.1h-0.9v2.3h1c0.9,0,1.3-0.3,1.3-1.2C69.3,85.3,68.6,85.1,67.8,85.1z"/>
		<path class="st0" d="M85.4,91.4v-6.3H83v6.3h-1.6v-7.6H87v7.6H85.4z"/>
		<path class="st0" d="M96.9,88.2c-0.6,0.3-1.1,0.4-1.9,0.4h-1v2.8h-1.6v-7.6h2.2c1.4,0,1.8,0.1,2.3,0.4c0.8,0.4,1.2,1.1,1.2,2
			C98,87.2,97.5,87.9,96.9,88.2z M94.8,85.1h-0.9v2.3h1c0.9,0,1.3-0.3,1.3-1.2C96.3,85.3,95.6,85.1,94.8,85.1z"/>
		<path class="st0" d="M105.7,91.6c-2.3,0-3.6-1.6-3.6-3.9c0-2.4,1.4-3.9,3.6-3.9c2.4,0,3.6,1.6,3.6,3.9
			C109.2,89.9,108.2,91.6,105.7,91.6z M105.6,84.9c-1.6,0-1.8,1.5-1.8,2.7c0,1.4,0.2,2.8,1.9,2.8c1.6,0,1.8-1.5,1.8-2.7
			C107.5,86.4,107.3,84.9,105.6,84.9z"/>
		<path class="st0" d="M116.9,91.4v-1.2h-0.2c-0.7,0-1.6-0.1-2.3-0.8c-0.8-0.7-0.8-1.8-0.8-2.3c0-0.5,0.1-1.5,0.8-2.2
			c0.7-0.7,1.7-0.7,2.3-0.7h0.2v-1.3h1.6v1.3h0.2c0.5,0,1.5,0.1,2.3,0.7c0.8,0.7,0.8,1.7,0.8,2.2c0,0.5,0,1.6-0.8,2.3
			c-0.7,0.7-1.6,0.8-2.3,0.8h-0.2v1.2H116.9z M116.8,85.3c-0.3,0-0.9,0.1-1.2,0.4c-0.5,0.4-0.5,1.1-0.5,1.6c0,0.4,0,1.1,0.5,1.6
			c0.4,0.4,0.8,0.4,1.2,0.4h0.2v-3.9L116.8,85.3L116.8,85.3z M118.4,89.2h0.2c0.4,0,0.8,0,1.2-0.4c0.4-0.4,0.5-1.2,0.5-1.6
			c0-0.4,0-1.2-0.5-1.6c-0.4-0.3-0.9-0.4-1.2-0.4h-0.1L118.4,89.2L118.4,89.2z"/>
		<path class="st0" d="M126.5,91.4v-7.6h4.7l-0.2,1.3h-3v1.7h2.5v1.3h-2.5v2h3.3v1.3H126.5z"/>
		<path class="st0" d="M139.2,91.6c-1,0-1.9-0.3-2.6-0.9c-0.7-0.7-1.1-1.7-1.1-2.9c0-1,0.2-1.8,0.6-2.4c0.7-1,1.8-1.7,3.1-1.7
			c0.8,0,1.6,0.2,2.1,0.6l-0.7,1c-0.4-0.3-0.9-0.4-1.4-0.4c-0.7,0-1.2,0.3-1.6,0.8c-0.3,0.4-0.4,1-0.4,1.8c0,1.1,0.1,1.6,0.5,2.1
			c0.4,0.5,0.9,0.7,1.6,0.7c0.5,0,1-0.1,1.5-0.4l0.7,0.9C140.9,91.3,140.2,91.6,139.2,91.6z"/>
		<path class="st0" d="M149.3,91.6c-1,0-1.9-0.3-2.6-0.9c-0.7-0.7-1.1-1.7-1.1-2.9c0-1,0.2-1.8,0.6-2.4c0.7-1,1.8-1.7,3.1-1.7
			c0.8,0,1.6,0.2,2.1,0.6l-0.7,1c-0.4-0.3-0.9-0.4-1.4-0.4c-0.7,0-1.2,0.3-1.6,0.8c-0.3,0.4-0.4,1-0.4,1.8c0,1.1,0.1,1.6,0.5,2.1
			c0.4,0.5,0.9,0.7,1.6,0.7c0.5,0,1-0.1,1.5-0.4l0.7,0.9C151,91.3,150.3,91.6,149.3,91.6z"/>
		<path class="st0" d="M160.5,91.4v-3.8c0-0.6,0-1.2,0.1-1.8c-0.2,0.7-0.5,1.2-0.7,1.7l-2.1,4h-1.6v-7.6h1.5v3.7c0,0.6,0,1.1-0.1,2
			c0.2-0.6,0.5-1.2,0.9-1.9l2-3.8h1.6v7.6L160.5,91.4L160.5,91.4z"/>
		<path class="st0" d="M170.5,91.6c-2.3,0-3.6-1.6-3.6-3.9c0-2.4,1.4-3.9,3.6-3.9c2.4,0,3.6,1.6,3.6,3.9
			C174.1,89.9,173,91.6,170.5,91.6z M170.5,84.9c-1.6,0-1.8,1.5-1.8,2.7c0,1.4,0.2,2.8,1.9,2.8c1.6,0,1.8-1.5,1.8-2.7
			C172.3,86.4,172.1,84.9,170.5,84.9z"/>
		<path class="st0" d="M183.1,91.4v-3.4h-2.6v3.4H179v-7.6h1.6v2.9h2.6v-2.9h1.6v7.6H183.1z"/>
		<path class="st0" d="M194.3,91.4l-0.7-1.8h-2.6l-0.6,1.8h-1.6l2.8-7.6h1.7l2.7,7.6H194.3z M192.4,85.2l-0.9,3.2h1.9L192.4,85.2z"
			/>
		<path class="st0" d="M201.9,86.2c-0.1,1.5-0.1,1.7-0.2,2.7c-0.1,0.7-0.2,1.4-0.7,1.9c-0.4,0.4-1.1,0.5-1.5,0.6l-0.4,0.1l-0.2-1
			l0.2-0.1c0.2-0.1,0.5-0.2,0.7-0.4c0.5-0.4,0.6-1.4,0.7-2.7c0-0.3,0.1-1.6,0.1-2.2l0-1.2h4.7v7.6h-1.6v-6.3h-1.8L201.9,86.2z"/>
		<path class="st0" d="M212.2,83.9v2.9h0.8c0.8,0,1.7,0.1,2.4,0.5c0.8,0.5,0.9,1.3,0.9,1.8c0,0.9-0.4,1.5-1,1.8
			c-0.7,0.5-1.7,0.5-2.2,0.5h-2.6v-7.6H212.2z M212.8,90.3c0.6,0,1-0.1,1.3-0.2c0.4-0.2,0.5-0.5,0.5-0.9c0-0.3,0-0.6-0.3-0.8
			c-0.3-0.2-0.8-0.3-1.5-0.3h-0.6v2.3H212.8z"/>
		<path class="st0" d="M225,91.4v-3.4h-2.6v3.4h-1.6v-7.6h1.6v2.9h2.6v-2.9h1.6v7.6H225z"/>
		<path class="st0" d="M235.1,91.6c-2.3,0-3.7-1.6-3.7-3.9c0-2.4,1.4-3.9,3.6-3.9c2.4,0,3.6,1.6,3.6,3.9
			C238.6,89.9,237.5,91.6,235.1,91.6z M235,84.9c-1.6,0-1.8,1.5-1.8,2.7c0,1.4,0.2,2.8,1.9,2.8c1.6,0,1.8-1.5,1.8-2.7
			C236.9,86.4,236.7,84.9,235,84.9z"/>
		<path class="st0" d="M247.7,85.1h-2.6v6.3h-1.6v-7.6h4.4L247.7,85.1z"/>
		<path class="st0" d="M255.5,91.6c-2.3,0-3.6-1.6-3.6-3.9c0-2.4,1.4-3.9,3.6-3.9c2.4,0,3.6,1.6,3.6,3.9
			C259,89.9,257.9,91.6,255.5,91.6z M255.4,84.9c-1.6,0-1.8,1.5-1.8,2.7c0,1.4,0.2,2.8,1.9,2.8c1.6,0,1.8-1.5,1.8-2.7
			C257.2,86.4,257,84.9,255.4,84.9z"/>
		<path class="st0" d="M275.2,90.3h0.8v3.2h-1.3v-2H270v2h-1.3v-3.2h0.6c0.5-0.9,0.8-1.8,1-2.8c0.3-1.2,0.3-2.4,0.3-2.7l0-1h4.6
			L275.2,90.3L275.2,90.3z M271.8,85.8c-0.1,0.8-0.2,1.6-0.4,2.4c-0.2,0.8-0.5,1.5-0.8,2.2h3v-5.2h-1.8L271.8,85.8z"/>
		<path class="st0" d="M280.4,91.4v-7.6h4.8l-0.2,1.3h-3v1.7h2.5v1.3H282v2h3.3v1.3H280.4z"/>
		<path class="st0" d="M294.5,85.2h-2.1v6.3h-1.6v-6.3h-2.1v-1.3h6L294.5,85.2z"/>
		<path class="st0" d="M298.9,91.4v-7.6h4.8l-0.2,1.3h-3v1.7h2.5v1.3h-2.5v2h3.3v1.3H298.9z"/>
		<path class="st0" d="M312.7,91.4v-3.8c0-0.6,0-1.2,0.1-1.8c-0.2,0.7-0.5,1.2-0.8,1.7l-2.1,4h-1.6v-7.6h1.5v3.7c0,0.6,0,1.1-0.1,2
			c0.2-0.6,0.5-1.2,0.9-1.9l2-3.8h1.6v7.6L312.7,91.4L312.7,91.4z M313.3,82.1c-0.1,0.4-0.4,0.7-0.6,0.9c-0.4,0.3-1,0.4-1.4,0.4
			c-0.5,0-1-0.1-1.4-0.4c-0.3-0.2-0.5-0.5-0.6-0.9l0.8-0.5c0.1,0.2,0.2,0.4,0.4,0.5c0.3,0.2,0.7,0.2,0.8,0.2c0.4,0,0.7-0.1,0.8-0.2
			c0.2-0.1,0.3-0.4,0.4-0.5L313.3,82.1z"/>
		<path class="st0" d="M321.3,86.2c-0.1,1.5-0.1,1.7-0.2,2.7c-0.1,0.7-0.2,1.4-0.7,1.9c-0.4,0.4-1.1,0.5-1.5,0.6l-0.4,0.1l-0.2-1
			l0.2-0.1c0.2-0.1,0.5-0.2,0.7-0.4c0.5-0.4,0.6-1.4,0.7-2.7c0-0.3,0.1-1.6,0.1-2.2l0-1.2h4.7v7.6h-1.6v-6.3h-1.7L321.3,86.2z"/>
		<path class="st0" d="M334.4,91.4v-3.8c0-0.6,0-1.2,0.1-1.8c-0.2,0.7-0.5,1.2-0.8,1.7l-2.1,4H330v-7.6h1.5v3.7c0,0.6,0,1.1-0.1,2
			c0.2-0.6,0.5-1.2,0.9-1.9l2-3.8h1.6v7.6L334.4,91.4L334.4,91.4z"/>
		<path class="st0" d="M345.4,91.4v-3.4h-2.6v3.4h-1.6v-7.6h1.6v2.9h2.6v-2.9h1.6v7.6H345.4z"/>
		<path class="st0" d="M356.5,85.1h-2.6v6.3h-1.6v-7.6h4.4L356.5,85.1z"/>
		<path class="st0" d="M365.3,91.4l-0.7-1.8h-2.6l-0.6,1.8h-1.6l2.8-7.6h1.7l2.7,7.6H365.3z M363.4,85.2l-0.9,3.2h1.9L363.4,85.2z"
			/>
	</g>
	<g>
		<g>
			<path class="st0" d="M37.9,62.1L26.4,27.4H15.5L3.7,62.1H0v5.4h15.3v-5.4h-3.2l1.2-3.7H28l1.1,3.7H26v5.4h15.6v-5.4H37.9z
				 M15.2,52.5l5.4-19.3h0.3l5.3,19.3H15.2z"/>
			<path class="st0" d="M69.7,62.1V25.8h-12v5.4h3.7V40c-2.4-1.4-5.7-1.8-7.6-1.8c-9.1,0-12.4,6.8-12.4,15.6
				c0,7.6,2.5,14.1,11.4,14.1c2.5,0,6-0.8,8.8-3.1c0.1,0,0.1,0.1,0.2,0.1v2.6h11.6v-5.4L69.7,62.1L69.7,62.1L69.7,62.1z M61.4,59.9
				c-1.3,1-4.2,2.2-5.9,2.2c-3.2,0-5.6-1.6-5.6-8.4c0-7.8,2.9-9.5,5.8-9.5c1.8,0,4.4,0.8,5.8,1.5V59.9z"/>
			<path class="st0" d="M151.9,38.2c-2.7,0-6.8,1.2-10.1,3.5l-0.2-0.1v-2.6h-11.8v5.4h3.7v23.2h8.4V46.8c2-1.1,4.6-2.1,6.5-2.1
				c3.7,0,4.1,2.1,4.1,5.1v17.7h8.4V48C160.9,42.7,159.5,38.2,151.9,38.2L151.9,38.2z"/>
			<path class="st0" d="M178.7,61.6c-5.2,0-6.9-3.2-6.9-8.4c0-5.4,2.5-8.5,7.1-8.5c0.6,0,1.3,0,2.1,0.1v3.4h5.3v-8.4
				c-2.9-1.4-6.5-1.6-8.9-1.6c-11.6,0-14.2,8.5-14.2,15.3c0,7.9,2.8,14.4,13.8,14.4c3.9,0,8-0.8,10.8-2.3l-1.6-5.6
				C183.7,61,181.3,61.6,178.7,61.6L178.7,61.6z"/>
			<path class="st0" d="M215.2,52.1c0-5.1-0.8-14-13.1-14c-11.3,0-14,8.8-14,15.1c0,7.8,2.7,14.7,14.4,14.7c3.9,0,8.3-0.8,12.1-2.8
				l-1.7-5.1c-3,1.1-6.1,1.8-9.2,1.8c-5.1,0-7.2-2.3-7.2-6.7h18.7L215.2,52.1L215.2,52.1z M196.6,49.9c0.3-3.4,1.7-6.6,5.8-6.6
				c3.9,0,5.1,2.8,5.1,6.6H196.6z"/>
			<path class="st0" d="M127.8,62.1V48.2c0-8.6-5.3-9.4-14.6-9.4H96.1C94.2,45,90.6,56,89.3,62H89c-0.7-2-2-7.8-6.8-23.1H71.6v5.4
				h3.7l8,23.2h11.4c1.6-4.6,5.4-15.7,8-23.2h8.3c6.5,0,9,0.5,9,5.1v0.7c-9.5,0.6-18.4,0.4-18.4,9.6c0,3.4,1.8,8.4,8.9,8.4
				c1.6,0,5.8-0.1,9.9-3.6c0,3,2.4,3.6,4.7,3.6c2.4,0,5.1-0.6,7-1.5v-4.5H127.8L127.8,62.1z M120,60.1c-1.9,1.6-4.1,2.6-5.9,2.6
				c-2.7,0-4-1.3-4-3.7c0-2.3,1.3-3.7,4.1-3.9l5.8-0.5L120,60.1L120,60.1z"/>
		</g>
		<g>
			<path class="st0" d="M302.4,43.5c-4.2-1-8-2-8-5.1c0-3.4,3-5.1,6.5-5.1c2.2,0,4.4,0.2,7.3,1.1v3.7h5.2v-8.5
				c-4.2-2.3-8.8-3-12.8-3c-10.1,0-15.4,4.9-15.4,12.2c0,8.3,7,9.9,14.9,11.9c3.9,1,6.6,2.1,6.6,5.4c0,3.9-3.2,5.3-7.9,5.3
				c-2.2,0-5-0.2-9.4-1.6v-3.4h-5.2V65c4.9,2.3,10.6,3.1,14.6,3.1c11.2,0,16.9-4.4,16.9-12C315.8,46.6,307.9,44.9,302.4,43.5
				L302.4,43.5z"/>
			<path class="st0" d="M363,62.1V48.2c0-7.4-3.8-9.4-11.7-9.4h-24.9v-8l-5.6,0.6c-0.4,1-1.6,6.3-2,7.3l-4.6,0.9v4.6h4.1v15.1
				c0,4.6,1.9,8.5,9.9,8.5c2.5,0,5.8-0.5,8.2-1.6l-1.1-5.4c-2,0.5-3.9,0.8-4.9,0.8c-3,0-3.9-1.4-3.9-4.4v-13h23.2
				c4.2,0,5.4,1.8,5.4,5.1v0.7c-9.2,0.6-18.4,0.4-18.4,9.6c0,3.4,1.8,8.4,8.9,8.4c1.6,0,5.9-0.1,9.9-3.6c0.1,0.1,0.1,0.1,0.1,0.1
				c0.3,2.9,2.1,3.4,4.6,3.4c2.5,0,5.1-0.6,7-1.5v-4.5L363,62.1L363,62.1z M355,60.1c-1.8,1.6-4.2,2.6-5.9,2.6
				c-2.7,0-3.9-1.3-3.9-3.7c0-2.3,1.3-3.7,4-3.9l5.8-0.5L355,60.1L355,60.1z"/>
			<path class="st0" d="M390.8,47.6c1.2-1.7,2.6-5.4,2.6-7.6c0-1.2-0.4-1.9-1.6-1.9c-3.2,0-7.7,2.7-10.9,5.8l-0.3-0.2
				c0.2-1.3,0.4-3.5,0.4-4.9h-12v5.4h3.7v17.8H369v5.4h15.8v-5.4h-3.7V47.6H390.8L390.8,47.6z"/>
		</g>
		<path class="st1" d="M325.3,15.7c-6.7-1.7-12.7-2.2-19.7-2.3c-10.7-0.2-27.5,2.2-40.1,5.9c-0.1-4.6,0-10.2,1.9-16.4
			c0.8-2.4-5.5-3.6-6.8-2.5c-9.2,7.3-17.1,16.8-21.9,27.8c-11.3,5.4-17.4,9.8-20,12.7c-2.4,2.7,0.3,6.3,3.1,6.4
			c4.7,0.2,8.8,0.7,12.9,1.4c-0.4,4-0.5,5.7-0.6,8.2c0,0.7,0,1.5,0.3,1.5c0.3,0,0.5-0.2,0.6-0.5c0.6-3.4,1.5-6.5,2-8.6
			c2.6,0.7,6,1.5,9.7,3c-6.2,6.1-15.9,12.8-22.7,15.1c-0.5,0.1-0.6,0.5,0.4,0.3c7.2-1.6,17.9-8.1,25.4-14.1
			c11.9,5.6,24.8,13.9,34.6,25.1c1.2,1.4,2.5,0.7,1.7-0.9c-7-13.1-13.1-24.7-17.4-41.4c18.2-16.2,25.1-22,42.7-21.7
			c3.4,0.1,9,0.6,13.8,1.3C326.1,16.2,325.8,15.9,325.3,15.7L325.3,15.7z M257.9,21.5c-6.1,1.8-9.5,2.9-14.7,4.9
			c4.2-7.2,9.4-12.9,15-18.5C257.7,13.1,257.6,17.3,257.9,21.5L257.9,21.5z M236.7,36.3c-0.2,1.2-0.8,4.3-1.2,6.6
			c-1.6-0.3-6.6-0.8-8.4-0.8C231.4,38.8,236.7,36.3,236.7,36.3z M258.6,26.8c1.2,5.9,2.1,8.5,3.2,12.1c-5,4.8-10.2,9.4-10.4,9.4
			c-4.3-2.3-8.5-3.5-13.3-4.7c0.6-2.7,1.6-6.9,2.5-9.3C241.6,33.8,250.3,29.4,258.6,26.8L258.6,26.8z M263.3,42
			c3.5,8,8.5,17.8,13.4,25.8l-0.2,0.2c-6.8-6.5-14-13.3-22.2-18L263.3,42z M265.9,24.3c0,0,7.3-2.9,16.4-4.5l0.2,0.3
			c-4.9,3.2-10.1,8.9-15,13.1C266.9,30.9,266.1,26.7,265.9,24.3z"/>
	</g>
</g>
</svg>
