<svg width="43" height="62" viewBox="0 0 43 62" fill="none" xmlns="http://www.w3.org/2000/svg">
<path d="M21.9927 0C10.3933 0 0.99292 9.40294 0.99292 21.0024C0.99292 29.8445 13.1992 50.2191 18.999 59.4018C19.649 60.4285 20.7808 61.0501 21.9948 61.0501C23.2094 61.0476 24.3388 60.4265 24.9868 59.3998C30.7885 50.2151 42.9929 29.8443 42.9929 21.0023C42.9928 9.40294 33.5925 0 21.9927 0ZM21.9927 33.8244C15.4328 33.8244 10.1148 28.5071 10.1148 21.9463C10.1148 15.3863 15.4327 10.0684 21.9927 10.0684C28.5528 10.0684 33.8707 15.3861 33.8707 21.9463C33.8707 28.5071 28.5529 33.8244 21.9927 33.8244Z" fill="#693490"/>
</svg>
