<svg width="16" height="15" viewBox="0 0 16 15" fill="none" xmlns="http://www.w3.org/2000/svg">
<path d="M10.7631 5.49567C10.5193 5.25161 10.1231 5.25161 9.87934 5.49567L7.19621 8.17848L6.07559 7.05817C5.83184 6.81411 5.43559 6.81411 5.19184 7.05817C4.94777 7.30223 4.94777 7.69786 5.19184 7.94192L6.75434 9.50442C6.87621 9.62661 7.03621 9.68754 7.19621 9.68754C7.35621 9.68754 7.51621 9.62661 7.63809 9.50442L10.7631 6.37942C11.0071 6.13536 11.0071 5.73973 10.7631 5.49567Z" fill="#693490"/>
<path d="M14.3838 6.875C14.0388 6.875 13.7588 7.155 13.7588 7.5C13.7588 10.9462 10.955 13.75 7.50879 13.75C4.06254 13.75 1.25879 10.9462 1.25879 7.5C1.25879 4.05375 4.06254 1.25 7.50879 1.25C9.1866 1.25 10.7616 1.90562 11.9441 3.09625C12.1869 3.34156 12.5829 3.34281 12.8279 3.09938C13.0729 2.85625 13.0741 2.46062 12.831 2.21563C11.4122 0.786875 9.52191 0 7.50879 0C3.37316 0 0.00878906 3.36437 0.00878906 7.5C0.00878906 11.6356 3.37316 15 7.50879 15C11.6444 15 15.0088 11.6356 15.0088 7.5C15.0088 7.155 14.7288 6.875 14.3838 6.875Z" fill="#693490"/>
</svg>
