<svg width="94" height="94" viewBox="0 0 94 94" fill="none" xmlns="http://www.w3.org/2000/svg">
<path d="M67.3941 34.4393C65.8666 32.9098 63.3834 32.9098 61.8559 34.4393L45.0417 51.2515L38.0191 44.2309C36.4916 42.7015 34.0084 42.7015 32.4809 44.2309C30.9515 45.7604 30.9515 48.2396 32.4809 49.7691L42.2726 59.5608C43.0363 60.3265 44.039 60.7083 45.0417 60.7083C46.0443 60.7083 47.047 60.3265 47.8108 59.5608L67.3941 39.9774C68.9236 38.448 68.9236 35.9687 67.3941 34.4393Z" fill="#693490"/>
<path d="M90.0833 43.0833C87.9213 43.0833 86.1667 44.838 86.1667 47C86.1667 68.5965 68.5965 86.1667 47 86.1667C25.4035 86.1667 7.83333 68.5965 7.83333 47C7.83333 25.4035 25.4035 7.83333 47 7.83333C57.5143 7.83333 67.3843 11.9419 74.7946 19.4032C76.3163 20.9405 78.7975 20.9483 80.3328 19.4228C81.8681 17.8992 81.876 15.4199 80.3524 13.8846C71.4615 4.93108 59.6156 0 47 0C21.0834 0 0 21.0834 0 47C0 72.9166 21.0834 94 47 94C72.9166 94 94 72.9166 94 47C94 44.838 92.2453 43.0833 90.0833 43.0833Z" fill="#693490"/>
</svg>
