<svg width="1448" height="846" viewBox="0 0 1448 846" fill="none" xmlns="http://www.w3.org/2000/svg">
<path d="M378.239 224.832C430.295 213.049 484.897 222.21 530.258 250.337C575.618 278.463 608.1 323.3 620.69 375.167C633.28 427.034 624.968 481.773 597.55 527.566C570.132 573.358 525.806 606.533 474.141 619.927C422.476 633.322 367.616 625.862 321.403 599.159C275.19 572.455 241.332 528.65 227.136 477.198C212.941 425.747 219.547 370.777 245.529 324.155C271.51 277.532 314.784 242.996 366.008 228.003" stroke="url(#paint0_linear)" stroke-width="2"/>
<path d="M1413.64 470.144C1436 494.24 1447.96 526.13 1446.92 558.929C1445.89 591.729 1431.94 622.807 1408.1 645.455C1384.26 668.104 1352.43 680.506 1319.49 679.984C1286.55 679.462 1255.13 666.059 1232.03 642.667C1208.92 619.275 1195.98 587.77 1195.99 554.955C1196 522.139 1208.97 490.644 1232.09 467.269C1255.21 443.893 1286.64 430.512 1319.58 430.014C1352.52 429.516 1384.34 441.941 1408.17 464.607" stroke="url(#paint1_linear)" stroke-width="2"/>
<path d="M489.384 131.048C566.064 148.445 632.828 195.299 675.261 261.497C717.694 327.694 732.393 407.924 716.184 484.865C699.975 561.806 654.158 629.287 588.625 672.739C523.093 716.191 443.101 732.128 365.919 717.111C288.737 702.093 220.557 657.325 176.097 592.471C131.638 527.617 114.465 447.881 128.288 370.475C142.11 293.069 185.819 224.204 249.977 178.747C314.135 133.289 393.595 114.886 471.205 127.51" stroke="url(#paint2_linear)"/>
<defs>
<linearGradient id="paint0_linear" x1="436.932" y1="594.36" x2="403.387" y2="181.546" gradientUnits="userSpaceOnUse">
<stop stop-color="#693490" stop-opacity="0"/>
<stop offset="1" stop-color="#693490"/>
</linearGradient>
<linearGradient id="paint1_linear" x1="1234.21" y1="614.994" x2="1444" y2="469.447" gradientUnits="userSpaceOnUse">
<stop stop-color="#693490" stop-opacity="0"/>
<stop offset="1" stop-color="#693490"/>
</linearGradient>
<linearGradient id="paint2_linear" x1="712.367" y1="563.707" x2="322.215" y2="103.377" gradientUnits="userSpaceOnUse">
<stop stop-color="#693490" stop-opacity="0"/>
<stop offset="1" stop-color="#693490"/>
</linearGradient>
</defs>
</svg>
