<svg width="570" height="1447" viewBox="0 0 570 1447" fill="none" xmlns="http://www.w3.org/2000/svg">
<mask id="mask0" mask-type="alpha" maskUnits="userSpaceOnUse" x="0" y="0" width="570" height="1447">
<rect width="570" height="1447" fill="#C4C4C4"/>
</mask>
<g mask="url(#mask0)">
<path d="M132.607 228.667C183.581 244.491 226.287 279.726 251.507 326.764C276.728 373.803 282.439 428.873 267.408 480.087C252.378 531.3 217.811 574.549 171.17 600.498C124.529 626.447 69.5545 633.014 18.114 618.781C-33.3265 604.549 -77.1071 570.658 -103.777 524.426C-130.447 478.194 -137.866 423.328 -124.435 371.672C-111.003 320.016 -77.7965 275.714 -31.9842 248.328C13.8281 220.943 68.5719 212.671 120.43 225.298" stroke="url(#paint0_linear)" stroke-width="2"/>
<path d="M275.754 203.02C333.463 256.427 367.854 330.386 371.504 408.931C375.153 487.476 347.768 564.306 295.26 622.835C242.752 681.363 169.333 716.895 90.8541 721.759C12.3751 726.624 -64.8687 700.43 -124.201 648.833C-183.534 597.237 -220.196 524.376 -226.272 445.981C-232.348 367.586 -207.351 289.946 -156.678 229.822C-106.005 169.698 -33.7196 131.913 44.5716 124.625C122.863 117.337 200.879 141.13 261.779 190.867" stroke="url(#paint1_linear)"/>
<path d="M502.65 1168.14C525.016 1192.24 536.971 1224.13 535.935 1256.93C534.9 1289.73 520.956 1320.81 497.115 1343.46C473.273 1366.1 441.446 1378.51 408.503 1377.98C375.561 1377.46 344.146 1364.06 321.039 1340.67C297.933 1317.27 284.988 1285.77 285 1252.95C285.012 1220.14 297.979 1188.64 321.103 1165.27C344.226 1141.89 375.651 1128.51 408.594 1128.01C441.537 1127.52 473.355 1139.94 497.18 1162.61" stroke="url(#paint2_linear)" stroke-width="2"/>
</g>
<defs>
<linearGradient id="paint0_linear" x1="-1.32661" y1="578.034" x2="176.029" y2="203.755" gradientUnits="userSpaceOnUse">
<stop stop-color="#693490" stop-opacity="0"/>
<stop offset="1" stop-color="#693490"/>
</linearGradient>
<linearGradient id="paint1_linear" x1="252.533" y1="689.206" x2="144.817" y2="95.4718" gradientUnits="userSpaceOnUse">
<stop stop-color="#693490" stop-opacity="0"/>
<stop offset="1" stop-color="#693490"/>
</linearGradient>
<linearGradient id="paint2_linear" x1="323.223" y1="1312.99" x2="533.01" y2="1167.45" gradientUnits="userSpaceOnUse">
<stop stop-color="#693490" stop-opacity="0"/>
<stop offset="1" stop-color="#693490"/>
</linearGradient>
</defs>
</svg>
