<svg width="824" height="1341" viewBox="0 0 824 1341" fill="none" xmlns="http://www.w3.org/2000/svg">
<path d="M301.847 323.766C392.894 362.707 464.977 435.89 502.536 527.518C540.094 619.145 540.115 721.867 502.594 813.51C465.073 905.152 393.019 978.364 301.988 1017.34C210.956 1056.32 108.248 1057.94 16.0341 1021.84C-76.1795 985.752 -150.502 914.844 -190.889 824.428C-231.277 734.012 -234.489 631.34 -199.834 538.576C-165.179 445.812 -95.4355 370.396 -5.65896 328.608C84.1176 286.82 186.726 282.012 280.017 315.222" stroke="url(#paint0_linear)" stroke-width="2"/>
<path d="M570.921 303.781C667.22 413.367 716.561 556.427 708.293 702.079C700.025 847.73 634.81 984.288 526.728 1082.27C418.646 1180.25 276.366 1231.8 130.606 1225.79C-15.1544 1219.77 -152.703 1156.67 -252.344 1050.12C-351.985 943.563 -405.726 802.097 -401.965 656.259C-398.204 510.422 -337.243 371.913 -232.241 270.636C-127.24 169.358 13.3774 113.435 159.254 114.941C305.131 116.447 444.564 175.26 547.452 278.684" stroke="url(#paint1_linear)"/>
<defs>
<linearGradient id="paint0_linear" x1="153.016" y1="941.933" x2="153.016" y2="245.933" gradientUnits="userSpaceOnUse">
<stop offset="0.267532" stop-color="#693490" stop-opacity="0"/>
<stop offset="1" stop-color="#693490"/>
</linearGradient>
<linearGradient id="paint1_linear" x1="185.018" y1="1391.93" x2="185.017" y2="93.9332" gradientUnits="userSpaceOnUse">
<stop offset="0.387811" stop-color="#693490" stop-opacity="0"/>
<stop offset="1" stop-color="#693490"/>
</linearGradient>
</defs>
</svg>
